%TF.GenerationSoftware,KiCad,Pcbnew,8.0.2*%
%TF.CreationDate,2024-10-28T19:38:45-07:00*%
%TF.ProjectId,UGC_OpenMain,5547435f-4f70-4656-9e4d-61696e2e6b69,rev?*%
%TF.SameCoordinates,Original*%
%TF.FileFunction,Soldermask,Top*%
%TF.FilePolarity,Negative*%
%FSLAX46Y46*%
G04 Gerber Fmt 4.6, Leading zero omitted, Abs format (unit mm)*
G04 Created by KiCad (PCBNEW 8.0.2) date 2024-10-28 19:38:45*
%MOMM*%
%LPD*%
G01*
G04 APERTURE LIST*
G04 Aperture macros list*
%AMRoundRect*
0 Rectangle with rounded corners*
0 $1 Rounding radius*
0 $2 $3 $4 $5 $6 $7 $8 $9 X,Y pos of 4 corners*
0 Add a 4 corners polygon primitive as box body*
4,1,4,$2,$3,$4,$5,$6,$7,$8,$9,$2,$3,0*
0 Add four circle primitives for the rounded corners*
1,1,$1+$1,$2,$3*
1,1,$1+$1,$4,$5*
1,1,$1+$1,$6,$7*
1,1,$1+$1,$8,$9*
0 Add four rect primitives between the rounded corners*
20,1,$1+$1,$2,$3,$4,$5,0*
20,1,$1+$1,$4,$5,$6,$7,0*
20,1,$1+$1,$6,$7,$8,$9,0*
20,1,$1+$1,$8,$9,$2,$3,0*%
%AMHorizOval*
0 Thick line with rounded ends*
0 $1 width*
0 $2 $3 position (X,Y) of the first rounded end (center of the circle)*
0 $4 $5 position (X,Y) of the second rounded end (center of the circle)*
0 Add line between two ends*
20,1,$1,$2,$3,$4,$5,0*
0 Add two circle primitives to create the rounded ends*
1,1,$1,$2,$3*
1,1,$1,$4,$5*%
%AMFreePoly0*
4,1,493,-1.315191,7.101891,-0.931427,7.061556,-0.930135,7.061351,-0.552690,6.981123,-0.551426,6.980784,-0.184435,6.861541,-0.183214,6.861072,0.169303,6.704121,0.170469,6.703527,0.504649,6.510588,0.505746,6.509876,0.817927,6.283063,0.818944,6.282239,1.105707,6.024037,1.106632,6.023112,1.364835,5.736349,1.365659,5.735332,1.592472,5.423150,1.593184,5.422053,1.786123,5.087873,
1.786717,5.086707,1.943667,4.734190,1.944136,4.732969,2.063379,4.365978,2.063718,4.364714,2.143946,3.987269,2.144151,3.985977,2.184486,3.602213,2.184553,3.601064,2.186991,3.408125,2.186991,3.407817,2.184634,3.211861,2.184574,3.210781,2.146005,2.820771,2.145824,2.819553,2.069060,2.435233,2.068759,2.434038,1.954545,2.059137,1.954129,2.057978,1.803574,1.696138,
1.803045,1.695026,1.617611,1.349758,1.616976,1.348703,1.398464,1.023361,1.397727,1.022373,1.148257,0.720115,1.147428,0.719205,0.869423,0.442965,0.868507,0.442141,0.564666,0.194602,0.563674,0.193872,0.236947,-0.022564,0.235888,-0.023193,-0.110553,-0.206424,-0.111669,-0.206945,-0.474461,-0.355192,-0.475622,-0.355601,-0.851243,-0.467424,-0.852440,-0.467717,-1.237241,-0.542032,
-1.238460,-0.542206,-1.628708,-0.578291,-1.629788,-0.578344,-1.825755,-0.579452,-1.827006,-0.579396,-1.846471,-0.577551,-1.854022,-0.574053,-1.881899,-0.546847,-1.885662,-0.538284,-1.886856,-0.499349,-1.883625,-0.490572,-1.857469,-0.461708,-1.850146,-0.457753,-1.830830,-0.454719,-1.829888,-0.454608,-1.636399,-0.439110,-1.253746,-0.374256,-0.879585,-0.271467,-0.517572,-0.131760,-0.171349,0.043463,
0.155595,0.252435,0.460004,0.493076,0.738803,0.762951,0.989215,1.059378,1.208710,1.379358,1.395098,1.719701,1.546501,2.076973,1.661399,2.447595,1.738649,2.827870,1.777474,3.214023,1.779848,3.407967,1.777523,3.586097,1.738978,3.940517,1.662356,4.288610,1.548550,4.626378,1.398887,4.949867,1.215132,5.255270,0.999431,5.539021,0.754317,5.797784,0.482664,6.028528,
0.187653,6.228551,-0.127255,6.395505,-0.458368,6.527433,-0.801800,6.622786,-1.153525,6.680449,-1.509436,6.699746,-1.865346,6.680449,-2.217071,6.622786,-2.560503,6.527433,-2.891616,6.395505,-3.206525,6.228551,-3.501536,6.028528,-3.773189,5.797784,-4.018303,5.539021,-4.234004,5.255270,-4.417759,4.949867,-4.567422,4.626378,-4.681228,4.288610,-4.757850,3.940517,-4.796395,3.586097,
-4.798720,3.407984,-4.796351,3.244448,-4.756899,2.919528,-4.678591,2.601824,-4.562557,2.295864,-4.410494,2.006134,-4.224613,1.736839,-4.007631,1.491915,-3.762707,1.274932,-3.493412,1.089051,-3.203682,0.936989,-2.897722,0.820954,-2.580018,0.742646,-2.255186,0.703206,-1.927974,0.703206,-1.603141,0.742646,-1.285437,0.820954,-0.979477,0.936989,-0.689747,1.089051,-0.420452,1.274932,
-0.175528,1.491915,0.041453,1.736839,0.227334,2.006134,0.379397,2.295864,0.495431,2.601824,0.573739,2.919528,0.613191,3.244448,0.615561,3.407967,0.613086,3.553039,0.573531,3.840819,0.495194,4.120410,0.379510,4.386740,0.228641,4.634835,0.045392,4.860078,-0.166817,5.058268,-0.404033,5.225713,-0.661856,5.359307,-0.935448,5.456542,-1.219748,5.515619,-1.509437,5.535435,
-1.799125,5.515619,-2.083425,5.456542,-2.357017,5.359307,-2.614840,5.225713,-2.852056,5.058268,-3.064266,4.860078,-3.247515,4.634835,-3.398384,4.386740,-3.514068,4.120410,-3.592405,3.840819,-3.631960,3.553039,-3.634434,3.407999,-3.632056,3.286847,-3.594107,3.047242,-3.519179,2.816639,-3.409096,2.600588,-3.266576,2.404426,-3.095119,2.232970,-2.898957,2.090450,-2.682906,1.980367,
-2.452303,1.905439,-2.212817,1.867509,-1.970341,1.867509,-1.730854,1.905439,-1.500251,1.980367,-1.284200,2.090450,-1.088038,2.232970,-0.916581,2.404426,-0.774061,2.600588,-0.663978,2.816639,-0.589050,3.047242,-0.551101,3.286847,-0.548725,3.407929,-0.551352,3.508501,-0.593258,3.705653,-0.675169,3.889628,-0.793545,4.052560,-0.943206,4.187314,-1.117615,4.288009,-1.309146,4.350241,
-1.509436,4.371293,-1.709725,4.350241,-1.901256,4.288009,-2.075665,4.187314,-2.225326,4.052560,-2.343702,3.889628,-2.425613,3.705653,-2.467518,3.508501,-2.470144,3.408036,-2.467822,3.348627,-2.430922,3.235064,-2.360883,3.138663,-2.264482,3.068624,-2.151159,3.031803,-2.032001,3.031803,-1.918677,3.068624,-1.822276,3.138663,-1.752237,3.235064,-1.715337,3.348627,-1.712998,3.408455,
-1.712989,3.408661,-1.710595,3.451725,-1.709376,3.456455,-1.672006,3.534054,-1.668538,3.538403,-1.601200,3.592104,-1.596187,3.594518,-1.512218,3.613683,-1.506656,3.613683,-1.422687,3.594518,-1.417674,3.592104,-1.350336,3.538403,-1.346868,3.534054,-1.309498,3.456455,-1.308279,3.451725,-1.305884,3.408661,-1.305870,3.407617,-1.308300,3.320771,-1.308608,3.318339,-1.347259,3.149001,
-1.348184,3.146359,-1.423546,2.989867,-1.425035,2.987497,-1.533331,2.851699,-1.535310,2.849720,-1.671109,2.741424,-1.673479,2.739935,-1.829971,2.664573,-1.832614,2.663648,-2.001952,2.624998,-2.004733,2.624685,-2.178425,2.624685,-2.181206,2.624998,-2.350544,2.663648,-2.353187,2.664573,-2.509679,2.739935,-2.512049,2.741424,-2.647848,2.849720,-2.649827,2.851699,-2.758123,2.987497,
-2.759612,2.989867,-2.834974,3.146359,-2.835899,3.149001,-2.874550,3.318339,-2.874858,3.320771,-2.877289,3.407617,-2.877291,3.408239,-2.874711,3.526592,-2.874524,3.528491,-2.833421,3.761600,-2.832857,3.763704,-2.751899,3.986135,-2.750978,3.988110,-2.632625,4.193103,-2.631376,4.194888,-2.479224,4.376214,-2.477683,4.377755,-2.296357,4.529907,-2.294572,4.531156,-2.089579,4.649509,
-2.087604,4.650430,-1.865173,4.731388,-1.863069,4.731952,-1.629960,4.773055,-1.627789,4.773245,-1.391083,4.773245,-1.388912,4.773055,-1.155803,4.731952,-1.153699,4.731388,-0.931268,4.650430,-0.929293,4.649509,-0.724300,4.531156,-0.722515,4.529907,-0.541189,4.377755,-0.539648,4.376214,-0.387496,4.194888,-0.386247,4.193103,-0.267894,3.988110,-0.266973,3.986135,-0.186015,3.763704,
-0.185451,3.761600,-0.144348,3.528491,-0.144161,3.526592,-0.141582,3.408239,-0.141581,3.407744,-0.144049,3.269348,-0.144174,3.267792,-0.183566,2.993817,-0.183945,2.992074,-0.261926,2.726493,-0.262550,2.724822,-0.377534,2.473043,-0.378388,2.471478,-0.528033,2.238626,-0.529102,2.237198,-0.710363,2.028012,-0.711624,2.026751,-0.920810,1.845490,-0.922238,1.844421,-1.155090,1.694776,
-1.156655,1.693922,-1.408434,1.578938,-1.410105,1.578314,-1.675686,1.500333,-1.677429,1.499954,-1.951404,1.460562,-1.953183,1.460435,-2.229975,1.460435,-2.231754,1.460562,-2.505729,1.499954,-2.507472,1.500333,-2.773053,1.578314,-2.774724,1.578938,-3.026503,1.693922,-3.028068,1.694776,-3.260920,1.844421,-3.262348,1.845490,-3.471534,2.026751,-3.472795,2.028012,-3.654056,2.237198,
-3.655125,2.238626,-3.804770,2.471478,-3.805624,2.473043,-3.920608,2.724822,-3.921232,2.726493,-3.999213,2.992074,-3.999592,2.993817,-4.038984,3.267792,-4.039109,3.269348,-4.041577,3.407744,-4.041578,3.408155,-4.039196,3.566528,-4.039098,3.567907,-3.999399,3.882154,-3.999105,3.883696,-3.920334,4.190490,-3.919849,4.191983,-3.803248,4.486486,-3.802580,4.487906,-3.649986,4.765472,
-3.649145,4.766797,-3.462967,5.023049,-3.461966,5.024259,-3.245139,5.255156,-3.243995,5.256230,-2.999939,5.458131,-2.998669,5.459054,-2.731232,5.628775,-2.729856,5.629531,-2.443257,5.764395,-2.441798,5.764973,-2.140555,5.862852,-2.139034,5.863243,-1.827899,5.922595,-1.826342,5.922791,-1.510222,5.942680,-1.508652,5.942680,-1.192532,5.922791,-1.190975,5.922595,-0.879840,5.863243,
-0.878319,5.862852,-0.577076,5.764973,-0.575617,5.764395,-0.289018,5.629531,-0.287642,5.628775,-0.020205,5.459054,-0.018935,5.458131,0.225121,5.256230,0.226265,5.255156,0.443092,5.024259,0.444093,5.023049,0.630271,4.766797,0.631112,4.765472,0.783706,4.487906,0.784374,4.486486,0.900975,4.191983,0.901460,4.190490,0.980231,3.883696,0.980525,3.882154,1.020224,3.567907,
1.020322,3.566528,1.022705,3.408155,1.022705,3.407798,1.020354,3.233737,1.020276,3.232506,0.981299,2.886574,0.981065,2.885192,0.903601,2.545799,0.903213,2.544453,0.788236,2.215867,0.787699,2.214571,0.636655,1.900925,0.635977,1.899699,0.450765,1.604936,0.449954,1.603792,0.232904,1.331620,0.231970,1.330575,-0.014189,1.084417,-0.015234,1.083483,-0.287406,0.866433,
-0.288550,0.865622,-0.583312,0.680410,-0.584538,0.679732,-0.898185,0.528688,-0.899481,0.528151,-1.228066,0.413174,-1.229412,0.412786,-1.568805,0.335321,-1.570187,0.335087,-1.916119,0.296110,-1.917519,0.296031,-2.265641,0.296031,-2.267041,0.296110,-2.612973,0.335087,-2.614355,0.335321,-2.953748,0.412786,-2.955094,0.413174,-3.283679,0.528151,-3.284975,0.528688,-3.598622,0.679732,
-3.599848,0.680410,-3.894610,0.865622,-3.895754,0.866433,-4.167926,1.083483,-4.168971,1.084417,-4.415130,1.330575,-4.416064,1.331620,-4.633114,1.603792,-4.633925,1.604936,-4.819137,1.899699,-4.819815,1.900925,-4.970859,2.214571,-4.971396,2.215867,-5.086373,2.544453,-5.086761,2.545799,-5.164225,2.885192,-5.164459,2.886574,-5.203436,3.232506,-5.203514,3.233737,-5.205864,3.407798,
-5.205864,3.408125,-5.203427,3.601064,-5.203360,3.602213,-5.163025,3.985977,-5.162820,3.987269,-5.082592,4.364714,-5.082253,4.365978,-4.963010,4.732969,-4.962541,4.734190,-4.805591,5.086707,-4.804997,5.087873,-4.612058,5.422053,-4.611346,5.423150,-4.384533,5.735332,-4.383709,5.736349,-4.125506,6.023112,-4.124581,6.024037,-3.837818,6.282239,-3.836801,6.283063,-3.524620,6.509876,
-3.523523,6.510588,-3.189343,6.703527,-3.188177,6.704121,-2.835660,6.861072,-2.834439,6.861541,-2.467448,6.980784,-2.466184,6.981123,-2.088739,7.061351,-2.087447,7.061556,-1.703683,7.101891,-1.702376,7.101959,-1.316498,7.101959,-1.315191,7.101891,-1.315191,7.101891,$1*%
%AMFreePoly1*
4,1,493,1.979705,0.664447,1.999168,0.662594,2.006714,0.659095,2.034586,0.631890,2.038349,0.623329,2.039544,0.584399,2.036313,0.575621,2.010160,0.546760,2.002838,0.542806,1.983525,0.539771,1.982582,0.539659,1.789093,0.524161,1.406440,0.459306,1.032280,0.356518,0.670266,0.216810,0.324043,0.041587,-0.002900,-0.167384,-0.307310,-0.408026,-0.586108,-0.677901,-0.836520,-0.974327,
-1.056016,-1.294307,-1.242404,-1.634651,-1.393806,-1.991922,-1.508705,-2.362544,-1.585955,-2.742819,-1.624780,-3.128972,-1.627154,-3.322905,-1.624829,-3.501046,-1.586284,-3.855466,-1.509662,-4.203559,-1.395856,-4.541327,-1.246193,-4.864816,-1.062438,-5.170219,-0.846737,-5.453970,-0.601623,-5.712733,-0.329970,-5.943477,-0.034959,-6.143500,0.279949,-6.310454,0.611062,-6.442382,0.954494,-6.537735,
1.306219,-6.595398,1.662130,-6.614695,2.018040,-6.595398,2.369765,-6.537735,2.713197,-6.442382,3.044310,-6.310454,3.359219,-6.143500,3.654230,-5.943477,3.925883,-5.712733,4.170997,-5.453970,4.386698,-5.170219,4.570453,-4.864816,4.720116,-4.541327,4.833922,-4.203559,4.910544,-3.855466,4.949089,-3.501046,4.951414,-3.322933,4.949045,-3.159397,4.909593,-2.834477,4.831285,-2.516773,
4.715251,-2.210813,4.563188,-1.921083,4.377307,-1.651788,4.160325,-1.406864,3.915401,-1.189881,3.646106,-1.004000,3.356376,-0.851938,3.050416,-0.735903,2.732712,-0.657595,2.407880,-0.618155,2.080668,-0.618155,1.755835,-0.657595,1.438131,-0.735903,1.132171,-0.851938,0.842441,-1.004000,0.573146,-1.189881,0.328222,-1.406864,0.111240,-1.651788,-0.074640,-1.921083,-0.226703,-2.210813,
-0.342737,-2.516773,-0.421045,-2.834477,-0.460497,-3.159397,-0.462867,-3.322915,-0.460392,-3.467988,-0.420837,-3.755768,-0.342500,-4.035359,-0.226816,-4.301689,-0.075947,-4.549784,0.107301,-4.775027,0.319511,-4.973217,0.556727,-5.140662,0.814550,-5.274256,1.088142,-5.371491,1.372442,-5.430568,1.662131,-5.450384,1.951819,-5.430568,2.236119,-5.371491,2.509711,-5.274256,2.767534,-5.140662,
3.004750,-4.973217,3.216960,-4.775027,3.400209,-4.549784,3.551078,-4.301689,3.666762,-4.035359,3.745099,-3.755768,3.784654,-3.467988,3.787128,-3.322948,3.784750,-3.201796,3.746801,-2.962191,3.671873,-2.731587,3.561790,-2.515537,3.419270,-2.319375,3.247813,-2.147918,3.051651,-2.005398,2.835601,-1.895315,2.604997,-1.820387,2.365511,-1.782457,2.123035,-1.782457,1.883548,-1.820387,
1.652944,-1.895315,1.436894,-2.005398,1.240732,-2.147918,1.069275,-2.319375,0.926755,-2.515537,0.816672,-2.731587,0.741744,-2.962191,0.703795,-3.201796,0.701419,-3.322878,0.704046,-3.423450,0.745952,-3.620602,0.827863,-3.804577,0.946239,-3.967509,1.095900,-4.102263,1.270309,-4.202958,1.461840,-4.265190,1.662130,-4.286242,1.862419,-4.265190,2.053950,-4.202958,2.228359,-4.102263,
2.378020,-3.967509,2.496396,-3.804577,2.578307,-3.620602,2.620212,-3.423450,2.622838,-3.322985,2.620516,-3.263576,2.583616,-3.150013,2.513577,-3.053612,2.417176,-2.983573,2.303853,-2.946752,2.184695,-2.946752,2.071371,-2.983573,1.974970,-3.053612,1.904931,-3.150013,1.868031,-3.263576,1.865692,-3.323404,1.865683,-3.323610,1.863287,-3.366674,1.862068,-3.371404,1.824698,-3.449003,
1.821230,-3.453352,1.753893,-3.507052,1.748880,-3.509466,1.664911,-3.528631,1.659349,-3.528631,1.575380,-3.509466,1.570367,-3.507052,1.503030,-3.453352,1.499562,-3.449003,1.462192,-3.371404,1.460973,-3.366674,1.458578,-3.323610,1.458564,-3.322566,1.460994,-3.235720,1.461302,-3.233288,1.499953,-3.063950,1.500878,-3.061308,1.576240,-2.904816,1.577729,-2.902446,1.686025,-2.766648,
1.688004,-2.764669,1.823803,-2.656373,1.826173,-2.654884,1.982665,-2.579522,1.985308,-2.578597,2.154646,-2.539947,2.157427,-2.539634,2.331119,-2.539634,2.333900,-2.539947,2.503238,-2.578597,2.505881,-2.579522,2.662373,-2.654884,2.664743,-2.656373,2.800542,-2.764669,2.802521,-2.766648,2.910817,-2.902446,2.912306,-2.904816,2.987668,-3.061308,2.988593,-3.063950,3.027244,-3.233288,
3.027552,-3.235720,3.029983,-3.322566,3.029985,-3.323188,3.027405,-3.441541,3.027218,-3.443440,2.986115,-3.676549,2.985551,-3.678653,2.904593,-3.901084,2.903672,-3.903059,2.785319,-4.108052,2.784070,-4.109837,2.631918,-4.291163,2.630377,-4.292704,2.449051,-4.444856,2.447266,-4.446105,2.242273,-4.564458,2.240298,-4.565379,2.017867,-4.646337,2.015763,-4.646901,1.782654,-4.688004,
1.780483,-4.688194,1.543777,-4.688194,1.541606,-4.688004,1.308497,-4.646901,1.306393,-4.646337,1.083962,-4.565379,1.081987,-4.564458,0.876994,-4.446105,0.875209,-4.444856,0.693883,-4.292704,0.692342,-4.291163,0.540190,-4.109837,0.538941,-4.108052,0.420588,-3.903059,0.419667,-3.901084,0.338709,-3.678653,0.338145,-3.676549,0.297042,-3.443440,0.296855,-3.441541,0.294276,-3.323188,
0.294275,-3.322693,0.296743,-3.184297,0.296868,-3.182741,0.336260,-2.908766,0.336639,-2.907023,0.414620,-2.641442,0.415244,-2.639771,0.530228,-2.387992,0.531082,-2.386427,0.680727,-2.153575,0.681796,-2.152147,0.863057,-1.942961,0.864318,-1.941700,1.073504,-1.760439,1.074932,-1.759370,1.307784,-1.609725,1.309349,-1.608871,1.561128,-1.493887,1.562799,-1.493263,1.828380,-1.415282,
1.830123,-1.414903,2.104098,-1.375511,2.105877,-1.375384,2.382669,-1.375384,2.384448,-1.375511,2.658423,-1.414903,2.660166,-1.415282,2.925747,-1.493263,2.927418,-1.493887,3.179197,-1.608871,3.180762,-1.609725,3.413614,-1.759370,3.415042,-1.760439,3.624228,-1.941700,3.625489,-1.942961,3.806750,-2.152147,3.807819,-2.153575,3.957464,-2.386427,3.958318,-2.387992,4.073302,-2.639771,
4.073926,-2.641442,4.151907,-2.907023,4.152286,-2.908766,4.191678,-3.182741,4.191803,-3.184297,4.194271,-3.322693,4.194272,-3.323104,4.191890,-3.481477,4.191792,-3.482856,4.152093,-3.797103,4.151799,-3.798645,4.073028,-4.105439,4.072543,-4.106932,3.955942,-4.401435,3.955274,-4.402855,3.802680,-4.680421,3.801839,-4.681746,3.615661,-4.937998,3.614660,-4.939208,3.397833,-5.170105,
3.396689,-5.171179,3.152633,-5.373080,3.151363,-5.374003,2.883926,-5.543724,2.882550,-5.544480,2.595951,-5.679344,2.594492,-5.679922,2.293249,-5.777801,2.291728,-5.778192,1.980593,-5.837544,1.979036,-5.837740,1.662916,-5.857629,1.661346,-5.857629,1.345226,-5.837740,1.343669,-5.837544,1.032534,-5.778192,1.031013,-5.777801,0.729770,-5.679922,0.728311,-5.679344,0.441712,-5.544480,
0.440336,-5.543724,0.172899,-5.374003,0.171629,-5.373080,-0.072427,-5.171179,-0.073571,-5.170105,-0.290398,-4.939208,-0.291399,-4.937998,-0.477577,-4.681746,-0.478418,-4.680421,-0.631012,-4.402855,-0.631680,-4.401435,-0.748281,-4.106932,-0.748766,-4.105439,-0.827537,-3.798645,-0.827831,-3.797103,-0.867530,-3.482856,-0.867628,-3.481477,-0.870011,-3.323104,-0.870011,-3.322747,-0.867660,-3.148686,
-0.867582,-3.147455,-0.828605,-2.801523,-0.828371,-2.800141,-0.750907,-2.460748,-0.750519,-2.459402,-0.635542,-2.130816,-0.635005,-2.129520,-0.483961,-1.815874,-0.483283,-1.814648,-0.298071,-1.519885,-0.297260,-1.518741,-0.080210,-1.246569,-0.079276,-1.245524,0.166883,-0.999366,0.167928,-0.998432,0.440100,-0.781382,0.441244,-0.780571,0.736006,-0.595359,0.737232,-0.594681,1.050879,-0.443637,
1.052175,-0.443100,1.380760,-0.328123,1.382106,-0.327735,1.721499,-0.250270,1.722881,-0.250036,2.068813,-0.211059,2.070213,-0.210980,2.418335,-0.210980,2.419735,-0.211059,2.765667,-0.250036,2.767049,-0.250270,3.106442,-0.327735,3.107788,-0.328123,3.436373,-0.443100,3.437669,-0.443637,3.751316,-0.594681,3.752542,-0.595359,4.047304,-0.780571,4.048448,-0.781382,4.320620,-0.998432,
4.321665,-0.999366,4.567824,-1.245524,4.568758,-1.246569,4.785808,-1.518741,4.786619,-1.519885,4.971831,-1.814648,4.972509,-1.815874,5.123553,-2.129520,5.124090,-2.130816,5.239067,-2.459402,5.239455,-2.460748,5.316919,-2.800141,5.317153,-2.801523,5.356130,-3.147455,5.356208,-3.148686,5.358558,-3.322747,5.358558,-3.323074,5.356121,-3.516013,5.356054,-3.517162,5.315719,-3.900926,
5.315514,-3.902218,5.235286,-4.279663,5.234947,-4.280927,5.115704,-4.647918,5.115235,-4.649139,4.958285,-5.001656,4.957691,-5.002822,4.764752,-5.337002,4.764040,-5.338099,4.537227,-5.650281,4.536403,-5.651298,4.278200,-5.938061,4.277275,-5.938986,3.990512,-6.197188,3.989495,-6.198012,3.677314,-6.424825,3.676217,-6.425537,3.342037,-6.618476,3.340871,-6.619070,2.988354,-6.776021,
2.987133,-6.776490,2.620142,-6.895733,2.618878,-6.896072,2.241433,-6.976300,2.240141,-6.976505,1.856377,-7.016840,1.855070,-7.016908,1.469192,-7.016908,1.467885,-7.016840,1.084121,-6.976505,1.082829,-6.976300,0.705384,-6.896072,0.704120,-6.895733,0.337129,-6.776490,0.335908,-6.776021,-0.016609,-6.619070,-0.017775,-6.618476,-0.351955,-6.425537,-0.353052,-6.424825,-0.665233,-6.198012,
-0.666250,-6.197188,-0.953013,-5.938986,-0.953938,-5.938061,-1.212141,-5.651298,-1.212965,-5.650281,-1.439778,-5.338099,-1.440490,-5.337002,-1.633429,-5.002822,-1.634023,-5.001656,-1.790973,-4.649139,-1.791442,-4.647918,-1.910685,-4.280927,-1.911024,-4.279663,-1.991252,-3.902218,-1.991457,-3.900926,-2.031792,-3.517162,-2.031859,-3.516013,-2.034297,-3.323074,-2.034297,-3.322766,-2.031940,-3.126810,
-2.031880,-3.125730,-1.993311,-2.735720,-1.993130,-2.734502,-1.916366,-2.350182,-1.916065,-2.348987,-1.801851,-1.974086,-1.801435,-1.972927,-1.650880,-1.611087,-1.650351,-1.609975,-1.464917,-1.264707,-1.464282,-1.263652,-1.245770,-0.938310,-1.245033,-0.937322,-0.995563,-0.635064,-0.994734,-0.634154,-0.716729,-0.357914,-0.715813,-0.357090,-0.411972,-0.109551,-0.410980,-0.108821,-0.084253,0.107615,
-0.083194,0.108244,0.263247,0.291475,0.264363,0.291996,0.627155,0.440243,0.628316,0.440652,1.003937,0.552475,1.005134,0.552768,1.389935,0.627083,1.391154,0.627257,1.781402,0.663342,1.782482,0.663395,1.978449,0.664503,1.979705,0.664447,1.979705,0.664447,$1*%
G04 Aperture macros list end*
%ADD10C,0.250000*%
%ADD11C,0.025000*%
%ADD12C,4.012500*%
%ADD13C,3.150000*%
%ADD14C,0.010000*%
%ADD15RoundRect,0.135000X0.135000X0.185000X-0.135000X0.185000X-0.135000X-0.185000X0.135000X-0.185000X0*%
%ADD16RoundRect,0.250000X0.475000X-0.250000X0.475000X0.250000X-0.475000X0.250000X-0.475000X-0.250000X0*%
%ADD17RoundRect,0.135000X0.185000X-0.135000X0.185000X0.135000X-0.185000X0.135000X-0.185000X-0.135000X0*%
%ADD18RoundRect,0.135000X-0.135000X-0.185000X0.135000X-0.185000X0.135000X0.185000X-0.135000X0.185000X0*%
%ADD19RoundRect,0.140000X0.140000X0.170000X-0.140000X0.170000X-0.140000X-0.170000X0.140000X-0.170000X0*%
%ADD20RoundRect,0.140000X-0.140000X-0.170000X0.140000X-0.170000X0.140000X0.170000X-0.140000X0.170000X0*%
%ADD21O,1.350000X1.350000*%
%ADD22R,1.350000X1.350000*%
%ADD23RoundRect,0.250000X0.375000X0.850000X-0.375000X0.850000X-0.375000X-0.850000X0.375000X-0.850000X0*%
%ADD24RoundRect,0.100000X-0.130000X-0.100000X0.130000X-0.100000X0.130000X0.100000X-0.130000X0.100000X0*%
%ADD25FreePoly0,180.000000*%
%ADD26FreePoly1,180.000000*%
%ADD27RoundRect,0.140000X0.170000X-0.140000X0.170000X0.140000X-0.170000X0.140000X-0.170000X-0.140000X0*%
%ADD28RoundRect,0.150000X0.150000X0.200000X-0.150000X0.200000X-0.150000X-0.200000X0.150000X-0.200000X0*%
%ADD29RoundRect,0.150000X0.587500X0.150000X-0.587500X0.150000X-0.587500X-0.150000X0.587500X-0.150000X0*%
%ADD30RoundRect,0.250000X-0.450000X-0.425000X0.450000X-0.425000X0.450000X0.425000X-0.450000X0.425000X0*%
%ADD31RoundRect,0.135000X-0.185000X0.135000X-0.185000X-0.135000X0.185000X-0.135000X0.185000X0.135000X0*%
%ADD32C,2.000000*%
%ADD33C,1.250000*%
%ADD34C,2.450000*%
%ADD35C,1.600000*%
%ADD36RoundRect,0.140000X-0.170000X0.140000X-0.170000X-0.140000X0.170000X-0.140000X0.170000X0.140000X0*%
%ADD37RoundRect,0.250000X-0.475000X0.250000X-0.475000X-0.250000X0.475000X-0.250000X0.475000X0.250000X0*%
%ADD38HorizOval,1.700000X0.259808X0.150000X-0.259808X-0.150000X0*%
%ADD39HorizOval,2.250000X-0.250000X0.433013X0.250000X-0.433013X0*%
%ADD40RoundRect,0.150000X-0.200000X0.150000X-0.200000X-0.150000X0.200000X-0.150000X0.200000X0.150000X0*%
%ADD41HorizOval,1.700000X0.259808X-0.150000X-0.259808X0.150000X0*%
%ADD42HorizOval,2.250000X-0.250000X-0.433013X0.250000X0.433013X0*%
%ADD43RoundRect,0.150000X-0.150000X-0.200000X0.150000X-0.200000X0.150000X0.200000X-0.150000X0.200000X0*%
%ADD44R,0.750000X1.000000*%
%ADD45RoundRect,0.150000X-0.150000X0.587500X-0.150000X-0.587500X0.150000X-0.587500X0.150000X0.587500X0*%
%ADD46C,1.500000*%
%ADD47RoundRect,0.100000X-0.225000X-0.100000X0.225000X-0.100000X0.225000X0.100000X-0.225000X0.100000X0*%
%ADD48R,3.200000X3.200000*%
%ADD49RoundRect,0.050000X0.387500X-0.050000X0.387500X0.050000X-0.387500X0.050000X-0.387500X-0.050000X0*%
%ADD50RoundRect,0.050000X0.050000X-0.387500X0.050000X0.387500X-0.050000X0.387500X-0.050000X-0.387500X0*%
%ADD51RoundRect,0.100000X0.100000X-0.225000X0.100000X0.225000X-0.100000X0.225000X-0.100000X-0.225000X0*%
%ADD52RoundRect,0.100000X-0.712500X-0.100000X0.712500X-0.100000X0.712500X0.100000X-0.712500X0.100000X0*%
%ADD53RoundRect,0.100000X0.225000X0.100000X-0.225000X0.100000X-0.225000X-0.100000X0.225000X-0.100000X0*%
%ADD54R,1.000000X0.750000*%
%ADD55R,1.200000X1.400000*%
%ADD56RoundRect,0.237500X-0.300000X-0.237500X0.300000X-0.237500X0.300000X0.237500X-0.300000X0.237500X0*%
%ADD57RoundRect,0.250000X-0.250000X0.250000X-0.250000X-0.250000X0.250000X-0.250000X0.250000X0.250000X0*%
%ADD58RoundRect,0.237500X0.237500X-0.300000X0.237500X0.300000X-0.237500X0.300000X-0.237500X-0.300000X0*%
%ADD59R,1.000000X0.300000*%
%ADD60R,0.700000X0.300000*%
%ADD61RoundRect,0.250000X0.250000X0.250000X-0.250000X0.250000X-0.250000X-0.250000X0.250000X-0.250000X0*%
%ADD62R,0.550000X0.550000*%
%ADD63R,1.600000X0.200000*%
%ADD64R,0.300000X0.400000*%
%ADD65O,1.772000X3.250000*%
%ADD66O,1.750000X1.200000*%
%ADD67RoundRect,0.250000X0.625000X-0.350000X0.625000X0.350000X-0.625000X0.350000X-0.625000X-0.350000X0*%
%ADD68O,1.600000X2.500000*%
G04 APERTURE END LIST*
D10*
G36*
X201159331Y-102983692D02*
G01*
X201220840Y-102989080D01*
X201306202Y-103007006D01*
X201383096Y-103036379D01*
X201451316Y-103076784D01*
X201510655Y-103127810D01*
X201560905Y-103189043D01*
X201601859Y-103260070D01*
X201633310Y-103340479D01*
X201648896Y-103399093D01*
X201660105Y-103461570D01*
X201666875Y-103527788D01*
X201669145Y-103597625D01*
X201668576Y-103632932D01*
X201664042Y-103700390D01*
X201655033Y-103763608D01*
X201641614Y-103822551D01*
X201613350Y-103902868D01*
X201575513Y-103973356D01*
X201528315Y-104033892D01*
X201471967Y-104084351D01*
X201406680Y-104124607D01*
X201332667Y-104154537D01*
X201250138Y-104174016D01*
X201190493Y-104181134D01*
X201127219Y-104183515D01*
X201095149Y-104182885D01*
X201033647Y-104177874D01*
X200948130Y-104161135D01*
X200870920Y-104133577D01*
X200802267Y-104095478D01*
X200742423Y-104047116D01*
X200691637Y-103988770D01*
X200650160Y-103920717D01*
X200618243Y-103843236D01*
X200602400Y-103786482D01*
X200590992Y-103725743D01*
X200584093Y-103661103D01*
X200581945Y-103597625D01*
X200830904Y-103597625D01*
X200833711Y-103666009D01*
X200842050Y-103726857D01*
X200861553Y-103796571D01*
X200890366Y-103853621D01*
X200939019Y-103907763D01*
X201001167Y-103943592D01*
X201060211Y-103959620D01*
X201127219Y-103964869D01*
X201187021Y-103959596D01*
X201255400Y-103937752D01*
X201314714Y-103898237D01*
X201354208Y-103853377D01*
X201385451Y-103796311D01*
X201407353Y-103726639D01*
X201416995Y-103665874D01*
X201420311Y-103597625D01*
X201419109Y-103550850D01*
X201412835Y-103486232D01*
X201401264Y-103428292D01*
X201377730Y-103361478D01*
X201345096Y-103306659D01*
X201303547Y-103263902D01*
X201253262Y-103233276D01*
X201194426Y-103214850D01*
X201127219Y-103208693D01*
X201092207Y-103210234D01*
X201028477Y-103222534D01*
X200973297Y-103247068D01*
X200926851Y-103283768D01*
X200889325Y-103332565D01*
X200860904Y-103393390D01*
X200841773Y-103466175D01*
X200833634Y-103528570D01*
X200830904Y-103597625D01*
X200581945Y-103597625D01*
X200581776Y-103592643D01*
X200582356Y-103557732D01*
X200586967Y-103490511D01*
X200596119Y-103426863D01*
X200609739Y-103366919D01*
X200638387Y-103284232D01*
X200676678Y-103210608D01*
X200724365Y-103146484D01*
X200781202Y-103092299D01*
X200846943Y-103048490D01*
X200921341Y-103015494D01*
X201004150Y-102993748D01*
X201063907Y-102985718D01*
X201127219Y-102983013D01*
X201159331Y-102983692D01*
G37*
G36*
X202196822Y-103283636D02*
G01*
X202272079Y-103295393D01*
X202340502Y-103322222D01*
X202400955Y-103363390D01*
X202452299Y-103418160D01*
X202484146Y-103467723D01*
X202509751Y-103524214D01*
X202528634Y-103587323D01*
X202540316Y-103656740D01*
X202544316Y-103732154D01*
X202540905Y-103800597D01*
X202530816Y-103864914D01*
X202514261Y-103924538D01*
X202482504Y-103995751D01*
X202440143Y-104056257D01*
X202387688Y-104104707D01*
X202325647Y-104139751D01*
X202254528Y-104160038D01*
X202195538Y-104164757D01*
X202176154Y-104164248D01*
X202112337Y-104154827D01*
X202055696Y-104134606D01*
X202001287Y-104100089D01*
X201959599Y-104055434D01*
X201959599Y-104539914D01*
X201726005Y-104539914D01*
X201726005Y-103704018D01*
X201951392Y-103704018D01*
X201951562Y-103720094D01*
X201957484Y-103792361D01*
X201975767Y-103861519D01*
X202012520Y-103918591D01*
X202065900Y-103950952D01*
X202124903Y-103959593D01*
X202147196Y-103958678D01*
X202213031Y-103940910D01*
X202260457Y-103900096D01*
X202287016Y-103846378D01*
X202299565Y-103788156D01*
X202303688Y-103717500D01*
X202303477Y-103704286D01*
X202296318Y-103642697D01*
X202275265Y-103579787D01*
X202242117Y-103530648D01*
X202190278Y-103493231D01*
X202126661Y-103480096D01*
X202065255Y-103492564D01*
X202013989Y-103528005D01*
X201976103Y-103583473D01*
X201956734Y-103644725D01*
X201951392Y-103704018D01*
X201726005Y-103704018D01*
X201726005Y-103301896D01*
X201954323Y-103301896D01*
X201955789Y-103383376D01*
X201959380Y-103377853D01*
X202002696Y-103333763D01*
X202056152Y-103304691D01*
X202112757Y-103288757D01*
X202177073Y-103283138D01*
X202196822Y-103283636D01*
G37*
G36*
X203064199Y-103287639D02*
G01*
X203127251Y-103301119D01*
X203183850Y-103323550D01*
X203233892Y-103354901D01*
X203277272Y-103395140D01*
X203313887Y-103444238D01*
X203343631Y-103502165D01*
X203366401Y-103568889D01*
X203382092Y-103644380D01*
X203390600Y-103728609D01*
X203392230Y-103789600D01*
X202823339Y-103789600D01*
X202826539Y-103819456D01*
X202845613Y-103880727D01*
X202879849Y-103928314D01*
X202935819Y-103962872D01*
X202998022Y-103973076D01*
X203057724Y-103963882D01*
X203109121Y-103932925D01*
X203138706Y-103880752D01*
X203383730Y-103880752D01*
X203359219Y-103946053D01*
X203327168Y-104003149D01*
X203288145Y-104051886D01*
X203242717Y-104092107D01*
X203191449Y-104123660D01*
X203134909Y-104146389D01*
X203073664Y-104160139D01*
X203008280Y-104164757D01*
X202982466Y-104164298D01*
X202909829Y-104157434D01*
X202844425Y-104142392D01*
X202786289Y-104119239D01*
X202735456Y-104088045D01*
X202679099Y-104034060D01*
X202645442Y-103984366D01*
X202619204Y-103926857D01*
X202600419Y-103861601D01*
X202589122Y-103788666D01*
X202585349Y-103708121D01*
X202589307Y-103638852D01*
X202590356Y-103633090D01*
X202830081Y-103633090D01*
X203148085Y-103633090D01*
X203136440Y-103571691D01*
X203103227Y-103519853D01*
X203047477Y-103485042D01*
X202988057Y-103475113D01*
X202929040Y-103486072D01*
X202875227Y-103522762D01*
X202842985Y-103574626D01*
X202830081Y-103633090D01*
X202590356Y-103633090D01*
X202601033Y-103574432D01*
X202620303Y-103515290D01*
X202646895Y-103461855D01*
X202693353Y-103400228D01*
X202751902Y-103350526D01*
X202803429Y-103321688D01*
X202861236Y-103300557D01*
X202925100Y-103287565D01*
X202994798Y-103283138D01*
X203064199Y-103287639D01*
G37*
G36*
X204216110Y-104146000D02*
G01*
X204216110Y-103567730D01*
X204210568Y-103502740D01*
X204194581Y-103445735D01*
X204161370Y-103386029D01*
X204115207Y-103339536D01*
X204057965Y-103306666D01*
X203991515Y-103287830D01*
X203932984Y-103283138D01*
X203872975Y-103286857D01*
X203810277Y-103300170D01*
X203750352Y-103325722D01*
X203699887Y-103364777D01*
X203675063Y-103398616D01*
X203675063Y-103301896D01*
X203448210Y-103301896D01*
X203448210Y-104146000D01*
X203685321Y-104146000D01*
X203685321Y-103663864D01*
X203690698Y-103601872D01*
X203710890Y-103546383D01*
X203753021Y-103504648D01*
X203816292Y-103485434D01*
X203845642Y-103483906D01*
X203908492Y-103490501D01*
X203959198Y-103528775D01*
X203974800Y-103585782D01*
X203977240Y-103636900D01*
X203977240Y-104146000D01*
X204216110Y-104146000D01*
G37*
G36*
X205330736Y-104145120D02*
G01*
X205330736Y-103528163D01*
X204846549Y-103528163D01*
X204846549Y-103733327D01*
X205093626Y-103733327D01*
X205082148Y-103801492D01*
X205049777Y-103862699D01*
X205009075Y-103905687D01*
X204957804Y-103939075D01*
X204897756Y-103960697D01*
X204830723Y-103968386D01*
X204757420Y-103959457D01*
X204695094Y-103934374D01*
X204643375Y-103895697D01*
X204601891Y-103845984D01*
X204570272Y-103787794D01*
X204548146Y-103723687D01*
X204535142Y-103656220D01*
X204530890Y-103587953D01*
X204533989Y-103518804D01*
X204543100Y-103456151D01*
X204564120Y-103382835D01*
X204594675Y-103321343D01*
X204634105Y-103271836D01*
X204681751Y-103234470D01*
X204736953Y-103209403D01*
X204799051Y-103196794D01*
X204832481Y-103195211D01*
X204900292Y-103203105D01*
X204961245Y-103225474D01*
X205012313Y-103260346D01*
X205050472Y-103305752D01*
X205074638Y-103369410D01*
X205076040Y-103379272D01*
X205329857Y-103379272D01*
X205319855Y-103315452D01*
X205300349Y-103255852D01*
X205272006Y-103200922D01*
X205235493Y-103151111D01*
X205191476Y-103106868D01*
X205140622Y-103068642D01*
X205083597Y-103036882D01*
X205021067Y-103012038D01*
X204953700Y-102994559D01*
X204882162Y-102984893D01*
X204832481Y-102983013D01*
X204765926Y-102986111D01*
X204703446Y-102995198D01*
X204645073Y-103009966D01*
X204565278Y-103042091D01*
X204494891Y-103085254D01*
X204434014Y-103138412D01*
X204382746Y-103200519D01*
X204341192Y-103270531D01*
X204309450Y-103347403D01*
X204287624Y-103430091D01*
X204275814Y-103517549D01*
X204273556Y-103577988D01*
X204278785Y-103665125D01*
X204294182Y-103749889D01*
X204319312Y-103830925D01*
X204353741Y-103906882D01*
X204397035Y-103976404D01*
X204448757Y-104038140D01*
X204508474Y-104090736D01*
X204575751Y-104132838D01*
X204650154Y-104163093D01*
X204731246Y-104180147D01*
X204788810Y-104183515D01*
X204859528Y-104179484D01*
X204925271Y-104168099D01*
X204984456Y-104150418D01*
X205044592Y-104122383D01*
X205096284Y-104082592D01*
X205115314Y-104057486D01*
X205119124Y-104146000D01*
X205330736Y-104145120D01*
G37*
G36*
X206144065Y-103745930D02*
G01*
X206125117Y-103807520D01*
X206093162Y-103868007D01*
X206050842Y-103913665D01*
X205997835Y-103944298D01*
X205933816Y-103959709D01*
X205897575Y-103961645D01*
X205835718Y-103955255D01*
X205770162Y-103929718D01*
X205717611Y-103885416D01*
X205677990Y-103823133D01*
X205655555Y-103760888D01*
X205641310Y-103688038D01*
X205635979Y-103626685D01*
X205634965Y-103582678D01*
X205637258Y-103518330D01*
X205644185Y-103459303D01*
X205660761Y-103389257D01*
X205685890Y-103329585D01*
X205719749Y-103280807D01*
X205774624Y-103235950D01*
X205843768Y-103209953D01*
X205909592Y-103203418D01*
X205968360Y-103210809D01*
X206030808Y-103237631D01*
X206076932Y-103275610D01*
X206114229Y-103326862D01*
X206140810Y-103390853D01*
X206144065Y-103402720D01*
X206395245Y-103402720D01*
X206384599Y-103337778D01*
X206365877Y-103276265D01*
X206339365Y-103218827D01*
X206305347Y-103166109D01*
X206264110Y-103118758D01*
X206215938Y-103077421D01*
X206161117Y-103042744D01*
X206099932Y-103015372D01*
X206032669Y-102995952D01*
X205959614Y-102985131D01*
X205907833Y-102983013D01*
X205848572Y-102985754D01*
X205765162Y-102999931D01*
X205688711Y-103025767D01*
X205619648Y-103062794D01*
X205558402Y-103110541D01*
X205505401Y-103168539D01*
X205461075Y-103236319D01*
X205425853Y-103313412D01*
X205407641Y-103369748D01*
X205393792Y-103429875D01*
X205384435Y-103493655D01*
X205379695Y-103560947D01*
X205379097Y-103595867D01*
X205381746Y-103665498D01*
X205389535Y-103730932D01*
X205402225Y-103792129D01*
X205419575Y-103849048D01*
X205453818Y-103926314D01*
X205497204Y-103993725D01*
X205548925Y-104051143D01*
X205608174Y-104098430D01*
X205674146Y-104135448D01*
X205746031Y-104162060D01*
X205823024Y-104178129D01*
X205904316Y-104183515D01*
X205975950Y-104179030D01*
X206042977Y-104165837D01*
X206105167Y-104144336D01*
X206162287Y-104114922D01*
X206214106Y-104077992D01*
X206260392Y-104033944D01*
X206300912Y-103983174D01*
X206335436Y-103926080D01*
X206363730Y-103863059D01*
X206385564Y-103794507D01*
X206396417Y-103745930D01*
X206144065Y-103745930D01*
G37*
G36*
X207082251Y-103766446D02*
G01*
X207077214Y-103826855D01*
X207057673Y-103884989D01*
X207015811Y-103933603D01*
X206952875Y-103962231D01*
X206894702Y-103970852D01*
X206868294Y-103971610D01*
X206805546Y-103963297D01*
X206747255Y-103933610D01*
X206705992Y-103884098D01*
X206684943Y-103827233D01*
X206677785Y-103758240D01*
X206677785Y-103020528D01*
X206421916Y-103020528D01*
X206421916Y-103779928D01*
X206426488Y-103852595D01*
X206439949Y-103917955D01*
X206461913Y-103976044D01*
X206491993Y-104026894D01*
X206544062Y-104083498D01*
X206608962Y-104127379D01*
X206665509Y-104151991D01*
X206728374Y-104169528D01*
X206797172Y-104180024D01*
X206871518Y-104183515D01*
X206951466Y-104179726D01*
X207024638Y-104168409D01*
X207090797Y-104149641D01*
X207149705Y-104123500D01*
X207201125Y-104090061D01*
X207244819Y-104049402D01*
X207280549Y-104001599D01*
X207308078Y-103946729D01*
X207327167Y-103884870D01*
X207337581Y-103816097D01*
X207339585Y-103766446D01*
X207339585Y-103020528D01*
X207082251Y-103020528D01*
X207082251Y-103766446D01*
G37*
G36*
X198035694Y-105037147D02*
G01*
X198117745Y-105046297D01*
X198194405Y-105066065D01*
X198265006Y-105096034D01*
X198328877Y-105135787D01*
X198385350Y-105184906D01*
X198433755Y-105242974D01*
X198473422Y-105309574D01*
X198503683Y-105384288D01*
X198523867Y-105466700D01*
X198531394Y-105525711D01*
X198533947Y-105587833D01*
X198533370Y-105619290D01*
X198528808Y-105680288D01*
X198519828Y-105738571D01*
X198498406Y-105820484D01*
X198467891Y-105895202D01*
X198428792Y-105962072D01*
X198381619Y-106020444D01*
X198326880Y-106069665D01*
X198265083Y-106109083D01*
X198196737Y-106138047D01*
X198122351Y-106155903D01*
X198042433Y-106162000D01*
X197565866Y-106162000D01*
X197565866Y-105953612D01*
X197811477Y-105953612D01*
X197995245Y-105953612D01*
X198064304Y-105947980D01*
X198122919Y-105931039D01*
X198182079Y-105893847D01*
X198226260Y-105838729D01*
X198251320Y-105781633D01*
X198267651Y-105712903D01*
X198274399Y-105653676D01*
X198276613Y-105587833D01*
X198275638Y-105543550D01*
X198270392Y-105483621D01*
X198255913Y-105415393D01*
X198224875Y-105347908D01*
X198178285Y-105298948D01*
X198114882Y-105267173D01*
X198051205Y-105253224D01*
X197975315Y-105248727D01*
X197811477Y-105248727D01*
X197811477Y-105953612D01*
X197565866Y-105953612D01*
X197565866Y-105036528D01*
X198007262Y-105036528D01*
X198035694Y-105037147D01*
G37*
G36*
X199050019Y-105303639D02*
G01*
X199113071Y-105317119D01*
X199169671Y-105339550D01*
X199219713Y-105370901D01*
X199263093Y-105411140D01*
X199299708Y-105460238D01*
X199329452Y-105518165D01*
X199352222Y-105584889D01*
X199367913Y-105660380D01*
X199376421Y-105744609D01*
X199378051Y-105805600D01*
X198809160Y-105805600D01*
X198812360Y-105835456D01*
X198831434Y-105896727D01*
X198865670Y-105944314D01*
X198921640Y-105978872D01*
X198983843Y-105989076D01*
X199043545Y-105979882D01*
X199094942Y-105948925D01*
X199124527Y-105896752D01*
X199369551Y-105896752D01*
X199345040Y-105962053D01*
X199312989Y-106019149D01*
X199273966Y-106067886D01*
X199228537Y-106108107D01*
X199177270Y-106139660D01*
X199120730Y-106162389D01*
X199059485Y-106176139D01*
X198994101Y-106180757D01*
X198968287Y-106180298D01*
X198895650Y-106173434D01*
X198830246Y-106158392D01*
X198772110Y-106135239D01*
X198721277Y-106104045D01*
X198664920Y-106050060D01*
X198631263Y-106000366D01*
X198605024Y-105942857D01*
X198586240Y-105877601D01*
X198574943Y-105804666D01*
X198571170Y-105724121D01*
X198575128Y-105654852D01*
X198576177Y-105649090D01*
X198815901Y-105649090D01*
X199133906Y-105649090D01*
X199122261Y-105587691D01*
X199089047Y-105535853D01*
X199033297Y-105501042D01*
X198973878Y-105491113D01*
X198914861Y-105502072D01*
X198861048Y-105538762D01*
X198828806Y-105590626D01*
X198815901Y-105649090D01*
X198576177Y-105649090D01*
X198586854Y-105590432D01*
X198606124Y-105531290D01*
X198632716Y-105477855D01*
X198679174Y-105416228D01*
X198737723Y-105366526D01*
X198789250Y-105337688D01*
X198847057Y-105316557D01*
X198910921Y-105303565D01*
X198980619Y-105299138D01*
X199050019Y-105303639D01*
G37*
G36*
X200160605Y-105588713D02*
G01*
X200151111Y-105521657D01*
X200131859Y-105463219D01*
X200093565Y-105402442D01*
X200038852Y-105355480D01*
X199982824Y-105327988D01*
X199915539Y-105309562D01*
X199836663Y-105300301D01*
X199792775Y-105299138D01*
X199724773Y-105302023D01*
X199664681Y-105310406D01*
X199596401Y-105329435D01*
X199541077Y-105356556D01*
X199489177Y-105400372D01*
X199455299Y-105453451D01*
X199438207Y-105513914D01*
X199435497Y-105552956D01*
X199442865Y-105614042D01*
X199466899Y-105670243D01*
X199510495Y-105720150D01*
X199544234Y-105744637D01*
X199600135Y-105773353D01*
X199661939Y-105795973D01*
X199718245Y-105812492D01*
X199784923Y-105829633D01*
X199822670Y-105838720D01*
X199882934Y-105855153D01*
X199935925Y-105886843D01*
X199948114Y-105922251D01*
X199916961Y-105975649D01*
X199858429Y-105994486D01*
X199811240Y-105997575D01*
X199750160Y-105991688D01*
X199691622Y-105966837D01*
X199655302Y-105916468D01*
X199649160Y-105874770D01*
X199405015Y-105874770D01*
X199413085Y-105940090D01*
X199434182Y-105999242D01*
X199467926Y-106051442D01*
X199513935Y-106095907D01*
X199571828Y-106131855D01*
X199641224Y-106158501D01*
X199700590Y-106171910D01*
X199766051Y-106179317D01*
X199812998Y-106180757D01*
X199877197Y-106177961D01*
X199935671Y-106169699D01*
X200004509Y-106150511D01*
X200062637Y-106122400D01*
X200109748Y-106085819D01*
X200152678Y-106028873D01*
X200177321Y-105960286D01*
X200183466Y-105897631D01*
X200176097Y-105832627D01*
X200150483Y-105773552D01*
X200107926Y-105728600D01*
X200049882Y-105695573D01*
X200041610Y-105692174D01*
X199981565Y-105672421D01*
X199920565Y-105655936D01*
X199862856Y-105641190D01*
X199802434Y-105625161D01*
X199793654Y-105622711D01*
X199736392Y-105605167D01*
X199683161Y-105577537D01*
X199666160Y-105539180D01*
X199703805Y-105491309D01*
X199764453Y-105481588D01*
X199786034Y-105481148D01*
X199847835Y-105486314D01*
X199902544Y-105514548D01*
X199928132Y-105567985D01*
X199932287Y-105590178D01*
X200160605Y-105588713D01*
G37*
G36*
X200468644Y-106162000D02*
G01*
X200468644Y-105317896D01*
X200231533Y-105317896D01*
X200231533Y-106162000D01*
X200468644Y-106162000D01*
G37*
G36*
X200468644Y-105239934D02*
G01*
X200468644Y-105017771D01*
X200231533Y-105017771D01*
X200231533Y-105239934D01*
X200468644Y-105239934D01*
G37*
G36*
X200968528Y-105304971D02*
G01*
X201033024Y-105324297D01*
X201084582Y-105354465D01*
X201125169Y-105397910D01*
X201125169Y-105317896D01*
X201362280Y-105317896D01*
X201362280Y-106154379D01*
X201360116Y-106202165D01*
X201349082Y-106268360D01*
X201329325Y-106327908D01*
X201301547Y-106380731D01*
X201253242Y-106440574D01*
X201193587Y-106488152D01*
X201124242Y-106523286D01*
X201066875Y-106541363D01*
X201005694Y-106552264D01*
X200941400Y-106555914D01*
X200877322Y-106552330D01*
X200816872Y-106541706D01*
X200742926Y-106516927D01*
X200677854Y-106480439D01*
X200623040Y-106432703D01*
X200579867Y-106374178D01*
X200549720Y-106305326D01*
X200536491Y-106247185D01*
X200531952Y-106183688D01*
X200754115Y-106183688D01*
X200754885Y-106203464D01*
X200769240Y-106262957D01*
X200806199Y-106312157D01*
X200862684Y-106340917D01*
X200926160Y-106348992D01*
X200967024Y-106345881D01*
X201030524Y-106326119D01*
X201080577Y-106289490D01*
X201113389Y-106237578D01*
X201125169Y-106171965D01*
X201125169Y-106082865D01*
X201085256Y-106119068D01*
X201029342Y-106143080D01*
X200967314Y-106157510D01*
X200907695Y-106162000D01*
X200882119Y-106161378D01*
X200811608Y-106152363D01*
X200750095Y-106133453D01*
X200697168Y-106105710D01*
X200639236Y-106056820D01*
X200594846Y-105996640D01*
X200563017Y-105927691D01*
X200542767Y-105852494D01*
X200534586Y-105793513D01*
X200532389Y-105743465D01*
X200777562Y-105743465D01*
X200782820Y-105805804D01*
X200802003Y-105868936D01*
X200839863Y-105924911D01*
X200891677Y-105959954D01*
X200954589Y-105972076D01*
X201017186Y-105960650D01*
X201069070Y-105927624D01*
X201107184Y-105874876D01*
X201126578Y-105815389D01*
X201131910Y-105756654D01*
X201131741Y-105740640D01*
X201125818Y-105668880D01*
X201107412Y-105600616D01*
X201070111Y-105544688D01*
X201015467Y-105513229D01*
X200954589Y-105504889D01*
X200933185Y-105505768D01*
X200869100Y-105522944D01*
X200821892Y-105562737D01*
X200794889Y-105615532D01*
X200781896Y-105673137D01*
X200777562Y-105743465D01*
X200532389Y-105743465D01*
X200531952Y-105733500D01*
X200536242Y-105663728D01*
X200548687Y-105598510D01*
X200568645Y-105538350D01*
X200595476Y-105483752D01*
X200640835Y-105420478D01*
X200695757Y-105369185D01*
X200758722Y-105331067D01*
X200828213Y-105307320D01*
X200902712Y-105299138D01*
X200968528Y-105304971D01*
G37*
G36*
X202206676Y-106162000D02*
G01*
X202206676Y-105583730D01*
X202201134Y-105518740D01*
X202185147Y-105461735D01*
X202151936Y-105402029D01*
X202105773Y-105355536D01*
X202048531Y-105322666D01*
X201982082Y-105303830D01*
X201923550Y-105299138D01*
X201863541Y-105302857D01*
X201800843Y-105316170D01*
X201740918Y-105341722D01*
X201690453Y-105380777D01*
X201665629Y-105414616D01*
X201665629Y-105317896D01*
X201438776Y-105317896D01*
X201438776Y-106162000D01*
X201675887Y-106162000D01*
X201675887Y-105679864D01*
X201681264Y-105617872D01*
X201701456Y-105562383D01*
X201743587Y-105520648D01*
X201806858Y-105501434D01*
X201836208Y-105499906D01*
X201899058Y-105506501D01*
X201949764Y-105544775D01*
X201965366Y-105601782D01*
X201967806Y-105652900D01*
X201967806Y-106162000D01*
X202206676Y-106162000D01*
G37*
G36*
X202742971Y-105303639D02*
G01*
X202806023Y-105317119D01*
X202862622Y-105339550D01*
X202912664Y-105370901D01*
X202956045Y-105411140D01*
X202992660Y-105460238D01*
X203022404Y-105518165D01*
X203045174Y-105584889D01*
X203060865Y-105660380D01*
X203069373Y-105744609D01*
X203071003Y-105805600D01*
X202502112Y-105805600D01*
X202505312Y-105835456D01*
X202524386Y-105896727D01*
X202558622Y-105944314D01*
X202614592Y-105978872D01*
X202676795Y-105989076D01*
X202736497Y-105979882D01*
X202787894Y-105948925D01*
X202817478Y-105896752D01*
X203062503Y-105896752D01*
X203037991Y-105962053D01*
X203005941Y-106019149D01*
X202966918Y-106067886D01*
X202921489Y-106108107D01*
X202870222Y-106139660D01*
X202813682Y-106162389D01*
X202752437Y-106176139D01*
X202687053Y-106180757D01*
X202661239Y-106180298D01*
X202588602Y-106173434D01*
X202523198Y-106158392D01*
X202465062Y-106135239D01*
X202414229Y-106104045D01*
X202357872Y-106050060D01*
X202324215Y-106000366D01*
X202297976Y-105942857D01*
X202279191Y-105877601D01*
X202267895Y-105804666D01*
X202264122Y-105724121D01*
X202268080Y-105654852D01*
X202269129Y-105649090D01*
X202508853Y-105649090D01*
X202826857Y-105649090D01*
X202815213Y-105587691D01*
X202781999Y-105535853D01*
X202726249Y-105501042D01*
X202666829Y-105491113D01*
X202607813Y-105502072D01*
X202554000Y-105538762D01*
X202521758Y-105590626D01*
X202508853Y-105649090D01*
X202269129Y-105649090D01*
X202279806Y-105590432D01*
X202299076Y-105531290D01*
X202325668Y-105477855D01*
X202372126Y-105416228D01*
X202430675Y-105366526D01*
X202482202Y-105337688D01*
X202540009Y-105316557D01*
X202603873Y-105303565D01*
X202673571Y-105299138D01*
X202742971Y-105303639D01*
G37*
G36*
X203928588Y-106162000D02*
G01*
X203699684Y-106162000D01*
X203698804Y-106081106D01*
X203695212Y-106086601D01*
X203651829Y-106130453D01*
X203598267Y-106159348D01*
X203541579Y-106175178D01*
X203477227Y-106180757D01*
X203457478Y-106180260D01*
X203382221Y-106168528D01*
X203313798Y-106141763D01*
X203253346Y-106100710D01*
X203202001Y-106046115D01*
X203170154Y-105996731D01*
X203144549Y-105940463D01*
X203125666Y-105877625D01*
X203113984Y-105808533D01*
X203110687Y-105746689D01*
X203350612Y-105746689D01*
X203350823Y-105759902D01*
X203358007Y-105821492D01*
X203379113Y-105884402D01*
X203412304Y-105933540D01*
X203464139Y-105970958D01*
X203527639Y-105984093D01*
X203589198Y-105971622D01*
X203640552Y-105936159D01*
X203678478Y-105880633D01*
X203697858Y-105819287D01*
X203703201Y-105759878D01*
X203703032Y-105743828D01*
X203697107Y-105671671D01*
X203678811Y-105602598D01*
X203642012Y-105545578D01*
X203588536Y-105513235D01*
X203529398Y-105504595D01*
X203507104Y-105505511D01*
X203441269Y-105523279D01*
X203393843Y-105564093D01*
X203367284Y-105617810D01*
X203354735Y-105676032D01*
X203350612Y-105746689D01*
X203110687Y-105746689D01*
X203109984Y-105733500D01*
X203113395Y-105664676D01*
X203123485Y-105600033D01*
X203140039Y-105540138D01*
X203171796Y-105468638D01*
X203214157Y-105407922D01*
X203266612Y-105359328D01*
X203328653Y-105324196D01*
X203399772Y-105303866D01*
X203458762Y-105299138D01*
X203478195Y-105299651D01*
X203542091Y-105309126D01*
X203598714Y-105329437D01*
X203653055Y-105364054D01*
X203694701Y-105408755D01*
X203694701Y-105017771D01*
X203928588Y-105017771D01*
X203928588Y-106162000D01*
G37*
G36*
X204643145Y-105408755D02*
G01*
X204652276Y-105396753D01*
X204697312Y-105354369D01*
X204754623Y-105322613D01*
X204813436Y-105305249D01*
X204879084Y-105299138D01*
X204956677Y-105307485D01*
X205025574Y-105331617D01*
X205085266Y-105370174D01*
X205135245Y-105421797D01*
X205175003Y-105485125D01*
X205197807Y-105539485D01*
X205214361Y-105599090D01*
X205224451Y-105663367D01*
X205227862Y-105731741D01*
X205223862Y-105807224D01*
X205212180Y-105876682D01*
X205193297Y-105939810D01*
X205167692Y-105996302D01*
X205123925Y-106060773D01*
X205070197Y-106112179D01*
X205007645Y-106149795D01*
X204937407Y-106172896D01*
X204860619Y-106180757D01*
X204796303Y-106175203D01*
X204732323Y-106156571D01*
X204680501Y-106126997D01*
X204639335Y-106083451D01*
X204637869Y-106162000D01*
X204409551Y-106162000D01*
X204409551Y-105759878D01*
X204634938Y-105759878D01*
X204640280Y-105819287D01*
X204659649Y-105880633D01*
X204697535Y-105936159D01*
X204748801Y-105971622D01*
X204810207Y-105984093D01*
X204819921Y-105983816D01*
X204882010Y-105967030D01*
X204931960Y-105926387D01*
X204963202Y-105874823D01*
X204982085Y-105809800D01*
X204987234Y-105746689D01*
X204987071Y-105731554D01*
X204981284Y-105663399D01*
X204963123Y-105597961D01*
X204925884Y-105543746D01*
X204870659Y-105512872D01*
X204808448Y-105504595D01*
X204777418Y-105506746D01*
X204716906Y-105528738D01*
X204673029Y-105575092D01*
X204648647Y-105634771D01*
X204637645Y-105698924D01*
X204634938Y-105759878D01*
X204409551Y-105759878D01*
X204409551Y-105017771D01*
X204643145Y-105017771D01*
X204643145Y-105408755D01*
G37*
G36*
X205815804Y-106170499D02*
G01*
X205806824Y-106236996D01*
X205777792Y-106295592D01*
X205727766Y-106336764D01*
X205673947Y-106348992D01*
X205609932Y-106340774D01*
X205556758Y-106311626D01*
X205524322Y-106262011D01*
X205512477Y-106202305D01*
X205511868Y-106182516D01*
X205289998Y-106182516D01*
X205293359Y-106246110D01*
X205303412Y-106304370D01*
X205327140Y-106373408D01*
X205362566Y-106432129D01*
X205409575Y-106480057D01*
X205468054Y-106516714D01*
X205537890Y-106541623D01*
X205597651Y-106552308D01*
X205663689Y-106555914D01*
X205723003Y-106552225D01*
X205797584Y-106536032D01*
X205865590Y-106507320D01*
X205925461Y-106466487D01*
X205975638Y-106413931D01*
X206014561Y-106350052D01*
X206035430Y-106294950D01*
X206048434Y-106233871D01*
X206052915Y-106166982D01*
X206052915Y-105317896D01*
X205815804Y-105317896D01*
X205815804Y-105824065D01*
X205804423Y-105881653D01*
X205766904Y-105931527D01*
X205714838Y-105958924D01*
X205657241Y-105967094D01*
X205593569Y-105956113D01*
X205548069Y-105917510D01*
X205529070Y-105858148D01*
X205527109Y-105824065D01*
X205527109Y-105317896D01*
X205289998Y-105317896D01*
X205289998Y-105855426D01*
X205296148Y-105921361D01*
X205313866Y-105980855D01*
X205342053Y-106033185D01*
X205390335Y-106087418D01*
X205451110Y-106127909D01*
X205507283Y-106149455D01*
X205568978Y-106160575D01*
X205601554Y-106162000D01*
X205668223Y-106156010D01*
X205727795Y-106140510D01*
X205781213Y-106115894D01*
X205815804Y-106082865D01*
X205815804Y-106170499D01*
G37*
G36*
X207632970Y-106162000D02*
G01*
X207632970Y-105036528D01*
X207280381Y-105036528D01*
X207086062Y-105818789D01*
X206891742Y-105036528D01*
X206532119Y-105036528D01*
X206532119Y-106162000D01*
X206767765Y-106162000D01*
X206758386Y-105397910D01*
X206957981Y-106162000D01*
X207203885Y-106162000D01*
X207405238Y-105394393D01*
X207395859Y-106162000D01*
X207632970Y-106162000D01*
G37*
G36*
X207947164Y-106162000D02*
G01*
X207947164Y-105317896D01*
X207710053Y-105317896D01*
X207710053Y-106162000D01*
X207947164Y-106162000D01*
G37*
G36*
X207947164Y-105239934D02*
G01*
X207947164Y-105017771D01*
X207710053Y-105017771D01*
X207710053Y-105239934D01*
X207947164Y-105239934D01*
G37*
G36*
X208496125Y-105821720D02*
G01*
X208489205Y-105886929D01*
X208460079Y-105942998D01*
X208406450Y-105969947D01*
X208377716Y-105972369D01*
X208318687Y-105959848D01*
X208275872Y-105911361D01*
X208262640Y-105853971D01*
X208261065Y-105818496D01*
X208261065Y-105491406D01*
X208718288Y-105491406D01*
X208718288Y-105317896D01*
X208261065Y-105317896D01*
X208261065Y-105092802D01*
X208027472Y-105092802D01*
X208027472Y-105840185D01*
X208032237Y-105906318D01*
X208046907Y-105969072D01*
X208072047Y-106026770D01*
X208108218Y-106077736D01*
X208155985Y-106120294D01*
X208215911Y-106152767D01*
X208288559Y-106173480D01*
X208351732Y-106180289D01*
X208374492Y-106180757D01*
X208438098Y-106176584D01*
X208512208Y-106158932D01*
X208574393Y-106129073D01*
X208624982Y-106088764D01*
X208664305Y-106039759D01*
X208692693Y-105983814D01*
X208710474Y-105922683D01*
X208717979Y-105858121D01*
X208718288Y-105841651D01*
X208718288Y-105599264D01*
X208496125Y-105599264D01*
X208496125Y-105821720D01*
G37*
G36*
X209313264Y-105841357D02*
G01*
X209297318Y-105902449D01*
X209259489Y-105949527D01*
X209204593Y-105974435D01*
X209160563Y-105979110D01*
X209102297Y-105963851D01*
X209053841Y-105917268D01*
X209027259Y-105861047D01*
X209013376Y-105799849D01*
X209008653Y-105741287D01*
X209008448Y-105725293D01*
X209011608Y-105666032D01*
X209023830Y-105606533D01*
X209054354Y-105547717D01*
X209104770Y-105510599D01*
X209167304Y-105499613D01*
X209228236Y-105510487D01*
X209279854Y-105547850D01*
X209308667Y-105603930D01*
X209315315Y-105635607D01*
X209553599Y-105635607D01*
X209541907Y-105561151D01*
X209518157Y-105494873D01*
X209483176Y-105437312D01*
X209437791Y-105389008D01*
X209382830Y-105350499D01*
X209319121Y-105322325D01*
X209247491Y-105305025D01*
X209189070Y-105299510D01*
X209168769Y-105299138D01*
X209104625Y-105302708D01*
X209044859Y-105313509D01*
X208972711Y-105339392D01*
X208910096Y-105378695D01*
X208858013Y-105431739D01*
X208817462Y-105498849D01*
X208795218Y-105558605D01*
X208780445Y-105626591D01*
X208773563Y-105702943D01*
X208773096Y-105730276D01*
X208777240Y-105809721D01*
X208789373Y-105881664D01*
X208809044Y-105946036D01*
X208835801Y-106002770D01*
X208869195Y-106051797D01*
X208923265Y-106105060D01*
X208987263Y-106144340D01*
X209060122Y-106169476D01*
X209119938Y-106178947D01*
X209162028Y-106180757D01*
X209236253Y-106174613D01*
X209305419Y-106156660D01*
X209368423Y-106127620D01*
X209424162Y-106088214D01*
X209471535Y-106039163D01*
X209509438Y-105981190D01*
X209536769Y-105915014D01*
X209552426Y-105841357D01*
X209313264Y-105841357D01*
G37*
G36*
X210363996Y-106162000D02*
G01*
X210363996Y-105572006D01*
X210358356Y-105511896D01*
X210336352Y-105445937D01*
X210299303Y-105391034D01*
X210248894Y-105348107D01*
X210186809Y-105318075D01*
X210129865Y-105303951D01*
X210067388Y-105299138D01*
X210005072Y-105304753D01*
X209947594Y-105319448D01*
X209891042Y-105343769D01*
X209843006Y-105378519D01*
X209833208Y-105392635D01*
X209833208Y-105017771D01*
X209596097Y-105017771D01*
X209596097Y-106162000D01*
X209833208Y-106162000D01*
X209833208Y-105681916D01*
X209841164Y-105615670D01*
X209864715Y-105559883D01*
X209910110Y-105513820D01*
X209965464Y-105493273D01*
X209993529Y-105491113D01*
X210054400Y-105498152D01*
X210102463Y-105531992D01*
X210122397Y-105593713D01*
X210125127Y-105643521D01*
X210125127Y-106162000D01*
X210363996Y-106162000D01*
G37*
G36*
X201111100Y-108178000D02*
G01*
X201111100Y-107052528D01*
X200915315Y-107052528D01*
X200902082Y-107118380D01*
X200869803Y-107176413D01*
X200813760Y-107215223D01*
X200755907Y-107231767D01*
X200697276Y-107238594D01*
X200645378Y-107240107D01*
X200645378Y-107410100D01*
X200873989Y-107410100D01*
X200873989Y-108178000D01*
X201111100Y-108178000D01*
G37*
G36*
X201619693Y-107019737D02*
G01*
X201680795Y-107034105D01*
X201736395Y-107058409D01*
X201786209Y-107092942D01*
X201829950Y-107137997D01*
X201867334Y-107193866D01*
X201898075Y-107260842D01*
X201921887Y-107339218D01*
X201933771Y-107397946D01*
X201942365Y-107461958D01*
X201947583Y-107531340D01*
X201949341Y-107606178D01*
X201947586Y-107681173D01*
X201942377Y-107751095D01*
X201933796Y-107815978D01*
X201921928Y-107875854D01*
X201898143Y-107956350D01*
X201867429Y-108025760D01*
X201830067Y-108084194D01*
X201786338Y-108131759D01*
X201736523Y-108168565D01*
X201680903Y-108194721D01*
X201619760Y-108210335D01*
X201553375Y-108215515D01*
X201487231Y-108210541D01*
X201426604Y-108195473D01*
X201371711Y-108170093D01*
X201322766Y-108134186D01*
X201279987Y-108087532D01*
X201243588Y-108029916D01*
X201213787Y-107961119D01*
X201190798Y-107880924D01*
X201179363Y-107821021D01*
X201171117Y-107755892D01*
X201166122Y-107685471D01*
X201164513Y-107612919D01*
X201410053Y-107612919D01*
X201411374Y-107693541D01*
X201415337Y-107763950D01*
X201421940Y-107824645D01*
X201434848Y-107891323D01*
X201457574Y-107953430D01*
X201501683Y-108004870D01*
X201560116Y-108020609D01*
X201569335Y-108020297D01*
X201625498Y-107999411D01*
X201662061Y-107952564D01*
X201684447Y-107890486D01*
X201697109Y-107824309D01*
X201703564Y-107764373D01*
X201707428Y-107695128D01*
X201708713Y-107616143D01*
X201707435Y-107535935D01*
X201703590Y-107465793D01*
X201697159Y-107405240D01*
X201684533Y-107338601D01*
X201662183Y-107276374D01*
X201618486Y-107224647D01*
X201560116Y-107208746D01*
X201550892Y-107209049D01*
X201494505Y-107229446D01*
X201457574Y-107275631D01*
X201434848Y-107337297D01*
X201421940Y-107403405D01*
X201415337Y-107463519D01*
X201411374Y-107533197D01*
X201410053Y-107612919D01*
X201164513Y-107612919D01*
X201164442Y-107609695D01*
X201166125Y-107534286D01*
X201171129Y-107464398D01*
X201179388Y-107399941D01*
X201190839Y-107340825D01*
X201213855Y-107261966D01*
X201243683Y-107194613D01*
X201280103Y-107138461D01*
X201322895Y-107093205D01*
X201371838Y-107058537D01*
X201426713Y-107034153D01*
X201487298Y-107019747D01*
X201553375Y-107015013D01*
X201619693Y-107019737D01*
G37*
G36*
X202197003Y-108178000D02*
G01*
X202197003Y-107932682D01*
X201944652Y-107932682D01*
X201944652Y-108178000D01*
X202197003Y-108178000D01*
G37*
G36*
X203005057Y-108178000D02*
G01*
X203005057Y-107969612D01*
X202525559Y-107969612D01*
X202548471Y-107914916D01*
X202585985Y-107867290D01*
X202630380Y-107824249D01*
X202675329Y-107788774D01*
X202738711Y-107743069D01*
X202794379Y-107700287D01*
X202842656Y-107659737D01*
X202896088Y-107607945D01*
X202937720Y-107557246D01*
X202968320Y-107506000D01*
X202992221Y-107438670D01*
X203000796Y-107380188D01*
X203001833Y-107348844D01*
X202997703Y-107289004D01*
X202979895Y-107218454D01*
X202949002Y-107158435D01*
X202906090Y-107108919D01*
X202852223Y-107069878D01*
X202788465Y-107041286D01*
X202715883Y-107023115D01*
X202656294Y-107016308D01*
X202614366Y-107015013D01*
X202551478Y-107018929D01*
X202493708Y-107030519D01*
X202425044Y-107057492D01*
X202366446Y-107097107D01*
X202318466Y-107148796D01*
X202281658Y-107211987D01*
X202256574Y-107286111D01*
X202245787Y-107348535D01*
X202242140Y-107416548D01*
X202471044Y-107416548D01*
X202475180Y-107352725D01*
X202490646Y-107295151D01*
X202527873Y-107246368D01*
X202582466Y-107223898D01*
X202624624Y-107220470D01*
X202689007Y-107228525D01*
X202741883Y-107261471D01*
X202766896Y-107319486D01*
X202769704Y-107355585D01*
X202760311Y-107417478D01*
X202727755Y-107474617D01*
X202684187Y-107519757D01*
X202633106Y-107561926D01*
X202581417Y-107600221D01*
X202566885Y-107610575D01*
X202515607Y-107648274D01*
X202469629Y-107684784D01*
X202409993Y-107737737D01*
X202360719Y-107789087D01*
X202320871Y-107839480D01*
X202289510Y-107889561D01*
X202259279Y-107956963D01*
X202240248Y-108026485D01*
X202230196Y-108099654D01*
X202226899Y-108178000D01*
X203005057Y-108178000D01*
G37*
G36*
X203432899Y-107015411D02*
G01*
X203491379Y-107021237D01*
X203560547Y-107039087D01*
X203619508Y-107067331D01*
X203668103Y-107104735D01*
X203706174Y-107150067D01*
X203733563Y-107202092D01*
X203750112Y-107259579D01*
X203755664Y-107321293D01*
X203755291Y-107339280D01*
X203747963Y-107402070D01*
X203730861Y-107461061D01*
X203698662Y-107517852D01*
X203652202Y-107556646D01*
X203668082Y-107564823D01*
X203719302Y-107606742D01*
X203756018Y-107656561D01*
X203784007Y-107716192D01*
X203801286Y-107782781D01*
X203806075Y-107841531D01*
X203802620Y-107900467D01*
X203787259Y-107973557D01*
X203759597Y-108039267D01*
X203719624Y-108096396D01*
X203667331Y-108143741D01*
X203602706Y-108180100D01*
X203546139Y-108199437D01*
X203482625Y-108211411D01*
X203412160Y-108215515D01*
X203364610Y-108213630D01*
X203298820Y-108204020D01*
X203239722Y-108186829D01*
X203171428Y-108153197D01*
X203115259Y-108108683D01*
X203071344Y-108054773D01*
X203039815Y-107992949D01*
X203020802Y-107924695D01*
X203014435Y-107851496D01*
X203014727Y-107841531D01*
X203261805Y-107841531D01*
X203261926Y-107851988D01*
X203269897Y-107916690D01*
X203295767Y-107971736D01*
X203349097Y-108008253D01*
X203410402Y-108017092D01*
X203420301Y-108016910D01*
X203479503Y-108005570D01*
X203531088Y-107965993D01*
X203555671Y-107908373D01*
X203562223Y-107841531D01*
X203562088Y-107832288D01*
X203553380Y-107773616D01*
X203521198Y-107716083D01*
X203471398Y-107685063D01*
X203410402Y-107675934D01*
X203400667Y-107676116D01*
X203342547Y-107687300D01*
X203292095Y-107725539D01*
X203268159Y-107779902D01*
X203261805Y-107841531D01*
X203014727Y-107841531D01*
X203015151Y-107827051D01*
X203025642Y-107758109D01*
X203047986Y-107696587D01*
X203081340Y-107643550D01*
X203124856Y-107600064D01*
X203177687Y-107567197D01*
X203156583Y-107554209D01*
X203111307Y-107505409D01*
X203084314Y-107450508D01*
X203068523Y-107389580D01*
X203065136Y-107348844D01*
X203283786Y-107348844D01*
X203284857Y-107370937D01*
X203304166Y-107432506D01*
X203348430Y-107471755D01*
X203410402Y-107483959D01*
X203433368Y-107482559D01*
X203493010Y-107459046D01*
X203527252Y-107410283D01*
X203537017Y-107348844D01*
X203535940Y-107325963D01*
X203516552Y-107263162D01*
X203472246Y-107223964D01*
X203410402Y-107211970D01*
X203387368Y-107213337D01*
X203327668Y-107236570D01*
X203293502Y-107285660D01*
X203283786Y-107348844D01*
X203065136Y-107348844D01*
X203063382Y-107327741D01*
X203070230Y-107263730D01*
X203089975Y-107204565D01*
X203121419Y-107151383D01*
X203163363Y-107105322D01*
X203214607Y-107067517D01*
X203273954Y-107039106D01*
X203340205Y-107021225D01*
X203412160Y-107015013D01*
X203432899Y-107015411D01*
G37*
G36*
X204077478Y-108178000D02*
G01*
X204077478Y-107932682D01*
X203825126Y-107932682D01*
X203825126Y-108178000D01*
X204077478Y-108178000D01*
G37*
G36*
X204885531Y-108178000D02*
G01*
X204885531Y-107969612D01*
X204406033Y-107969612D01*
X204428946Y-107914916D01*
X204466460Y-107867290D01*
X204510855Y-107824249D01*
X204555803Y-107788774D01*
X204619185Y-107743069D01*
X204674854Y-107700287D01*
X204723131Y-107659737D01*
X204776562Y-107607945D01*
X204818195Y-107557246D01*
X204848794Y-107506000D01*
X204872695Y-107438670D01*
X204881271Y-107380188D01*
X204882307Y-107348844D01*
X204878178Y-107289004D01*
X204860369Y-107218454D01*
X204829477Y-107158435D01*
X204786564Y-107108919D01*
X204732697Y-107069878D01*
X204668940Y-107041286D01*
X204596357Y-107023115D01*
X204536769Y-107016308D01*
X204494840Y-107015013D01*
X204431953Y-107018929D01*
X204374182Y-107030519D01*
X204305519Y-107057492D01*
X204246921Y-107097107D01*
X204198941Y-107148796D01*
X204162132Y-107211987D01*
X204137048Y-107286111D01*
X204126261Y-107348535D01*
X204122614Y-107416548D01*
X204351518Y-107416548D01*
X204355654Y-107352725D01*
X204371121Y-107295151D01*
X204408348Y-107246368D01*
X204462941Y-107223898D01*
X204505098Y-107220470D01*
X204569481Y-107228525D01*
X204622357Y-107261471D01*
X204647371Y-107319486D01*
X204650179Y-107355585D01*
X204640786Y-107417478D01*
X204608230Y-107474617D01*
X204564661Y-107519757D01*
X204513581Y-107561926D01*
X204461892Y-107600221D01*
X204447359Y-107610575D01*
X204396082Y-107648274D01*
X204350104Y-107684784D01*
X204290468Y-107737737D01*
X204241194Y-107789087D01*
X204201346Y-107839480D01*
X204169985Y-107889561D01*
X204139754Y-107956963D01*
X204120723Y-108026485D01*
X204110670Y-108099654D01*
X204107373Y-108178000D01*
X204885531Y-108178000D01*
G37*
G36*
X205365401Y-107019737D02*
G01*
X205426503Y-107034105D01*
X205482103Y-107058409D01*
X205531917Y-107092942D01*
X205575659Y-107137997D01*
X205613043Y-107193866D01*
X205643783Y-107260842D01*
X205667595Y-107339218D01*
X205679480Y-107397946D01*
X205688073Y-107461958D01*
X205693291Y-107531340D01*
X205695050Y-107606178D01*
X205693295Y-107681173D01*
X205688085Y-107751095D01*
X205679505Y-107815978D01*
X205667636Y-107875854D01*
X205643851Y-107956350D01*
X205613137Y-108025760D01*
X205575775Y-108084194D01*
X205532046Y-108131759D01*
X205482231Y-108168565D01*
X205426612Y-108194721D01*
X205365469Y-108210335D01*
X205299083Y-108215515D01*
X205232939Y-108210541D01*
X205172312Y-108195473D01*
X205117419Y-108170093D01*
X205068474Y-108134186D01*
X205025695Y-108087532D01*
X204989297Y-108029916D01*
X204959495Y-107961119D01*
X204936506Y-107880924D01*
X204925072Y-107821021D01*
X204916825Y-107755892D01*
X204911830Y-107685471D01*
X204910222Y-107612919D01*
X205155761Y-107612919D01*
X205157083Y-107693541D01*
X205161045Y-107763950D01*
X205167648Y-107824645D01*
X205180556Y-107891323D01*
X205203283Y-107953430D01*
X205247392Y-108004870D01*
X205305824Y-108020609D01*
X205315044Y-108020297D01*
X205371206Y-107999411D01*
X205407769Y-107952564D01*
X205430156Y-107890486D01*
X205442817Y-107824309D01*
X205449273Y-107764373D01*
X205453136Y-107695128D01*
X205454421Y-107616143D01*
X205453143Y-107535935D01*
X205449298Y-107465793D01*
X205442867Y-107405240D01*
X205430242Y-107338601D01*
X205407891Y-107276374D01*
X205364194Y-107224647D01*
X205305824Y-107208746D01*
X205296600Y-107209049D01*
X205240213Y-107229446D01*
X205203283Y-107275631D01*
X205180556Y-107337297D01*
X205167648Y-107403405D01*
X205161045Y-107463519D01*
X205157083Y-107533197D01*
X205155761Y-107612919D01*
X204910222Y-107612919D01*
X204910151Y-107609695D01*
X204911833Y-107534286D01*
X204916837Y-107464398D01*
X204925097Y-107399941D01*
X204936547Y-107340825D01*
X204959563Y-107261966D01*
X204989391Y-107194613D01*
X205025811Y-107138461D01*
X205068603Y-107093205D01*
X205117547Y-107058537D01*
X205172421Y-107034153D01*
X205233007Y-107019747D01*
X205299083Y-107015013D01*
X205365401Y-107019737D01*
G37*
G36*
X206489327Y-108178000D02*
G01*
X206489327Y-107969612D01*
X206009830Y-107969612D01*
X206032742Y-107914916D01*
X206070256Y-107867290D01*
X206114651Y-107824249D01*
X206159599Y-107788774D01*
X206222982Y-107743069D01*
X206278650Y-107700287D01*
X206326927Y-107659737D01*
X206380359Y-107607945D01*
X206421991Y-107557246D01*
X206452591Y-107506000D01*
X206476492Y-107438670D01*
X206485067Y-107380188D01*
X206486103Y-107348844D01*
X206481974Y-107289004D01*
X206464166Y-107218454D01*
X206433273Y-107158435D01*
X206390361Y-107108919D01*
X206336493Y-107069878D01*
X206272736Y-107041286D01*
X206200153Y-107023115D01*
X206140565Y-107016308D01*
X206098636Y-107015013D01*
X206035749Y-107018929D01*
X205977979Y-107030519D01*
X205909315Y-107057492D01*
X205850717Y-107097107D01*
X205802737Y-107148796D01*
X205765929Y-107211987D01*
X205740844Y-107286111D01*
X205730058Y-107348535D01*
X205726410Y-107416548D01*
X205955315Y-107416548D01*
X205959451Y-107352725D01*
X205974917Y-107295151D01*
X206012144Y-107246368D01*
X206066737Y-107223898D01*
X206108895Y-107220470D01*
X206173277Y-107228525D01*
X206226154Y-107261471D01*
X206251167Y-107319486D01*
X206253975Y-107355585D01*
X206244582Y-107417478D01*
X206212026Y-107474617D01*
X206168458Y-107519757D01*
X206117377Y-107561926D01*
X206065688Y-107600221D01*
X206051156Y-107610575D01*
X205999878Y-107648274D01*
X205953900Y-107684784D01*
X205894264Y-107737737D01*
X205844990Y-107789087D01*
X205805142Y-107839480D01*
X205773781Y-107889561D01*
X205743550Y-107956963D01*
X205724519Y-108026485D01*
X205714466Y-108099654D01*
X205711170Y-108178000D01*
X206489327Y-108178000D01*
G37*
G36*
X207162851Y-107746569D02*
G01*
X207288881Y-107746569D01*
X207288881Y-107935027D01*
X207162851Y-107935027D01*
X207162851Y-108178000D01*
X206925447Y-108178000D01*
X206925447Y-107935027D01*
X206491965Y-107935027D01*
X206491965Y-107746569D01*
X206727904Y-107746569D01*
X206930723Y-107746569D01*
X206930723Y-107401893D01*
X206727904Y-107746569D01*
X206491965Y-107746569D01*
X206491965Y-107733673D01*
X206902879Y-107052528D01*
X207162851Y-107052528D01*
X207162851Y-107746569D01*
G37*
D11*
%TO.C,REF\u002A\u002A*%
X204047085Y-99777438D02*
X205001040Y-99777438D01*
X205001040Y-100446807D01*
X203414426Y-100446807D01*
X203414426Y-97893635D01*
X204047085Y-97893635D01*
X204047085Y-99777438D01*
G36*
X204047085Y-99777438D02*
G01*
X205001040Y-99777438D01*
X205001040Y-100446807D01*
X203414426Y-100446807D01*
X203414426Y-97893635D01*
X204047085Y-97893635D01*
X204047085Y-99777438D01*
G37*
X201280951Y-100446807D02*
X200600090Y-100446807D01*
X200600090Y-99478685D01*
X200360434Y-99478685D01*
X200360434Y-100446807D01*
X199675134Y-100446807D01*
X199675134Y-97894155D01*
X200358148Y-97893635D01*
X200358148Y-98816437D01*
X200600090Y-98816437D01*
X200600090Y-97893635D01*
X201280951Y-97893635D01*
X201280951Y-100446807D01*
G36*
X201280951Y-100446807D02*
G01*
X200600090Y-100446807D01*
X200600090Y-99478685D01*
X200360434Y-99478685D01*
X200360434Y-100446807D01*
X199675134Y-100446807D01*
X199675134Y-97894155D01*
X200358148Y-97893635D01*
X200358148Y-98816437D01*
X200600090Y-98816437D01*
X200600090Y-97893635D01*
X201280951Y-97893635D01*
X201280951Y-100446807D01*
G37*
X203130951Y-100446807D02*
X202450090Y-100446807D01*
X202450090Y-99478685D01*
X202210434Y-99478685D01*
X202210434Y-100446807D01*
X201525134Y-100446807D01*
X201525134Y-97894155D01*
X202208148Y-97893635D01*
X202208148Y-98816437D01*
X202450090Y-98816437D01*
X202450090Y-97893635D01*
X203130951Y-97893635D01*
X203130951Y-100446807D01*
G36*
X203130951Y-100446807D02*
G01*
X202450090Y-100446807D01*
X202450090Y-99478685D01*
X202210434Y-99478685D01*
X202210434Y-100446807D01*
X201525134Y-100446807D01*
X201525134Y-97894155D01*
X202208148Y-97893635D01*
X202208148Y-98816437D01*
X202450090Y-98816437D01*
X202450090Y-97893635D01*
X203130951Y-97893635D01*
X203130951Y-100446807D01*
G37*
%TO.C,SW2*%
D12*
X246463563Y-124142540D02*
G75*
G02*
X242451063Y-124142540I-2006250J0D01*
G01*
X242451063Y-124142540D02*
G75*
G02*
X246463563Y-124142540I2006250J0D01*
G01*
%TO.C,SW1*%
X261639907Y-116584400D02*
G75*
G02*
X257627407Y-116584400I-2006250J0D01*
G01*
X257627407Y-116584400D02*
G75*
G02*
X261639907Y-116584400I2006250J0D01*
G01*
%TO.C,SW11*%
D13*
X197808657Y-154344400D02*
G75*
G02*
X194658657Y-154344400I-1575000J0D01*
G01*
X194658657Y-154344400D02*
G75*
G02*
X197808657Y-154344400I1575000J0D01*
G01*
%TO.C,SW3*%
D12*
X276152867Y-113094002D02*
G75*
G02*
X272140367Y-113094002I-2006250J0D01*
G01*
X272140367Y-113094002D02*
G75*
G02*
X276152867Y-113094002I2006250J0D01*
G01*
%TO.C,SW13*%
D13*
X205658657Y-146494400D02*
G75*
G02*
X202508657Y-146494400I-1575000J0D01*
G01*
X202508657Y-146494400D02*
G75*
G02*
X205658657Y-146494400I1575000J0D01*
G01*
%TO.C,SW12*%
X189958657Y-146494400D02*
G75*
G02*
X186808657Y-146494400I-1575000J0D01*
G01*
X186808657Y-146494400D02*
G75*
G02*
X189958657Y-146494400I1575000J0D01*
G01*
%TO.C,SW4*%
D12*
X257897782Y-102212626D02*
G75*
G02*
X253885282Y-102212626I-2006250J0D01*
G01*
X253885282Y-102212626D02*
G75*
G02*
X257897782Y-102212626I2006250J0D01*
G01*
%TO.C,SW10*%
D13*
X197808657Y-138644400D02*
G75*
G02*
X194658657Y-138644400I-1575000J0D01*
G01*
X194658657Y-138644400D02*
G75*
G02*
X197808657Y-138644400I1575000J0D01*
G01*
D14*
%TO.C,U4*%
X229895400Y-118528600D02*
X230395400Y-118528600D01*
X230395400Y-118918600D01*
X229895400Y-118918600D01*
X229895400Y-119028600D01*
X230395400Y-119028600D01*
X230395400Y-119418600D01*
X229895400Y-119418600D01*
X229895400Y-119868600D01*
X227355400Y-119868600D01*
X227355400Y-119418600D01*
X226855400Y-119418600D01*
X226855400Y-119028600D01*
X227355400Y-119028600D01*
X227355400Y-118918600D01*
X226855400Y-118918600D01*
X226855400Y-118528600D01*
X227355400Y-118528600D01*
X227355400Y-118078600D01*
X229895400Y-118078600D01*
X229895400Y-118528600D01*
G36*
X229895400Y-118528600D02*
G01*
X230395400Y-118528600D01*
X230395400Y-118918600D01*
X229895400Y-118918600D01*
X229895400Y-119028600D01*
X230395400Y-119028600D01*
X230395400Y-119418600D01*
X229895400Y-119418600D01*
X229895400Y-119868600D01*
X227355400Y-119868600D01*
X227355400Y-119418600D01*
X226855400Y-119418600D01*
X226855400Y-119028600D01*
X227355400Y-119028600D01*
X227355400Y-118918600D01*
X226855400Y-118918600D01*
X226855400Y-118528600D01*
X227355400Y-118528600D01*
X227355400Y-118078600D01*
X229895400Y-118078600D01*
X229895400Y-118528600D01*
G37*
X229815400Y-120743600D02*
X229435400Y-120743600D01*
X229435400Y-120003600D01*
X229815400Y-120003600D01*
X229815400Y-120743600D01*
G36*
X229815400Y-120743600D02*
G01*
X229435400Y-120743600D01*
X229435400Y-120003600D01*
X229815400Y-120003600D01*
X229815400Y-120743600D01*
G37*
X229815400Y-117943600D02*
X229435400Y-117943600D01*
X229435400Y-117203600D01*
X229815400Y-117203600D01*
X229815400Y-117943600D01*
G36*
X229815400Y-117943600D02*
G01*
X229435400Y-117943600D01*
X229435400Y-117203600D01*
X229815400Y-117203600D01*
X229815400Y-117943600D01*
G37*
X229315400Y-120743600D02*
X228935400Y-120743600D01*
X228935400Y-120003600D01*
X229315400Y-120003600D01*
X229315400Y-120743600D01*
G36*
X229315400Y-120743600D02*
G01*
X228935400Y-120743600D01*
X228935400Y-120003600D01*
X229315400Y-120003600D01*
X229315400Y-120743600D01*
G37*
X229315400Y-117943600D02*
X228935400Y-117943600D01*
X228935400Y-117203600D01*
X229315400Y-117203600D01*
X229315400Y-117943600D01*
G36*
X229315400Y-117943600D02*
G01*
X228935400Y-117943600D01*
X228935400Y-117203600D01*
X229315400Y-117203600D01*
X229315400Y-117943600D01*
G37*
X228815400Y-120743600D02*
X228435400Y-120743600D01*
X228435400Y-120003600D01*
X228815400Y-120003600D01*
X228815400Y-120743600D01*
G36*
X228815400Y-120743600D02*
G01*
X228435400Y-120743600D01*
X228435400Y-120003600D01*
X228815400Y-120003600D01*
X228815400Y-120743600D01*
G37*
X228815400Y-117943600D02*
X228435400Y-117943600D01*
X228435400Y-117203600D01*
X228815400Y-117203600D01*
X228815400Y-117943600D01*
G36*
X228815400Y-117943600D02*
G01*
X228435400Y-117943600D01*
X228435400Y-117203600D01*
X228815400Y-117203600D01*
X228815400Y-117943600D01*
G37*
X228315400Y-120743600D02*
X227935400Y-120743600D01*
X227935400Y-120003600D01*
X228315400Y-120003600D01*
X228315400Y-120743600D01*
G36*
X228315400Y-120743600D02*
G01*
X227935400Y-120743600D01*
X227935400Y-120003600D01*
X228315400Y-120003600D01*
X228315400Y-120743600D01*
G37*
X228315400Y-117943600D02*
X227935400Y-117943600D01*
X227935400Y-117203600D01*
X228315400Y-117203600D01*
X228315400Y-117943600D01*
G36*
X228315400Y-117943600D02*
G01*
X227935400Y-117943600D01*
X227935400Y-117203600D01*
X228315400Y-117203600D01*
X228315400Y-117943600D01*
G37*
X227815400Y-120743600D02*
X227435400Y-120743600D01*
X227435400Y-120003600D01*
X227815400Y-120003600D01*
X227815400Y-120743600D01*
G36*
X227815400Y-120743600D02*
G01*
X227435400Y-120743600D01*
X227435400Y-120003600D01*
X227815400Y-120003600D01*
X227815400Y-120743600D01*
G37*
X227815400Y-117943600D02*
X227435400Y-117943600D01*
X227435400Y-117203600D01*
X227815400Y-117203600D01*
X227815400Y-117943600D01*
G36*
X227815400Y-117943600D02*
G01*
X227435400Y-117943600D01*
X227435400Y-117203600D01*
X227815400Y-117203600D01*
X227815400Y-117943600D01*
G37*
%TD*%
D15*
%TO.C,R39*%
X270650702Y-134936789D03*
X271670702Y-134936789D03*
%TD*%
D16*
%TO.C,C4*%
X232714800Y-121351000D03*
X232714800Y-123251000D03*
%TD*%
D17*
%TO.C,R35*%
X268122400Y-127353600D03*
X268122400Y-128373600D03*
%TD*%
D18*
%TO.C,R1*%
X178614800Y-127203200D03*
X177594800Y-127203200D03*
%TD*%
D19*
%TO.C,C26*%
X279425157Y-137847794D03*
X280385157Y-137847794D03*
%TD*%
D15*
%TO.C,R5*%
X230071200Y-102108000D03*
X231091200Y-102108000D03*
%TD*%
D19*
%TO.C,C27*%
X276684800Y-137922000D03*
X277644800Y-137922000D03*
%TD*%
D17*
%TO.C,R38*%
X240817400Y-97584800D03*
X240817400Y-98604800D03*
%TD*%
D20*
%TO.C,C33*%
X165450000Y-137170000D03*
X164490000Y-137170000D03*
%TD*%
D21*
%TO.C,J8*%
X255457200Y-131775200D03*
D22*
X253457200Y-131775200D03*
%TD*%
D23*
%TO.C,L5*%
X228617200Y-122783600D03*
X230767200Y-122783600D03*
%TD*%
D24*
%TO.C,R6*%
X218453900Y-106566900D03*
X217813900Y-106566900D03*
%TD*%
D25*
%TO.C,SW2*%
X242656807Y-120734574D03*
D26*
X246410517Y-127465457D03*
%TD*%
D27*
%TO.C,C15*%
X230606600Y-104729400D03*
X230606600Y-105689400D03*
%TD*%
D28*
%TO.C,D7*%
X168086000Y-135940800D03*
X166686000Y-135940800D03*
%TD*%
D18*
%TO.C,R12*%
X229160800Y-107289600D03*
X228140800Y-107289600D03*
%TD*%
%TO.C,R41*%
X280697400Y-135382000D03*
X279677400Y-135382000D03*
%TD*%
D25*
%TO.C,SW1*%
X257833151Y-113176434D03*
D26*
X261586861Y-119907317D03*
%TD*%
D25*
%TO.C,SW3*%
X272346111Y-109686036D03*
D26*
X276099821Y-116416919D03*
%TD*%
D19*
%TO.C,C11*%
X215166000Y-108550000D03*
X216126000Y-108550000D03*
%TD*%
D29*
%TO.C,Q5*%
X167136600Y-133441400D03*
X169011600Y-132491400D03*
X169011600Y-134391400D03*
%TD*%
D30*
%TO.C,C3*%
X228826727Y-99623328D03*
X226126727Y-99623328D03*
%TD*%
D31*
%TO.C,R34*%
X267106400Y-128373600D03*
X267106400Y-127353600D03*
%TD*%
D15*
%TO.C,R3*%
X229380951Y-116488984D03*
X230400951Y-116488984D03*
%TD*%
D31*
%TO.C,R37*%
X239813091Y-98594045D03*
X239813091Y-97574045D03*
%TD*%
D20*
%TO.C,C32*%
X171460000Y-136350000D03*
X170500000Y-136350000D03*
%TD*%
D32*
%TO.C,SW6*%
X186152579Y-114543149D03*
X186021739Y-117039723D03*
X185890899Y-119536297D03*
X179374913Y-125403317D03*
X176878339Y-125272477D03*
X174381765Y-125141637D03*
D33*
X167027480Y-119298736D03*
X167367664Y-112807644D03*
X171521313Y-119534248D03*
X171861497Y-113043156D03*
D34*
X181995785Y-123162412D03*
X182657835Y-110529748D03*
D35*
X177108617Y-120878507D03*
X177558707Y-112290293D03*
D34*
X172009489Y-122639052D03*
X172671539Y-110006388D03*
%TD*%
D19*
%TO.C,C8*%
X217861059Y-102628684D03*
X218821059Y-102628684D03*
%TD*%
D28*
%TO.C,D14*%
X280565200Y-136626257D03*
X279165200Y-136626257D03*
%TD*%
D15*
%TO.C,R25*%
X221580478Y-99819463D03*
X222600478Y-99819463D03*
%TD*%
D36*
%TO.C,C5*%
X227921301Y-102116168D03*
X227921301Y-101156168D03*
%TD*%
D17*
%TO.C,R36*%
X189204600Y-97457800D03*
X189204600Y-98477800D03*
%TD*%
D37*
%TO.C,C23*%
X226720400Y-123987600D03*
X226720400Y-122087600D03*
%TD*%
D17*
%TO.C,R11*%
X208534000Y-132991353D03*
X208534000Y-134011353D03*
%TD*%
D31*
%TO.C,R4*%
X190233710Y-98479816D03*
X190233710Y-97459816D03*
%TD*%
D38*
%TO.C,SW7*%
X170020963Y-99834400D03*
X166643465Y-101784400D03*
D39*
X170546316Y-96644336D03*
X163618112Y-100644336D03*
%TD*%
D15*
%TO.C,R33*%
X163116800Y-134594600D03*
X164136800Y-134594600D03*
%TD*%
D40*
%TO.C,D6*%
X165354000Y-133183400D03*
X165354000Y-134583400D03*
%TD*%
D41*
%TO.C,SW8*%
X270323849Y-101784400D03*
X266946351Y-99834400D03*
D42*
X273349202Y-100644336D03*
X266420998Y-96644336D03*
%TD*%
D43*
%TO.C,D16*%
X274698722Y-139152065D03*
X276098722Y-139152065D03*
%TD*%
D44*
%TO.C,SW17*%
X212171157Y-121516400D03*
X212171157Y-115516400D03*
X215921157Y-121516400D03*
X215921157Y-115516400D03*
%TD*%
D19*
%TO.C,C6*%
X217866133Y-103610480D03*
X218826133Y-103610480D03*
%TD*%
D45*
%TO.C,Q6*%
X269838300Y-138704800D03*
X268888300Y-136829800D03*
X270788300Y-136829800D03*
%TD*%
D15*
%TO.C,R28*%
X222884692Y-97368373D03*
X223904692Y-97368373D03*
%TD*%
D17*
%TO.C,R10*%
X215595200Y-111224600D03*
X215595200Y-112244600D03*
%TD*%
D46*
%TO.C,X3*%
X261035800Y-109601000D03*
%TD*%
D47*
%TO.C,D13*%
X212938400Y-137080900D03*
X212938400Y-137730900D03*
X212938400Y-138380900D03*
X211038400Y-138380900D03*
X211038400Y-137730900D03*
X211038400Y-137080900D03*
%TD*%
D48*
%TO.C,U8*%
X223484800Y-107408100D03*
D49*
X220047300Y-110008100D03*
X220047300Y-109608100D03*
X220047300Y-109208100D03*
X220047300Y-108808100D03*
X220047300Y-108408100D03*
X220047300Y-108008100D03*
X220047300Y-107608100D03*
X220047300Y-107208100D03*
X220047300Y-106808100D03*
X220047300Y-106408100D03*
X220047300Y-106008100D03*
X220047300Y-105608100D03*
X220047300Y-105208100D03*
X220047300Y-104808100D03*
D50*
X220884800Y-103970600D03*
X221284800Y-103970600D03*
X221684800Y-103970600D03*
X222084800Y-103970600D03*
X222484800Y-103970600D03*
X222884800Y-103970600D03*
X223284800Y-103970600D03*
X223684800Y-103970600D03*
X224084800Y-103970600D03*
X224484800Y-103970600D03*
X224884800Y-103970600D03*
X225284800Y-103970600D03*
X225684800Y-103970600D03*
X226084800Y-103970600D03*
D49*
X226922300Y-104808100D03*
X226922300Y-105208100D03*
X226922300Y-105608100D03*
X226922300Y-106008100D03*
X226922300Y-106408100D03*
X226922300Y-106808100D03*
X226922300Y-107208100D03*
X226922300Y-107608100D03*
X226922300Y-108008100D03*
X226922300Y-108408100D03*
X226922300Y-108808100D03*
X226922300Y-109208100D03*
X226922300Y-109608100D03*
X226922300Y-110008100D03*
D50*
X226084800Y-110845600D03*
X225684800Y-110845600D03*
X225284800Y-110845600D03*
X224884800Y-110845600D03*
X224484800Y-110845600D03*
X224084800Y-110845600D03*
X223684800Y-110845600D03*
X223284800Y-110845600D03*
X222884800Y-110845600D03*
X222484800Y-110845600D03*
X222084800Y-110845600D03*
X221684800Y-110845600D03*
X221284800Y-110845600D03*
X220884800Y-110845600D03*
%TD*%
D46*
%TO.C,X2*%
X255422400Y-111302800D03*
%TD*%
D24*
%TO.C,R7*%
X218455261Y-105575207D03*
X217815261Y-105575207D03*
%TD*%
D46*
%TO.C,X5*%
X238302800Y-121996200D03*
%TD*%
D31*
%TO.C,R40*%
X269671800Y-135003000D03*
X269671800Y-133983000D03*
%TD*%
D21*
%TO.C,J4*%
X268380200Y-144195800D03*
X270380200Y-144195800D03*
X272380200Y-144195800D03*
X274380200Y-144195800D03*
X276380200Y-144195800D03*
D22*
X278380200Y-144195800D03*
%TD*%
D43*
%TO.C,D3*%
X163993600Y-135940800D03*
X165393600Y-135940800D03*
%TD*%
D51*
%TO.C,D8*%
X184414400Y-130942000D03*
X185064400Y-130942000D03*
X185714400Y-130942000D03*
X185714400Y-132842000D03*
X185064400Y-132842000D03*
X184414400Y-132842000D03*
%TD*%
D20*
%TO.C,C10*%
X218831207Y-104594813D03*
X217871207Y-104594813D03*
%TD*%
D21*
%TO.C,J9*%
X175955200Y-136347200D03*
D22*
X173955200Y-136347200D03*
%TD*%
D52*
%TO.C,U6*%
X198149700Y-118455800D03*
X198149700Y-119105800D03*
X198149700Y-119755800D03*
X198149700Y-120405800D03*
X193924700Y-120405800D03*
X193924700Y-119755800D03*
X193924700Y-119105800D03*
X193924700Y-118455800D03*
%TD*%
D53*
%TO.C,D5*%
X238627800Y-106745800D03*
X238627800Y-106095800D03*
X238627800Y-105445800D03*
X240527800Y-105445800D03*
X240527800Y-106095800D03*
X240527800Y-106745800D03*
%TD*%
D54*
%TO.C,SW5*%
X215483657Y-134603800D03*
X221483657Y-134603800D03*
X215483657Y-138353800D03*
X221483657Y-138353800D03*
%TD*%
D17*
%TO.C,R2*%
X188112400Y-115263200D03*
X188112400Y-116283200D03*
%TD*%
D43*
%TO.C,D15*%
X277278790Y-139140649D03*
X278678790Y-139140649D03*
%TD*%
D55*
%TO.C,Y1*%
X232779200Y-108008600D03*
X232779200Y-105808600D03*
X234479200Y-105808600D03*
X234479200Y-108008600D03*
%TD*%
D47*
%TO.C,D12*%
X212938400Y-134221000D03*
X212938400Y-134871000D03*
X212938400Y-135521000D03*
X211038400Y-135521000D03*
X211038400Y-134871000D03*
X211038400Y-134221000D03*
%TD*%
D56*
%TO.C,C1*%
X178459300Y-128473200D03*
X176734300Y-128473200D03*
%TD*%
D46*
%TO.C,X4*%
X249351800Y-106248200D03*
%TD*%
D44*
%TO.C,SW18*%
X224796157Y-124391400D03*
X224796157Y-130391400D03*
X221046157Y-124391400D03*
X221046157Y-130391400D03*
%TD*%
D19*
%TO.C,C7*%
X218061600Y-101650800D03*
X219021600Y-101650800D03*
%TD*%
D25*
%TO.C,SW4*%
X254091026Y-98804660D03*
D26*
X257844736Y-105535543D03*
%TD*%
D20*
%TO.C,C25*%
X271617870Y-133937869D03*
X270657870Y-133937869D03*
%TD*%
D57*
%TO.C,D10*%
X224103924Y-101198331D03*
X224103924Y-98698331D03*
%TD*%
D46*
%TO.C,TP5*%
X184658000Y-97891600D03*
%TD*%
D58*
%TO.C,C2*%
X189382400Y-115571100D03*
X189382400Y-117296100D03*
%TD*%
D20*
%TO.C,C34*%
X167640000Y-137170000D03*
X166680000Y-137170000D03*
%TD*%
D44*
%TO.C,SW19*%
X212171157Y-130391400D03*
X212171157Y-124391400D03*
X215921157Y-130391400D03*
X215921157Y-124391400D03*
%TD*%
D51*
%TO.C,D11*%
X187310000Y-129555200D03*
X187960000Y-129555200D03*
X188610000Y-129555200D03*
X188610000Y-131455200D03*
X187960000Y-131455200D03*
X187310000Y-131455200D03*
%TD*%
D20*
%TO.C,C24*%
X229225523Y-115499577D03*
X228265523Y-115499577D03*
%TD*%
D36*
%TO.C,C14*%
X230581200Y-108226800D03*
X230581200Y-107266800D03*
%TD*%
D59*
%TO.C,J2*%
X231807400Y-125544200D03*
X231807400Y-129624200D03*
D60*
X229157400Y-126334200D03*
X229157400Y-126834200D03*
X229157400Y-127334200D03*
X229157400Y-127834200D03*
X229157400Y-128334200D03*
X229157400Y-128834200D03*
%TD*%
D20*
%TO.C,C9*%
X217196499Y-107556162D03*
X216236499Y-107556162D03*
%TD*%
D15*
%TO.C,R31*%
X170490000Y-137340000D03*
X171510000Y-137340000D03*
%TD*%
D17*
%TO.C,R32*%
X170535600Y-134389400D03*
X170535600Y-135409400D03*
%TD*%
D46*
%TO.C,X1*%
X256108200Y-126263400D03*
%TD*%
D51*
%TO.C,Q4*%
X220228400Y-96738400D03*
X220878400Y-96738400D03*
X221528400Y-96738400D03*
X221528400Y-98638400D03*
X220878400Y-98638400D03*
X220228400Y-98638400D03*
%TD*%
D44*
%TO.C,SW9*%
X224796157Y-115516400D03*
X224796157Y-121516400D03*
X221046157Y-115516400D03*
X221046157Y-121516400D03*
%TD*%
D61*
%TO.C,D9*%
X225908172Y-97577086D03*
X228408172Y-97577086D03*
%TD*%
D53*
%TO.C,D4*%
X237810000Y-109605600D03*
X237810000Y-108955600D03*
X237810000Y-108305600D03*
X239710000Y-108305600D03*
X239710000Y-108955600D03*
X239710000Y-109605600D03*
%TD*%
D62*
%TO.C,L6*%
X218008657Y-142088600D03*
X218958657Y-142088600D03*
X218958657Y-143038600D03*
X218008657Y-143038600D03*
%TD*%
D46*
%TO.C,X6*%
X247421400Y-117881400D03*
%TD*%
D63*
%TO.C,U9*%
X217689993Y-110224008D03*
D64*
X216939993Y-109024008D03*
X217439993Y-109024008D03*
X217939993Y-109024008D03*
X218439993Y-109024008D03*
X218439993Y-111424008D03*
X217939993Y-111424008D03*
X217439993Y-111424008D03*
X216939993Y-111424008D03*
%TD*%
D65*
%TO.C,S6*%
X245983657Y-101434400D03*
%TD*%
%TO.C,S4*%
X243483657Y-101434400D03*
%TD*%
%TO.C,S3*%
X195983657Y-101434400D03*
%TD*%
D21*
%TO.C,J3*%
X235378000Y-95905000D03*
X233378000Y-95905000D03*
X231378000Y-95905000D03*
X229378000Y-95905000D03*
X227378000Y-95905000D03*
D22*
X225378000Y-95905000D03*
%TD*%
D66*
%TO.C,J7*%
X279501600Y-125635000D03*
D67*
X279501600Y-127635000D03*
%TD*%
D65*
%TO.C,S5*%
X240983657Y-101434400D03*
%TD*%
D68*
%TO.C,RV2*%
X239133657Y-112934400D03*
X247833657Y-112934400D03*
%TD*%
D66*
%TO.C,J6*%
X158623000Y-125635000D03*
D67*
X158623000Y-127635000D03*
%TD*%
D68*
%TO.C,RV1*%
X189133657Y-112934400D03*
X197833657Y-112934400D03*
%TD*%
D65*
%TO.C,S1*%
X193483657Y-101434400D03*
%TD*%
%TO.C,S2*%
X190983657Y-101434400D03*
%TD*%
D21*
%TO.C,J11*%
X210467500Y-96113000D03*
X208467500Y-96113000D03*
X206467500Y-96113000D03*
X204467500Y-96113000D03*
D22*
X202467500Y-96113000D03*
%TD*%
M02*
