%TF.GenerationSoftware,KiCad,Pcbnew,8.0.2*%
%TF.CreationDate,2024-10-28T19:38:45-07:00*%
%TF.ProjectId,UGC_OpenMain,5547435f-4f70-4656-9e4d-61696e2e6b69,rev?*%
%TF.SameCoordinates,Original*%
%TF.FileFunction,Paste,Top*%
%TF.FilePolarity,Positive*%
%FSLAX46Y46*%
G04 Gerber Fmt 4.6, Leading zero omitted, Abs format (unit mm)*
G04 Created by KiCad (PCBNEW 8.0.2) date 2024-10-28 19:38:45*
%MOMM*%
%LPD*%
G01*
G04 APERTURE LIST*
G04 Aperture macros list*
%AMRoundRect*
0 Rectangle with rounded corners*
0 $1 Rounding radius*
0 $2 $3 $4 $5 $6 $7 $8 $9 X,Y pos of 4 corners*
0 Add a 4 corners polygon primitive as box body*
4,1,4,$2,$3,$4,$5,$6,$7,$8,$9,$2,$3,0*
0 Add four circle primitives for the rounded corners*
1,1,$1+$1,$2,$3*
1,1,$1+$1,$4,$5*
1,1,$1+$1,$6,$7*
1,1,$1+$1,$8,$9*
0 Add four rect primitives between the rounded corners*
20,1,$1+$1,$2,$3,$4,$5,0*
20,1,$1+$1,$4,$5,$6,$7,0*
20,1,$1+$1,$6,$7,$8,$9,0*
20,1,$1+$1,$8,$9,$2,$3,0*%
%AMHorizOval*
0 Thick line with rounded ends*
0 $1 width*
0 $2 $3 position (X,Y) of the first rounded end (center of the circle)*
0 $4 $5 position (X,Y) of the second rounded end (center of the circle)*
0 Add line between two ends*
20,1,$1,$2,$3,$4,$5,0*
0 Add two circle primitives to create the rounded ends*
1,1,$1,$2,$3*
1,1,$1,$4,$5*%
G04 Aperture macros list end*
%ADD10C,0.010000*%
%ADD11RoundRect,0.135000X0.135000X0.185000X-0.135000X0.185000X-0.135000X-0.185000X0.135000X-0.185000X0*%
%ADD12RoundRect,0.250000X0.475000X-0.250000X0.475000X0.250000X-0.475000X0.250000X-0.475000X-0.250000X0*%
%ADD13RoundRect,0.135000X0.185000X-0.135000X0.185000X0.135000X-0.185000X0.135000X-0.185000X-0.135000X0*%
%ADD14RoundRect,0.135000X-0.135000X-0.185000X0.135000X-0.185000X0.135000X0.185000X-0.135000X0.185000X0*%
%ADD15RoundRect,0.140000X0.140000X0.170000X-0.140000X0.170000X-0.140000X-0.170000X0.140000X-0.170000X0*%
%ADD16RoundRect,0.140000X-0.140000X-0.170000X0.140000X-0.170000X0.140000X0.170000X-0.140000X0.170000X0*%
%ADD17RoundRect,0.250000X0.375000X0.850000X-0.375000X0.850000X-0.375000X-0.850000X0.375000X-0.850000X0*%
%ADD18RoundRect,0.079500X-0.079500X-0.100500X0.079500X-0.100500X0.079500X0.100500X-0.079500X0.100500X0*%
%ADD19RoundRect,0.140000X0.170000X-0.140000X0.170000X0.140000X-0.170000X0.140000X-0.170000X-0.140000X0*%
%ADD20RoundRect,0.150000X0.150000X0.200000X-0.150000X0.200000X-0.150000X-0.200000X0.150000X-0.200000X0*%
%ADD21RoundRect,0.150000X0.587500X0.150000X-0.587500X0.150000X-0.587500X-0.150000X0.587500X-0.150000X0*%
%ADD22RoundRect,0.250000X-0.450000X-0.425000X0.450000X-0.425000X0.450000X0.425000X-0.450000X0.425000X0*%
%ADD23RoundRect,0.135000X-0.185000X0.135000X-0.185000X-0.135000X0.185000X-0.135000X0.185000X0.135000X0*%
%ADD24RoundRect,0.140000X-0.170000X0.140000X-0.170000X-0.140000X0.170000X-0.140000X0.170000X0.140000X0*%
%ADD25RoundRect,0.250000X-0.475000X0.250000X-0.475000X-0.250000X0.475000X-0.250000X0.475000X0.250000X0*%
%ADD26HorizOval,1.700000X0.259808X0.150000X-0.259808X-0.150000X0*%
%ADD27HorizOval,2.250000X-0.250000X0.433013X0.250000X-0.433013X0*%
%ADD28RoundRect,0.150000X-0.200000X0.150000X-0.200000X-0.150000X0.200000X-0.150000X0.200000X0.150000X0*%
%ADD29HorizOval,1.700000X0.259808X-0.150000X-0.259808X0.150000X0*%
%ADD30HorizOval,2.250000X-0.250000X-0.433013X0.250000X0.433013X0*%
%ADD31RoundRect,0.150000X-0.150000X-0.200000X0.150000X-0.200000X0.150000X0.200000X-0.150000X0.200000X0*%
%ADD32R,0.750000X1.000000*%
%ADD33RoundRect,0.150000X-0.150000X0.587500X-0.150000X-0.587500X0.150000X-0.587500X0.150000X0.587500X0*%
%ADD34RoundRect,0.100000X-0.225000X-0.100000X0.225000X-0.100000X0.225000X0.100000X-0.225000X0.100000X0*%
%ADD35RoundRect,0.050000X0.387500X-0.050000X0.387500X0.050000X-0.387500X0.050000X-0.387500X-0.050000X0*%
%ADD36RoundRect,0.050000X0.050000X-0.387500X0.050000X0.387500X-0.050000X0.387500X-0.050000X-0.387500X0*%
%ADD37RoundRect,0.249999X0.395001X-0.395001X0.395001X0.395001X-0.395001X0.395001X-0.395001X-0.395001X0*%
%ADD38RoundRect,0.100000X0.100000X-0.225000X0.100000X0.225000X-0.100000X0.225000X-0.100000X-0.225000X0*%
%ADD39RoundRect,0.100000X-0.712500X-0.100000X0.712500X-0.100000X0.712500X0.100000X-0.712500X0.100000X0*%
%ADD40RoundRect,0.100000X0.225000X0.100000X-0.225000X0.100000X-0.225000X-0.100000X0.225000X-0.100000X0*%
%ADD41R,1.000000X0.750000*%
%ADD42R,1.200000X1.400000*%
%ADD43RoundRect,0.237500X-0.300000X-0.237500X0.300000X-0.237500X0.300000X0.237500X-0.300000X0.237500X0*%
%ADD44RoundRect,0.250000X-0.250000X0.250000X-0.250000X-0.250000X0.250000X-0.250000X0.250000X0.250000X0*%
%ADD45RoundRect,0.237500X0.237500X-0.300000X0.237500X0.300000X-0.237500X0.300000X-0.237500X-0.300000X0*%
%ADD46R,1.000000X0.300000*%
%ADD47R,0.700000X0.300000*%
%ADD48RoundRect,0.007200X0.112800X-0.292800X0.112800X0.292800X-0.112800X0.292800X-0.112800X-0.292800X0*%
%ADD49RoundRect,0.250000X0.250000X0.250000X-0.250000X0.250000X-0.250000X-0.250000X0.250000X-0.250000X0*%
%ADD50R,0.550000X0.550000*%
%ADD51R,1.600000X0.200000*%
%ADD52R,0.300000X0.400000*%
G04 APERTURE END LIST*
D10*
%TO.C,U4*%
X230325400Y-119348600D02*
X229985400Y-119348600D01*
X229985400Y-119098600D01*
X230325400Y-119098600D01*
X230325400Y-119348600D01*
G36*
X230325400Y-119348600D02*
G01*
X229985400Y-119348600D01*
X229985400Y-119098600D01*
X230325400Y-119098600D01*
X230325400Y-119348600D01*
G37*
X230325400Y-118848600D02*
X229985400Y-118848600D01*
X229985400Y-118598600D01*
X230325400Y-118598600D01*
X230325400Y-118848600D01*
G36*
X230325400Y-118848600D02*
G01*
X229985400Y-118848600D01*
X229985400Y-118598600D01*
X230325400Y-118598600D01*
X230325400Y-118848600D01*
G37*
X229785400Y-119723600D02*
X228725400Y-119723600D01*
X228725400Y-118223600D01*
X229785400Y-118223600D01*
X229785400Y-119723600D01*
G36*
X229785400Y-119723600D02*
G01*
X228725400Y-119723600D01*
X228725400Y-118223600D01*
X229785400Y-118223600D01*
X229785400Y-119723600D01*
G37*
X228525400Y-119723600D02*
X227465400Y-119723600D01*
X227465400Y-118223600D01*
X228525400Y-118223600D01*
X228525400Y-119723600D01*
G36*
X228525400Y-119723600D02*
G01*
X227465400Y-119723600D01*
X227465400Y-118223600D01*
X228525400Y-118223600D01*
X228525400Y-119723600D01*
G37*
X227265400Y-119348600D02*
X226925400Y-119348600D01*
X226925400Y-119098600D01*
X227265400Y-119098600D01*
X227265400Y-119348600D01*
G36*
X227265400Y-119348600D02*
G01*
X226925400Y-119348600D01*
X226925400Y-119098600D01*
X227265400Y-119098600D01*
X227265400Y-119348600D01*
G37*
X227265400Y-118848600D02*
X226925400Y-118848600D01*
X226925400Y-118598600D01*
X227265400Y-118598600D01*
X227265400Y-118848600D01*
G36*
X227265400Y-118848600D02*
G01*
X226925400Y-118848600D01*
X226925400Y-118598600D01*
X227265400Y-118598600D01*
X227265400Y-118848600D01*
G37*
%TD*%
D11*
%TO.C,R39*%
X270650702Y-134936789D03*
X271670702Y-134936789D03*
%TD*%
D12*
%TO.C,C4*%
X232714800Y-121351000D03*
X232714800Y-123251000D03*
%TD*%
D13*
%TO.C,R35*%
X268122400Y-127353600D03*
X268122400Y-128373600D03*
%TD*%
D14*
%TO.C,R1*%
X178614800Y-127203200D03*
X177594800Y-127203200D03*
%TD*%
D15*
%TO.C,C26*%
X279425157Y-137847794D03*
X280385157Y-137847794D03*
%TD*%
D11*
%TO.C,R5*%
X230071200Y-102108000D03*
X231091200Y-102108000D03*
%TD*%
D15*
%TO.C,C27*%
X276684800Y-137922000D03*
X277644800Y-137922000D03*
%TD*%
D13*
%TO.C,R38*%
X240817400Y-97584800D03*
X240817400Y-98604800D03*
%TD*%
D16*
%TO.C,C33*%
X165450000Y-137170000D03*
X164490000Y-137170000D03*
%TD*%
D17*
%TO.C,L5*%
X228617200Y-122783600D03*
X230767200Y-122783600D03*
%TD*%
D18*
%TO.C,R6*%
X218478900Y-106566900D03*
X217788900Y-106566900D03*
%TD*%
D19*
%TO.C,C15*%
X230606600Y-104729400D03*
X230606600Y-105689400D03*
%TD*%
D20*
%TO.C,D7*%
X168086000Y-135940800D03*
X166686000Y-135940800D03*
%TD*%
D14*
%TO.C,R12*%
X229160800Y-107289600D03*
X228140800Y-107289600D03*
%TD*%
%TO.C,R41*%
X280697400Y-135382000D03*
X279677400Y-135382000D03*
%TD*%
D15*
%TO.C,C11*%
X215166000Y-108550000D03*
X216126000Y-108550000D03*
%TD*%
D21*
%TO.C,Q5*%
X167136600Y-133441400D03*
X169011600Y-132491400D03*
X169011600Y-134391400D03*
%TD*%
D22*
%TO.C,C3*%
X228826727Y-99623328D03*
X226126727Y-99623328D03*
%TD*%
D23*
%TO.C,R34*%
X267106400Y-128373600D03*
X267106400Y-127353600D03*
%TD*%
D11*
%TO.C,R3*%
X229380951Y-116488984D03*
X230400951Y-116488984D03*
%TD*%
D23*
%TO.C,R37*%
X239813091Y-98594045D03*
X239813091Y-97574045D03*
%TD*%
D16*
%TO.C,C32*%
X171460000Y-136350000D03*
X170500000Y-136350000D03*
%TD*%
D15*
%TO.C,C8*%
X217861059Y-102628684D03*
X218821059Y-102628684D03*
%TD*%
D20*
%TO.C,D14*%
X280565200Y-136626257D03*
X279165200Y-136626257D03*
%TD*%
D11*
%TO.C,R25*%
X221580478Y-99819463D03*
X222600478Y-99819463D03*
%TD*%
D24*
%TO.C,C5*%
X227921301Y-102116168D03*
X227921301Y-101156168D03*
%TD*%
D13*
%TO.C,R36*%
X189204600Y-97457800D03*
X189204600Y-98477800D03*
%TD*%
D25*
%TO.C,C23*%
X226720400Y-123987600D03*
X226720400Y-122087600D03*
%TD*%
D13*
%TO.C,R11*%
X208534000Y-132991353D03*
X208534000Y-134011353D03*
%TD*%
D23*
%TO.C,R4*%
X190233710Y-98479816D03*
X190233710Y-97459816D03*
%TD*%
D26*
%TO.C,SW7*%
X170020963Y-99834400D03*
X166643465Y-101784400D03*
D27*
X170546316Y-96644336D03*
X163618112Y-100644336D03*
%TD*%
D11*
%TO.C,R33*%
X163116800Y-134594600D03*
X164136800Y-134594600D03*
%TD*%
D28*
%TO.C,D6*%
X165354000Y-133183400D03*
X165354000Y-134583400D03*
%TD*%
D29*
%TO.C,SW8*%
X270323849Y-101784400D03*
X266946351Y-99834400D03*
D30*
X273349202Y-100644336D03*
X266420998Y-96644336D03*
%TD*%
D31*
%TO.C,D16*%
X274698722Y-139152065D03*
X276098722Y-139152065D03*
%TD*%
D32*
%TO.C,SW17*%
X212171157Y-121516400D03*
X212171157Y-115516400D03*
X215921157Y-121516400D03*
X215921157Y-115516400D03*
%TD*%
D15*
%TO.C,C6*%
X217866133Y-103610480D03*
X218826133Y-103610480D03*
%TD*%
D33*
%TO.C,Q6*%
X269838300Y-138704800D03*
X268888300Y-136829800D03*
X270788300Y-136829800D03*
%TD*%
D11*
%TO.C,R28*%
X222884692Y-97368373D03*
X223904692Y-97368373D03*
%TD*%
D13*
%TO.C,R10*%
X215595200Y-111224600D03*
X215595200Y-112244600D03*
%TD*%
D34*
%TO.C,D13*%
X212938400Y-137080900D03*
X212938400Y-137730900D03*
X212938400Y-138380900D03*
X211038400Y-138380900D03*
X211038400Y-137730900D03*
X211038400Y-137080900D03*
%TD*%
D35*
%TO.C,U8*%
X220047300Y-110008100D03*
X220047300Y-109608100D03*
X220047300Y-109208100D03*
X220047300Y-108808100D03*
X220047300Y-108408100D03*
X220047300Y-108008100D03*
X220047300Y-107608100D03*
X220047300Y-107208100D03*
X220047300Y-106808100D03*
X220047300Y-106408100D03*
X220047300Y-106008100D03*
X220047300Y-105608100D03*
X220047300Y-105208100D03*
X220047300Y-104808100D03*
D36*
X220884800Y-103970600D03*
X221284800Y-103970600D03*
X221684800Y-103970600D03*
X222084800Y-103970600D03*
X222484800Y-103970600D03*
X222884800Y-103970600D03*
X223284800Y-103970600D03*
X223684800Y-103970600D03*
X224084800Y-103970600D03*
X224484800Y-103970600D03*
X224884800Y-103970600D03*
X225284800Y-103970600D03*
X225684800Y-103970600D03*
X226084800Y-103970600D03*
D35*
X226922300Y-104808100D03*
X226922300Y-105208100D03*
X226922300Y-105608100D03*
X226922300Y-106008100D03*
X226922300Y-106408100D03*
X226922300Y-106808100D03*
X226922300Y-107208100D03*
X226922300Y-107608100D03*
X226922300Y-108008100D03*
X226922300Y-108408100D03*
X226922300Y-108808100D03*
X226922300Y-109208100D03*
X226922300Y-109608100D03*
X226922300Y-110008100D03*
D36*
X226084800Y-110845600D03*
X225684800Y-110845600D03*
X225284800Y-110845600D03*
X224884800Y-110845600D03*
X224484800Y-110845600D03*
X224084800Y-110845600D03*
X223684800Y-110845600D03*
X223284800Y-110845600D03*
X222884800Y-110845600D03*
X222484800Y-110845600D03*
X222084800Y-110845600D03*
X221684800Y-110845600D03*
X221284800Y-110845600D03*
X220884800Y-110845600D03*
D37*
X224284800Y-106608100D03*
X222684800Y-106608100D03*
X224284800Y-108208100D03*
X222684800Y-108208100D03*
%TD*%
D18*
%TO.C,R7*%
X218480261Y-105575207D03*
X217790261Y-105575207D03*
%TD*%
D23*
%TO.C,R40*%
X269671800Y-135003000D03*
X269671800Y-133983000D03*
%TD*%
D31*
%TO.C,D3*%
X163993600Y-135940800D03*
X165393600Y-135940800D03*
%TD*%
D38*
%TO.C,D8*%
X184414400Y-130942000D03*
X185064400Y-130942000D03*
X185714400Y-130942000D03*
X185714400Y-132842000D03*
X185064400Y-132842000D03*
X184414400Y-132842000D03*
%TD*%
D16*
%TO.C,C10*%
X218831207Y-104594813D03*
X217871207Y-104594813D03*
%TD*%
D39*
%TO.C,U6*%
X198149700Y-118455800D03*
X198149700Y-119105800D03*
X198149700Y-119755800D03*
X198149700Y-120405800D03*
X193924700Y-120405800D03*
X193924700Y-119755800D03*
X193924700Y-119105800D03*
X193924700Y-118455800D03*
%TD*%
D40*
%TO.C,D5*%
X238627800Y-106745800D03*
X238627800Y-106095800D03*
X238627800Y-105445800D03*
X240527800Y-105445800D03*
X240527800Y-106095800D03*
X240527800Y-106745800D03*
%TD*%
D41*
%TO.C,SW5*%
X215483657Y-134603800D03*
X221483657Y-134603800D03*
X215483657Y-138353800D03*
X221483657Y-138353800D03*
%TD*%
D13*
%TO.C,R2*%
X188112400Y-115263200D03*
X188112400Y-116283200D03*
%TD*%
D31*
%TO.C,D15*%
X277278790Y-139140649D03*
X278678790Y-139140649D03*
%TD*%
D42*
%TO.C,Y1*%
X232779200Y-108008600D03*
X232779200Y-105808600D03*
X234479200Y-105808600D03*
X234479200Y-108008600D03*
%TD*%
D34*
%TO.C,D12*%
X212938400Y-134221000D03*
X212938400Y-134871000D03*
X212938400Y-135521000D03*
X211038400Y-135521000D03*
X211038400Y-134871000D03*
X211038400Y-134221000D03*
%TD*%
D43*
%TO.C,C1*%
X178459300Y-128473200D03*
X176734300Y-128473200D03*
%TD*%
D32*
%TO.C,SW18*%
X224796157Y-124391400D03*
X224796157Y-130391400D03*
X221046157Y-124391400D03*
X221046157Y-130391400D03*
%TD*%
D15*
%TO.C,C7*%
X218061600Y-101650800D03*
X219021600Y-101650800D03*
%TD*%
D16*
%TO.C,C25*%
X271617870Y-133937869D03*
X270657870Y-133937869D03*
%TD*%
D44*
%TO.C,D10*%
X224103924Y-101198331D03*
X224103924Y-98698331D03*
%TD*%
D45*
%TO.C,C2*%
X189382400Y-115571100D03*
X189382400Y-117296100D03*
%TD*%
D16*
%TO.C,C34*%
X167640000Y-137170000D03*
X166680000Y-137170000D03*
%TD*%
D32*
%TO.C,SW19*%
X212171157Y-130391400D03*
X212171157Y-124391400D03*
X215921157Y-130391400D03*
X215921157Y-124391400D03*
%TD*%
D38*
%TO.C,D11*%
X187310000Y-129555200D03*
X187960000Y-129555200D03*
X188610000Y-129555200D03*
X188610000Y-131455200D03*
X187960000Y-131455200D03*
X187310000Y-131455200D03*
%TD*%
D16*
%TO.C,C24*%
X229225523Y-115499577D03*
X228265523Y-115499577D03*
%TD*%
D24*
%TO.C,C14*%
X230581200Y-108226800D03*
X230581200Y-107266800D03*
%TD*%
D46*
%TO.C,J2*%
X231807400Y-125544200D03*
X231807400Y-129624200D03*
D47*
X229157400Y-126334200D03*
X229157400Y-126834200D03*
X229157400Y-127334200D03*
X229157400Y-127834200D03*
X229157400Y-128334200D03*
X229157400Y-128834200D03*
%TD*%
D16*
%TO.C,C9*%
X217196499Y-107556162D03*
X216236499Y-107556162D03*
%TD*%
D11*
%TO.C,R31*%
X170490000Y-137340000D03*
X171510000Y-137340000D03*
%TD*%
D48*
%TO.C,U4*%
X227625400Y-117573600D03*
X228125400Y-117573600D03*
X228625400Y-117573600D03*
X229125400Y-117573600D03*
X229625400Y-117573600D03*
X229625400Y-120373600D03*
X229125400Y-120373600D03*
X228625400Y-120373600D03*
X228125400Y-120373600D03*
X227625400Y-120373600D03*
%TD*%
D13*
%TO.C,R32*%
X170535600Y-134389400D03*
X170535600Y-135409400D03*
%TD*%
D38*
%TO.C,Q4*%
X220228400Y-96738400D03*
X220878400Y-96738400D03*
X221528400Y-96738400D03*
X221528400Y-98638400D03*
X220878400Y-98638400D03*
X220228400Y-98638400D03*
%TD*%
D32*
%TO.C,SW9*%
X224796157Y-115516400D03*
X224796157Y-121516400D03*
X221046157Y-115516400D03*
X221046157Y-121516400D03*
%TD*%
D49*
%TO.C,D9*%
X225908172Y-97577086D03*
X228408172Y-97577086D03*
%TD*%
D40*
%TO.C,D4*%
X237810000Y-109605600D03*
X237810000Y-108955600D03*
X237810000Y-108305600D03*
X239710000Y-108305600D03*
X239710000Y-108955600D03*
X239710000Y-109605600D03*
%TD*%
D50*
%TO.C,L6*%
X218008657Y-142088600D03*
X218958657Y-142088600D03*
X218958657Y-143038600D03*
X218008657Y-143038600D03*
%TD*%
D51*
%TO.C,U9*%
X217689993Y-110224008D03*
D52*
X216939993Y-109024008D03*
X217439993Y-109024008D03*
X217939993Y-109024008D03*
X218439993Y-109024008D03*
X218439993Y-111424008D03*
X217939993Y-111424008D03*
X217439993Y-111424008D03*
X216939993Y-111424008D03*
%TD*%
M02*
