%TF.GenerationSoftware,KiCad,Pcbnew,8.0.2*%
%TF.CreationDate,2024-10-28T19:38:49-07:00*%
%TF.ProjectId,UGC_OpenMain,5547435f-4f70-4656-9e4d-61696e2e6b69,rev?*%
%TF.SameCoordinates,Original*%
%TF.FileFunction,Drillmap*%
%TF.FilePolarity,Positive*%
%FSLAX45Y45*%
G04 Gerber Fmt 4.5, Leading zero omitted, Abs format (unit mm)*
G04 Created by KiCad (PCBNEW 8.0.2) date 2024-10-28 19:38:49*
%MOMM*%
%LPD*%
G01*
G04 APERTURE LIST*
%ADD10C,0.100000*%
%ADD11C,0.200000*%
%ADD12C,0.160000*%
G04 APERTURE END LIST*
D10*
X22845042Y-13194165D02*
X22836143Y-13200574D01*
X22827754Y-13207601D01*
X22819906Y-13215214D01*
X22812631Y-13223383D01*
X22805959Y-13232075D01*
X22803874Y-13235083D01*
X28132187Y-14231648D02*
G75*
G02*
X27832187Y-14531647I-299997J-2D01*
G01*
X26884115Y-14531648D02*
G75*
G02*
X26584112Y-14231648I-5J299998D01*
G01*
X22486871Y-14347809D02*
G75*
G02*
X22225140Y-14484922I-225071J111269D01*
G01*
X25794167Y-9449719D02*
X22906652Y-9449719D01*
X27769833Y-10447238D02*
X27777993Y-10458349D01*
X27785956Y-10469376D01*
X27793727Y-10480317D01*
X27801308Y-10491172D01*
X27808704Y-10501941D01*
X27815917Y-10512623D01*
X27822952Y-10523218D01*
X27829810Y-10533726D01*
X27836496Y-10544146D01*
X27843014Y-10554478D01*
X27849365Y-10564721D01*
X27855555Y-10574875D01*
X27861586Y-10584940D01*
X27867461Y-10594916D01*
X27873184Y-10604801D01*
X27878759Y-10614595D01*
X27884188Y-10624299D01*
X27889475Y-10633911D01*
X27894624Y-10643432D01*
X27899637Y-10652861D01*
X27904519Y-10662197D01*
X27909272Y-10671440D01*
X27913900Y-10680590D01*
X27918406Y-10689647D01*
X27927068Y-10707478D01*
X27935283Y-10724930D01*
X27943078Y-10741999D01*
X27950482Y-10758684D01*
X22803874Y-13235083D02*
X22797990Y-13244540D01*
X22792831Y-13254393D01*
X22788416Y-13264601D01*
X22784765Y-13275123D01*
X18117974Y-14270062D02*
X18111444Y-14255918D01*
X18105412Y-14242943D01*
X18099842Y-14231059D01*
X18094701Y-14220190D01*
X18089953Y-14210258D01*
X18085563Y-14201187D01*
X18079575Y-14189026D01*
X18074196Y-14178369D01*
X18069310Y-14168955D01*
X18063357Y-14157889D01*
X18057791Y-14147957D01*
X18053702Y-14140882D01*
X17757521Y-13862785D02*
X17745468Y-13858450D01*
X17734335Y-13854522D01*
X17723992Y-13850975D01*
X17714310Y-13847781D01*
X17700744Y-13843593D01*
X17687939Y-13840047D01*
X17675461Y-13837051D01*
X17662873Y-13834512D01*
X17649740Y-13832338D01*
X17635626Y-13830439D01*
X17625457Y-13829279D01*
X17614530Y-13828172D01*
X17602715Y-13827092D01*
X18269939Y-14927362D02*
X18272053Y-14937535D01*
X18274275Y-14947829D01*
X18276609Y-14958244D01*
X18279059Y-14968782D01*
X15864545Y-14706648D02*
X16812616Y-14706648D01*
X22690430Y-13821595D02*
X22695724Y-13812956D01*
X22701072Y-13804352D01*
X22701790Y-13803207D01*
X21874684Y-14420600D02*
X21864110Y-14420403D01*
X21853540Y-14420305D01*
X21848662Y-14420294D01*
X27411957Y-10073169D02*
X26791686Y-9716238D01*
X22906652Y-9449719D02*
X17902564Y-9449719D01*
X18359247Y-15207265D02*
X18363829Y-15217528D01*
X18368493Y-15227752D01*
X18373240Y-15237937D01*
X18378069Y-15248082D01*
X18382980Y-15258188D01*
X18387973Y-15268253D01*
X18393047Y-15278278D01*
X18398203Y-15288262D01*
X18403440Y-15298204D01*
X18408758Y-15308104D01*
X18412348Y-15314681D01*
X19158366Y-9903440D02*
X19158366Y-9643440D01*
X25164110Y-13370061D02*
X25546418Y-13370061D01*
X21435098Y-14496662D02*
X21422898Y-14501471D01*
X21410760Y-14506420D01*
X21398686Y-14511507D01*
X21386677Y-14516731D01*
X21374733Y-14522091D01*
X21362857Y-14527588D01*
X21351049Y-14533220D01*
X21339310Y-14538987D01*
X21327642Y-14544887D01*
X21316045Y-14550921D01*
X21304521Y-14557088D01*
X21293071Y-14563386D01*
X21281696Y-14569815D01*
X21270397Y-14576375D01*
X21259175Y-14583065D01*
X21248031Y-14589884D01*
X21236967Y-14596831D01*
X21225983Y-14603906D01*
X21215081Y-14611108D01*
X21204262Y-14618436D01*
X21193526Y-14625890D01*
X21182876Y-14633469D01*
X21172312Y-14641172D01*
X21161835Y-14648998D01*
X21151447Y-14656948D01*
X21141148Y-14665020D01*
X21130940Y-14673213D01*
X21120823Y-14681527D01*
X21110800Y-14689961D01*
X21100870Y-14698515D01*
X21091036Y-14707188D01*
X21081298Y-14715978D01*
X18219411Y-14694504D02*
X18216639Y-14678878D01*
X18214092Y-14664527D01*
X18211756Y-14651365D01*
X18209614Y-14639309D01*
X18207653Y-14628274D01*
X18205856Y-14618173D01*
X18203436Y-14604591D01*
X18201301Y-14592636D01*
X18199399Y-14582021D01*
X18197136Y-14569460D01*
X18195074Y-14558095D01*
X18193586Y-14549947D01*
X25794167Y-9449719D02*
G75*
G02*
X26791687Y-9716237I3J-2000001D01*
G01*
X21848662Y-14420294D02*
X21835412Y-14420312D01*
X21822169Y-14420485D01*
X21808936Y-14420813D01*
X21795713Y-14421296D01*
X21782503Y-14421933D01*
X21769305Y-14422725D01*
X21756121Y-14423670D01*
X21742954Y-14424769D01*
X21729803Y-14426022D01*
X21716671Y-14427427D01*
X21703559Y-14428986D01*
X21690468Y-14430697D01*
X21677399Y-14432561D01*
X21664353Y-14434578D01*
X21651333Y-14436746D01*
X21638339Y-14439067D01*
X21625373Y-14441539D01*
X21612436Y-14444162D01*
X21599529Y-14446937D01*
X21586654Y-14449862D01*
X21573811Y-14452939D01*
X21561003Y-14456166D01*
X21548231Y-14459543D01*
X21535495Y-14463070D01*
X21522798Y-14466747D01*
X21510140Y-14470573D01*
X21497523Y-14474549D01*
X21484949Y-14478674D01*
X21472417Y-14482948D01*
X21459931Y-14487371D01*
X21447491Y-14491942D01*
X21435098Y-14496662D01*
X23739972Y-13059629D02*
X23763020Y-13058337D01*
X23786100Y-13057155D01*
X23809207Y-13056088D01*
X23832332Y-13055142D01*
X23855469Y-13054322D01*
X23878611Y-13053633D01*
X23901750Y-13053082D01*
X23924879Y-13052672D01*
X23947992Y-13052411D01*
X23971081Y-13052302D01*
X23994138Y-13052352D01*
X24017158Y-13052566D01*
X24040132Y-13052950D01*
X24063054Y-13053508D01*
X24085916Y-13054247D01*
X24108712Y-13055171D01*
X24131433Y-13056286D01*
X24154074Y-13057598D01*
X24176627Y-13059112D01*
X24199085Y-13060833D01*
X24221440Y-13062766D01*
X24243686Y-13064918D01*
X24265816Y-13067294D01*
X24287821Y-13069898D01*
X24309696Y-13072737D01*
X24331434Y-13075816D01*
X24353026Y-13079140D01*
X24374465Y-13082714D01*
X24395746Y-13086545D01*
X24416860Y-13090637D01*
X24437801Y-13094997D01*
X24458561Y-13099628D01*
X19509600Y-16028754D02*
X19526216Y-16030050D01*
X19542837Y-16031144D01*
X19559462Y-16032037D01*
X19576088Y-16032728D01*
X19592714Y-16033218D01*
X19609337Y-16033508D01*
X19625957Y-16033596D01*
X19642571Y-16033485D01*
X19659177Y-16033173D01*
X19675774Y-16032660D01*
X19692360Y-16031948D01*
X19708933Y-16031037D01*
X19725491Y-16029926D01*
X19742032Y-16028615D01*
X19758556Y-16027106D01*
X19775059Y-16025397D01*
X19791541Y-16023490D01*
X19807998Y-16021384D01*
X19824430Y-16019080D01*
X19840835Y-16016578D01*
X19857211Y-16013878D01*
X19873556Y-16010981D01*
X19889868Y-16007886D01*
X19906146Y-16004593D01*
X19922388Y-16001104D01*
X19938591Y-15997417D01*
X19954755Y-15993534D01*
X19970877Y-15989455D01*
X19986955Y-15985179D01*
X20002989Y-15980707D01*
X20018975Y-15976039D01*
X20034912Y-15971175D01*
X21081298Y-14715978D02*
X21073796Y-14722892D01*
X21066360Y-14729870D01*
X21058990Y-14736912D01*
X21051686Y-14744018D01*
X21044450Y-14751187D01*
X21037281Y-14758418D01*
X21030180Y-14765711D01*
X21023146Y-14773066D01*
X22778204Y-13537548D02*
X22778031Y-13550691D01*
X22777513Y-13563815D01*
X22776651Y-13576913D01*
X22775447Y-13589979D01*
X22773900Y-13603006D01*
X22772012Y-13615987D01*
X22769784Y-13628916D01*
X22767217Y-13641785D01*
X22764312Y-13654589D01*
X22761069Y-13667320D01*
X22758721Y-13675763D01*
X17112616Y-14406648D02*
X17112616Y-14127092D01*
X22898663Y-13171939D02*
X22923786Y-13166937D01*
X22949000Y-13162009D01*
X22974303Y-13157157D01*
X22999694Y-13152382D01*
X23025170Y-13147688D01*
X23050731Y-13143076D01*
X23076375Y-13138549D01*
X23102100Y-13134109D01*
X23127905Y-13129758D01*
X23153788Y-13125499D01*
X23179748Y-13121334D01*
X23205784Y-13117265D01*
X23231893Y-13113295D01*
X23258074Y-13109426D01*
X23284327Y-13105659D01*
X23310648Y-13101999D01*
X23337038Y-13098445D01*
X23363493Y-13095002D01*
X23390013Y-13091671D01*
X23416597Y-13088455D01*
X23443242Y-13085355D01*
X23469947Y-13082375D01*
X23496711Y-13079516D01*
X23523532Y-13076781D01*
X23550408Y-13074172D01*
X23577339Y-13071691D01*
X23604322Y-13069341D01*
X23631356Y-13067123D01*
X23658440Y-13065041D01*
X23685571Y-13063096D01*
X23712749Y-13061291D01*
X23739972Y-13059629D01*
X16905045Y-9716238D02*
G75*
G02*
X17902564Y-9449720I997515J-1733472D01*
G01*
X25903918Y-13827092D02*
G75*
G02*
X25803918Y-13727092I2J100002D01*
G01*
X18407813Y-13642561D02*
G75*
G02*
X17892813Y-13642561I-257500J0D01*
G01*
X17892813Y-13642561D02*
G75*
G02*
X18407813Y-13642561I257500J0D01*
G01*
X17412616Y-13827092D02*
X17602715Y-13827092D01*
X18053702Y-14140882D02*
X18044899Y-14128103D01*
X18036782Y-14116391D01*
X18029303Y-14105676D01*
X18022415Y-14095889D01*
X18016071Y-14086960D01*
X18010224Y-14078819D01*
X18002282Y-14067932D01*
X17995194Y-14058427D01*
X17988799Y-14050068D01*
X17981078Y-14040300D01*
X17973930Y-14031593D01*
X17968719Y-14025425D01*
X22225140Y-14484921D02*
X22214573Y-14481244D01*
X22203973Y-14477673D01*
X22193341Y-14474208D01*
X22182678Y-14470849D01*
X22171985Y-14467597D01*
X22161262Y-14464451D01*
X22150510Y-14461412D01*
X22139730Y-14458479D01*
X22128923Y-14455654D01*
X22118089Y-14452935D01*
X22107230Y-14450324D01*
X22096346Y-14447821D01*
X22085438Y-14445425D01*
X22074507Y-14443138D01*
X22063553Y-14440958D01*
X22052578Y-14438886D01*
X22041582Y-14436923D01*
X22030566Y-14435069D01*
X22019530Y-14433323D01*
X22008477Y-14431686D01*
X21997405Y-14430158D01*
X21986317Y-14428739D01*
X21975213Y-14427430D01*
X21964093Y-14426230D01*
X21952959Y-14425141D01*
X21941812Y-14424161D01*
X21930651Y-14423291D01*
X21919479Y-14422531D01*
X21908295Y-14421882D01*
X21897101Y-14421344D01*
X21885897Y-14420916D01*
X21874684Y-14420600D01*
X22486871Y-14347809D02*
X22490396Y-14330438D01*
X22494109Y-14313106D01*
X22498009Y-14295815D01*
X22502095Y-14278567D01*
X22506368Y-14261365D01*
X22510826Y-14244209D01*
X22515470Y-14227104D01*
X22520298Y-14210050D01*
X22525310Y-14193049D01*
X22530506Y-14176104D01*
X22535886Y-14159217D01*
X22541449Y-14142389D01*
X22547194Y-14125624D01*
X22553121Y-14108922D01*
X22559230Y-14092287D01*
X22565520Y-14075719D01*
X22571990Y-14059222D01*
X22578641Y-14042797D01*
X22585472Y-14026446D01*
X22592482Y-14010172D01*
X22599671Y-13993976D01*
X22607039Y-13977861D01*
X22614584Y-13961828D01*
X22622307Y-13945880D01*
X22630207Y-13930019D01*
X22638284Y-13914247D01*
X22646537Y-13898565D01*
X22654966Y-13882977D01*
X22663570Y-13867483D01*
X22672349Y-13852087D01*
X22681303Y-13836790D01*
X22690430Y-13821595D01*
X17112616Y-14127092D02*
G75*
G02*
X17412616Y-13827096I299994J2D01*
G01*
X15564545Y-11397080D02*
X15564545Y-14406648D01*
X24897780Y-13271849D02*
X24908160Y-13277132D01*
X24918405Y-13282320D01*
X24928516Y-13287407D01*
X24938493Y-13292390D01*
X24948335Y-13297263D01*
X24958044Y-13302022D01*
X24967619Y-13306661D01*
X24977061Y-13311177D01*
X24986369Y-13315564D01*
X24995545Y-13319817D01*
X25013497Y-13327905D01*
X25030919Y-13335403D01*
X25047813Y-13342273D01*
X25064179Y-13348476D01*
X25080020Y-13353975D01*
X25095336Y-13358732D01*
X25110130Y-13362710D01*
X25124403Y-13365869D01*
X25138156Y-13368173D01*
X25151391Y-13369583D01*
X25164110Y-13370061D01*
X15564545Y-11397080D02*
X15570092Y-11369428D01*
X15575662Y-11342160D01*
X15581263Y-11315269D01*
X15586902Y-11288748D01*
X15592586Y-11262589D01*
X15598323Y-11236786D01*
X15604120Y-11211331D01*
X15609984Y-11186216D01*
X15615922Y-11161435D01*
X15621942Y-11136980D01*
X15628051Y-11112845D01*
X15634256Y-11089021D01*
X15640565Y-11065502D01*
X15646985Y-11042280D01*
X15653523Y-11019349D01*
X15660186Y-10996700D01*
X15666982Y-10974327D01*
X15673918Y-10952222D01*
X15681002Y-10930379D01*
X15688240Y-10908790D01*
X15695640Y-10887447D01*
X15703209Y-10866344D01*
X15710955Y-10845473D01*
X15718884Y-10824827D01*
X15727004Y-10804399D01*
X15735323Y-10784181D01*
X15743848Y-10764167D01*
X15752585Y-10744348D01*
X15761542Y-10724719D01*
X15770727Y-10705271D01*
X15780147Y-10685998D01*
X15789809Y-10666892D01*
X20990026Y-14842116D02*
X20991388Y-14832153D01*
X20992751Y-14822189D01*
X20994113Y-14812225D01*
X20995476Y-14802262D01*
X22898663Y-13171939D02*
X22887997Y-13174490D01*
X22877568Y-13177806D01*
X22867417Y-13181870D01*
X22857586Y-13186664D01*
X22848113Y-13192173D01*
X22845042Y-13194165D01*
X16451966Y-12643440D02*
G75*
G02*
X16234765Y-12643440I-108600J0D01*
G01*
X16234765Y-12643440D02*
G75*
G02*
X16451966Y-12643440I108600J0D01*
G01*
X17867504Y-13930354D02*
X17855728Y-13922476D01*
X17844902Y-13915288D01*
X17834963Y-13908746D01*
X17825847Y-13902808D01*
X17813577Y-13894937D01*
X17802803Y-13888180D01*
X17793308Y-13882388D01*
X17782268Y-13875915D01*
X17772614Y-13870551D01*
X17761718Y-13864875D01*
X17757521Y-13862785D01*
X22758721Y-13675763D02*
X22754921Y-13688346D01*
X22750796Y-13700816D01*
X22746347Y-13713165D01*
X22741578Y-13725389D01*
X22736490Y-13737481D01*
X22731087Y-13749435D01*
X22725372Y-13761244D01*
X22719348Y-13772902D01*
X22713016Y-13784403D01*
X22706381Y-13795742D01*
X22701790Y-13803207D01*
X20510027Y-15711577D02*
X20522986Y-15700573D01*
X20535801Y-15689416D01*
X20548471Y-15678108D01*
X20560994Y-15666651D01*
X20573370Y-15655045D01*
X20585597Y-15643293D01*
X20597674Y-15631395D01*
X20609600Y-15619354D01*
X20621373Y-15607171D01*
X20632993Y-15594848D01*
X20644458Y-15582385D01*
X20655767Y-15569785D01*
X20666918Y-15557048D01*
X20677911Y-15544178D01*
X20688745Y-15531174D01*
X20699417Y-15518039D01*
X20709928Y-15504773D01*
X20720275Y-15491379D01*
X20730458Y-15477859D01*
X20740475Y-15464212D01*
X20750325Y-15450442D01*
X20760007Y-15436549D01*
X20769520Y-15422535D01*
X20778862Y-15408402D01*
X20788032Y-15394151D01*
X20797030Y-15379784D01*
X20805853Y-15365301D01*
X20814502Y-15350705D01*
X20822973Y-15335997D01*
X20831267Y-15321179D01*
X20839382Y-15306252D01*
X20847317Y-15291217D01*
X27411957Y-10073169D02*
X27424224Y-10083546D01*
X27436451Y-10094017D01*
X27448636Y-10104578D01*
X27460775Y-10115231D01*
X27472866Y-10125973D01*
X27484905Y-10136804D01*
X27496889Y-10147724D01*
X27508815Y-10158732D01*
X27520681Y-10169827D01*
X27532482Y-10181008D01*
X27544217Y-10192274D01*
X27555882Y-10203625D01*
X27567474Y-10215059D01*
X27578990Y-10226577D01*
X27590427Y-10238177D01*
X27601782Y-10249859D01*
X27613052Y-10261621D01*
X27624233Y-10273464D01*
X27635324Y-10285386D01*
X27646321Y-10297386D01*
X27657220Y-10309464D01*
X27668019Y-10321619D01*
X27678715Y-10333851D01*
X27689305Y-10346158D01*
X27699785Y-10358539D01*
X27710153Y-10370995D01*
X27720406Y-10383523D01*
X27730540Y-10396124D01*
X27740553Y-10408797D01*
X27750442Y-10421541D01*
X27760203Y-10434355D01*
X27769833Y-10447238D01*
X19020879Y-15894144D02*
X19035277Y-15901058D01*
X19049747Y-15907802D01*
X19064286Y-15914375D01*
X19078895Y-15920777D01*
X19093570Y-15927008D01*
X19108311Y-15933066D01*
X19123115Y-15938952D01*
X19137982Y-15944665D01*
X19152910Y-15950205D01*
X19167898Y-15955571D01*
X19182943Y-15960762D01*
X19198045Y-15965779D01*
X19213202Y-15970621D01*
X19228412Y-15975287D01*
X19243674Y-15979777D01*
X19258986Y-15984091D01*
X19274347Y-15988228D01*
X19289755Y-15992187D01*
X19305210Y-15995969D01*
X19320708Y-15999572D01*
X19336250Y-16002997D01*
X19351833Y-16006243D01*
X19367455Y-16009309D01*
X19383116Y-16012196D01*
X19398814Y-16014902D01*
X19414547Y-16017427D01*
X19430313Y-16019770D01*
X19446112Y-16021932D01*
X19461942Y-16023912D01*
X19477800Y-16025710D01*
X19493687Y-16027324D01*
X19509600Y-16028754D01*
X16795206Y-10597780D02*
G75*
G02*
X16550206Y-10597780I-122500J0D01*
G01*
X16550206Y-10597780D02*
G75*
G02*
X16795206Y-10597780I122500J0D01*
G01*
X18248300Y-14839945D02*
X18245057Y-14824242D01*
X18242089Y-14809818D01*
X18239379Y-14796589D01*
X18236908Y-14784469D01*
X18234659Y-14773373D01*
X18232613Y-14763215D01*
X18229888Y-14749552D01*
X18227519Y-14737521D01*
X18225448Y-14726835D01*
X18223042Y-14714180D01*
X18220913Y-14702722D01*
X18219411Y-14694504D01*
X24458561Y-13099628D02*
X24474564Y-13103430D01*
X24490430Y-13107411D01*
X24506157Y-13111565D01*
X24521744Y-13115882D01*
X24537191Y-13120357D01*
X24552496Y-13124979D01*
X24567659Y-13129743D01*
X24582678Y-13134640D01*
X24597553Y-13139662D01*
X24612283Y-13144802D01*
X24626867Y-13150051D01*
X24641304Y-13155403D01*
X24655593Y-13160848D01*
X24669733Y-13166380D01*
X24683724Y-13171991D01*
X24697564Y-13177672D01*
X24711252Y-13183417D01*
X24724788Y-13189216D01*
X24738171Y-13195063D01*
X24751399Y-13200950D01*
X24764472Y-13206869D01*
X24777390Y-13212811D01*
X24790150Y-13218770D01*
X24802752Y-13224738D01*
X24815196Y-13230706D01*
X24827480Y-13236667D01*
X24839604Y-13242613D01*
X24851565Y-13248537D01*
X24863365Y-13254430D01*
X24875001Y-13260285D01*
X24886473Y-13266094D01*
X24897780Y-13271849D01*
X18279059Y-14968782D02*
X18282765Y-14984053D01*
X18286648Y-14999282D01*
X18290707Y-15014467D01*
X18294941Y-15029607D01*
X18299349Y-15044700D01*
X18303932Y-15059746D01*
X18308689Y-15074742D01*
X18313620Y-15089687D01*
X18318723Y-15104581D01*
X18323998Y-15119421D01*
X18329446Y-15134207D01*
X18335065Y-15148936D01*
X18340855Y-15163608D01*
X18346816Y-15178221D01*
X18352947Y-15192774D01*
X18359247Y-15207265D01*
X24158366Y-9903440D02*
X24158366Y-9643440D01*
X20859124Y-15267973D02*
X20865185Y-15255600D01*
X20871120Y-15243172D01*
X20876929Y-15230690D01*
X20882611Y-15218155D01*
X20888166Y-15205567D01*
X20893593Y-15192928D01*
X20898893Y-15180238D01*
X20904065Y-15167500D01*
X20909108Y-15154712D01*
X20914023Y-15141878D01*
X20918809Y-15128996D01*
X20923466Y-15116070D01*
X20927993Y-15103099D01*
X20932390Y-15090084D01*
X20936658Y-15077027D01*
X20940794Y-15063928D01*
X20944800Y-15050788D01*
X20948676Y-15037610D01*
X20952419Y-15024392D01*
X20956031Y-15011137D01*
X20959511Y-14997845D01*
X20962859Y-14984517D01*
X20966075Y-14971155D01*
X20969157Y-14957759D01*
X20972106Y-14944330D01*
X20974922Y-14930870D01*
X20977604Y-14917378D01*
X20980152Y-14903857D01*
X20982565Y-14890307D01*
X20984844Y-14876730D01*
X20986988Y-14863125D01*
X20988997Y-14849494D01*
X25803918Y-13627561D02*
X25803918Y-13727092D01*
X27799073Y-13442726D02*
G75*
G02*
X27574073Y-13442726I-112500J0D01*
G01*
X27574073Y-13442726D02*
G75*
G02*
X27799073Y-13442726I112500J0D01*
G01*
X26584115Y-14127092D02*
X26584115Y-14231648D01*
X25903918Y-13827092D02*
X26284115Y-13827092D01*
X26884115Y-14531648D02*
X27832187Y-14531648D01*
X18412348Y-15314681D02*
X18417908Y-15324684D01*
X18423551Y-15334643D01*
X18429277Y-15344556D01*
X18435085Y-15354424D01*
X18440975Y-15364246D01*
X18446947Y-15374021D01*
X18453000Y-15383749D01*
X18459135Y-15393429D01*
X18465352Y-15403062D01*
X18471649Y-15412646D01*
X18478028Y-15422180D01*
X18484486Y-15431666D01*
X18491026Y-15441101D01*
X18497645Y-15450485D01*
X18504345Y-15459818D01*
X18511124Y-15469100D01*
X18517983Y-15478330D01*
X18524921Y-15487507D01*
X18531938Y-15496630D01*
X18539034Y-15505701D01*
X18546209Y-15514717D01*
X18553462Y-15523678D01*
X18560794Y-15532585D01*
X18568203Y-15541435D01*
X18575691Y-15550230D01*
X18583256Y-15558968D01*
X18590898Y-15567649D01*
X18598618Y-15576272D01*
X18606415Y-15584837D01*
X18614288Y-15593344D01*
X18622238Y-15601791D01*
X18630264Y-15610179D01*
X16122659Y-13442726D02*
G75*
G02*
X15897659Y-13442726I-112500J0D01*
G01*
X15897659Y-13442726D02*
G75*
G02*
X16122659Y-13442726I112500J0D01*
G01*
X18162574Y-14407659D02*
X18158089Y-14392692D01*
X18153943Y-14378953D01*
X18150111Y-14366362D01*
X18146569Y-14354836D01*
X18143294Y-14344296D01*
X18140261Y-14334658D01*
X18136114Y-14321717D01*
X18132377Y-14310351D01*
X18128969Y-14300285D01*
X18124796Y-14288411D01*
X18120871Y-14277710D01*
X18117974Y-14270062D01*
X18916526Y-12719100D02*
G75*
G02*
X18671526Y-12719100I-122500J0D01*
G01*
X18671526Y-12719100D02*
G75*
G02*
X18916526Y-12719100I122500J0D01*
G01*
X21023146Y-14773066D02*
X21016229Y-14780365D01*
X21009311Y-14787664D01*
X21002393Y-14794963D01*
X20995476Y-14802262D01*
X27950482Y-10758684D02*
X27957443Y-10774807D01*
X27964276Y-10791069D01*
X27970984Y-10807479D01*
X27977574Y-10824048D01*
X27984048Y-10840788D01*
X27990412Y-10857709D01*
X27996670Y-10874823D01*
X28002828Y-10892139D01*
X28008888Y-10909670D01*
X28014857Y-10927425D01*
X28020739Y-10945416D01*
X28026537Y-10963655D01*
X28032258Y-10982151D01*
X28037904Y-11000915D01*
X28043482Y-11019960D01*
X28048995Y-11039294D01*
X28054449Y-11058931D01*
X28059847Y-11078879D01*
X28065195Y-11099151D01*
X28070496Y-11119757D01*
X28075756Y-11140709D01*
X28080979Y-11162016D01*
X28086170Y-11183691D01*
X28091332Y-11205743D01*
X28096472Y-11228185D01*
X28101593Y-11251026D01*
X28106700Y-11274277D01*
X28111798Y-11297951D01*
X28116891Y-11322057D01*
X28121984Y-11346607D01*
X28127081Y-11371611D01*
X28132187Y-11397080D01*
X24538366Y-9643440D02*
X24538366Y-9903440D01*
X28132187Y-14231648D02*
X28132187Y-11397080D01*
X25546418Y-13370061D02*
G75*
G02*
X25803918Y-13627561I2J-257499D01*
G01*
X15789809Y-10666892D02*
X15795602Y-10655742D01*
X15801848Y-10643968D01*
X15808564Y-10631585D01*
X15815768Y-10618608D01*
X15823477Y-10605051D01*
X15831707Y-10590928D01*
X15840476Y-10576255D01*
X15849800Y-10561046D01*
X15859698Y-10545315D01*
X15870185Y-10529077D01*
X15881280Y-10512347D01*
X15892999Y-10495139D01*
X15905359Y-10477469D01*
X15918377Y-10459350D01*
X15932071Y-10440797D01*
X15946457Y-10421824D01*
X15961553Y-10402447D01*
X15977376Y-10382680D01*
X15993943Y-10362538D01*
X16011270Y-10342035D01*
X16029376Y-10321185D01*
X16048276Y-10300004D01*
X16067989Y-10278506D01*
X16088532Y-10256706D01*
X16109920Y-10234618D01*
X16132172Y-10212256D01*
X16155305Y-10189636D01*
X16179335Y-10166772D01*
X16204280Y-10143679D01*
X16230157Y-10120371D01*
X16256983Y-10096862D01*
X16284775Y-10073169D01*
X16905045Y-9716238D02*
X16284775Y-10073169D01*
X19538366Y-9643440D02*
X19538366Y-9903440D01*
X17112616Y-14406648D02*
G75*
G02*
X16812616Y-14706646I-299996J-2D01*
G01*
X19538366Y-9903440D02*
X19158366Y-9903440D01*
X18269939Y-14927362D02*
X18267068Y-14916432D01*
X18264245Y-14905503D01*
X18261469Y-14894575D01*
X18258740Y-14883647D01*
X18256059Y-14872721D01*
X18253426Y-14861795D01*
X18250839Y-14850870D01*
X18248300Y-14839945D01*
X22778204Y-13537548D02*
X22778204Y-13319001D01*
X24158366Y-9643440D02*
X24538366Y-9643440D01*
X24538366Y-9903440D02*
X24158366Y-9903440D01*
X15864545Y-14706648D02*
G75*
G02*
X15564542Y-14406648I5J300008D01*
G01*
X20988997Y-14849494D02*
X20990026Y-14842116D01*
X26534073Y-13442726D02*
G75*
G02*
X26039073Y-13442726I-247500J0D01*
G01*
X26039073Y-13442726D02*
G75*
G02*
X26534073Y-13442726I247500J0D01*
G01*
X26653366Y-10649440D02*
G75*
G02*
X26433366Y-10649440I-110000J0D01*
G01*
X26433366Y-10649440D02*
G75*
G02*
X26653366Y-10649440I110000J0D01*
G01*
X18193586Y-14549947D02*
X18190421Y-14534531D01*
X18187499Y-14520375D01*
X18184804Y-14507397D01*
X18182318Y-14495511D01*
X18180024Y-14484634D01*
X18177906Y-14474684D01*
X18175019Y-14461310D01*
X18172429Y-14449547D01*
X18170078Y-14439114D01*
X18167217Y-14426781D01*
X18164541Y-14415638D01*
X18162574Y-14407659D01*
X18630264Y-15610179D02*
X18640879Y-15621060D01*
X18651607Y-15631820D01*
X18662448Y-15642458D01*
X18673400Y-15652974D01*
X18684462Y-15663366D01*
X18695633Y-15673633D01*
X18706913Y-15683775D01*
X18718299Y-15693791D01*
X18729792Y-15703680D01*
X18741389Y-15713441D01*
X18753091Y-15723074D01*
X18764895Y-15732577D01*
X18776800Y-15741949D01*
X18788807Y-15751191D01*
X18800912Y-15760300D01*
X18813116Y-15769277D01*
X18825418Y-15778120D01*
X18837815Y-15786828D01*
X18850308Y-15795401D01*
X18862895Y-15803838D01*
X18875574Y-15812137D01*
X18888346Y-15820299D01*
X18901209Y-15828322D01*
X18914161Y-15836205D01*
X18927202Y-15843948D01*
X18940330Y-15851549D01*
X18953545Y-15859009D01*
X18966845Y-15866325D01*
X18980230Y-15873498D01*
X18993698Y-15880526D01*
X19007248Y-15887408D01*
X19020879Y-15894144D01*
X20034912Y-15971175D02*
X20051188Y-15965989D01*
X20067388Y-15960606D01*
X20083512Y-15955024D01*
X20099557Y-15949247D01*
X20115522Y-15943274D01*
X20131405Y-15937106D01*
X20147204Y-15930745D01*
X20162919Y-15924192D01*
X20178546Y-15917446D01*
X20194085Y-15910510D01*
X20209533Y-15903385D01*
X20224889Y-15896070D01*
X20240151Y-15888567D01*
X20255318Y-15880878D01*
X20270387Y-15873002D01*
X20285358Y-15864942D01*
X20300227Y-15856697D01*
X20314995Y-15848269D01*
X20329658Y-15839659D01*
X20344215Y-15830868D01*
X20358665Y-15821897D01*
X20373006Y-15812746D01*
X20387235Y-15803416D01*
X20401352Y-15793909D01*
X20415355Y-15784226D01*
X20429242Y-15774367D01*
X20443010Y-15764333D01*
X20456660Y-15754125D01*
X20470187Y-15743745D01*
X20483593Y-15733193D01*
X20496873Y-15722470D01*
X20510027Y-15711577D01*
X17968719Y-14025425D02*
X17958040Y-14014711D01*
X17948209Y-14004907D01*
X17939170Y-13995955D01*
X17930864Y-13987795D01*
X17923234Y-13980369D01*
X17912931Y-13970479D01*
X17903826Y-13961910D01*
X17895726Y-13954464D01*
X17886153Y-13945942D01*
X17877562Y-13938597D01*
X17869493Y-13931958D01*
X17867504Y-13930354D01*
X19158366Y-9643440D02*
X19538366Y-9643440D01*
X20847317Y-15291217D02*
X20852167Y-15281799D01*
X20856944Y-15272347D01*
X20859124Y-15267973D01*
X26284115Y-13827092D02*
G75*
G02*
X26584118Y-14127092I5J-299998D01*
G01*
X27461966Y-12643440D02*
G75*
G02*
X27244765Y-12643440I-108600J0D01*
G01*
X27244765Y-12643440D02*
G75*
G02*
X27461966Y-12643440I108600J0D01*
G01*
X22784765Y-13275123D02*
X22781904Y-13285887D01*
X22779853Y-13296818D01*
X22778617Y-13307872D01*
X22778204Y-13319001D01*
D11*
D12*
X17630862Y-12007851D02*
X17790862Y-12167851D01*
X17790862Y-12007851D02*
X17630862Y-12167851D01*
X17675871Y-11149029D02*
X17835871Y-11309029D01*
X17835871Y-11149029D02*
X17675871Y-11309029D01*
D11*
X15820321Y-16360136D02*
X15820321Y-16160136D01*
X15820321Y-16160136D02*
X15867940Y-16160136D01*
X15867940Y-16160136D02*
X15896512Y-16169660D01*
X15896512Y-16169660D02*
X15915560Y-16188707D01*
X15915560Y-16188707D02*
X15925083Y-16207755D01*
X15925083Y-16207755D02*
X15934607Y-16245850D01*
X15934607Y-16245850D02*
X15934607Y-16274421D01*
X15934607Y-16274421D02*
X15925083Y-16312517D01*
X15925083Y-16312517D02*
X15915560Y-16331564D01*
X15915560Y-16331564D02*
X15896512Y-16350612D01*
X15896512Y-16350612D02*
X15867940Y-16360136D01*
X15867940Y-16360136D02*
X15820321Y-16360136D01*
X16020321Y-16360136D02*
X16020321Y-16226802D01*
X16020321Y-16264898D02*
X16029845Y-16245850D01*
X16029845Y-16245850D02*
X16039369Y-16236326D01*
X16039369Y-16236326D02*
X16058417Y-16226802D01*
X16058417Y-16226802D02*
X16077464Y-16226802D01*
X16144131Y-16360136D02*
X16144131Y-16226802D01*
X16144131Y-16160136D02*
X16134607Y-16169660D01*
X16134607Y-16169660D02*
X16144131Y-16179183D01*
X16144131Y-16179183D02*
X16153655Y-16169660D01*
X16153655Y-16169660D02*
X16144131Y-16160136D01*
X16144131Y-16160136D02*
X16144131Y-16179183D01*
X16267940Y-16360136D02*
X16248893Y-16350612D01*
X16248893Y-16350612D02*
X16239369Y-16331564D01*
X16239369Y-16331564D02*
X16239369Y-16160136D01*
X16372702Y-16360136D02*
X16353655Y-16350612D01*
X16353655Y-16350612D02*
X16344131Y-16331564D01*
X16344131Y-16331564D02*
X16344131Y-16160136D01*
X16601274Y-16360136D02*
X16601274Y-16160136D01*
X16601274Y-16160136D02*
X16667941Y-16302993D01*
X16667941Y-16302993D02*
X16734607Y-16160136D01*
X16734607Y-16160136D02*
X16734607Y-16360136D01*
X16915560Y-16360136D02*
X16915560Y-16255374D01*
X16915560Y-16255374D02*
X16906036Y-16236326D01*
X16906036Y-16236326D02*
X16886988Y-16226802D01*
X16886988Y-16226802D02*
X16848893Y-16226802D01*
X16848893Y-16226802D02*
X16829845Y-16236326D01*
X16915560Y-16350612D02*
X16896512Y-16360136D01*
X16896512Y-16360136D02*
X16848893Y-16360136D01*
X16848893Y-16360136D02*
X16829845Y-16350612D01*
X16829845Y-16350612D02*
X16820322Y-16331564D01*
X16820322Y-16331564D02*
X16820322Y-16312517D01*
X16820322Y-16312517D02*
X16829845Y-16293469D01*
X16829845Y-16293469D02*
X16848893Y-16283945D01*
X16848893Y-16283945D02*
X16896512Y-16283945D01*
X16896512Y-16283945D02*
X16915560Y-16274421D01*
X17010798Y-16226802D02*
X17010798Y-16426802D01*
X17010798Y-16236326D02*
X17029845Y-16226802D01*
X17029845Y-16226802D02*
X17067941Y-16226802D01*
X17067941Y-16226802D02*
X17086988Y-16236326D01*
X17086988Y-16236326D02*
X17096512Y-16245850D01*
X17096512Y-16245850D02*
X17106036Y-16264898D01*
X17106036Y-16264898D02*
X17106036Y-16322040D01*
X17106036Y-16322040D02*
X17096512Y-16341088D01*
X17096512Y-16341088D02*
X17086988Y-16350612D01*
X17086988Y-16350612D02*
X17067941Y-16360136D01*
X17067941Y-16360136D02*
X17029845Y-16360136D01*
X17029845Y-16360136D02*
X17010798Y-16350612D01*
X17191750Y-16341088D02*
X17201274Y-16350612D01*
X17201274Y-16350612D02*
X17191750Y-16360136D01*
X17191750Y-16360136D02*
X17182226Y-16350612D01*
X17182226Y-16350612D02*
X17191750Y-16341088D01*
X17191750Y-16341088D02*
X17191750Y-16360136D01*
X17191750Y-16236326D02*
X17201274Y-16245850D01*
X17201274Y-16245850D02*
X17191750Y-16255374D01*
X17191750Y-16255374D02*
X17182226Y-16245850D01*
X17182226Y-16245850D02*
X17191750Y-16236326D01*
X17191750Y-16236326D02*
X17191750Y-16255374D01*
D12*
X15399545Y-16608652D02*
X15559545Y-16768652D01*
X15559545Y-16608652D02*
X15399545Y-16768652D01*
D11*
X15925083Y-16780136D02*
X15810798Y-16780136D01*
X15867940Y-16780136D02*
X15867940Y-16580136D01*
X15867940Y-16580136D02*
X15848893Y-16608707D01*
X15848893Y-16608707D02*
X15829845Y-16627755D01*
X15829845Y-16627755D02*
X15810798Y-16637279D01*
X16010798Y-16761088D02*
X16020321Y-16770612D01*
X16020321Y-16770612D02*
X16010798Y-16780136D01*
X16010798Y-16780136D02*
X16001274Y-16770612D01*
X16001274Y-16770612D02*
X16010798Y-16761088D01*
X16010798Y-16761088D02*
X16010798Y-16780136D01*
X16191750Y-16580136D02*
X16153655Y-16580136D01*
X16153655Y-16580136D02*
X16134607Y-16589660D01*
X16134607Y-16589660D02*
X16125083Y-16599183D01*
X16125083Y-16599183D02*
X16106036Y-16627755D01*
X16106036Y-16627755D02*
X16096512Y-16665850D01*
X16096512Y-16665850D02*
X16096512Y-16742040D01*
X16096512Y-16742040D02*
X16106036Y-16761088D01*
X16106036Y-16761088D02*
X16115560Y-16770612D01*
X16115560Y-16770612D02*
X16134607Y-16780136D01*
X16134607Y-16780136D02*
X16172702Y-16780136D01*
X16172702Y-16780136D02*
X16191750Y-16770612D01*
X16191750Y-16770612D02*
X16201274Y-16761088D01*
X16201274Y-16761088D02*
X16210798Y-16742040D01*
X16210798Y-16742040D02*
X16210798Y-16694421D01*
X16210798Y-16694421D02*
X16201274Y-16675374D01*
X16201274Y-16675374D02*
X16191750Y-16665850D01*
X16191750Y-16665850D02*
X16172702Y-16656326D01*
X16172702Y-16656326D02*
X16134607Y-16656326D01*
X16134607Y-16656326D02*
X16115560Y-16665850D01*
X16115560Y-16665850D02*
X16106036Y-16675374D01*
X16106036Y-16675374D02*
X16096512Y-16694421D01*
X16334607Y-16580136D02*
X16353655Y-16580136D01*
X16353655Y-16580136D02*
X16372702Y-16589660D01*
X16372702Y-16589660D02*
X16382226Y-16599183D01*
X16382226Y-16599183D02*
X16391750Y-16618231D01*
X16391750Y-16618231D02*
X16401274Y-16656326D01*
X16401274Y-16656326D02*
X16401274Y-16703945D01*
X16401274Y-16703945D02*
X16391750Y-16742040D01*
X16391750Y-16742040D02*
X16382226Y-16761088D01*
X16382226Y-16761088D02*
X16372702Y-16770612D01*
X16372702Y-16770612D02*
X16353655Y-16780136D01*
X16353655Y-16780136D02*
X16334607Y-16780136D01*
X16334607Y-16780136D02*
X16315560Y-16770612D01*
X16315560Y-16770612D02*
X16306036Y-16761088D01*
X16306036Y-16761088D02*
X16296512Y-16742040D01*
X16296512Y-16742040D02*
X16286988Y-16703945D01*
X16286988Y-16703945D02*
X16286988Y-16656326D01*
X16286988Y-16656326D02*
X16296512Y-16618231D01*
X16296512Y-16618231D02*
X16306036Y-16599183D01*
X16306036Y-16599183D02*
X16315560Y-16589660D01*
X16315560Y-16589660D02*
X16334607Y-16580136D01*
X16525083Y-16580136D02*
X16544131Y-16580136D01*
X16544131Y-16580136D02*
X16563179Y-16589660D01*
X16563179Y-16589660D02*
X16572702Y-16599183D01*
X16572702Y-16599183D02*
X16582226Y-16618231D01*
X16582226Y-16618231D02*
X16591750Y-16656326D01*
X16591750Y-16656326D02*
X16591750Y-16703945D01*
X16591750Y-16703945D02*
X16582226Y-16742040D01*
X16582226Y-16742040D02*
X16572702Y-16761088D01*
X16572702Y-16761088D02*
X16563179Y-16770612D01*
X16563179Y-16770612D02*
X16544131Y-16780136D01*
X16544131Y-16780136D02*
X16525083Y-16780136D01*
X16525083Y-16780136D02*
X16506036Y-16770612D01*
X16506036Y-16770612D02*
X16496512Y-16761088D01*
X16496512Y-16761088D02*
X16486988Y-16742040D01*
X16486988Y-16742040D02*
X16477464Y-16703945D01*
X16477464Y-16703945D02*
X16477464Y-16656326D01*
X16477464Y-16656326D02*
X16486988Y-16618231D01*
X16486988Y-16618231D02*
X16496512Y-16599183D01*
X16496512Y-16599183D02*
X16506036Y-16589660D01*
X16506036Y-16589660D02*
X16525083Y-16580136D01*
X16677464Y-16780136D02*
X16677464Y-16646802D01*
X16677464Y-16665850D02*
X16686988Y-16656326D01*
X16686988Y-16656326D02*
X16706036Y-16646802D01*
X16706036Y-16646802D02*
X16734607Y-16646802D01*
X16734607Y-16646802D02*
X16753655Y-16656326D01*
X16753655Y-16656326D02*
X16763179Y-16675374D01*
X16763179Y-16675374D02*
X16763179Y-16780136D01*
X16763179Y-16675374D02*
X16772702Y-16656326D01*
X16772702Y-16656326D02*
X16791750Y-16646802D01*
X16791750Y-16646802D02*
X16820322Y-16646802D01*
X16820322Y-16646802D02*
X16839369Y-16656326D01*
X16839369Y-16656326D02*
X16848893Y-16675374D01*
X16848893Y-16675374D02*
X16848893Y-16780136D01*
X16944131Y-16780136D02*
X16944131Y-16646802D01*
X16944131Y-16665850D02*
X16953655Y-16656326D01*
X16953655Y-16656326D02*
X16972703Y-16646802D01*
X16972703Y-16646802D02*
X17001274Y-16646802D01*
X17001274Y-16646802D02*
X17020322Y-16656326D01*
X17020322Y-16656326D02*
X17029845Y-16675374D01*
X17029845Y-16675374D02*
X17029845Y-16780136D01*
X17029845Y-16675374D02*
X17039369Y-16656326D01*
X17039369Y-16656326D02*
X17058417Y-16646802D01*
X17058417Y-16646802D02*
X17086988Y-16646802D01*
X17086988Y-16646802D02*
X17106036Y-16656326D01*
X17106036Y-16656326D02*
X17115560Y-16675374D01*
X17115560Y-16675374D02*
X17115560Y-16780136D01*
X17506036Y-16570612D02*
X17334607Y-16827755D01*
X17763179Y-16580136D02*
X17782227Y-16580136D01*
X17782227Y-16580136D02*
X17801274Y-16589660D01*
X17801274Y-16589660D02*
X17810798Y-16599183D01*
X17810798Y-16599183D02*
X17820322Y-16618231D01*
X17820322Y-16618231D02*
X17829846Y-16656326D01*
X17829846Y-16656326D02*
X17829846Y-16703945D01*
X17829846Y-16703945D02*
X17820322Y-16742040D01*
X17820322Y-16742040D02*
X17810798Y-16761088D01*
X17810798Y-16761088D02*
X17801274Y-16770612D01*
X17801274Y-16770612D02*
X17782227Y-16780136D01*
X17782227Y-16780136D02*
X17763179Y-16780136D01*
X17763179Y-16780136D02*
X17744131Y-16770612D01*
X17744131Y-16770612D02*
X17734607Y-16761088D01*
X17734607Y-16761088D02*
X17725084Y-16742040D01*
X17725084Y-16742040D02*
X17715560Y-16703945D01*
X17715560Y-16703945D02*
X17715560Y-16656326D01*
X17715560Y-16656326D02*
X17725084Y-16618231D01*
X17725084Y-16618231D02*
X17734607Y-16599183D01*
X17734607Y-16599183D02*
X17744131Y-16589660D01*
X17744131Y-16589660D02*
X17763179Y-16580136D01*
X17915560Y-16761088D02*
X17925084Y-16770612D01*
X17925084Y-16770612D02*
X17915560Y-16780136D01*
X17915560Y-16780136D02*
X17906036Y-16770612D01*
X17906036Y-16770612D02*
X17915560Y-16761088D01*
X17915560Y-16761088D02*
X17915560Y-16780136D01*
X18048893Y-16580136D02*
X18067941Y-16580136D01*
X18067941Y-16580136D02*
X18086988Y-16589660D01*
X18086988Y-16589660D02*
X18096512Y-16599183D01*
X18096512Y-16599183D02*
X18106036Y-16618231D01*
X18106036Y-16618231D02*
X18115560Y-16656326D01*
X18115560Y-16656326D02*
X18115560Y-16703945D01*
X18115560Y-16703945D02*
X18106036Y-16742040D01*
X18106036Y-16742040D02*
X18096512Y-16761088D01*
X18096512Y-16761088D02*
X18086988Y-16770612D01*
X18086988Y-16770612D02*
X18067941Y-16780136D01*
X18067941Y-16780136D02*
X18048893Y-16780136D01*
X18048893Y-16780136D02*
X18029846Y-16770612D01*
X18029846Y-16770612D02*
X18020322Y-16761088D01*
X18020322Y-16761088D02*
X18010798Y-16742040D01*
X18010798Y-16742040D02*
X18001274Y-16703945D01*
X18001274Y-16703945D02*
X18001274Y-16656326D01*
X18001274Y-16656326D02*
X18010798Y-16618231D01*
X18010798Y-16618231D02*
X18020322Y-16599183D01*
X18020322Y-16599183D02*
X18029846Y-16589660D01*
X18029846Y-16589660D02*
X18048893Y-16580136D01*
X18286988Y-16580136D02*
X18248893Y-16580136D01*
X18248893Y-16580136D02*
X18229846Y-16589660D01*
X18229846Y-16589660D02*
X18220322Y-16599183D01*
X18220322Y-16599183D02*
X18201274Y-16627755D01*
X18201274Y-16627755D02*
X18191750Y-16665850D01*
X18191750Y-16665850D02*
X18191750Y-16742040D01*
X18191750Y-16742040D02*
X18201274Y-16761088D01*
X18201274Y-16761088D02*
X18210798Y-16770612D01*
X18210798Y-16770612D02*
X18229846Y-16780136D01*
X18229846Y-16780136D02*
X18267941Y-16780136D01*
X18267941Y-16780136D02*
X18286988Y-16770612D01*
X18286988Y-16770612D02*
X18296512Y-16761088D01*
X18296512Y-16761088D02*
X18306036Y-16742040D01*
X18306036Y-16742040D02*
X18306036Y-16694421D01*
X18306036Y-16694421D02*
X18296512Y-16675374D01*
X18296512Y-16675374D02*
X18286988Y-16665850D01*
X18286988Y-16665850D02*
X18267941Y-16656326D01*
X18267941Y-16656326D02*
X18229846Y-16656326D01*
X18229846Y-16656326D02*
X18210798Y-16665850D01*
X18210798Y-16665850D02*
X18201274Y-16675374D01*
X18201274Y-16675374D02*
X18191750Y-16694421D01*
X18372703Y-16580136D02*
X18496512Y-16580136D01*
X18496512Y-16580136D02*
X18429846Y-16656326D01*
X18429846Y-16656326D02*
X18458417Y-16656326D01*
X18458417Y-16656326D02*
X18477465Y-16665850D01*
X18477465Y-16665850D02*
X18486988Y-16675374D01*
X18486988Y-16675374D02*
X18496512Y-16694421D01*
X18496512Y-16694421D02*
X18496512Y-16742040D01*
X18496512Y-16742040D02*
X18486988Y-16761088D01*
X18486988Y-16761088D02*
X18477465Y-16770612D01*
X18477465Y-16770612D02*
X18458417Y-16780136D01*
X18458417Y-16780136D02*
X18401274Y-16780136D01*
X18401274Y-16780136D02*
X18382227Y-16770612D01*
X18382227Y-16770612D02*
X18372703Y-16761088D01*
X18620322Y-16580136D02*
X18639369Y-16580136D01*
X18639369Y-16580136D02*
X18658417Y-16589660D01*
X18658417Y-16589660D02*
X18667941Y-16599183D01*
X18667941Y-16599183D02*
X18677465Y-16618231D01*
X18677465Y-16618231D02*
X18686988Y-16656326D01*
X18686988Y-16656326D02*
X18686988Y-16703945D01*
X18686988Y-16703945D02*
X18677465Y-16742040D01*
X18677465Y-16742040D02*
X18667941Y-16761088D01*
X18667941Y-16761088D02*
X18658417Y-16770612D01*
X18658417Y-16770612D02*
X18639369Y-16780136D01*
X18639369Y-16780136D02*
X18620322Y-16780136D01*
X18620322Y-16780136D02*
X18601274Y-16770612D01*
X18601274Y-16770612D02*
X18591750Y-16761088D01*
X18591750Y-16761088D02*
X18582227Y-16742040D01*
X18582227Y-16742040D02*
X18572703Y-16703945D01*
X18572703Y-16703945D02*
X18572703Y-16656326D01*
X18572703Y-16656326D02*
X18582227Y-16618231D01*
X18582227Y-16618231D02*
X18591750Y-16599183D01*
X18591750Y-16599183D02*
X18601274Y-16589660D01*
X18601274Y-16589660D02*
X18620322Y-16580136D01*
X18763179Y-16580136D02*
X18763179Y-16618231D01*
X18839369Y-16580136D02*
X18839369Y-16618231D01*
X19134608Y-16856326D02*
X19125084Y-16846802D01*
X19125084Y-16846802D02*
X19106036Y-16818231D01*
X19106036Y-16818231D02*
X19096512Y-16799183D01*
X19096512Y-16799183D02*
X19086989Y-16770612D01*
X19086989Y-16770612D02*
X19077465Y-16722993D01*
X19077465Y-16722993D02*
X19077465Y-16684898D01*
X19077465Y-16684898D02*
X19086989Y-16637279D01*
X19086989Y-16637279D02*
X19096512Y-16608707D01*
X19096512Y-16608707D02*
X19106036Y-16589660D01*
X19106036Y-16589660D02*
X19125084Y-16561088D01*
X19125084Y-16561088D02*
X19134608Y-16551564D01*
X19201274Y-16599183D02*
X19210798Y-16589660D01*
X19210798Y-16589660D02*
X19229846Y-16580136D01*
X19229846Y-16580136D02*
X19277465Y-16580136D01*
X19277465Y-16580136D02*
X19296512Y-16589660D01*
X19296512Y-16589660D02*
X19306036Y-16599183D01*
X19306036Y-16599183D02*
X19315560Y-16618231D01*
X19315560Y-16618231D02*
X19315560Y-16637279D01*
X19315560Y-16637279D02*
X19306036Y-16665850D01*
X19306036Y-16665850D02*
X19191750Y-16780136D01*
X19191750Y-16780136D02*
X19315560Y-16780136D01*
X19553655Y-16780136D02*
X19553655Y-16580136D01*
X19639370Y-16780136D02*
X19639370Y-16675374D01*
X19639370Y-16675374D02*
X19629846Y-16656326D01*
X19629846Y-16656326D02*
X19610798Y-16646802D01*
X19610798Y-16646802D02*
X19582227Y-16646802D01*
X19582227Y-16646802D02*
X19563179Y-16656326D01*
X19563179Y-16656326D02*
X19553655Y-16665850D01*
X19763179Y-16780136D02*
X19744131Y-16770612D01*
X19744131Y-16770612D02*
X19734608Y-16761088D01*
X19734608Y-16761088D02*
X19725084Y-16742040D01*
X19725084Y-16742040D02*
X19725084Y-16684898D01*
X19725084Y-16684898D02*
X19734608Y-16665850D01*
X19734608Y-16665850D02*
X19744131Y-16656326D01*
X19744131Y-16656326D02*
X19763179Y-16646802D01*
X19763179Y-16646802D02*
X19791751Y-16646802D01*
X19791751Y-16646802D02*
X19810798Y-16656326D01*
X19810798Y-16656326D02*
X19820322Y-16665850D01*
X19820322Y-16665850D02*
X19829846Y-16684898D01*
X19829846Y-16684898D02*
X19829846Y-16742040D01*
X19829846Y-16742040D02*
X19820322Y-16761088D01*
X19820322Y-16761088D02*
X19810798Y-16770612D01*
X19810798Y-16770612D02*
X19791751Y-16780136D01*
X19791751Y-16780136D02*
X19763179Y-16780136D01*
X19944131Y-16780136D02*
X19925084Y-16770612D01*
X19925084Y-16770612D02*
X19915560Y-16751564D01*
X19915560Y-16751564D02*
X19915560Y-16580136D01*
X20096512Y-16770612D02*
X20077465Y-16780136D01*
X20077465Y-16780136D02*
X20039370Y-16780136D01*
X20039370Y-16780136D02*
X20020322Y-16770612D01*
X20020322Y-16770612D02*
X20010798Y-16751564D01*
X20010798Y-16751564D02*
X20010798Y-16675374D01*
X20010798Y-16675374D02*
X20020322Y-16656326D01*
X20020322Y-16656326D02*
X20039370Y-16646802D01*
X20039370Y-16646802D02*
X20077465Y-16646802D01*
X20077465Y-16646802D02*
X20096512Y-16656326D01*
X20096512Y-16656326D02*
X20106036Y-16675374D01*
X20106036Y-16675374D02*
X20106036Y-16694421D01*
X20106036Y-16694421D02*
X20010798Y-16713469D01*
X20182227Y-16770612D02*
X20201274Y-16780136D01*
X20201274Y-16780136D02*
X20239370Y-16780136D01*
X20239370Y-16780136D02*
X20258417Y-16770612D01*
X20258417Y-16770612D02*
X20267941Y-16751564D01*
X20267941Y-16751564D02*
X20267941Y-16742040D01*
X20267941Y-16742040D02*
X20258417Y-16722993D01*
X20258417Y-16722993D02*
X20239370Y-16713469D01*
X20239370Y-16713469D02*
X20210798Y-16713469D01*
X20210798Y-16713469D02*
X20191751Y-16703945D01*
X20191751Y-16703945D02*
X20182227Y-16684898D01*
X20182227Y-16684898D02*
X20182227Y-16675374D01*
X20182227Y-16675374D02*
X20191751Y-16656326D01*
X20191751Y-16656326D02*
X20210798Y-16646802D01*
X20210798Y-16646802D02*
X20239370Y-16646802D01*
X20239370Y-16646802D02*
X20258417Y-16656326D01*
X20334608Y-16856326D02*
X20344132Y-16846802D01*
X20344132Y-16846802D02*
X20363179Y-16818231D01*
X20363179Y-16818231D02*
X20372703Y-16799183D01*
X20372703Y-16799183D02*
X20382227Y-16770612D01*
X20382227Y-16770612D02*
X20391751Y-16722993D01*
X20391751Y-16722993D02*
X20391751Y-16684898D01*
X20391751Y-16684898D02*
X20382227Y-16637279D01*
X20382227Y-16637279D02*
X20372703Y-16608707D01*
X20372703Y-16608707D02*
X20363179Y-16589660D01*
X20363179Y-16589660D02*
X20344132Y-16561088D01*
X20344132Y-16561088D02*
X20334608Y-16551564D01*
X20696513Y-16856326D02*
X20686989Y-16846802D01*
X20686989Y-16846802D02*
X20667941Y-16818231D01*
X20667941Y-16818231D02*
X20658417Y-16799183D01*
X20658417Y-16799183D02*
X20648893Y-16770612D01*
X20648893Y-16770612D02*
X20639370Y-16722993D01*
X20639370Y-16722993D02*
X20639370Y-16684898D01*
X20639370Y-16684898D02*
X20648893Y-16637279D01*
X20648893Y-16637279D02*
X20658417Y-16608707D01*
X20658417Y-16608707D02*
X20667941Y-16589660D01*
X20667941Y-16589660D02*
X20686989Y-16561088D01*
X20686989Y-16561088D02*
X20696513Y-16551564D01*
X20772703Y-16646802D02*
X20772703Y-16780136D01*
X20772703Y-16665850D02*
X20782227Y-16656326D01*
X20782227Y-16656326D02*
X20801274Y-16646802D01*
X20801274Y-16646802D02*
X20829846Y-16646802D01*
X20829846Y-16646802D02*
X20848893Y-16656326D01*
X20848893Y-16656326D02*
X20858417Y-16675374D01*
X20858417Y-16675374D02*
X20858417Y-16780136D01*
X20982227Y-16780136D02*
X20963179Y-16770612D01*
X20963179Y-16770612D02*
X20953655Y-16761088D01*
X20953655Y-16761088D02*
X20944132Y-16742040D01*
X20944132Y-16742040D02*
X20944132Y-16684898D01*
X20944132Y-16684898D02*
X20953655Y-16665850D01*
X20953655Y-16665850D02*
X20963179Y-16656326D01*
X20963179Y-16656326D02*
X20982227Y-16646802D01*
X20982227Y-16646802D02*
X21010798Y-16646802D01*
X21010798Y-16646802D02*
X21029846Y-16656326D01*
X21029846Y-16656326D02*
X21039370Y-16665850D01*
X21039370Y-16665850D02*
X21048893Y-16684898D01*
X21048893Y-16684898D02*
X21048893Y-16742040D01*
X21048893Y-16742040D02*
X21039370Y-16761088D01*
X21039370Y-16761088D02*
X21029846Y-16770612D01*
X21029846Y-16770612D02*
X21010798Y-16780136D01*
X21010798Y-16780136D02*
X20982227Y-16780136D01*
X21106036Y-16646802D02*
X21182227Y-16646802D01*
X21134608Y-16580136D02*
X21134608Y-16751564D01*
X21134608Y-16751564D02*
X21144132Y-16770612D01*
X21144132Y-16770612D02*
X21163179Y-16780136D01*
X21163179Y-16780136D02*
X21182227Y-16780136D01*
X21401274Y-16646802D02*
X21401274Y-16846802D01*
X21401274Y-16656326D02*
X21420322Y-16646802D01*
X21420322Y-16646802D02*
X21458417Y-16646802D01*
X21458417Y-16646802D02*
X21477465Y-16656326D01*
X21477465Y-16656326D02*
X21486989Y-16665850D01*
X21486989Y-16665850D02*
X21496513Y-16684898D01*
X21496513Y-16684898D02*
X21496513Y-16742040D01*
X21496513Y-16742040D02*
X21486989Y-16761088D01*
X21486989Y-16761088D02*
X21477465Y-16770612D01*
X21477465Y-16770612D02*
X21458417Y-16780136D01*
X21458417Y-16780136D02*
X21420322Y-16780136D01*
X21420322Y-16780136D02*
X21401274Y-16770612D01*
X21610798Y-16780136D02*
X21591751Y-16770612D01*
X21591751Y-16770612D02*
X21582227Y-16751564D01*
X21582227Y-16751564D02*
X21582227Y-16580136D01*
X21772703Y-16780136D02*
X21772703Y-16675374D01*
X21772703Y-16675374D02*
X21763179Y-16656326D01*
X21763179Y-16656326D02*
X21744132Y-16646802D01*
X21744132Y-16646802D02*
X21706036Y-16646802D01*
X21706036Y-16646802D02*
X21686989Y-16656326D01*
X21772703Y-16770612D02*
X21753655Y-16780136D01*
X21753655Y-16780136D02*
X21706036Y-16780136D01*
X21706036Y-16780136D02*
X21686989Y-16770612D01*
X21686989Y-16770612D02*
X21677465Y-16751564D01*
X21677465Y-16751564D02*
X21677465Y-16732517D01*
X21677465Y-16732517D02*
X21686989Y-16713469D01*
X21686989Y-16713469D02*
X21706036Y-16703945D01*
X21706036Y-16703945D02*
X21753655Y-16703945D01*
X21753655Y-16703945D02*
X21772703Y-16694421D01*
X21839370Y-16646802D02*
X21915560Y-16646802D01*
X21867941Y-16580136D02*
X21867941Y-16751564D01*
X21867941Y-16751564D02*
X21877465Y-16770612D01*
X21877465Y-16770612D02*
X21896513Y-16780136D01*
X21896513Y-16780136D02*
X21915560Y-16780136D01*
X22058417Y-16770612D02*
X22039370Y-16780136D01*
X22039370Y-16780136D02*
X22001274Y-16780136D01*
X22001274Y-16780136D02*
X21982227Y-16770612D01*
X21982227Y-16770612D02*
X21972703Y-16751564D01*
X21972703Y-16751564D02*
X21972703Y-16675374D01*
X21972703Y-16675374D02*
X21982227Y-16656326D01*
X21982227Y-16656326D02*
X22001274Y-16646802D01*
X22001274Y-16646802D02*
X22039370Y-16646802D01*
X22039370Y-16646802D02*
X22058417Y-16656326D01*
X22058417Y-16656326D02*
X22067941Y-16675374D01*
X22067941Y-16675374D02*
X22067941Y-16694421D01*
X22067941Y-16694421D02*
X21972703Y-16713469D01*
X22239370Y-16780136D02*
X22239370Y-16580136D01*
X22239370Y-16770612D02*
X22220322Y-16780136D01*
X22220322Y-16780136D02*
X22182227Y-16780136D01*
X22182227Y-16780136D02*
X22163179Y-16770612D01*
X22163179Y-16770612D02*
X22153655Y-16761088D01*
X22153655Y-16761088D02*
X22144132Y-16742040D01*
X22144132Y-16742040D02*
X22144132Y-16684898D01*
X22144132Y-16684898D02*
X22153655Y-16665850D01*
X22153655Y-16665850D02*
X22163179Y-16656326D01*
X22163179Y-16656326D02*
X22182227Y-16646802D01*
X22182227Y-16646802D02*
X22220322Y-16646802D01*
X22220322Y-16646802D02*
X22239370Y-16656326D01*
X22315560Y-16856326D02*
X22325084Y-16846802D01*
X22325084Y-16846802D02*
X22344132Y-16818231D01*
X22344132Y-16818231D02*
X22353655Y-16799183D01*
X22353655Y-16799183D02*
X22363179Y-16770612D01*
X22363179Y-16770612D02*
X22372703Y-16722993D01*
X22372703Y-16722993D02*
X22372703Y-16684898D01*
X22372703Y-16684898D02*
X22363179Y-16637279D01*
X22363179Y-16637279D02*
X22353655Y-16608707D01*
X22353655Y-16608707D02*
X22344132Y-16589660D01*
X22344132Y-16589660D02*
X22325084Y-16561088D01*
X22325084Y-16561088D02*
X22315560Y-16551564D01*
M02*
