%TF.GenerationSoftware,KiCad,Pcbnew,8.0.2*%
%TF.CreationDate,2024-10-28T19:38:45-07:00*%
%TF.ProjectId,UGC_OpenMain,5547435f-4f70-4656-9e4d-61696e2e6b69,rev?*%
%TF.SameCoordinates,Original*%
%TF.FileFunction,Legend,Top*%
%TF.FilePolarity,Positive*%
%FSLAX46Y46*%
G04 Gerber Fmt 4.6, Leading zero omitted, Abs format (unit mm)*
G04 Created by KiCad (PCBNEW 8.0.2) date 2024-10-28 19:38:45*
%MOMM*%
%LPD*%
G01*
G04 APERTURE LIST*
%ADD10C,0.100000*%
%ADD11C,0.120000*%
%ADD12C,0.350000*%
%ADD13C,0.127000*%
%ADD14C,0.200000*%
G04 APERTURE END LIST*
D10*
X272679987Y-135234560D02*
X272479987Y-134948846D01*
X272337130Y-135234560D02*
X272337130Y-134634560D01*
X272337130Y-134634560D02*
X272565701Y-134634560D01*
X272565701Y-134634560D02*
X272622844Y-134663131D01*
X272622844Y-134663131D02*
X272651415Y-134691703D01*
X272651415Y-134691703D02*
X272679987Y-134748846D01*
X272679987Y-134748846D02*
X272679987Y-134834560D01*
X272679987Y-134834560D02*
X272651415Y-134891703D01*
X272651415Y-134891703D02*
X272622844Y-134920274D01*
X272622844Y-134920274D02*
X272565701Y-134948846D01*
X272565701Y-134948846D02*
X272337130Y-134948846D01*
X272879987Y-134634560D02*
X273251415Y-134634560D01*
X273251415Y-134634560D02*
X273051415Y-134863131D01*
X273051415Y-134863131D02*
X273137130Y-134863131D01*
X273137130Y-134863131D02*
X273194273Y-134891703D01*
X273194273Y-134891703D02*
X273222844Y-134920274D01*
X273222844Y-134920274D02*
X273251415Y-134977417D01*
X273251415Y-134977417D02*
X273251415Y-135120274D01*
X273251415Y-135120274D02*
X273222844Y-135177417D01*
X273222844Y-135177417D02*
X273194273Y-135205989D01*
X273194273Y-135205989D02*
X273137130Y-135234560D01*
X273137130Y-135234560D02*
X272965701Y-135234560D01*
X272965701Y-135234560D02*
X272908558Y-135205989D01*
X272908558Y-135205989D02*
X272879987Y-135177417D01*
X273537130Y-135234560D02*
X273651416Y-135234560D01*
X273651416Y-135234560D02*
X273708559Y-135205989D01*
X273708559Y-135205989D02*
X273737130Y-135177417D01*
X273737130Y-135177417D02*
X273794273Y-135091703D01*
X273794273Y-135091703D02*
X273822844Y-134977417D01*
X273822844Y-134977417D02*
X273822844Y-134748846D01*
X273822844Y-134748846D02*
X273794273Y-134691703D01*
X273794273Y-134691703D02*
X273765702Y-134663131D01*
X273765702Y-134663131D02*
X273708559Y-134634560D01*
X273708559Y-134634560D02*
X273594273Y-134634560D01*
X273594273Y-134634560D02*
X273537130Y-134663131D01*
X273537130Y-134663131D02*
X273508559Y-134691703D01*
X273508559Y-134691703D02*
X273479987Y-134748846D01*
X273479987Y-134748846D02*
X273479987Y-134891703D01*
X273479987Y-134891703D02*
X273508559Y-134948846D01*
X273508559Y-134948846D02*
X273537130Y-134977417D01*
X273537130Y-134977417D02*
X273594273Y-135005989D01*
X273594273Y-135005989D02*
X273708559Y-135005989D01*
X273708559Y-135005989D02*
X273765702Y-134977417D01*
X273765702Y-134977417D02*
X273794273Y-134948846D01*
X273794273Y-134948846D02*
X273822844Y-134891703D01*
X233107828Y-124636199D02*
X233136400Y-124664771D01*
X233136400Y-124664771D02*
X233164971Y-124750485D01*
X233164971Y-124750485D02*
X233164971Y-124807628D01*
X233164971Y-124807628D02*
X233136400Y-124893342D01*
X233136400Y-124893342D02*
X233079257Y-124950485D01*
X233079257Y-124950485D02*
X233022114Y-124979056D01*
X233022114Y-124979056D02*
X232907828Y-125007628D01*
X232907828Y-125007628D02*
X232822114Y-125007628D01*
X232822114Y-125007628D02*
X232707828Y-124979056D01*
X232707828Y-124979056D02*
X232650685Y-124950485D01*
X232650685Y-124950485D02*
X232593542Y-124893342D01*
X232593542Y-124893342D02*
X232564971Y-124807628D01*
X232564971Y-124807628D02*
X232564971Y-124750485D01*
X232564971Y-124750485D02*
X232593542Y-124664771D01*
X232593542Y-124664771D02*
X232622114Y-124636199D01*
X232764971Y-124121914D02*
X233164971Y-124121914D01*
X232536400Y-124264771D02*
X232964971Y-124407628D01*
X232964971Y-124407628D02*
X232964971Y-124036199D01*
X268623371Y-126572914D02*
X268337657Y-126772914D01*
X268623371Y-126915771D02*
X268023371Y-126915771D01*
X268023371Y-126915771D02*
X268023371Y-126687200D01*
X268023371Y-126687200D02*
X268051942Y-126630057D01*
X268051942Y-126630057D02*
X268080514Y-126601486D01*
X268080514Y-126601486D02*
X268137657Y-126572914D01*
X268137657Y-126572914D02*
X268223371Y-126572914D01*
X268223371Y-126572914D02*
X268280514Y-126601486D01*
X268280514Y-126601486D02*
X268309085Y-126630057D01*
X268309085Y-126630057D02*
X268337657Y-126687200D01*
X268337657Y-126687200D02*
X268337657Y-126915771D01*
X268023371Y-126372914D02*
X268023371Y-126001486D01*
X268023371Y-126001486D02*
X268251942Y-126201486D01*
X268251942Y-126201486D02*
X268251942Y-126115771D01*
X268251942Y-126115771D02*
X268280514Y-126058629D01*
X268280514Y-126058629D02*
X268309085Y-126030057D01*
X268309085Y-126030057D02*
X268366228Y-126001486D01*
X268366228Y-126001486D02*
X268509085Y-126001486D01*
X268509085Y-126001486D02*
X268566228Y-126030057D01*
X268566228Y-126030057D02*
X268594800Y-126058629D01*
X268594800Y-126058629D02*
X268623371Y-126115771D01*
X268623371Y-126115771D02*
X268623371Y-126287200D01*
X268623371Y-126287200D02*
X268594800Y-126344343D01*
X268594800Y-126344343D02*
X268566228Y-126372914D01*
X268023371Y-125458628D02*
X268023371Y-125744342D01*
X268023371Y-125744342D02*
X268309085Y-125772914D01*
X268309085Y-125772914D02*
X268280514Y-125744342D01*
X268280514Y-125744342D02*
X268251942Y-125687200D01*
X268251942Y-125687200D02*
X268251942Y-125544342D01*
X268251942Y-125544342D02*
X268280514Y-125487200D01*
X268280514Y-125487200D02*
X268309085Y-125458628D01*
X268309085Y-125458628D02*
X268366228Y-125430057D01*
X268366228Y-125430057D02*
X268509085Y-125430057D01*
X268509085Y-125430057D02*
X268566228Y-125458628D01*
X268566228Y-125458628D02*
X268594800Y-125487200D01*
X268594800Y-125487200D02*
X268623371Y-125544342D01*
X268623371Y-125544342D02*
X268623371Y-125687200D01*
X268623371Y-125687200D02*
X268594800Y-125744342D01*
X268594800Y-125744342D02*
X268566228Y-125772914D01*
X179540000Y-127512371D02*
X179340000Y-127226657D01*
X179197143Y-127512371D02*
X179197143Y-126912371D01*
X179197143Y-126912371D02*
X179425714Y-126912371D01*
X179425714Y-126912371D02*
X179482857Y-126940942D01*
X179482857Y-126940942D02*
X179511428Y-126969514D01*
X179511428Y-126969514D02*
X179540000Y-127026657D01*
X179540000Y-127026657D02*
X179540000Y-127112371D01*
X179540000Y-127112371D02*
X179511428Y-127169514D01*
X179511428Y-127169514D02*
X179482857Y-127198085D01*
X179482857Y-127198085D02*
X179425714Y-127226657D01*
X179425714Y-127226657D02*
X179197143Y-127226657D01*
X180111428Y-127512371D02*
X179768571Y-127512371D01*
X179940000Y-127512371D02*
X179940000Y-126912371D01*
X179940000Y-126912371D02*
X179882857Y-126998085D01*
X179882857Y-126998085D02*
X179825714Y-127055228D01*
X179825714Y-127055228D02*
X179768571Y-127083800D01*
X280039728Y-139004860D02*
X280011156Y-139033432D01*
X280011156Y-139033432D02*
X279925442Y-139062003D01*
X279925442Y-139062003D02*
X279868299Y-139062003D01*
X279868299Y-139062003D02*
X279782585Y-139033432D01*
X279782585Y-139033432D02*
X279725442Y-138976289D01*
X279725442Y-138976289D02*
X279696871Y-138919146D01*
X279696871Y-138919146D02*
X279668299Y-138804860D01*
X279668299Y-138804860D02*
X279668299Y-138719146D01*
X279668299Y-138719146D02*
X279696871Y-138604860D01*
X279696871Y-138604860D02*
X279725442Y-138547717D01*
X279725442Y-138547717D02*
X279782585Y-138490574D01*
X279782585Y-138490574D02*
X279868299Y-138462003D01*
X279868299Y-138462003D02*
X279925442Y-138462003D01*
X279925442Y-138462003D02*
X280011156Y-138490574D01*
X280011156Y-138490574D02*
X280039728Y-138519146D01*
X280268299Y-138519146D02*
X280296871Y-138490574D01*
X280296871Y-138490574D02*
X280354014Y-138462003D01*
X280354014Y-138462003D02*
X280496871Y-138462003D01*
X280496871Y-138462003D02*
X280554014Y-138490574D01*
X280554014Y-138490574D02*
X280582585Y-138519146D01*
X280582585Y-138519146D02*
X280611156Y-138576289D01*
X280611156Y-138576289D02*
X280611156Y-138633432D01*
X280611156Y-138633432D02*
X280582585Y-138719146D01*
X280582585Y-138719146D02*
X280239728Y-139062003D01*
X280239728Y-139062003D02*
X280611156Y-139062003D01*
X281125443Y-138462003D02*
X281011157Y-138462003D01*
X281011157Y-138462003D02*
X280954014Y-138490574D01*
X280954014Y-138490574D02*
X280925443Y-138519146D01*
X280925443Y-138519146D02*
X280868300Y-138604860D01*
X280868300Y-138604860D02*
X280839728Y-138719146D01*
X280839728Y-138719146D02*
X280839728Y-138947717D01*
X280839728Y-138947717D02*
X280868300Y-139004860D01*
X280868300Y-139004860D02*
X280896871Y-139033432D01*
X280896871Y-139033432D02*
X280954014Y-139062003D01*
X280954014Y-139062003D02*
X281068300Y-139062003D01*
X281068300Y-139062003D02*
X281125443Y-139033432D01*
X281125443Y-139033432D02*
X281154014Y-139004860D01*
X281154014Y-139004860D02*
X281182585Y-138947717D01*
X281182585Y-138947717D02*
X281182585Y-138804860D01*
X281182585Y-138804860D02*
X281154014Y-138747717D01*
X281154014Y-138747717D02*
X281125443Y-138719146D01*
X281125443Y-138719146D02*
X281068300Y-138690574D01*
X281068300Y-138690574D02*
X280954014Y-138690574D01*
X280954014Y-138690574D02*
X280896871Y-138719146D01*
X280896871Y-138719146D02*
X280868300Y-138747717D01*
X280868300Y-138747717D02*
X280839728Y-138804860D01*
X230481200Y-103550371D02*
X230281200Y-103264657D01*
X230138343Y-103550371D02*
X230138343Y-102950371D01*
X230138343Y-102950371D02*
X230366914Y-102950371D01*
X230366914Y-102950371D02*
X230424057Y-102978942D01*
X230424057Y-102978942D02*
X230452628Y-103007514D01*
X230452628Y-103007514D02*
X230481200Y-103064657D01*
X230481200Y-103064657D02*
X230481200Y-103150371D01*
X230481200Y-103150371D02*
X230452628Y-103207514D01*
X230452628Y-103207514D02*
X230424057Y-103236085D01*
X230424057Y-103236085D02*
X230366914Y-103264657D01*
X230366914Y-103264657D02*
X230138343Y-103264657D01*
X231024057Y-102950371D02*
X230738343Y-102950371D01*
X230738343Y-102950371D02*
X230709771Y-103236085D01*
X230709771Y-103236085D02*
X230738343Y-103207514D01*
X230738343Y-103207514D02*
X230795486Y-103178942D01*
X230795486Y-103178942D02*
X230938343Y-103178942D01*
X230938343Y-103178942D02*
X230995486Y-103207514D01*
X230995486Y-103207514D02*
X231024057Y-103236085D01*
X231024057Y-103236085D02*
X231052628Y-103293228D01*
X231052628Y-103293228D02*
X231052628Y-103436085D01*
X231052628Y-103436085D02*
X231024057Y-103493228D01*
X231024057Y-103493228D02*
X230995486Y-103521800D01*
X230995486Y-103521800D02*
X230938343Y-103550371D01*
X230938343Y-103550371D02*
X230795486Y-103550371D01*
X230795486Y-103550371D02*
X230738343Y-103521800D01*
X230738343Y-103521800D02*
X230709771Y-103493228D01*
X275074285Y-137665228D02*
X275045713Y-137693800D01*
X275045713Y-137693800D02*
X274959999Y-137722371D01*
X274959999Y-137722371D02*
X274902856Y-137722371D01*
X274902856Y-137722371D02*
X274817142Y-137693800D01*
X274817142Y-137693800D02*
X274759999Y-137636657D01*
X274759999Y-137636657D02*
X274731428Y-137579514D01*
X274731428Y-137579514D02*
X274702856Y-137465228D01*
X274702856Y-137465228D02*
X274702856Y-137379514D01*
X274702856Y-137379514D02*
X274731428Y-137265228D01*
X274731428Y-137265228D02*
X274759999Y-137208085D01*
X274759999Y-137208085D02*
X274817142Y-137150942D01*
X274817142Y-137150942D02*
X274902856Y-137122371D01*
X274902856Y-137122371D02*
X274959999Y-137122371D01*
X274959999Y-137122371D02*
X275045713Y-137150942D01*
X275045713Y-137150942D02*
X275074285Y-137179514D01*
X275302856Y-137179514D02*
X275331428Y-137150942D01*
X275331428Y-137150942D02*
X275388571Y-137122371D01*
X275388571Y-137122371D02*
X275531428Y-137122371D01*
X275531428Y-137122371D02*
X275588571Y-137150942D01*
X275588571Y-137150942D02*
X275617142Y-137179514D01*
X275617142Y-137179514D02*
X275645713Y-137236657D01*
X275645713Y-137236657D02*
X275645713Y-137293800D01*
X275645713Y-137293800D02*
X275617142Y-137379514D01*
X275617142Y-137379514D02*
X275274285Y-137722371D01*
X275274285Y-137722371D02*
X275645713Y-137722371D01*
X275845714Y-137122371D02*
X276245714Y-137122371D01*
X276245714Y-137122371D02*
X275988571Y-137722371D01*
X241466826Y-96466211D02*
X241181112Y-96666211D01*
X241466826Y-96809068D02*
X240866826Y-96809068D01*
X240866826Y-96809068D02*
X240866826Y-96580497D01*
X240866826Y-96580497D02*
X240895397Y-96523354D01*
X240895397Y-96523354D02*
X240923969Y-96494783D01*
X240923969Y-96494783D02*
X240981112Y-96466211D01*
X240981112Y-96466211D02*
X241066826Y-96466211D01*
X241066826Y-96466211D02*
X241123969Y-96494783D01*
X241123969Y-96494783D02*
X241152540Y-96523354D01*
X241152540Y-96523354D02*
X241181112Y-96580497D01*
X241181112Y-96580497D02*
X241181112Y-96809068D01*
X240866826Y-96266211D02*
X240866826Y-95894783D01*
X240866826Y-95894783D02*
X241095397Y-96094783D01*
X241095397Y-96094783D02*
X241095397Y-96009068D01*
X241095397Y-96009068D02*
X241123969Y-95951926D01*
X241123969Y-95951926D02*
X241152540Y-95923354D01*
X241152540Y-95923354D02*
X241209683Y-95894783D01*
X241209683Y-95894783D02*
X241352540Y-95894783D01*
X241352540Y-95894783D02*
X241409683Y-95923354D01*
X241409683Y-95923354D02*
X241438255Y-95951926D01*
X241438255Y-95951926D02*
X241466826Y-96009068D01*
X241466826Y-96009068D02*
X241466826Y-96180497D01*
X241466826Y-96180497D02*
X241438255Y-96237640D01*
X241438255Y-96237640D02*
X241409683Y-96266211D01*
X241123969Y-95551925D02*
X241095397Y-95609068D01*
X241095397Y-95609068D02*
X241066826Y-95637639D01*
X241066826Y-95637639D02*
X241009683Y-95666211D01*
X241009683Y-95666211D02*
X240981112Y-95666211D01*
X240981112Y-95666211D02*
X240923969Y-95637639D01*
X240923969Y-95637639D02*
X240895397Y-95609068D01*
X240895397Y-95609068D02*
X240866826Y-95551925D01*
X240866826Y-95551925D02*
X240866826Y-95437639D01*
X240866826Y-95437639D02*
X240895397Y-95380497D01*
X240895397Y-95380497D02*
X240923969Y-95351925D01*
X240923969Y-95351925D02*
X240981112Y-95323354D01*
X240981112Y-95323354D02*
X241009683Y-95323354D01*
X241009683Y-95323354D02*
X241066826Y-95351925D01*
X241066826Y-95351925D02*
X241095397Y-95380497D01*
X241095397Y-95380497D02*
X241123969Y-95437639D01*
X241123969Y-95437639D02*
X241123969Y-95551925D01*
X241123969Y-95551925D02*
X241152540Y-95609068D01*
X241152540Y-95609068D02*
X241181112Y-95637639D01*
X241181112Y-95637639D02*
X241238255Y-95666211D01*
X241238255Y-95666211D02*
X241352540Y-95666211D01*
X241352540Y-95666211D02*
X241409683Y-95637639D01*
X241409683Y-95637639D02*
X241438255Y-95609068D01*
X241438255Y-95609068D02*
X241466826Y-95551925D01*
X241466826Y-95551925D02*
X241466826Y-95437639D01*
X241466826Y-95437639D02*
X241438255Y-95380497D01*
X241438255Y-95380497D02*
X241409683Y-95351925D01*
X241409683Y-95351925D02*
X241352540Y-95323354D01*
X241352540Y-95323354D02*
X241238255Y-95323354D01*
X241238255Y-95323354D02*
X241181112Y-95351925D01*
X241181112Y-95351925D02*
X241152540Y-95380497D01*
X241152540Y-95380497D02*
X241123969Y-95437639D01*
X162784285Y-137375228D02*
X162755713Y-137403800D01*
X162755713Y-137403800D02*
X162669999Y-137432371D01*
X162669999Y-137432371D02*
X162612856Y-137432371D01*
X162612856Y-137432371D02*
X162527142Y-137403800D01*
X162527142Y-137403800D02*
X162469999Y-137346657D01*
X162469999Y-137346657D02*
X162441428Y-137289514D01*
X162441428Y-137289514D02*
X162412856Y-137175228D01*
X162412856Y-137175228D02*
X162412856Y-137089514D01*
X162412856Y-137089514D02*
X162441428Y-136975228D01*
X162441428Y-136975228D02*
X162469999Y-136918085D01*
X162469999Y-136918085D02*
X162527142Y-136860942D01*
X162527142Y-136860942D02*
X162612856Y-136832371D01*
X162612856Y-136832371D02*
X162669999Y-136832371D01*
X162669999Y-136832371D02*
X162755713Y-136860942D01*
X162755713Y-136860942D02*
X162784285Y-136889514D01*
X162984285Y-136832371D02*
X163355713Y-136832371D01*
X163355713Y-136832371D02*
X163155713Y-137060942D01*
X163155713Y-137060942D02*
X163241428Y-137060942D01*
X163241428Y-137060942D02*
X163298571Y-137089514D01*
X163298571Y-137089514D02*
X163327142Y-137118085D01*
X163327142Y-137118085D02*
X163355713Y-137175228D01*
X163355713Y-137175228D02*
X163355713Y-137318085D01*
X163355713Y-137318085D02*
X163327142Y-137375228D01*
X163327142Y-137375228D02*
X163298571Y-137403800D01*
X163298571Y-137403800D02*
X163241428Y-137432371D01*
X163241428Y-137432371D02*
X163069999Y-137432371D01*
X163069999Y-137432371D02*
X163012856Y-137403800D01*
X163012856Y-137403800D02*
X162984285Y-137375228D01*
X163555714Y-136832371D02*
X163927142Y-136832371D01*
X163927142Y-136832371D02*
X163727142Y-137060942D01*
X163727142Y-137060942D02*
X163812857Y-137060942D01*
X163812857Y-137060942D02*
X163870000Y-137089514D01*
X163870000Y-137089514D02*
X163898571Y-137118085D01*
X163898571Y-137118085D02*
X163927142Y-137175228D01*
X163927142Y-137175228D02*
X163927142Y-137318085D01*
X163927142Y-137318085D02*
X163898571Y-137375228D01*
X163898571Y-137375228D02*
X163870000Y-137403800D01*
X163870000Y-137403800D02*
X163812857Y-137432371D01*
X163812857Y-137432371D02*
X163641428Y-137432371D01*
X163641428Y-137432371D02*
X163584285Y-137403800D01*
X163584285Y-137403800D02*
X163555714Y-137375228D01*
X251069571Y-131975200D02*
X251498142Y-131975200D01*
X251498142Y-131975200D02*
X251583857Y-132003771D01*
X251583857Y-132003771D02*
X251641000Y-132060914D01*
X251641000Y-132060914D02*
X251669571Y-132146628D01*
X251669571Y-132146628D02*
X251669571Y-132203771D01*
X251326714Y-131603771D02*
X251298142Y-131660914D01*
X251298142Y-131660914D02*
X251269571Y-131689485D01*
X251269571Y-131689485D02*
X251212428Y-131718057D01*
X251212428Y-131718057D02*
X251183857Y-131718057D01*
X251183857Y-131718057D02*
X251126714Y-131689485D01*
X251126714Y-131689485D02*
X251098142Y-131660914D01*
X251098142Y-131660914D02*
X251069571Y-131603771D01*
X251069571Y-131603771D02*
X251069571Y-131489485D01*
X251069571Y-131489485D02*
X251098142Y-131432343D01*
X251098142Y-131432343D02*
X251126714Y-131403771D01*
X251126714Y-131403771D02*
X251183857Y-131375200D01*
X251183857Y-131375200D02*
X251212428Y-131375200D01*
X251212428Y-131375200D02*
X251269571Y-131403771D01*
X251269571Y-131403771D02*
X251298142Y-131432343D01*
X251298142Y-131432343D02*
X251326714Y-131489485D01*
X251326714Y-131489485D02*
X251326714Y-131603771D01*
X251326714Y-131603771D02*
X251355285Y-131660914D01*
X251355285Y-131660914D02*
X251383857Y-131689485D01*
X251383857Y-131689485D02*
X251441000Y-131718057D01*
X251441000Y-131718057D02*
X251555285Y-131718057D01*
X251555285Y-131718057D02*
X251612428Y-131689485D01*
X251612428Y-131689485D02*
X251641000Y-131660914D01*
X251641000Y-131660914D02*
X251669571Y-131603771D01*
X251669571Y-131603771D02*
X251669571Y-131489485D01*
X251669571Y-131489485D02*
X251641000Y-131432343D01*
X251641000Y-131432343D02*
X251612428Y-131403771D01*
X251612428Y-131403771D02*
X251555285Y-131375200D01*
X251555285Y-131375200D02*
X251441000Y-131375200D01*
X251441000Y-131375200D02*
X251383857Y-131403771D01*
X251383857Y-131403771D02*
X251355285Y-131432343D01*
X251355285Y-131432343D02*
X251326714Y-131489485D01*
X230887600Y-124859371D02*
X230601886Y-124859371D01*
X230601886Y-124859371D02*
X230601886Y-124259371D01*
X231373314Y-124259371D02*
X231087600Y-124259371D01*
X231087600Y-124259371D02*
X231059028Y-124545085D01*
X231059028Y-124545085D02*
X231087600Y-124516514D01*
X231087600Y-124516514D02*
X231144743Y-124487942D01*
X231144743Y-124487942D02*
X231287600Y-124487942D01*
X231287600Y-124487942D02*
X231344743Y-124516514D01*
X231344743Y-124516514D02*
X231373314Y-124545085D01*
X231373314Y-124545085D02*
X231401885Y-124602228D01*
X231401885Y-124602228D02*
X231401885Y-124745085D01*
X231401885Y-124745085D02*
X231373314Y-124802228D01*
X231373314Y-124802228D02*
X231344743Y-124830800D01*
X231344743Y-124830800D02*
X231287600Y-124859371D01*
X231287600Y-124859371D02*
X231144743Y-124859371D01*
X231144743Y-124859371D02*
X231087600Y-124830800D01*
X231087600Y-124830800D02*
X231059028Y-124802228D01*
X216594671Y-106851954D02*
X216394671Y-106566240D01*
X216251814Y-106851954D02*
X216251814Y-106251954D01*
X216251814Y-106251954D02*
X216480385Y-106251954D01*
X216480385Y-106251954D02*
X216537528Y-106280525D01*
X216537528Y-106280525D02*
X216566099Y-106309097D01*
X216566099Y-106309097D02*
X216594671Y-106366240D01*
X216594671Y-106366240D02*
X216594671Y-106451954D01*
X216594671Y-106451954D02*
X216566099Y-106509097D01*
X216566099Y-106509097D02*
X216537528Y-106537668D01*
X216537528Y-106537668D02*
X216480385Y-106566240D01*
X216480385Y-106566240D02*
X216251814Y-106566240D01*
X217108957Y-106251954D02*
X216994671Y-106251954D01*
X216994671Y-106251954D02*
X216937528Y-106280525D01*
X216937528Y-106280525D02*
X216908957Y-106309097D01*
X216908957Y-106309097D02*
X216851814Y-106394811D01*
X216851814Y-106394811D02*
X216823242Y-106509097D01*
X216823242Y-106509097D02*
X216823242Y-106737668D01*
X216823242Y-106737668D02*
X216851814Y-106794811D01*
X216851814Y-106794811D02*
X216880385Y-106823383D01*
X216880385Y-106823383D02*
X216937528Y-106851954D01*
X216937528Y-106851954D02*
X217051814Y-106851954D01*
X217051814Y-106851954D02*
X217108957Y-106823383D01*
X217108957Y-106823383D02*
X217137528Y-106794811D01*
X217137528Y-106794811D02*
X217166099Y-106737668D01*
X217166099Y-106737668D02*
X217166099Y-106594811D01*
X217166099Y-106594811D02*
X217137528Y-106537668D01*
X217137528Y-106537668D02*
X217108957Y-106509097D01*
X217108957Y-106509097D02*
X217051814Y-106480525D01*
X217051814Y-106480525D02*
X216937528Y-106480525D01*
X216937528Y-106480525D02*
X216880385Y-106509097D01*
X216880385Y-106509097D02*
X216851814Y-106537668D01*
X216851814Y-106537668D02*
X216823242Y-106594811D01*
X229935228Y-105165714D02*
X229963800Y-105194286D01*
X229963800Y-105194286D02*
X229992371Y-105280000D01*
X229992371Y-105280000D02*
X229992371Y-105337143D01*
X229992371Y-105337143D02*
X229963800Y-105422857D01*
X229963800Y-105422857D02*
X229906657Y-105480000D01*
X229906657Y-105480000D02*
X229849514Y-105508571D01*
X229849514Y-105508571D02*
X229735228Y-105537143D01*
X229735228Y-105537143D02*
X229649514Y-105537143D01*
X229649514Y-105537143D02*
X229535228Y-105508571D01*
X229535228Y-105508571D02*
X229478085Y-105480000D01*
X229478085Y-105480000D02*
X229420942Y-105422857D01*
X229420942Y-105422857D02*
X229392371Y-105337143D01*
X229392371Y-105337143D02*
X229392371Y-105280000D01*
X229392371Y-105280000D02*
X229420942Y-105194286D01*
X229420942Y-105194286D02*
X229449514Y-105165714D01*
X229992371Y-104594286D02*
X229992371Y-104937143D01*
X229992371Y-104765714D02*
X229392371Y-104765714D01*
X229392371Y-104765714D02*
X229478085Y-104822857D01*
X229478085Y-104822857D02*
X229535228Y-104880000D01*
X229535228Y-104880000D02*
X229563800Y-104937143D01*
X229392371Y-104051428D02*
X229392371Y-104337142D01*
X229392371Y-104337142D02*
X229678085Y-104365714D01*
X229678085Y-104365714D02*
X229649514Y-104337142D01*
X229649514Y-104337142D02*
X229620942Y-104280000D01*
X229620942Y-104280000D02*
X229620942Y-104137142D01*
X229620942Y-104137142D02*
X229649514Y-104080000D01*
X229649514Y-104080000D02*
X229678085Y-104051428D01*
X229678085Y-104051428D02*
X229735228Y-104022857D01*
X229735228Y-104022857D02*
X229878085Y-104022857D01*
X229878085Y-104022857D02*
X229935228Y-104051428D01*
X229935228Y-104051428D02*
X229963800Y-104080000D01*
X229963800Y-104080000D02*
X229992371Y-104137142D01*
X229992371Y-104137142D02*
X229992371Y-104280000D01*
X229992371Y-104280000D02*
X229963800Y-104337142D01*
X229963800Y-104337142D02*
X229935228Y-104365714D01*
X168757143Y-136212371D02*
X168757143Y-135612371D01*
X168757143Y-135612371D02*
X168900000Y-135612371D01*
X168900000Y-135612371D02*
X168985714Y-135640942D01*
X168985714Y-135640942D02*
X169042857Y-135698085D01*
X169042857Y-135698085D02*
X169071428Y-135755228D01*
X169071428Y-135755228D02*
X169100000Y-135869514D01*
X169100000Y-135869514D02*
X169100000Y-135955228D01*
X169100000Y-135955228D02*
X169071428Y-136069514D01*
X169071428Y-136069514D02*
X169042857Y-136126657D01*
X169042857Y-136126657D02*
X168985714Y-136183800D01*
X168985714Y-136183800D02*
X168900000Y-136212371D01*
X168900000Y-136212371D02*
X168757143Y-136212371D01*
X169300000Y-135612371D02*
X169700000Y-135612371D01*
X169700000Y-135612371D02*
X169442857Y-136212371D01*
X228254285Y-106672371D02*
X228054285Y-106386657D01*
X227911428Y-106672371D02*
X227911428Y-106072371D01*
X227911428Y-106072371D02*
X228139999Y-106072371D01*
X228139999Y-106072371D02*
X228197142Y-106100942D01*
X228197142Y-106100942D02*
X228225713Y-106129514D01*
X228225713Y-106129514D02*
X228254285Y-106186657D01*
X228254285Y-106186657D02*
X228254285Y-106272371D01*
X228254285Y-106272371D02*
X228225713Y-106329514D01*
X228225713Y-106329514D02*
X228197142Y-106358085D01*
X228197142Y-106358085D02*
X228139999Y-106386657D01*
X228139999Y-106386657D02*
X227911428Y-106386657D01*
X228825713Y-106672371D02*
X228482856Y-106672371D01*
X228654285Y-106672371D02*
X228654285Y-106072371D01*
X228654285Y-106072371D02*
X228597142Y-106158085D01*
X228597142Y-106158085D02*
X228539999Y-106215228D01*
X228539999Y-106215228D02*
X228482856Y-106243800D01*
X229054285Y-106129514D02*
X229082857Y-106100942D01*
X229082857Y-106100942D02*
X229140000Y-106072371D01*
X229140000Y-106072371D02*
X229282857Y-106072371D01*
X229282857Y-106072371D02*
X229340000Y-106100942D01*
X229340000Y-106100942D02*
X229368571Y-106129514D01*
X229368571Y-106129514D02*
X229397142Y-106186657D01*
X229397142Y-106186657D02*
X229397142Y-106243800D01*
X229397142Y-106243800D02*
X229368571Y-106329514D01*
X229368571Y-106329514D02*
X229025714Y-106672371D01*
X229025714Y-106672371D02*
X229397142Y-106672371D01*
X279319085Y-134739971D02*
X279119085Y-134454257D01*
X278976228Y-134739971D02*
X278976228Y-134139971D01*
X278976228Y-134139971D02*
X279204799Y-134139971D01*
X279204799Y-134139971D02*
X279261942Y-134168542D01*
X279261942Y-134168542D02*
X279290513Y-134197114D01*
X279290513Y-134197114D02*
X279319085Y-134254257D01*
X279319085Y-134254257D02*
X279319085Y-134339971D01*
X279319085Y-134339971D02*
X279290513Y-134397114D01*
X279290513Y-134397114D02*
X279261942Y-134425685D01*
X279261942Y-134425685D02*
X279204799Y-134454257D01*
X279204799Y-134454257D02*
X278976228Y-134454257D01*
X279833371Y-134339971D02*
X279833371Y-134739971D01*
X279690513Y-134111400D02*
X279547656Y-134539971D01*
X279547656Y-134539971D02*
X279919085Y-134539971D01*
X280461942Y-134739971D02*
X280119085Y-134739971D01*
X280290514Y-134739971D02*
X280290514Y-134139971D01*
X280290514Y-134139971D02*
X280233371Y-134225685D01*
X280233371Y-134225685D02*
X280176228Y-134282828D01*
X280176228Y-134282828D02*
X280119085Y-134311400D01*
X213487981Y-108767378D02*
X213459409Y-108795950D01*
X213459409Y-108795950D02*
X213373695Y-108824521D01*
X213373695Y-108824521D02*
X213316552Y-108824521D01*
X213316552Y-108824521D02*
X213230838Y-108795950D01*
X213230838Y-108795950D02*
X213173695Y-108738807D01*
X213173695Y-108738807D02*
X213145124Y-108681664D01*
X213145124Y-108681664D02*
X213116552Y-108567378D01*
X213116552Y-108567378D02*
X213116552Y-108481664D01*
X213116552Y-108481664D02*
X213145124Y-108367378D01*
X213145124Y-108367378D02*
X213173695Y-108310235D01*
X213173695Y-108310235D02*
X213230838Y-108253092D01*
X213230838Y-108253092D02*
X213316552Y-108224521D01*
X213316552Y-108224521D02*
X213373695Y-108224521D01*
X213373695Y-108224521D02*
X213459409Y-108253092D01*
X213459409Y-108253092D02*
X213487981Y-108281664D01*
X214059409Y-108824521D02*
X213716552Y-108824521D01*
X213887981Y-108824521D02*
X213887981Y-108224521D01*
X213887981Y-108224521D02*
X213830838Y-108310235D01*
X213830838Y-108310235D02*
X213773695Y-108367378D01*
X213773695Y-108367378D02*
X213716552Y-108395950D01*
X214630838Y-108824521D02*
X214287981Y-108824521D01*
X214459410Y-108824521D02*
X214459410Y-108224521D01*
X214459410Y-108224521D02*
X214402267Y-108310235D01*
X214402267Y-108310235D02*
X214345124Y-108367378D01*
X214345124Y-108367378D02*
X214287981Y-108395950D01*
X166719257Y-132587314D02*
X166662114Y-132558742D01*
X166662114Y-132558742D02*
X166604971Y-132501600D01*
X166604971Y-132501600D02*
X166519257Y-132415885D01*
X166519257Y-132415885D02*
X166462114Y-132387314D01*
X166462114Y-132387314D02*
X166404971Y-132387314D01*
X166433542Y-132530171D02*
X166376400Y-132501600D01*
X166376400Y-132501600D02*
X166319257Y-132444457D01*
X166319257Y-132444457D02*
X166290685Y-132330171D01*
X166290685Y-132330171D02*
X166290685Y-132130171D01*
X166290685Y-132130171D02*
X166319257Y-132015885D01*
X166319257Y-132015885D02*
X166376400Y-131958742D01*
X166376400Y-131958742D02*
X166433542Y-131930171D01*
X166433542Y-131930171D02*
X166547828Y-131930171D01*
X166547828Y-131930171D02*
X166604971Y-131958742D01*
X166604971Y-131958742D02*
X166662114Y-132015885D01*
X166662114Y-132015885D02*
X166690685Y-132130171D01*
X166690685Y-132130171D02*
X166690685Y-132330171D01*
X166690685Y-132330171D02*
X166662114Y-132444457D01*
X166662114Y-132444457D02*
X166604971Y-132501600D01*
X166604971Y-132501600D02*
X166547828Y-132530171D01*
X166547828Y-132530171D02*
X166433542Y-132530171D01*
X167233542Y-131930171D02*
X166947828Y-131930171D01*
X166947828Y-131930171D02*
X166919256Y-132215885D01*
X166919256Y-132215885D02*
X166947828Y-132187314D01*
X166947828Y-132187314D02*
X167004971Y-132158742D01*
X167004971Y-132158742D02*
X167147828Y-132158742D01*
X167147828Y-132158742D02*
X167204971Y-132187314D01*
X167204971Y-132187314D02*
X167233542Y-132215885D01*
X167233542Y-132215885D02*
X167262113Y-132273028D01*
X167262113Y-132273028D02*
X167262113Y-132415885D01*
X167262113Y-132415885D02*
X167233542Y-132473028D01*
X167233542Y-132473028D02*
X167204971Y-132501600D01*
X167204971Y-132501600D02*
X167147828Y-132530171D01*
X167147828Y-132530171D02*
X167004971Y-132530171D01*
X167004971Y-132530171D02*
X166947828Y-132501600D01*
X166947828Y-132501600D02*
X166919256Y-132473028D01*
X230731999Y-99352771D02*
X230760571Y-99324200D01*
X230760571Y-99324200D02*
X230846285Y-99295628D01*
X230846285Y-99295628D02*
X230903428Y-99295628D01*
X230903428Y-99295628D02*
X230989142Y-99324200D01*
X230989142Y-99324200D02*
X231046285Y-99381342D01*
X231046285Y-99381342D02*
X231074856Y-99438485D01*
X231074856Y-99438485D02*
X231103428Y-99552771D01*
X231103428Y-99552771D02*
X231103428Y-99638485D01*
X231103428Y-99638485D02*
X231074856Y-99752771D01*
X231074856Y-99752771D02*
X231046285Y-99809914D01*
X231046285Y-99809914D02*
X230989142Y-99867057D01*
X230989142Y-99867057D02*
X230903428Y-99895628D01*
X230903428Y-99895628D02*
X230846285Y-99895628D01*
X230846285Y-99895628D02*
X230760571Y-99867057D01*
X230760571Y-99867057D02*
X230731999Y-99838485D01*
X230531999Y-99895628D02*
X230160571Y-99895628D01*
X230160571Y-99895628D02*
X230360571Y-99667057D01*
X230360571Y-99667057D02*
X230274856Y-99667057D01*
X230274856Y-99667057D02*
X230217714Y-99638485D01*
X230217714Y-99638485D02*
X230189142Y-99609914D01*
X230189142Y-99609914D02*
X230160571Y-99552771D01*
X230160571Y-99552771D02*
X230160571Y-99409914D01*
X230160571Y-99409914D02*
X230189142Y-99352771D01*
X230189142Y-99352771D02*
X230217714Y-99324200D01*
X230217714Y-99324200D02*
X230274856Y-99295628D01*
X230274856Y-99295628D02*
X230446285Y-99295628D01*
X230446285Y-99295628D02*
X230503428Y-99324200D01*
X230503428Y-99324200D02*
X230531999Y-99352771D01*
X267200971Y-126547514D02*
X266915257Y-126747514D01*
X267200971Y-126890371D02*
X266600971Y-126890371D01*
X266600971Y-126890371D02*
X266600971Y-126661800D01*
X266600971Y-126661800D02*
X266629542Y-126604657D01*
X266629542Y-126604657D02*
X266658114Y-126576086D01*
X266658114Y-126576086D02*
X266715257Y-126547514D01*
X266715257Y-126547514D02*
X266800971Y-126547514D01*
X266800971Y-126547514D02*
X266858114Y-126576086D01*
X266858114Y-126576086D02*
X266886685Y-126604657D01*
X266886685Y-126604657D02*
X266915257Y-126661800D01*
X266915257Y-126661800D02*
X266915257Y-126890371D01*
X266600971Y-126347514D02*
X266600971Y-125976086D01*
X266600971Y-125976086D02*
X266829542Y-126176086D01*
X266829542Y-126176086D02*
X266829542Y-126090371D01*
X266829542Y-126090371D02*
X266858114Y-126033229D01*
X266858114Y-126033229D02*
X266886685Y-126004657D01*
X266886685Y-126004657D02*
X266943828Y-125976086D01*
X266943828Y-125976086D02*
X267086685Y-125976086D01*
X267086685Y-125976086D02*
X267143828Y-126004657D01*
X267143828Y-126004657D02*
X267172400Y-126033229D01*
X267172400Y-126033229D02*
X267200971Y-126090371D01*
X267200971Y-126090371D02*
X267200971Y-126261800D01*
X267200971Y-126261800D02*
X267172400Y-126318943D01*
X267172400Y-126318943D02*
X267143828Y-126347514D01*
X266800971Y-125461800D02*
X267200971Y-125461800D01*
X266572400Y-125604657D02*
X267000971Y-125747514D01*
X267000971Y-125747514D02*
X267000971Y-125376085D01*
X231340000Y-116762371D02*
X231140000Y-116476657D01*
X230997143Y-116762371D02*
X230997143Y-116162371D01*
X230997143Y-116162371D02*
X231225714Y-116162371D01*
X231225714Y-116162371D02*
X231282857Y-116190942D01*
X231282857Y-116190942D02*
X231311428Y-116219514D01*
X231311428Y-116219514D02*
X231340000Y-116276657D01*
X231340000Y-116276657D02*
X231340000Y-116362371D01*
X231340000Y-116362371D02*
X231311428Y-116419514D01*
X231311428Y-116419514D02*
X231282857Y-116448085D01*
X231282857Y-116448085D02*
X231225714Y-116476657D01*
X231225714Y-116476657D02*
X230997143Y-116476657D01*
X231540000Y-116162371D02*
X231911428Y-116162371D01*
X231911428Y-116162371D02*
X231711428Y-116390942D01*
X231711428Y-116390942D02*
X231797143Y-116390942D01*
X231797143Y-116390942D02*
X231854286Y-116419514D01*
X231854286Y-116419514D02*
X231882857Y-116448085D01*
X231882857Y-116448085D02*
X231911428Y-116505228D01*
X231911428Y-116505228D02*
X231911428Y-116648085D01*
X231911428Y-116648085D02*
X231882857Y-116705228D01*
X231882857Y-116705228D02*
X231854286Y-116733800D01*
X231854286Y-116733800D02*
X231797143Y-116762371D01*
X231797143Y-116762371D02*
X231625714Y-116762371D01*
X231625714Y-116762371D02*
X231568571Y-116733800D01*
X231568571Y-116733800D02*
X231540000Y-116705228D01*
X239959884Y-96654579D02*
X239674170Y-96854579D01*
X239959884Y-96997436D02*
X239359884Y-96997436D01*
X239359884Y-96997436D02*
X239359884Y-96768865D01*
X239359884Y-96768865D02*
X239388455Y-96711722D01*
X239388455Y-96711722D02*
X239417027Y-96683151D01*
X239417027Y-96683151D02*
X239474170Y-96654579D01*
X239474170Y-96654579D02*
X239559884Y-96654579D01*
X239559884Y-96654579D02*
X239617027Y-96683151D01*
X239617027Y-96683151D02*
X239645598Y-96711722D01*
X239645598Y-96711722D02*
X239674170Y-96768865D01*
X239674170Y-96768865D02*
X239674170Y-96997436D01*
X239359884Y-96454579D02*
X239359884Y-96083151D01*
X239359884Y-96083151D02*
X239588455Y-96283151D01*
X239588455Y-96283151D02*
X239588455Y-96197436D01*
X239588455Y-96197436D02*
X239617027Y-96140294D01*
X239617027Y-96140294D02*
X239645598Y-96111722D01*
X239645598Y-96111722D02*
X239702741Y-96083151D01*
X239702741Y-96083151D02*
X239845598Y-96083151D01*
X239845598Y-96083151D02*
X239902741Y-96111722D01*
X239902741Y-96111722D02*
X239931313Y-96140294D01*
X239931313Y-96140294D02*
X239959884Y-96197436D01*
X239959884Y-96197436D02*
X239959884Y-96368865D01*
X239959884Y-96368865D02*
X239931313Y-96426008D01*
X239931313Y-96426008D02*
X239902741Y-96454579D01*
X239359884Y-95883150D02*
X239359884Y-95483150D01*
X239359884Y-95483150D02*
X239959884Y-95740293D01*
X171524285Y-135725228D02*
X171495713Y-135753800D01*
X171495713Y-135753800D02*
X171409999Y-135782371D01*
X171409999Y-135782371D02*
X171352856Y-135782371D01*
X171352856Y-135782371D02*
X171267142Y-135753800D01*
X171267142Y-135753800D02*
X171209999Y-135696657D01*
X171209999Y-135696657D02*
X171181428Y-135639514D01*
X171181428Y-135639514D02*
X171152856Y-135525228D01*
X171152856Y-135525228D02*
X171152856Y-135439514D01*
X171152856Y-135439514D02*
X171181428Y-135325228D01*
X171181428Y-135325228D02*
X171209999Y-135268085D01*
X171209999Y-135268085D02*
X171267142Y-135210942D01*
X171267142Y-135210942D02*
X171352856Y-135182371D01*
X171352856Y-135182371D02*
X171409999Y-135182371D01*
X171409999Y-135182371D02*
X171495713Y-135210942D01*
X171495713Y-135210942D02*
X171524285Y-135239514D01*
X171724285Y-135182371D02*
X172095713Y-135182371D01*
X172095713Y-135182371D02*
X171895713Y-135410942D01*
X171895713Y-135410942D02*
X171981428Y-135410942D01*
X171981428Y-135410942D02*
X172038571Y-135439514D01*
X172038571Y-135439514D02*
X172067142Y-135468085D01*
X172067142Y-135468085D02*
X172095713Y-135525228D01*
X172095713Y-135525228D02*
X172095713Y-135668085D01*
X172095713Y-135668085D02*
X172067142Y-135725228D01*
X172067142Y-135725228D02*
X172038571Y-135753800D01*
X172038571Y-135753800D02*
X171981428Y-135782371D01*
X171981428Y-135782371D02*
X171809999Y-135782371D01*
X171809999Y-135782371D02*
X171752856Y-135753800D01*
X171752856Y-135753800D02*
X171724285Y-135725228D01*
X172324285Y-135239514D02*
X172352857Y-135210942D01*
X172352857Y-135210942D02*
X172410000Y-135182371D01*
X172410000Y-135182371D02*
X172552857Y-135182371D01*
X172552857Y-135182371D02*
X172610000Y-135210942D01*
X172610000Y-135210942D02*
X172638571Y-135239514D01*
X172638571Y-135239514D02*
X172667142Y-135296657D01*
X172667142Y-135296657D02*
X172667142Y-135353800D01*
X172667142Y-135353800D02*
X172638571Y-135439514D01*
X172638571Y-135439514D02*
X172295714Y-135782371D01*
X172295714Y-135782371D02*
X172667142Y-135782371D01*
X170748336Y-126781597D02*
X170832438Y-126814615D01*
X170832438Y-126814615D02*
X170975099Y-126822091D01*
X170975099Y-126822091D02*
X171033659Y-126796550D01*
X171033659Y-126796550D02*
X171063686Y-126769513D01*
X171063686Y-126769513D02*
X171095209Y-126713944D01*
X171095209Y-126713944D02*
X171098200Y-126656879D01*
X171098200Y-126656879D02*
X171072658Y-126598319D01*
X171072658Y-126598319D02*
X171045621Y-126568292D01*
X171045621Y-126568292D02*
X170990052Y-126536769D01*
X170990052Y-126536769D02*
X170877418Y-126502255D01*
X170877418Y-126502255D02*
X170821849Y-126470732D01*
X170821849Y-126470732D02*
X170794812Y-126440705D01*
X170794812Y-126440705D02*
X170769270Y-126382145D01*
X170769270Y-126382145D02*
X170772261Y-126325080D01*
X170772261Y-126325080D02*
X170803784Y-126269511D01*
X170803784Y-126269511D02*
X170833812Y-126242474D01*
X170833812Y-126242474D02*
X170892371Y-126216932D01*
X170892371Y-126216932D02*
X171035033Y-126224409D01*
X171035033Y-126224409D02*
X171119134Y-126257427D01*
X171320356Y-126239362D02*
X171431616Y-126846016D01*
X171431616Y-126846016D02*
X171568175Y-126424014D01*
X171568175Y-126424014D02*
X171659874Y-126857979D01*
X171659874Y-126857979D02*
X171833937Y-126266278D01*
X172318985Y-126291698D02*
X172204856Y-126285717D01*
X172204856Y-126285717D02*
X172146296Y-126311258D01*
X172146296Y-126311258D02*
X172116269Y-126338295D01*
X172116269Y-126338295D02*
X172054718Y-126420902D01*
X172054718Y-126420902D02*
X172020205Y-126533535D01*
X172020205Y-126533535D02*
X172008242Y-126761794D01*
X172008242Y-126761794D02*
X172033784Y-126820353D01*
X172033784Y-126820353D02*
X172060821Y-126850381D01*
X172060821Y-126850381D02*
X172116390Y-126881904D01*
X172116390Y-126881904D02*
X172230519Y-126887885D01*
X172230519Y-126887885D02*
X172289079Y-126862344D01*
X172289079Y-126862344D02*
X172319107Y-126835307D01*
X172319107Y-126835307D02*
X172350629Y-126779737D01*
X172350629Y-126779737D02*
X172358106Y-126637076D01*
X172358106Y-126637076D02*
X172332564Y-126578516D01*
X172332564Y-126578516D02*
X172305527Y-126548489D01*
X172305527Y-126548489D02*
X172249958Y-126516966D01*
X172249958Y-126516966D02*
X172135829Y-126510984D01*
X172135829Y-126510984D02*
X172077269Y-126536526D01*
X172077269Y-126536526D02*
X172047242Y-126563563D01*
X172047242Y-126563563D02*
X172015719Y-126619132D01*
X216742459Y-102894712D02*
X216713887Y-102923284D01*
X216713887Y-102923284D02*
X216628173Y-102951855D01*
X216628173Y-102951855D02*
X216571030Y-102951855D01*
X216571030Y-102951855D02*
X216485316Y-102923284D01*
X216485316Y-102923284D02*
X216428173Y-102866141D01*
X216428173Y-102866141D02*
X216399602Y-102808998D01*
X216399602Y-102808998D02*
X216371030Y-102694712D01*
X216371030Y-102694712D02*
X216371030Y-102608998D01*
X216371030Y-102608998D02*
X216399602Y-102494712D01*
X216399602Y-102494712D02*
X216428173Y-102437569D01*
X216428173Y-102437569D02*
X216485316Y-102380426D01*
X216485316Y-102380426D02*
X216571030Y-102351855D01*
X216571030Y-102351855D02*
X216628173Y-102351855D01*
X216628173Y-102351855D02*
X216713887Y-102380426D01*
X216713887Y-102380426D02*
X216742459Y-102408998D01*
X217085316Y-102608998D02*
X217028173Y-102580426D01*
X217028173Y-102580426D02*
X216999602Y-102551855D01*
X216999602Y-102551855D02*
X216971030Y-102494712D01*
X216971030Y-102494712D02*
X216971030Y-102466141D01*
X216971030Y-102466141D02*
X216999602Y-102408998D01*
X216999602Y-102408998D02*
X217028173Y-102380426D01*
X217028173Y-102380426D02*
X217085316Y-102351855D01*
X217085316Y-102351855D02*
X217199602Y-102351855D01*
X217199602Y-102351855D02*
X217256745Y-102380426D01*
X217256745Y-102380426D02*
X217285316Y-102408998D01*
X217285316Y-102408998D02*
X217313887Y-102466141D01*
X217313887Y-102466141D02*
X217313887Y-102494712D01*
X217313887Y-102494712D02*
X217285316Y-102551855D01*
X217285316Y-102551855D02*
X217256745Y-102580426D01*
X217256745Y-102580426D02*
X217199602Y-102608998D01*
X217199602Y-102608998D02*
X217085316Y-102608998D01*
X217085316Y-102608998D02*
X217028173Y-102637569D01*
X217028173Y-102637569D02*
X216999602Y-102666141D01*
X216999602Y-102666141D02*
X216971030Y-102723284D01*
X216971030Y-102723284D02*
X216971030Y-102837569D01*
X216971030Y-102837569D02*
X216999602Y-102894712D01*
X216999602Y-102894712D02*
X217028173Y-102923284D01*
X217028173Y-102923284D02*
X217085316Y-102951855D01*
X217085316Y-102951855D02*
X217199602Y-102951855D01*
X217199602Y-102951855D02*
X217256745Y-102923284D01*
X217256745Y-102923284D02*
X217285316Y-102894712D01*
X217285316Y-102894712D02*
X217313887Y-102837569D01*
X217313887Y-102837569D02*
X217313887Y-102723284D01*
X217313887Y-102723284D02*
X217285316Y-102666141D01*
X217285316Y-102666141D02*
X217256745Y-102637569D01*
X217256745Y-102637569D02*
X217199602Y-102608998D01*
X276901428Y-136332371D02*
X276901428Y-135732371D01*
X276901428Y-135732371D02*
X277044285Y-135732371D01*
X277044285Y-135732371D02*
X277129999Y-135760942D01*
X277129999Y-135760942D02*
X277187142Y-135818085D01*
X277187142Y-135818085D02*
X277215713Y-135875228D01*
X277215713Y-135875228D02*
X277244285Y-135989514D01*
X277244285Y-135989514D02*
X277244285Y-136075228D01*
X277244285Y-136075228D02*
X277215713Y-136189514D01*
X277215713Y-136189514D02*
X277187142Y-136246657D01*
X277187142Y-136246657D02*
X277129999Y-136303800D01*
X277129999Y-136303800D02*
X277044285Y-136332371D01*
X277044285Y-136332371D02*
X276901428Y-136332371D01*
X277815713Y-136332371D02*
X277472856Y-136332371D01*
X277644285Y-136332371D02*
X277644285Y-135732371D01*
X277644285Y-135732371D02*
X277587142Y-135818085D01*
X277587142Y-135818085D02*
X277529999Y-135875228D01*
X277529999Y-135875228D02*
X277472856Y-135903800D01*
X278330000Y-135932371D02*
X278330000Y-136332371D01*
X278187142Y-135703800D02*
X278044285Y-136132371D01*
X278044285Y-136132371D02*
X278415714Y-136132371D01*
X221775864Y-101164642D02*
X221575864Y-100878928D01*
X221433007Y-101164642D02*
X221433007Y-100564642D01*
X221433007Y-100564642D02*
X221661578Y-100564642D01*
X221661578Y-100564642D02*
X221718721Y-100593213D01*
X221718721Y-100593213D02*
X221747292Y-100621785D01*
X221747292Y-100621785D02*
X221775864Y-100678928D01*
X221775864Y-100678928D02*
X221775864Y-100764642D01*
X221775864Y-100764642D02*
X221747292Y-100821785D01*
X221747292Y-100821785D02*
X221718721Y-100850356D01*
X221718721Y-100850356D02*
X221661578Y-100878928D01*
X221661578Y-100878928D02*
X221433007Y-100878928D01*
X222004435Y-100621785D02*
X222033007Y-100593213D01*
X222033007Y-100593213D02*
X222090150Y-100564642D01*
X222090150Y-100564642D02*
X222233007Y-100564642D01*
X222233007Y-100564642D02*
X222290150Y-100593213D01*
X222290150Y-100593213D02*
X222318721Y-100621785D01*
X222318721Y-100621785D02*
X222347292Y-100678928D01*
X222347292Y-100678928D02*
X222347292Y-100736071D01*
X222347292Y-100736071D02*
X222318721Y-100821785D01*
X222318721Y-100821785D02*
X221975864Y-101164642D01*
X221975864Y-101164642D02*
X222347292Y-101164642D01*
X222890150Y-100564642D02*
X222604436Y-100564642D01*
X222604436Y-100564642D02*
X222575864Y-100850356D01*
X222575864Y-100850356D02*
X222604436Y-100821785D01*
X222604436Y-100821785D02*
X222661579Y-100793213D01*
X222661579Y-100793213D02*
X222804436Y-100793213D01*
X222804436Y-100793213D02*
X222861579Y-100821785D01*
X222861579Y-100821785D02*
X222890150Y-100850356D01*
X222890150Y-100850356D02*
X222918721Y-100907499D01*
X222918721Y-100907499D02*
X222918721Y-101050356D01*
X222918721Y-101050356D02*
X222890150Y-101107499D01*
X222890150Y-101107499D02*
X222861579Y-101136071D01*
X222861579Y-101136071D02*
X222804436Y-101164642D01*
X222804436Y-101164642D02*
X222661579Y-101164642D01*
X222661579Y-101164642D02*
X222604436Y-101136071D01*
X222604436Y-101136071D02*
X222575864Y-101107499D01*
X227272929Y-101736167D02*
X227301501Y-101764739D01*
X227301501Y-101764739D02*
X227330072Y-101850453D01*
X227330072Y-101850453D02*
X227330072Y-101907596D01*
X227330072Y-101907596D02*
X227301501Y-101993310D01*
X227301501Y-101993310D02*
X227244358Y-102050453D01*
X227244358Y-102050453D02*
X227187215Y-102079024D01*
X227187215Y-102079024D02*
X227072929Y-102107596D01*
X227072929Y-102107596D02*
X226987215Y-102107596D01*
X226987215Y-102107596D02*
X226872929Y-102079024D01*
X226872929Y-102079024D02*
X226815786Y-102050453D01*
X226815786Y-102050453D02*
X226758643Y-101993310D01*
X226758643Y-101993310D02*
X226730072Y-101907596D01*
X226730072Y-101907596D02*
X226730072Y-101850453D01*
X226730072Y-101850453D02*
X226758643Y-101764739D01*
X226758643Y-101764739D02*
X226787215Y-101736167D01*
X226730072Y-101193310D02*
X226730072Y-101479024D01*
X226730072Y-101479024D02*
X227015786Y-101507596D01*
X227015786Y-101507596D02*
X226987215Y-101479024D01*
X226987215Y-101479024D02*
X226958643Y-101421882D01*
X226958643Y-101421882D02*
X226958643Y-101279024D01*
X226958643Y-101279024D02*
X226987215Y-101221882D01*
X226987215Y-101221882D02*
X227015786Y-101193310D01*
X227015786Y-101193310D02*
X227072929Y-101164739D01*
X227072929Y-101164739D02*
X227215786Y-101164739D01*
X227215786Y-101164739D02*
X227272929Y-101193310D01*
X227272929Y-101193310D02*
X227301501Y-101221882D01*
X227301501Y-101221882D02*
X227330072Y-101279024D01*
X227330072Y-101279024D02*
X227330072Y-101421882D01*
X227330072Y-101421882D02*
X227301501Y-101479024D01*
X227301501Y-101479024D02*
X227272929Y-101507596D01*
X189502371Y-96397714D02*
X189216657Y-96597714D01*
X189502371Y-96740571D02*
X188902371Y-96740571D01*
X188902371Y-96740571D02*
X188902371Y-96512000D01*
X188902371Y-96512000D02*
X188930942Y-96454857D01*
X188930942Y-96454857D02*
X188959514Y-96426286D01*
X188959514Y-96426286D02*
X189016657Y-96397714D01*
X189016657Y-96397714D02*
X189102371Y-96397714D01*
X189102371Y-96397714D02*
X189159514Y-96426286D01*
X189159514Y-96426286D02*
X189188085Y-96454857D01*
X189188085Y-96454857D02*
X189216657Y-96512000D01*
X189216657Y-96512000D02*
X189216657Y-96740571D01*
X188902371Y-96197714D02*
X188902371Y-95826286D01*
X188902371Y-95826286D02*
X189130942Y-96026286D01*
X189130942Y-96026286D02*
X189130942Y-95940571D01*
X189130942Y-95940571D02*
X189159514Y-95883429D01*
X189159514Y-95883429D02*
X189188085Y-95854857D01*
X189188085Y-95854857D02*
X189245228Y-95826286D01*
X189245228Y-95826286D02*
X189388085Y-95826286D01*
X189388085Y-95826286D02*
X189445228Y-95854857D01*
X189445228Y-95854857D02*
X189473800Y-95883429D01*
X189473800Y-95883429D02*
X189502371Y-95940571D01*
X189502371Y-95940571D02*
X189502371Y-96112000D01*
X189502371Y-96112000D02*
X189473800Y-96169143D01*
X189473800Y-96169143D02*
X189445228Y-96197714D01*
X188902371Y-95312000D02*
X188902371Y-95426285D01*
X188902371Y-95426285D02*
X188930942Y-95483428D01*
X188930942Y-95483428D02*
X188959514Y-95512000D01*
X188959514Y-95512000D02*
X189045228Y-95569142D01*
X189045228Y-95569142D02*
X189159514Y-95597714D01*
X189159514Y-95597714D02*
X189388085Y-95597714D01*
X189388085Y-95597714D02*
X189445228Y-95569142D01*
X189445228Y-95569142D02*
X189473800Y-95540571D01*
X189473800Y-95540571D02*
X189502371Y-95483428D01*
X189502371Y-95483428D02*
X189502371Y-95369142D01*
X189502371Y-95369142D02*
X189473800Y-95312000D01*
X189473800Y-95312000D02*
X189445228Y-95283428D01*
X189445228Y-95283428D02*
X189388085Y-95254857D01*
X189388085Y-95254857D02*
X189245228Y-95254857D01*
X189245228Y-95254857D02*
X189188085Y-95283428D01*
X189188085Y-95283428D02*
X189159514Y-95312000D01*
X189159514Y-95312000D02*
X189130942Y-95369142D01*
X189130942Y-95369142D02*
X189130942Y-95483428D01*
X189130942Y-95483428D02*
X189159514Y-95540571D01*
X189159514Y-95540571D02*
X189188085Y-95569142D01*
X189188085Y-95569142D02*
X189245228Y-95597714D01*
X227570628Y-125988714D02*
X227599200Y-126017286D01*
X227599200Y-126017286D02*
X227627771Y-126103000D01*
X227627771Y-126103000D02*
X227627771Y-126160143D01*
X227627771Y-126160143D02*
X227599200Y-126245857D01*
X227599200Y-126245857D02*
X227542057Y-126303000D01*
X227542057Y-126303000D02*
X227484914Y-126331571D01*
X227484914Y-126331571D02*
X227370628Y-126360143D01*
X227370628Y-126360143D02*
X227284914Y-126360143D01*
X227284914Y-126360143D02*
X227170628Y-126331571D01*
X227170628Y-126331571D02*
X227113485Y-126303000D01*
X227113485Y-126303000D02*
X227056342Y-126245857D01*
X227056342Y-126245857D02*
X227027771Y-126160143D01*
X227027771Y-126160143D02*
X227027771Y-126103000D01*
X227027771Y-126103000D02*
X227056342Y-126017286D01*
X227056342Y-126017286D02*
X227084914Y-125988714D01*
X227084914Y-125760143D02*
X227056342Y-125731571D01*
X227056342Y-125731571D02*
X227027771Y-125674429D01*
X227027771Y-125674429D02*
X227027771Y-125531571D01*
X227027771Y-125531571D02*
X227056342Y-125474429D01*
X227056342Y-125474429D02*
X227084914Y-125445857D01*
X227084914Y-125445857D02*
X227142057Y-125417286D01*
X227142057Y-125417286D02*
X227199200Y-125417286D01*
X227199200Y-125417286D02*
X227284914Y-125445857D01*
X227284914Y-125445857D02*
X227627771Y-125788714D01*
X227627771Y-125788714D02*
X227627771Y-125417286D01*
X227027771Y-125217285D02*
X227027771Y-124845857D01*
X227027771Y-124845857D02*
X227256342Y-125045857D01*
X227256342Y-125045857D02*
X227256342Y-124960142D01*
X227256342Y-124960142D02*
X227284914Y-124903000D01*
X227284914Y-124903000D02*
X227313485Y-124874428D01*
X227313485Y-124874428D02*
X227370628Y-124845857D01*
X227370628Y-124845857D02*
X227513485Y-124845857D01*
X227513485Y-124845857D02*
X227570628Y-124874428D01*
X227570628Y-124874428D02*
X227599200Y-124903000D01*
X227599200Y-124903000D02*
X227627771Y-124960142D01*
X227627771Y-124960142D02*
X227627771Y-125131571D01*
X227627771Y-125131571D02*
X227599200Y-125188714D01*
X227599200Y-125188714D02*
X227570628Y-125217285D01*
X207636371Y-133887067D02*
X207350657Y-134087067D01*
X207636371Y-134229924D02*
X207036371Y-134229924D01*
X207036371Y-134229924D02*
X207036371Y-134001353D01*
X207036371Y-134001353D02*
X207064942Y-133944210D01*
X207064942Y-133944210D02*
X207093514Y-133915639D01*
X207093514Y-133915639D02*
X207150657Y-133887067D01*
X207150657Y-133887067D02*
X207236371Y-133887067D01*
X207236371Y-133887067D02*
X207293514Y-133915639D01*
X207293514Y-133915639D02*
X207322085Y-133944210D01*
X207322085Y-133944210D02*
X207350657Y-134001353D01*
X207350657Y-134001353D02*
X207350657Y-134229924D01*
X207636371Y-133315639D02*
X207636371Y-133658496D01*
X207636371Y-133487067D02*
X207036371Y-133487067D01*
X207036371Y-133487067D02*
X207122085Y-133544210D01*
X207122085Y-133544210D02*
X207179228Y-133601353D01*
X207179228Y-133601353D02*
X207207800Y-133658496D01*
X207636371Y-132744210D02*
X207636371Y-133087067D01*
X207636371Y-132915638D02*
X207036371Y-132915638D01*
X207036371Y-132915638D02*
X207122085Y-132972781D01*
X207122085Y-132972781D02*
X207179228Y-133029924D01*
X207179228Y-133029924D02*
X207207800Y-133087067D01*
X190518371Y-96365999D02*
X190232657Y-96565999D01*
X190518371Y-96708856D02*
X189918371Y-96708856D01*
X189918371Y-96708856D02*
X189918371Y-96480285D01*
X189918371Y-96480285D02*
X189946942Y-96423142D01*
X189946942Y-96423142D02*
X189975514Y-96394571D01*
X189975514Y-96394571D02*
X190032657Y-96365999D01*
X190032657Y-96365999D02*
X190118371Y-96365999D01*
X190118371Y-96365999D02*
X190175514Y-96394571D01*
X190175514Y-96394571D02*
X190204085Y-96423142D01*
X190204085Y-96423142D02*
X190232657Y-96480285D01*
X190232657Y-96480285D02*
X190232657Y-96708856D01*
X190118371Y-95851714D02*
X190518371Y-95851714D01*
X189889800Y-95994571D02*
X190318371Y-96137428D01*
X190318371Y-96137428D02*
X190318371Y-95765999D01*
X168007109Y-103741422D02*
X168095626Y-103723309D01*
X168095626Y-103723309D02*
X168219344Y-103651880D01*
X168219344Y-103651880D02*
X168254545Y-103598565D01*
X168254545Y-103598565D02*
X168265003Y-103559536D01*
X168265003Y-103559536D02*
X168261175Y-103495763D01*
X168261175Y-103495763D02*
X168232604Y-103446276D01*
X168232604Y-103446276D02*
X168179289Y-103411074D01*
X168179289Y-103411074D02*
X168140259Y-103400616D01*
X168140259Y-103400616D02*
X168076487Y-103404444D01*
X168076487Y-103404444D02*
X167963227Y-103436843D01*
X167963227Y-103436843D02*
X167899454Y-103440671D01*
X167899454Y-103440671D02*
X167860424Y-103430213D01*
X167860424Y-103430213D02*
X167807109Y-103395012D01*
X167807109Y-103395012D02*
X167778538Y-103345525D01*
X167778538Y-103345525D02*
X167774710Y-103281752D01*
X167774710Y-103281752D02*
X167785168Y-103242723D01*
X167785168Y-103242723D02*
X167820369Y-103189408D01*
X167820369Y-103189408D02*
X167944087Y-103117979D01*
X167944087Y-103117979D02*
X168032604Y-103099865D01*
X168191523Y-102975122D02*
X168615241Y-103423308D01*
X168615241Y-103423308D02*
X168499930Y-102995012D01*
X168499930Y-102995012D02*
X168813190Y-103309023D01*
X168813190Y-103309023D02*
X168636908Y-102717979D01*
X169039710Y-103244224D02*
X169435607Y-103015653D01*
X169530754Y-102894737D02*
X169230754Y-102375122D01*
X169230754Y-102375122D02*
X169428703Y-102260836D01*
X169428703Y-102260836D02*
X169492475Y-102257008D01*
X169492475Y-102257008D02*
X169531505Y-102267466D01*
X169531505Y-102267466D02*
X169584820Y-102302668D01*
X169584820Y-102302668D02*
X169627677Y-102376898D01*
X169627677Y-102376898D02*
X169631505Y-102440671D01*
X169631505Y-102440671D02*
X169621047Y-102479700D01*
X169621047Y-102479700D02*
X169585845Y-102533015D01*
X169585845Y-102533015D02*
X169387897Y-102647301D01*
X170073061Y-102119755D02*
X170273061Y-102466166D01*
X169850369Y-102248327D02*
X170007512Y-102520506D01*
X170007512Y-102520506D02*
X170060827Y-102555708D01*
X170060827Y-102555708D02*
X170124600Y-102551880D01*
X170124600Y-102551880D02*
X170198831Y-102509023D01*
X170198831Y-102509023D02*
X170234032Y-102455708D01*
X170234032Y-102455708D02*
X170244490Y-102416678D01*
X170481468Y-102312851D02*
X170545241Y-102309023D01*
X170545241Y-102309023D02*
X170644215Y-102251880D01*
X170644215Y-102251880D02*
X170679416Y-102198565D01*
X170679416Y-102198565D02*
X170675589Y-102134792D01*
X170675589Y-102134792D02*
X170661303Y-102110048D01*
X170661303Y-102110048D02*
X170607988Y-102074847D01*
X170607988Y-102074847D02*
X170544215Y-102078675D01*
X170544215Y-102078675D02*
X170469984Y-102121532D01*
X170469984Y-102121532D02*
X170406211Y-102125360D01*
X170406211Y-102125360D02*
X170352896Y-102090158D01*
X170352896Y-102090158D02*
X170338611Y-102065415D01*
X170338611Y-102065415D02*
X170334783Y-102001642D01*
X170334783Y-102001642D02*
X170369984Y-101948327D01*
X170369984Y-101948327D02*
X170444215Y-101905470D01*
X170444215Y-101905470D02*
X170507988Y-101901642D01*
X170941138Y-102080452D02*
X170641138Y-101560836D01*
X171163830Y-101951880D02*
X171006687Y-101679701D01*
X171006687Y-101679701D02*
X170953372Y-101644499D01*
X170953372Y-101644499D02*
X170889599Y-101648327D01*
X170889599Y-101648327D02*
X170815368Y-101691184D01*
X170815368Y-101691184D02*
X170780167Y-101744499D01*
X170780167Y-101744499D02*
X170769709Y-101783529D01*
X162301285Y-133977971D02*
X162101285Y-133692257D01*
X161958428Y-133977971D02*
X161958428Y-133377971D01*
X161958428Y-133377971D02*
X162186999Y-133377971D01*
X162186999Y-133377971D02*
X162244142Y-133406542D01*
X162244142Y-133406542D02*
X162272713Y-133435114D01*
X162272713Y-133435114D02*
X162301285Y-133492257D01*
X162301285Y-133492257D02*
X162301285Y-133577971D01*
X162301285Y-133577971D02*
X162272713Y-133635114D01*
X162272713Y-133635114D02*
X162244142Y-133663685D01*
X162244142Y-133663685D02*
X162186999Y-133692257D01*
X162186999Y-133692257D02*
X161958428Y-133692257D01*
X162501285Y-133377971D02*
X162872713Y-133377971D01*
X162872713Y-133377971D02*
X162672713Y-133606542D01*
X162672713Y-133606542D02*
X162758428Y-133606542D01*
X162758428Y-133606542D02*
X162815571Y-133635114D01*
X162815571Y-133635114D02*
X162844142Y-133663685D01*
X162844142Y-133663685D02*
X162872713Y-133720828D01*
X162872713Y-133720828D02*
X162872713Y-133863685D01*
X162872713Y-133863685D02*
X162844142Y-133920828D01*
X162844142Y-133920828D02*
X162815571Y-133949400D01*
X162815571Y-133949400D02*
X162758428Y-133977971D01*
X162758428Y-133977971D02*
X162586999Y-133977971D01*
X162586999Y-133977971D02*
X162529856Y-133949400D01*
X162529856Y-133949400D02*
X162501285Y-133920828D01*
X163072714Y-133377971D02*
X163444142Y-133377971D01*
X163444142Y-133377971D02*
X163244142Y-133606542D01*
X163244142Y-133606542D02*
X163329857Y-133606542D01*
X163329857Y-133606542D02*
X163387000Y-133635114D01*
X163387000Y-133635114D02*
X163415571Y-133663685D01*
X163415571Y-133663685D02*
X163444142Y-133720828D01*
X163444142Y-133720828D02*
X163444142Y-133863685D01*
X163444142Y-133863685D02*
X163415571Y-133920828D01*
X163415571Y-133920828D02*
X163387000Y-133949400D01*
X163387000Y-133949400D02*
X163329857Y-133977971D01*
X163329857Y-133977971D02*
X163158428Y-133977971D01*
X163158428Y-133977971D02*
X163101285Y-133949400D01*
X163101285Y-133949400D02*
X163072714Y-133920828D01*
X164483371Y-133691256D02*
X163883371Y-133691256D01*
X163883371Y-133691256D02*
X163883371Y-133548399D01*
X163883371Y-133548399D02*
X163911942Y-133462685D01*
X163911942Y-133462685D02*
X163969085Y-133405542D01*
X163969085Y-133405542D02*
X164026228Y-133376971D01*
X164026228Y-133376971D02*
X164140514Y-133348399D01*
X164140514Y-133348399D02*
X164226228Y-133348399D01*
X164226228Y-133348399D02*
X164340514Y-133376971D01*
X164340514Y-133376971D02*
X164397657Y-133405542D01*
X164397657Y-133405542D02*
X164454800Y-133462685D01*
X164454800Y-133462685D02*
X164483371Y-133548399D01*
X164483371Y-133548399D02*
X164483371Y-133691256D01*
X163883371Y-132834114D02*
X163883371Y-132948399D01*
X163883371Y-132948399D02*
X163911942Y-133005542D01*
X163911942Y-133005542D02*
X163940514Y-133034114D01*
X163940514Y-133034114D02*
X164026228Y-133091256D01*
X164026228Y-133091256D02*
X164140514Y-133119828D01*
X164140514Y-133119828D02*
X164369085Y-133119828D01*
X164369085Y-133119828D02*
X164426228Y-133091256D01*
X164426228Y-133091256D02*
X164454800Y-133062685D01*
X164454800Y-133062685D02*
X164483371Y-133005542D01*
X164483371Y-133005542D02*
X164483371Y-132891256D01*
X164483371Y-132891256D02*
X164454800Y-132834114D01*
X164454800Y-132834114D02*
X164426228Y-132805542D01*
X164426228Y-132805542D02*
X164369085Y-132776971D01*
X164369085Y-132776971D02*
X164226228Y-132776971D01*
X164226228Y-132776971D02*
X164169085Y-132805542D01*
X164169085Y-132805542D02*
X164140514Y-132834114D01*
X164140514Y-132834114D02*
X164111942Y-132891256D01*
X164111942Y-132891256D02*
X164111942Y-133005542D01*
X164111942Y-133005542D02*
X164140514Y-133062685D01*
X164140514Y-133062685D02*
X164169085Y-133091256D01*
X164169085Y-133091256D02*
X164226228Y-133119828D01*
X269167489Y-103522348D02*
X269107544Y-103454747D01*
X269107544Y-103454747D02*
X268983826Y-103383319D01*
X268983826Y-103383319D02*
X268920053Y-103379491D01*
X268920053Y-103379491D02*
X268881024Y-103389949D01*
X268881024Y-103389949D02*
X268827709Y-103425150D01*
X268827709Y-103425150D02*
X268799137Y-103474637D01*
X268799137Y-103474637D02*
X268795309Y-103538410D01*
X268795309Y-103538410D02*
X268805767Y-103577440D01*
X268805767Y-103577440D02*
X268840969Y-103630755D01*
X268840969Y-103630755D02*
X268925657Y-103712641D01*
X268925657Y-103712641D02*
X268960859Y-103765956D01*
X268960859Y-103765956D02*
X268971317Y-103804985D01*
X268971317Y-103804985D02*
X268967489Y-103868758D01*
X268967489Y-103868758D02*
X268938917Y-103918245D01*
X268938917Y-103918245D02*
X268885602Y-103953447D01*
X268885602Y-103953447D02*
X268846573Y-103963905D01*
X268846573Y-103963905D02*
X268782800Y-103960077D01*
X268782800Y-103960077D02*
X268659082Y-103888648D01*
X268659082Y-103888648D02*
X268599137Y-103821048D01*
X268411646Y-103745791D02*
X268587928Y-103154747D01*
X268587928Y-103154747D02*
X268274668Y-103468758D01*
X268274668Y-103468758D02*
X268389979Y-103040461D01*
X268389979Y-103040461D02*
X267966261Y-103488648D01*
X268220602Y-102876689D02*
X267824705Y-102648117D01*
X267672416Y-102626176D02*
X267372416Y-103145791D01*
X267372416Y-103145791D02*
X267174467Y-103031505D01*
X267174467Y-103031505D02*
X267139265Y-102978190D01*
X267139265Y-102978190D02*
X267128808Y-102939161D01*
X267128808Y-102939161D02*
X267132635Y-102875388D01*
X267132635Y-102875388D02*
X267175493Y-102801157D01*
X267175493Y-102801157D02*
X267228808Y-102765956D01*
X267228808Y-102765956D02*
X267267837Y-102755498D01*
X267267837Y-102755498D02*
X267331610Y-102759326D01*
X267331610Y-102759326D02*
X267529558Y-102873612D01*
X266730108Y-102544015D02*
X266930108Y-102197604D01*
X266952800Y-102672586D02*
X267109943Y-102400407D01*
X267109943Y-102400407D02*
X267113771Y-102336634D01*
X267113771Y-102336634D02*
X267078570Y-102283319D01*
X267078570Y-102283319D02*
X267004339Y-102240462D01*
X267004339Y-102240462D02*
X266940566Y-102236634D01*
X266940566Y-102236634D02*
X266901537Y-102247092D01*
X266693130Y-102093777D02*
X266657929Y-102040462D01*
X266657929Y-102040462D02*
X266558954Y-101983319D01*
X266558954Y-101983319D02*
X266495182Y-101979491D01*
X266495182Y-101979491D02*
X266441867Y-102014692D01*
X266441867Y-102014692D02*
X266427581Y-102039436D01*
X266427581Y-102039436D02*
X266423753Y-102103209D01*
X266423753Y-102103209D02*
X266458954Y-102156524D01*
X266458954Y-102156524D02*
X266533185Y-102199381D01*
X266533185Y-102199381D02*
X266568387Y-102252696D01*
X266568387Y-102252696D02*
X266564559Y-102316469D01*
X266564559Y-102316469D02*
X266550273Y-102341212D01*
X266550273Y-102341212D02*
X266496958Y-102376414D01*
X266496958Y-102376414D02*
X266433185Y-102372586D01*
X266433185Y-102372586D02*
X266358954Y-102329729D01*
X266358954Y-102329729D02*
X266323753Y-102276414D01*
X266262032Y-101811890D02*
X265962032Y-102331506D01*
X266039339Y-101683319D02*
X265882197Y-101955498D01*
X265882197Y-101955498D02*
X265878369Y-102019271D01*
X265878369Y-102019271D02*
X265913570Y-102072586D01*
X265913570Y-102072586D02*
X265987801Y-102115443D01*
X265987801Y-102115443D02*
X266051574Y-102119271D01*
X266051574Y-102119271D02*
X266090603Y-102108813D01*
X274670150Y-140724436D02*
X274670150Y-140124436D01*
X274670150Y-140124436D02*
X274813007Y-140124436D01*
X274813007Y-140124436D02*
X274898721Y-140153007D01*
X274898721Y-140153007D02*
X274955864Y-140210150D01*
X274955864Y-140210150D02*
X274984435Y-140267293D01*
X274984435Y-140267293D02*
X275013007Y-140381579D01*
X275013007Y-140381579D02*
X275013007Y-140467293D01*
X275013007Y-140467293D02*
X274984435Y-140581579D01*
X274984435Y-140581579D02*
X274955864Y-140638722D01*
X274955864Y-140638722D02*
X274898721Y-140695865D01*
X274898721Y-140695865D02*
X274813007Y-140724436D01*
X274813007Y-140724436D02*
X274670150Y-140724436D01*
X275584435Y-140724436D02*
X275241578Y-140724436D01*
X275413007Y-140724436D02*
X275413007Y-140124436D01*
X275413007Y-140124436D02*
X275355864Y-140210150D01*
X275355864Y-140210150D02*
X275298721Y-140267293D01*
X275298721Y-140267293D02*
X275241578Y-140295865D01*
X276098722Y-140124436D02*
X275984436Y-140124436D01*
X275984436Y-140124436D02*
X275927293Y-140153007D01*
X275927293Y-140153007D02*
X275898722Y-140181579D01*
X275898722Y-140181579D02*
X275841579Y-140267293D01*
X275841579Y-140267293D02*
X275813007Y-140381579D01*
X275813007Y-140381579D02*
X275813007Y-140610150D01*
X275813007Y-140610150D02*
X275841579Y-140667293D01*
X275841579Y-140667293D02*
X275870150Y-140695865D01*
X275870150Y-140695865D02*
X275927293Y-140724436D01*
X275927293Y-140724436D02*
X276041579Y-140724436D01*
X276041579Y-140724436D02*
X276098722Y-140695865D01*
X276098722Y-140695865D02*
X276127293Y-140667293D01*
X276127293Y-140667293D02*
X276155864Y-140610150D01*
X276155864Y-140610150D02*
X276155864Y-140467293D01*
X276155864Y-140467293D02*
X276127293Y-140410150D01*
X276127293Y-140410150D02*
X276098722Y-140381579D01*
X276098722Y-140381579D02*
X276041579Y-140353007D01*
X276041579Y-140353007D02*
X275927293Y-140353007D01*
X275927293Y-140353007D02*
X275870150Y-140381579D01*
X275870150Y-140381579D02*
X275841579Y-140410150D01*
X275841579Y-140410150D02*
X275813007Y-140467293D01*
X217363000Y-120795914D02*
X217391571Y-120710200D01*
X217391571Y-120710200D02*
X217391571Y-120567342D01*
X217391571Y-120567342D02*
X217363000Y-120510200D01*
X217363000Y-120510200D02*
X217334428Y-120481628D01*
X217334428Y-120481628D02*
X217277285Y-120453057D01*
X217277285Y-120453057D02*
X217220142Y-120453057D01*
X217220142Y-120453057D02*
X217163000Y-120481628D01*
X217163000Y-120481628D02*
X217134428Y-120510200D01*
X217134428Y-120510200D02*
X217105857Y-120567342D01*
X217105857Y-120567342D02*
X217077285Y-120681628D01*
X217077285Y-120681628D02*
X217048714Y-120738771D01*
X217048714Y-120738771D02*
X217020142Y-120767342D01*
X217020142Y-120767342D02*
X216963000Y-120795914D01*
X216963000Y-120795914D02*
X216905857Y-120795914D01*
X216905857Y-120795914D02*
X216848714Y-120767342D01*
X216848714Y-120767342D02*
X216820142Y-120738771D01*
X216820142Y-120738771D02*
X216791571Y-120681628D01*
X216791571Y-120681628D02*
X216791571Y-120538771D01*
X216791571Y-120538771D02*
X216820142Y-120453057D01*
X216791571Y-120253056D02*
X217391571Y-120110199D01*
X217391571Y-120110199D02*
X216963000Y-119995913D01*
X216963000Y-119995913D02*
X217391571Y-119881628D01*
X217391571Y-119881628D02*
X216791571Y-119738771D01*
X217391571Y-119195914D02*
X217391571Y-119538771D01*
X217391571Y-119367342D02*
X216791571Y-119367342D01*
X216791571Y-119367342D02*
X216877285Y-119424485D01*
X216877285Y-119424485D02*
X216934428Y-119481628D01*
X216934428Y-119481628D02*
X216963000Y-119538771D01*
X216791571Y-118995913D02*
X216791571Y-118595913D01*
X216791571Y-118595913D02*
X217391571Y-118853056D01*
X216679005Y-103838565D02*
X216650433Y-103867137D01*
X216650433Y-103867137D02*
X216564719Y-103895708D01*
X216564719Y-103895708D02*
X216507576Y-103895708D01*
X216507576Y-103895708D02*
X216421862Y-103867137D01*
X216421862Y-103867137D02*
X216364719Y-103809994D01*
X216364719Y-103809994D02*
X216336148Y-103752851D01*
X216336148Y-103752851D02*
X216307576Y-103638565D01*
X216307576Y-103638565D02*
X216307576Y-103552851D01*
X216307576Y-103552851D02*
X216336148Y-103438565D01*
X216336148Y-103438565D02*
X216364719Y-103381422D01*
X216364719Y-103381422D02*
X216421862Y-103324279D01*
X216421862Y-103324279D02*
X216507576Y-103295708D01*
X216507576Y-103295708D02*
X216564719Y-103295708D01*
X216564719Y-103295708D02*
X216650433Y-103324279D01*
X216650433Y-103324279D02*
X216679005Y-103352851D01*
X217193291Y-103295708D02*
X217079005Y-103295708D01*
X217079005Y-103295708D02*
X217021862Y-103324279D01*
X217021862Y-103324279D02*
X216993291Y-103352851D01*
X216993291Y-103352851D02*
X216936148Y-103438565D01*
X216936148Y-103438565D02*
X216907576Y-103552851D01*
X216907576Y-103552851D02*
X216907576Y-103781422D01*
X216907576Y-103781422D02*
X216936148Y-103838565D01*
X216936148Y-103838565D02*
X216964719Y-103867137D01*
X216964719Y-103867137D02*
X217021862Y-103895708D01*
X217021862Y-103895708D02*
X217136148Y-103895708D01*
X217136148Y-103895708D02*
X217193291Y-103867137D01*
X217193291Y-103867137D02*
X217221862Y-103838565D01*
X217221862Y-103838565D02*
X217250433Y-103781422D01*
X217250433Y-103781422D02*
X217250433Y-103638565D01*
X217250433Y-103638565D02*
X217221862Y-103581422D01*
X217221862Y-103581422D02*
X217193291Y-103552851D01*
X217193291Y-103552851D02*
X217136148Y-103524279D01*
X217136148Y-103524279D02*
X217021862Y-103524279D01*
X217021862Y-103524279D02*
X216964719Y-103552851D01*
X216964719Y-103552851D02*
X216936148Y-103581422D01*
X216936148Y-103581422D02*
X216907576Y-103638565D01*
X272338114Y-139071342D02*
X272309542Y-139128485D01*
X272309542Y-139128485D02*
X272252400Y-139185628D01*
X272252400Y-139185628D02*
X272166685Y-139271342D01*
X272166685Y-139271342D02*
X272138114Y-139328485D01*
X272138114Y-139328485D02*
X272138114Y-139385628D01*
X272280971Y-139357057D02*
X272252400Y-139414200D01*
X272252400Y-139414200D02*
X272195257Y-139471342D01*
X272195257Y-139471342D02*
X272080971Y-139499914D01*
X272080971Y-139499914D02*
X271880971Y-139499914D01*
X271880971Y-139499914D02*
X271766685Y-139471342D01*
X271766685Y-139471342D02*
X271709542Y-139414200D01*
X271709542Y-139414200D02*
X271680971Y-139357057D01*
X271680971Y-139357057D02*
X271680971Y-139242771D01*
X271680971Y-139242771D02*
X271709542Y-139185628D01*
X271709542Y-139185628D02*
X271766685Y-139128485D01*
X271766685Y-139128485D02*
X271880971Y-139099914D01*
X271880971Y-139099914D02*
X272080971Y-139099914D01*
X272080971Y-139099914D02*
X272195257Y-139128485D01*
X272195257Y-139128485D02*
X272252400Y-139185628D01*
X272252400Y-139185628D02*
X272280971Y-139242771D01*
X272280971Y-139242771D02*
X272280971Y-139357057D01*
X271680971Y-138585629D02*
X271680971Y-138699914D01*
X271680971Y-138699914D02*
X271709542Y-138757057D01*
X271709542Y-138757057D02*
X271738114Y-138785629D01*
X271738114Y-138785629D02*
X271823828Y-138842771D01*
X271823828Y-138842771D02*
X271938114Y-138871343D01*
X271938114Y-138871343D02*
X272166685Y-138871343D01*
X272166685Y-138871343D02*
X272223828Y-138842771D01*
X272223828Y-138842771D02*
X272252400Y-138814200D01*
X272252400Y-138814200D02*
X272280971Y-138757057D01*
X272280971Y-138757057D02*
X272280971Y-138642771D01*
X272280971Y-138642771D02*
X272252400Y-138585629D01*
X272252400Y-138585629D02*
X272223828Y-138557057D01*
X272223828Y-138557057D02*
X272166685Y-138528486D01*
X272166685Y-138528486D02*
X272023828Y-138528486D01*
X272023828Y-138528486D02*
X271966685Y-138557057D01*
X271966685Y-138557057D02*
X271938114Y-138585629D01*
X271938114Y-138585629D02*
X271909542Y-138642771D01*
X271909542Y-138642771D02*
X271909542Y-138757057D01*
X271909542Y-138757057D02*
X271938114Y-138814200D01*
X271938114Y-138814200D02*
X271966685Y-138842771D01*
X271966685Y-138842771D02*
X272023828Y-138871343D01*
X222493704Y-96742883D02*
X222293704Y-96457169D01*
X222150847Y-96742883D02*
X222150847Y-96142883D01*
X222150847Y-96142883D02*
X222379418Y-96142883D01*
X222379418Y-96142883D02*
X222436561Y-96171454D01*
X222436561Y-96171454D02*
X222465132Y-96200026D01*
X222465132Y-96200026D02*
X222493704Y-96257169D01*
X222493704Y-96257169D02*
X222493704Y-96342883D01*
X222493704Y-96342883D02*
X222465132Y-96400026D01*
X222465132Y-96400026D02*
X222436561Y-96428597D01*
X222436561Y-96428597D02*
X222379418Y-96457169D01*
X222379418Y-96457169D02*
X222150847Y-96457169D01*
X222722275Y-96200026D02*
X222750847Y-96171454D01*
X222750847Y-96171454D02*
X222807990Y-96142883D01*
X222807990Y-96142883D02*
X222950847Y-96142883D01*
X222950847Y-96142883D02*
X223007990Y-96171454D01*
X223007990Y-96171454D02*
X223036561Y-96200026D01*
X223036561Y-96200026D02*
X223065132Y-96257169D01*
X223065132Y-96257169D02*
X223065132Y-96314312D01*
X223065132Y-96314312D02*
X223036561Y-96400026D01*
X223036561Y-96400026D02*
X222693704Y-96742883D01*
X222693704Y-96742883D02*
X223065132Y-96742883D01*
X223407990Y-96400026D02*
X223350847Y-96371454D01*
X223350847Y-96371454D02*
X223322276Y-96342883D01*
X223322276Y-96342883D02*
X223293704Y-96285740D01*
X223293704Y-96285740D02*
X223293704Y-96257169D01*
X223293704Y-96257169D02*
X223322276Y-96200026D01*
X223322276Y-96200026D02*
X223350847Y-96171454D01*
X223350847Y-96171454D02*
X223407990Y-96142883D01*
X223407990Y-96142883D02*
X223522276Y-96142883D01*
X223522276Y-96142883D02*
X223579419Y-96171454D01*
X223579419Y-96171454D02*
X223607990Y-96200026D01*
X223607990Y-96200026D02*
X223636561Y-96257169D01*
X223636561Y-96257169D02*
X223636561Y-96285740D01*
X223636561Y-96285740D02*
X223607990Y-96342883D01*
X223607990Y-96342883D02*
X223579419Y-96371454D01*
X223579419Y-96371454D02*
X223522276Y-96400026D01*
X223522276Y-96400026D02*
X223407990Y-96400026D01*
X223407990Y-96400026D02*
X223350847Y-96428597D01*
X223350847Y-96428597D02*
X223322276Y-96457169D01*
X223322276Y-96457169D02*
X223293704Y-96514312D01*
X223293704Y-96514312D02*
X223293704Y-96628597D01*
X223293704Y-96628597D02*
X223322276Y-96685740D01*
X223322276Y-96685740D02*
X223350847Y-96714312D01*
X223350847Y-96714312D02*
X223407990Y-96742883D01*
X223407990Y-96742883D02*
X223522276Y-96742883D01*
X223522276Y-96742883D02*
X223579419Y-96714312D01*
X223579419Y-96714312D02*
X223607990Y-96685740D01*
X223607990Y-96685740D02*
X223636561Y-96628597D01*
X223636561Y-96628597D02*
X223636561Y-96514312D01*
X223636561Y-96514312D02*
X223607990Y-96457169D01*
X223607990Y-96457169D02*
X223579419Y-96428597D01*
X223579419Y-96428597D02*
X223522276Y-96400026D01*
X214140371Y-112653714D02*
X213854657Y-112853714D01*
X214140371Y-112996571D02*
X213540371Y-112996571D01*
X213540371Y-112996571D02*
X213540371Y-112768000D01*
X213540371Y-112768000D02*
X213568942Y-112710857D01*
X213568942Y-112710857D02*
X213597514Y-112682286D01*
X213597514Y-112682286D02*
X213654657Y-112653714D01*
X213654657Y-112653714D02*
X213740371Y-112653714D01*
X213740371Y-112653714D02*
X213797514Y-112682286D01*
X213797514Y-112682286D02*
X213826085Y-112710857D01*
X213826085Y-112710857D02*
X213854657Y-112768000D01*
X213854657Y-112768000D02*
X213854657Y-112996571D01*
X214140371Y-112082286D02*
X214140371Y-112425143D01*
X214140371Y-112253714D02*
X213540371Y-112253714D01*
X213540371Y-112253714D02*
X213626085Y-112310857D01*
X213626085Y-112310857D02*
X213683228Y-112368000D01*
X213683228Y-112368000D02*
X213711800Y-112425143D01*
X213540371Y-111710857D02*
X213540371Y-111653714D01*
X213540371Y-111653714D02*
X213568942Y-111596571D01*
X213568942Y-111596571D02*
X213597514Y-111568000D01*
X213597514Y-111568000D02*
X213654657Y-111539428D01*
X213654657Y-111539428D02*
X213768942Y-111510857D01*
X213768942Y-111510857D02*
X213911800Y-111510857D01*
X213911800Y-111510857D02*
X214026085Y-111539428D01*
X214026085Y-111539428D02*
X214083228Y-111568000D01*
X214083228Y-111568000D02*
X214111800Y-111596571D01*
X214111800Y-111596571D02*
X214140371Y-111653714D01*
X214140371Y-111653714D02*
X214140371Y-111710857D01*
X214140371Y-111710857D02*
X214111800Y-111768000D01*
X214111800Y-111768000D02*
X214083228Y-111796571D01*
X214083228Y-111796571D02*
X214026085Y-111825142D01*
X214026085Y-111825142D02*
X213911800Y-111853714D01*
X213911800Y-111853714D02*
X213768942Y-111853714D01*
X213768942Y-111853714D02*
X213654657Y-111825142D01*
X213654657Y-111825142D02*
X213597514Y-111796571D01*
X213597514Y-111796571D02*
X213568942Y-111768000D01*
X213568942Y-111768000D02*
X213540371Y-111710857D01*
X260550085Y-107625371D02*
X260950085Y-108225371D01*
X260950085Y-107625371D02*
X260550085Y-108225371D01*
X261121514Y-107625371D02*
X261492942Y-107625371D01*
X261492942Y-107625371D02*
X261292942Y-107853942D01*
X261292942Y-107853942D02*
X261378657Y-107853942D01*
X261378657Y-107853942D02*
X261435800Y-107882514D01*
X261435800Y-107882514D02*
X261464371Y-107911085D01*
X261464371Y-107911085D02*
X261492942Y-107968228D01*
X261492942Y-107968228D02*
X261492942Y-108111085D01*
X261492942Y-108111085D02*
X261464371Y-108168228D01*
X261464371Y-108168228D02*
X261435800Y-108196800D01*
X261435800Y-108196800D02*
X261378657Y-108225371D01*
X261378657Y-108225371D02*
X261207228Y-108225371D01*
X261207228Y-108225371D02*
X261150085Y-108196800D01*
X261150085Y-108196800D02*
X261121514Y-108168228D01*
X211259828Y-139845371D02*
X211259828Y-139245371D01*
X211259828Y-139245371D02*
X211402685Y-139245371D01*
X211402685Y-139245371D02*
X211488399Y-139273942D01*
X211488399Y-139273942D02*
X211545542Y-139331085D01*
X211545542Y-139331085D02*
X211574113Y-139388228D01*
X211574113Y-139388228D02*
X211602685Y-139502514D01*
X211602685Y-139502514D02*
X211602685Y-139588228D01*
X211602685Y-139588228D02*
X211574113Y-139702514D01*
X211574113Y-139702514D02*
X211545542Y-139759657D01*
X211545542Y-139759657D02*
X211488399Y-139816800D01*
X211488399Y-139816800D02*
X211402685Y-139845371D01*
X211402685Y-139845371D02*
X211259828Y-139845371D01*
X212174113Y-139845371D02*
X211831256Y-139845371D01*
X212002685Y-139845371D02*
X212002685Y-139245371D01*
X212002685Y-139245371D02*
X211945542Y-139331085D01*
X211945542Y-139331085D02*
X211888399Y-139388228D01*
X211888399Y-139388228D02*
X211831256Y-139416800D01*
X212374114Y-139245371D02*
X212745542Y-139245371D01*
X212745542Y-139245371D02*
X212545542Y-139473942D01*
X212545542Y-139473942D02*
X212631257Y-139473942D01*
X212631257Y-139473942D02*
X212688400Y-139502514D01*
X212688400Y-139502514D02*
X212716971Y-139531085D01*
X212716971Y-139531085D02*
X212745542Y-139588228D01*
X212745542Y-139588228D02*
X212745542Y-139731085D01*
X212745542Y-139731085D02*
X212716971Y-139788228D01*
X212716971Y-139788228D02*
X212688400Y-139816800D01*
X212688400Y-139816800D02*
X212631257Y-139845371D01*
X212631257Y-139845371D02*
X212459828Y-139845371D01*
X212459828Y-139845371D02*
X212402685Y-139816800D01*
X212402685Y-139816800D02*
X212374114Y-139788228D01*
X224995957Y-103098795D02*
X225481671Y-103098795D01*
X225481671Y-103098795D02*
X225538814Y-103070224D01*
X225538814Y-103070224D02*
X225567386Y-103041653D01*
X225567386Y-103041653D02*
X225595957Y-102984510D01*
X225595957Y-102984510D02*
X225595957Y-102870224D01*
X225595957Y-102870224D02*
X225567386Y-102813081D01*
X225567386Y-102813081D02*
X225538814Y-102784510D01*
X225538814Y-102784510D02*
X225481671Y-102755938D01*
X225481671Y-102755938D02*
X224995957Y-102755938D01*
X225253100Y-102384510D02*
X225224528Y-102441653D01*
X225224528Y-102441653D02*
X225195957Y-102470224D01*
X225195957Y-102470224D02*
X225138814Y-102498796D01*
X225138814Y-102498796D02*
X225110243Y-102498796D01*
X225110243Y-102498796D02*
X225053100Y-102470224D01*
X225053100Y-102470224D02*
X225024528Y-102441653D01*
X225024528Y-102441653D02*
X224995957Y-102384510D01*
X224995957Y-102384510D02*
X224995957Y-102270224D01*
X224995957Y-102270224D02*
X225024528Y-102213082D01*
X225024528Y-102213082D02*
X225053100Y-102184510D01*
X225053100Y-102184510D02*
X225110243Y-102155939D01*
X225110243Y-102155939D02*
X225138814Y-102155939D01*
X225138814Y-102155939D02*
X225195957Y-102184510D01*
X225195957Y-102184510D02*
X225224528Y-102213082D01*
X225224528Y-102213082D02*
X225253100Y-102270224D01*
X225253100Y-102270224D02*
X225253100Y-102384510D01*
X225253100Y-102384510D02*
X225281671Y-102441653D01*
X225281671Y-102441653D02*
X225310243Y-102470224D01*
X225310243Y-102470224D02*
X225367386Y-102498796D01*
X225367386Y-102498796D02*
X225481671Y-102498796D01*
X225481671Y-102498796D02*
X225538814Y-102470224D01*
X225538814Y-102470224D02*
X225567386Y-102441653D01*
X225567386Y-102441653D02*
X225595957Y-102384510D01*
X225595957Y-102384510D02*
X225595957Y-102270224D01*
X225595957Y-102270224D02*
X225567386Y-102213082D01*
X225567386Y-102213082D02*
X225538814Y-102184510D01*
X225538814Y-102184510D02*
X225481671Y-102155939D01*
X225481671Y-102155939D02*
X225367386Y-102155939D01*
X225367386Y-102155939D02*
X225310243Y-102184510D01*
X225310243Y-102184510D02*
X225281671Y-102213082D01*
X225281671Y-102213082D02*
X225253100Y-102270224D01*
X253361885Y-109273371D02*
X253761885Y-109873371D01*
X253761885Y-109273371D02*
X253361885Y-109873371D01*
X253961885Y-109330514D02*
X253990457Y-109301942D01*
X253990457Y-109301942D02*
X254047600Y-109273371D01*
X254047600Y-109273371D02*
X254190457Y-109273371D01*
X254190457Y-109273371D02*
X254247600Y-109301942D01*
X254247600Y-109301942D02*
X254276171Y-109330514D01*
X254276171Y-109330514D02*
X254304742Y-109387657D01*
X254304742Y-109387657D02*
X254304742Y-109444800D01*
X254304742Y-109444800D02*
X254276171Y-109530514D01*
X254276171Y-109530514D02*
X253933314Y-109873371D01*
X253933314Y-109873371D02*
X254304742Y-109873371D01*
X216615394Y-105966695D02*
X216415394Y-105680981D01*
X216272537Y-105966695D02*
X216272537Y-105366695D01*
X216272537Y-105366695D02*
X216501108Y-105366695D01*
X216501108Y-105366695D02*
X216558251Y-105395266D01*
X216558251Y-105395266D02*
X216586822Y-105423838D01*
X216586822Y-105423838D02*
X216615394Y-105480981D01*
X216615394Y-105480981D02*
X216615394Y-105566695D01*
X216615394Y-105566695D02*
X216586822Y-105623838D01*
X216586822Y-105623838D02*
X216558251Y-105652409D01*
X216558251Y-105652409D02*
X216501108Y-105680981D01*
X216501108Y-105680981D02*
X216272537Y-105680981D01*
X216815394Y-105366695D02*
X217215394Y-105366695D01*
X217215394Y-105366695D02*
X216958251Y-105966695D01*
X237817085Y-120020571D02*
X238217085Y-120620571D01*
X238217085Y-120020571D02*
X237817085Y-120620571D01*
X238731371Y-120020571D02*
X238445657Y-120020571D01*
X238445657Y-120020571D02*
X238417085Y-120306285D01*
X238417085Y-120306285D02*
X238445657Y-120277714D01*
X238445657Y-120277714D02*
X238502800Y-120249142D01*
X238502800Y-120249142D02*
X238645657Y-120249142D01*
X238645657Y-120249142D02*
X238702800Y-120277714D01*
X238702800Y-120277714D02*
X238731371Y-120306285D01*
X238731371Y-120306285D02*
X238759942Y-120363428D01*
X238759942Y-120363428D02*
X238759942Y-120506285D01*
X238759942Y-120506285D02*
X238731371Y-120563428D01*
X238731371Y-120563428D02*
X238702800Y-120592000D01*
X238702800Y-120592000D02*
X238645657Y-120620571D01*
X238645657Y-120620571D02*
X238502800Y-120620571D01*
X238502800Y-120620571D02*
X238445657Y-120592000D01*
X238445657Y-120592000D02*
X238417085Y-120563428D01*
X269131371Y-134878714D02*
X268845657Y-135078714D01*
X269131371Y-135221571D02*
X268531371Y-135221571D01*
X268531371Y-135221571D02*
X268531371Y-134993000D01*
X268531371Y-134993000D02*
X268559942Y-134935857D01*
X268559942Y-134935857D02*
X268588514Y-134907286D01*
X268588514Y-134907286D02*
X268645657Y-134878714D01*
X268645657Y-134878714D02*
X268731371Y-134878714D01*
X268731371Y-134878714D02*
X268788514Y-134907286D01*
X268788514Y-134907286D02*
X268817085Y-134935857D01*
X268817085Y-134935857D02*
X268845657Y-134993000D01*
X268845657Y-134993000D02*
X268845657Y-135221571D01*
X268731371Y-134364429D02*
X269131371Y-134364429D01*
X268502800Y-134507286D02*
X268931371Y-134650143D01*
X268931371Y-134650143D02*
X268931371Y-134278714D01*
X268531371Y-133935857D02*
X268531371Y-133878714D01*
X268531371Y-133878714D02*
X268559942Y-133821571D01*
X268559942Y-133821571D02*
X268588514Y-133793000D01*
X268588514Y-133793000D02*
X268645657Y-133764428D01*
X268645657Y-133764428D02*
X268759942Y-133735857D01*
X268759942Y-133735857D02*
X268902800Y-133735857D01*
X268902800Y-133735857D02*
X269017085Y-133764428D01*
X269017085Y-133764428D02*
X269074228Y-133793000D01*
X269074228Y-133793000D02*
X269102800Y-133821571D01*
X269102800Y-133821571D02*
X269131371Y-133878714D01*
X269131371Y-133878714D02*
X269131371Y-133935857D01*
X269131371Y-133935857D02*
X269102800Y-133993000D01*
X269102800Y-133993000D02*
X269074228Y-134021571D01*
X269074228Y-134021571D02*
X269017085Y-134050142D01*
X269017085Y-134050142D02*
X268902800Y-134078714D01*
X268902800Y-134078714D02*
X268759942Y-134078714D01*
X268759942Y-134078714D02*
X268645657Y-134050142D01*
X268645657Y-134050142D02*
X268588514Y-134021571D01*
X268588514Y-134021571D02*
X268559942Y-133993000D01*
X268559942Y-133993000D02*
X268531371Y-133935857D01*
X280062971Y-143456000D02*
X280491542Y-143456000D01*
X280491542Y-143456000D02*
X280577257Y-143484571D01*
X280577257Y-143484571D02*
X280634400Y-143541714D01*
X280634400Y-143541714D02*
X280662971Y-143627428D01*
X280662971Y-143627428D02*
X280662971Y-143684571D01*
X280262971Y-142913143D02*
X280662971Y-142913143D01*
X280034400Y-143056000D02*
X280462971Y-143198857D01*
X280462971Y-143198857D02*
X280462971Y-142827428D01*
X162320343Y-136263971D02*
X162320343Y-135663971D01*
X162320343Y-135663971D02*
X162463200Y-135663971D01*
X162463200Y-135663971D02*
X162548914Y-135692542D01*
X162548914Y-135692542D02*
X162606057Y-135749685D01*
X162606057Y-135749685D02*
X162634628Y-135806828D01*
X162634628Y-135806828D02*
X162663200Y-135921114D01*
X162663200Y-135921114D02*
X162663200Y-136006828D01*
X162663200Y-136006828D02*
X162634628Y-136121114D01*
X162634628Y-136121114D02*
X162606057Y-136178257D01*
X162606057Y-136178257D02*
X162548914Y-136235400D01*
X162548914Y-136235400D02*
X162463200Y-136263971D01*
X162463200Y-136263971D02*
X162320343Y-136263971D01*
X162863200Y-135663971D02*
X163234628Y-135663971D01*
X163234628Y-135663971D02*
X163034628Y-135892542D01*
X163034628Y-135892542D02*
X163120343Y-135892542D01*
X163120343Y-135892542D02*
X163177486Y-135921114D01*
X163177486Y-135921114D02*
X163206057Y-135949685D01*
X163206057Y-135949685D02*
X163234628Y-136006828D01*
X163234628Y-136006828D02*
X163234628Y-136149685D01*
X163234628Y-136149685D02*
X163206057Y-136206828D01*
X163206057Y-136206828D02*
X163177486Y-136235400D01*
X163177486Y-136235400D02*
X163120343Y-136263971D01*
X163120343Y-136263971D02*
X162948914Y-136263971D01*
X162948914Y-136263971D02*
X162891771Y-136235400D01*
X162891771Y-136235400D02*
X162863200Y-136206828D01*
X183086771Y-132334856D02*
X182486771Y-132334856D01*
X182486771Y-132334856D02*
X182486771Y-132191999D01*
X182486771Y-132191999D02*
X182515342Y-132106285D01*
X182515342Y-132106285D02*
X182572485Y-132049142D01*
X182572485Y-132049142D02*
X182629628Y-132020571D01*
X182629628Y-132020571D02*
X182743914Y-131991999D01*
X182743914Y-131991999D02*
X182829628Y-131991999D01*
X182829628Y-131991999D02*
X182943914Y-132020571D01*
X182943914Y-132020571D02*
X183001057Y-132049142D01*
X183001057Y-132049142D02*
X183058200Y-132106285D01*
X183058200Y-132106285D02*
X183086771Y-132191999D01*
X183086771Y-132191999D02*
X183086771Y-132334856D01*
X182743914Y-131649142D02*
X182715342Y-131706285D01*
X182715342Y-131706285D02*
X182686771Y-131734856D01*
X182686771Y-131734856D02*
X182629628Y-131763428D01*
X182629628Y-131763428D02*
X182601057Y-131763428D01*
X182601057Y-131763428D02*
X182543914Y-131734856D01*
X182543914Y-131734856D02*
X182515342Y-131706285D01*
X182515342Y-131706285D02*
X182486771Y-131649142D01*
X182486771Y-131649142D02*
X182486771Y-131534856D01*
X182486771Y-131534856D02*
X182515342Y-131477714D01*
X182515342Y-131477714D02*
X182543914Y-131449142D01*
X182543914Y-131449142D02*
X182601057Y-131420571D01*
X182601057Y-131420571D02*
X182629628Y-131420571D01*
X182629628Y-131420571D02*
X182686771Y-131449142D01*
X182686771Y-131449142D02*
X182715342Y-131477714D01*
X182715342Y-131477714D02*
X182743914Y-131534856D01*
X182743914Y-131534856D02*
X182743914Y-131649142D01*
X182743914Y-131649142D02*
X182772485Y-131706285D01*
X182772485Y-131706285D02*
X182801057Y-131734856D01*
X182801057Y-131734856D02*
X182858200Y-131763428D01*
X182858200Y-131763428D02*
X182972485Y-131763428D01*
X182972485Y-131763428D02*
X183029628Y-131734856D01*
X183029628Y-131734856D02*
X183058200Y-131706285D01*
X183058200Y-131706285D02*
X183086771Y-131649142D01*
X183086771Y-131649142D02*
X183086771Y-131534856D01*
X183086771Y-131534856D02*
X183058200Y-131477714D01*
X183058200Y-131477714D02*
X183029628Y-131449142D01*
X183029628Y-131449142D02*
X182972485Y-131420571D01*
X182972485Y-131420571D02*
X182858200Y-131420571D01*
X182858200Y-131420571D02*
X182801057Y-131449142D01*
X182801057Y-131449142D02*
X182772485Y-131477714D01*
X182772485Y-131477714D02*
X182743914Y-131534856D01*
X216164692Y-104835441D02*
X216136120Y-104864013D01*
X216136120Y-104864013D02*
X216050406Y-104892584D01*
X216050406Y-104892584D02*
X215993263Y-104892584D01*
X215993263Y-104892584D02*
X215907549Y-104864013D01*
X215907549Y-104864013D02*
X215850406Y-104806870D01*
X215850406Y-104806870D02*
X215821835Y-104749727D01*
X215821835Y-104749727D02*
X215793263Y-104635441D01*
X215793263Y-104635441D02*
X215793263Y-104549727D01*
X215793263Y-104549727D02*
X215821835Y-104435441D01*
X215821835Y-104435441D02*
X215850406Y-104378298D01*
X215850406Y-104378298D02*
X215907549Y-104321155D01*
X215907549Y-104321155D02*
X215993263Y-104292584D01*
X215993263Y-104292584D02*
X216050406Y-104292584D01*
X216050406Y-104292584D02*
X216136120Y-104321155D01*
X216136120Y-104321155D02*
X216164692Y-104349727D01*
X216736120Y-104892584D02*
X216393263Y-104892584D01*
X216564692Y-104892584D02*
X216564692Y-104292584D01*
X216564692Y-104292584D02*
X216507549Y-104378298D01*
X216507549Y-104378298D02*
X216450406Y-104435441D01*
X216450406Y-104435441D02*
X216393263Y-104464013D01*
X217107549Y-104292584D02*
X217164692Y-104292584D01*
X217164692Y-104292584D02*
X217221835Y-104321155D01*
X217221835Y-104321155D02*
X217250407Y-104349727D01*
X217250407Y-104349727D02*
X217278978Y-104406870D01*
X217278978Y-104406870D02*
X217307549Y-104521155D01*
X217307549Y-104521155D02*
X217307549Y-104664013D01*
X217307549Y-104664013D02*
X217278978Y-104778298D01*
X217278978Y-104778298D02*
X217250407Y-104835441D01*
X217250407Y-104835441D02*
X217221835Y-104864013D01*
X217221835Y-104864013D02*
X217164692Y-104892584D01*
X217164692Y-104892584D02*
X217107549Y-104892584D01*
X217107549Y-104892584D02*
X217050407Y-104864013D01*
X217050407Y-104864013D02*
X217021835Y-104835441D01*
X217021835Y-104835441D02*
X216993264Y-104778298D01*
X216993264Y-104778298D02*
X216964692Y-104664013D01*
X216964692Y-104664013D02*
X216964692Y-104521155D01*
X216964692Y-104521155D02*
X216993264Y-104406870D01*
X216993264Y-104406870D02*
X217021835Y-104349727D01*
X217021835Y-104349727D02*
X217050407Y-104321155D01*
X217050407Y-104321155D02*
X217107549Y-104292584D01*
X177429999Y-136752371D02*
X177429999Y-137180942D01*
X177429999Y-137180942D02*
X177401428Y-137266657D01*
X177401428Y-137266657D02*
X177344285Y-137323800D01*
X177344285Y-137323800D02*
X177258571Y-137352371D01*
X177258571Y-137352371D02*
X177201428Y-137352371D01*
X177744285Y-137352371D02*
X177858571Y-137352371D01*
X177858571Y-137352371D02*
X177915714Y-137323800D01*
X177915714Y-137323800D02*
X177944285Y-137295228D01*
X177944285Y-137295228D02*
X178001428Y-137209514D01*
X178001428Y-137209514D02*
X178029999Y-137095228D01*
X178029999Y-137095228D02*
X178029999Y-136866657D01*
X178029999Y-136866657D02*
X178001428Y-136809514D01*
X178001428Y-136809514D02*
X177972857Y-136780942D01*
X177972857Y-136780942D02*
X177915714Y-136752371D01*
X177915714Y-136752371D02*
X177801428Y-136752371D01*
X177801428Y-136752371D02*
X177744285Y-136780942D01*
X177744285Y-136780942D02*
X177715714Y-136809514D01*
X177715714Y-136809514D02*
X177687142Y-136866657D01*
X177687142Y-136866657D02*
X177687142Y-137009514D01*
X177687142Y-137009514D02*
X177715714Y-137066657D01*
X177715714Y-137066657D02*
X177744285Y-137095228D01*
X177744285Y-137095228D02*
X177801428Y-137123800D01*
X177801428Y-137123800D02*
X177915714Y-137123800D01*
X177915714Y-137123800D02*
X177972857Y-137095228D01*
X177972857Y-137095228D02*
X178001428Y-137066657D01*
X178001428Y-137066657D02*
X178029999Y-137009514D01*
X193675057Y-121363771D02*
X193675057Y-121849485D01*
X193675057Y-121849485D02*
X193703628Y-121906628D01*
X193703628Y-121906628D02*
X193732200Y-121935200D01*
X193732200Y-121935200D02*
X193789342Y-121963771D01*
X193789342Y-121963771D02*
X193903628Y-121963771D01*
X193903628Y-121963771D02*
X193960771Y-121935200D01*
X193960771Y-121935200D02*
X193989342Y-121906628D01*
X193989342Y-121906628D02*
X194017914Y-121849485D01*
X194017914Y-121849485D02*
X194017914Y-121363771D01*
X194560771Y-121363771D02*
X194446485Y-121363771D01*
X194446485Y-121363771D02*
X194389342Y-121392342D01*
X194389342Y-121392342D02*
X194360771Y-121420914D01*
X194360771Y-121420914D02*
X194303628Y-121506628D01*
X194303628Y-121506628D02*
X194275056Y-121620914D01*
X194275056Y-121620914D02*
X194275056Y-121849485D01*
X194275056Y-121849485D02*
X194303628Y-121906628D01*
X194303628Y-121906628D02*
X194332199Y-121935200D01*
X194332199Y-121935200D02*
X194389342Y-121963771D01*
X194389342Y-121963771D02*
X194503628Y-121963771D01*
X194503628Y-121963771D02*
X194560771Y-121935200D01*
X194560771Y-121935200D02*
X194589342Y-121906628D01*
X194589342Y-121906628D02*
X194617913Y-121849485D01*
X194617913Y-121849485D02*
X194617913Y-121706628D01*
X194617913Y-121706628D02*
X194589342Y-121649485D01*
X194589342Y-121649485D02*
X194560771Y-121620914D01*
X194560771Y-121620914D02*
X194503628Y-121592342D01*
X194503628Y-121592342D02*
X194389342Y-121592342D01*
X194389342Y-121592342D02*
X194332199Y-121620914D01*
X194332199Y-121620914D02*
X194303628Y-121649485D01*
X194303628Y-121649485D02*
X194275056Y-121706628D01*
X238750656Y-103943828D02*
X238750656Y-104543828D01*
X238750656Y-104543828D02*
X238607799Y-104543828D01*
X238607799Y-104543828D02*
X238522085Y-104515257D01*
X238522085Y-104515257D02*
X238464942Y-104458114D01*
X238464942Y-104458114D02*
X238436371Y-104400971D01*
X238436371Y-104400971D02*
X238407799Y-104286685D01*
X238407799Y-104286685D02*
X238407799Y-104200971D01*
X238407799Y-104200971D02*
X238436371Y-104086685D01*
X238436371Y-104086685D02*
X238464942Y-104029542D01*
X238464942Y-104029542D02*
X238522085Y-103972400D01*
X238522085Y-103972400D02*
X238607799Y-103943828D01*
X238607799Y-103943828D02*
X238750656Y-103943828D01*
X237864942Y-104543828D02*
X238150656Y-104543828D01*
X238150656Y-104543828D02*
X238179228Y-104258114D01*
X238179228Y-104258114D02*
X238150656Y-104286685D01*
X238150656Y-104286685D02*
X238093514Y-104315257D01*
X238093514Y-104315257D02*
X237950656Y-104315257D01*
X237950656Y-104315257D02*
X237893514Y-104286685D01*
X237893514Y-104286685D02*
X237864942Y-104258114D01*
X237864942Y-104258114D02*
X237836371Y-104200971D01*
X237836371Y-104200971D02*
X237836371Y-104058114D01*
X237836371Y-104058114D02*
X237864942Y-104000971D01*
X237864942Y-104000971D02*
X237893514Y-103972400D01*
X237893514Y-103972400D02*
X237950656Y-103943828D01*
X237950656Y-103943828D02*
X238093514Y-103943828D01*
X238093514Y-103943828D02*
X238150656Y-103972400D01*
X238150656Y-103972400D02*
X238179228Y-104000971D01*
X218452799Y-140121600D02*
X218538514Y-140150171D01*
X218538514Y-140150171D02*
X218681371Y-140150171D01*
X218681371Y-140150171D02*
X218738514Y-140121600D01*
X218738514Y-140121600D02*
X218767085Y-140093028D01*
X218767085Y-140093028D02*
X218795656Y-140035885D01*
X218795656Y-140035885D02*
X218795656Y-139978742D01*
X218795656Y-139978742D02*
X218767085Y-139921600D01*
X218767085Y-139921600D02*
X218738514Y-139893028D01*
X218738514Y-139893028D02*
X218681371Y-139864457D01*
X218681371Y-139864457D02*
X218567085Y-139835885D01*
X218567085Y-139835885D02*
X218509942Y-139807314D01*
X218509942Y-139807314D02*
X218481371Y-139778742D01*
X218481371Y-139778742D02*
X218452799Y-139721600D01*
X218452799Y-139721600D02*
X218452799Y-139664457D01*
X218452799Y-139664457D02*
X218481371Y-139607314D01*
X218481371Y-139607314D02*
X218509942Y-139578742D01*
X218509942Y-139578742D02*
X218567085Y-139550171D01*
X218567085Y-139550171D02*
X218709942Y-139550171D01*
X218709942Y-139550171D02*
X218795656Y-139578742D01*
X218995657Y-139550171D02*
X219138514Y-140150171D01*
X219138514Y-140150171D02*
X219252800Y-139721600D01*
X219252800Y-139721600D02*
X219367085Y-140150171D01*
X219367085Y-140150171D02*
X219509943Y-139550171D01*
X220024228Y-139550171D02*
X219738514Y-139550171D01*
X219738514Y-139550171D02*
X219709942Y-139835885D01*
X219709942Y-139835885D02*
X219738514Y-139807314D01*
X219738514Y-139807314D02*
X219795657Y-139778742D01*
X219795657Y-139778742D02*
X219938514Y-139778742D01*
X219938514Y-139778742D02*
X219995657Y-139807314D01*
X219995657Y-139807314D02*
X220024228Y-139835885D01*
X220024228Y-139835885D02*
X220052799Y-139893028D01*
X220052799Y-139893028D02*
X220052799Y-140035885D01*
X220052799Y-140035885D02*
X220024228Y-140093028D01*
X220024228Y-140093028D02*
X219995657Y-140121600D01*
X219995657Y-140121600D02*
X219938514Y-140150171D01*
X219938514Y-140150171D02*
X219795657Y-140150171D01*
X219795657Y-140150171D02*
X219738514Y-140121600D01*
X219738514Y-140121600D02*
X219709942Y-140093028D01*
X188486371Y-117447999D02*
X188200657Y-117647999D01*
X188486371Y-117790856D02*
X187886371Y-117790856D01*
X187886371Y-117790856D02*
X187886371Y-117562285D01*
X187886371Y-117562285D02*
X187914942Y-117505142D01*
X187914942Y-117505142D02*
X187943514Y-117476571D01*
X187943514Y-117476571D02*
X188000657Y-117447999D01*
X188000657Y-117447999D02*
X188086371Y-117447999D01*
X188086371Y-117447999D02*
X188143514Y-117476571D01*
X188143514Y-117476571D02*
X188172085Y-117505142D01*
X188172085Y-117505142D02*
X188200657Y-117562285D01*
X188200657Y-117562285D02*
X188200657Y-117790856D01*
X187943514Y-117219428D02*
X187914942Y-117190856D01*
X187914942Y-117190856D02*
X187886371Y-117133714D01*
X187886371Y-117133714D02*
X187886371Y-116990856D01*
X187886371Y-116990856D02*
X187914942Y-116933714D01*
X187914942Y-116933714D02*
X187943514Y-116905142D01*
X187943514Y-116905142D02*
X188000657Y-116876571D01*
X188000657Y-116876571D02*
X188057800Y-116876571D01*
X188057800Y-116876571D02*
X188143514Y-116905142D01*
X188143514Y-116905142D02*
X188486371Y-117247999D01*
X188486371Y-117247999D02*
X188486371Y-116876571D01*
X278367818Y-140556020D02*
X278367818Y-139956020D01*
X278367818Y-139956020D02*
X278510675Y-139956020D01*
X278510675Y-139956020D02*
X278596389Y-139984591D01*
X278596389Y-139984591D02*
X278653532Y-140041734D01*
X278653532Y-140041734D02*
X278682103Y-140098877D01*
X278682103Y-140098877D02*
X278710675Y-140213163D01*
X278710675Y-140213163D02*
X278710675Y-140298877D01*
X278710675Y-140298877D02*
X278682103Y-140413163D01*
X278682103Y-140413163D02*
X278653532Y-140470306D01*
X278653532Y-140470306D02*
X278596389Y-140527449D01*
X278596389Y-140527449D02*
X278510675Y-140556020D01*
X278510675Y-140556020D02*
X278367818Y-140556020D01*
X279282103Y-140556020D02*
X278939246Y-140556020D01*
X279110675Y-140556020D02*
X279110675Y-139956020D01*
X279110675Y-139956020D02*
X279053532Y-140041734D01*
X279053532Y-140041734D02*
X278996389Y-140098877D01*
X278996389Y-140098877D02*
X278939246Y-140127449D01*
X279824961Y-139956020D02*
X279539247Y-139956020D01*
X279539247Y-139956020D02*
X279510675Y-140241734D01*
X279510675Y-140241734D02*
X279539247Y-140213163D01*
X279539247Y-140213163D02*
X279596390Y-140184591D01*
X279596390Y-140184591D02*
X279739247Y-140184591D01*
X279739247Y-140184591D02*
X279796390Y-140213163D01*
X279796390Y-140213163D02*
X279824961Y-140241734D01*
X279824961Y-140241734D02*
X279853532Y-140298877D01*
X279853532Y-140298877D02*
X279853532Y-140441734D01*
X279853532Y-140441734D02*
X279824961Y-140498877D01*
X279824961Y-140498877D02*
X279796390Y-140527449D01*
X279796390Y-140527449D02*
X279739247Y-140556020D01*
X279739247Y-140556020D02*
X279596390Y-140556020D01*
X279596390Y-140556020D02*
X279539247Y-140527449D01*
X279539247Y-140527449D02*
X279510675Y-140498877D01*
X233046657Y-104445714D02*
X233332371Y-104445714D01*
X232732371Y-104645714D02*
X233046657Y-104445714D01*
X233046657Y-104445714D02*
X232732371Y-104245714D01*
X233332371Y-103731428D02*
X233332371Y-104074285D01*
X233332371Y-103902856D02*
X232732371Y-103902856D01*
X232732371Y-103902856D02*
X232818085Y-103959999D01*
X232818085Y-103959999D02*
X232875228Y-104017142D01*
X232875228Y-104017142D02*
X232903800Y-104074285D01*
X211234428Y-133317571D02*
X211234428Y-132717571D01*
X211234428Y-132717571D02*
X211377285Y-132717571D01*
X211377285Y-132717571D02*
X211462999Y-132746142D01*
X211462999Y-132746142D02*
X211520142Y-132803285D01*
X211520142Y-132803285D02*
X211548713Y-132860428D01*
X211548713Y-132860428D02*
X211577285Y-132974714D01*
X211577285Y-132974714D02*
X211577285Y-133060428D01*
X211577285Y-133060428D02*
X211548713Y-133174714D01*
X211548713Y-133174714D02*
X211520142Y-133231857D01*
X211520142Y-133231857D02*
X211462999Y-133289000D01*
X211462999Y-133289000D02*
X211377285Y-133317571D01*
X211377285Y-133317571D02*
X211234428Y-133317571D01*
X212148713Y-133317571D02*
X211805856Y-133317571D01*
X211977285Y-133317571D02*
X211977285Y-132717571D01*
X211977285Y-132717571D02*
X211920142Y-132803285D01*
X211920142Y-132803285D02*
X211862999Y-132860428D01*
X211862999Y-132860428D02*
X211805856Y-132889000D01*
X212377285Y-132774714D02*
X212405857Y-132746142D01*
X212405857Y-132746142D02*
X212463000Y-132717571D01*
X212463000Y-132717571D02*
X212605857Y-132717571D01*
X212605857Y-132717571D02*
X212663000Y-132746142D01*
X212663000Y-132746142D02*
X212691571Y-132774714D01*
X212691571Y-132774714D02*
X212720142Y-132831857D01*
X212720142Y-132831857D02*
X212720142Y-132889000D01*
X212720142Y-132889000D02*
X212691571Y-132974714D01*
X212691571Y-132974714D02*
X212348714Y-133317571D01*
X212348714Y-133317571D02*
X212720142Y-133317571D01*
X177496800Y-130110828D02*
X177468228Y-130139400D01*
X177468228Y-130139400D02*
X177382514Y-130167971D01*
X177382514Y-130167971D02*
X177325371Y-130167971D01*
X177325371Y-130167971D02*
X177239657Y-130139400D01*
X177239657Y-130139400D02*
X177182514Y-130082257D01*
X177182514Y-130082257D02*
X177153943Y-130025114D01*
X177153943Y-130025114D02*
X177125371Y-129910828D01*
X177125371Y-129910828D02*
X177125371Y-129825114D01*
X177125371Y-129825114D02*
X177153943Y-129710828D01*
X177153943Y-129710828D02*
X177182514Y-129653685D01*
X177182514Y-129653685D02*
X177239657Y-129596542D01*
X177239657Y-129596542D02*
X177325371Y-129567971D01*
X177325371Y-129567971D02*
X177382514Y-129567971D01*
X177382514Y-129567971D02*
X177468228Y-129596542D01*
X177468228Y-129596542D02*
X177496800Y-129625114D01*
X178068228Y-130167971D02*
X177725371Y-130167971D01*
X177896800Y-130167971D02*
X177896800Y-129567971D01*
X177896800Y-129567971D02*
X177839657Y-129653685D01*
X177839657Y-129653685D02*
X177782514Y-129710828D01*
X177782514Y-129710828D02*
X177725371Y-129739400D01*
X248866085Y-104272571D02*
X249266085Y-104872571D01*
X249266085Y-104272571D02*
X248866085Y-104872571D01*
X249751800Y-104472571D02*
X249751800Y-104872571D01*
X249608942Y-104244000D02*
X249466085Y-104672571D01*
X249466085Y-104672571D02*
X249837514Y-104672571D01*
X223306600Y-128441314D02*
X223335171Y-128355600D01*
X223335171Y-128355600D02*
X223335171Y-128212742D01*
X223335171Y-128212742D02*
X223306600Y-128155600D01*
X223306600Y-128155600D02*
X223278028Y-128127028D01*
X223278028Y-128127028D02*
X223220885Y-128098457D01*
X223220885Y-128098457D02*
X223163742Y-128098457D01*
X223163742Y-128098457D02*
X223106600Y-128127028D01*
X223106600Y-128127028D02*
X223078028Y-128155600D01*
X223078028Y-128155600D02*
X223049457Y-128212742D01*
X223049457Y-128212742D02*
X223020885Y-128327028D01*
X223020885Y-128327028D02*
X222992314Y-128384171D01*
X222992314Y-128384171D02*
X222963742Y-128412742D01*
X222963742Y-128412742D02*
X222906600Y-128441314D01*
X222906600Y-128441314D02*
X222849457Y-128441314D01*
X222849457Y-128441314D02*
X222792314Y-128412742D01*
X222792314Y-128412742D02*
X222763742Y-128384171D01*
X222763742Y-128384171D02*
X222735171Y-128327028D01*
X222735171Y-128327028D02*
X222735171Y-128184171D01*
X222735171Y-128184171D02*
X222763742Y-128098457D01*
X222735171Y-127898456D02*
X223335171Y-127755599D01*
X223335171Y-127755599D02*
X222906600Y-127641313D01*
X222906600Y-127641313D02*
X223335171Y-127527028D01*
X223335171Y-127527028D02*
X222735171Y-127384171D01*
X223335171Y-126841314D02*
X223335171Y-127184171D01*
X223335171Y-127012742D02*
X222735171Y-127012742D01*
X222735171Y-127012742D02*
X222820885Y-127069885D01*
X222820885Y-127069885D02*
X222878028Y-127127028D01*
X222878028Y-127127028D02*
X222906600Y-127184171D01*
X222992314Y-126498456D02*
X222963742Y-126555599D01*
X222963742Y-126555599D02*
X222935171Y-126584170D01*
X222935171Y-126584170D02*
X222878028Y-126612742D01*
X222878028Y-126612742D02*
X222849457Y-126612742D01*
X222849457Y-126612742D02*
X222792314Y-126584170D01*
X222792314Y-126584170D02*
X222763742Y-126555599D01*
X222763742Y-126555599D02*
X222735171Y-126498456D01*
X222735171Y-126498456D02*
X222735171Y-126384170D01*
X222735171Y-126384170D02*
X222763742Y-126327028D01*
X222763742Y-126327028D02*
X222792314Y-126298456D01*
X222792314Y-126298456D02*
X222849457Y-126269885D01*
X222849457Y-126269885D02*
X222878028Y-126269885D01*
X222878028Y-126269885D02*
X222935171Y-126298456D01*
X222935171Y-126298456D02*
X222963742Y-126327028D01*
X222963742Y-126327028D02*
X222992314Y-126384170D01*
X222992314Y-126384170D02*
X222992314Y-126498456D01*
X222992314Y-126498456D02*
X223020885Y-126555599D01*
X223020885Y-126555599D02*
X223049457Y-126584170D01*
X223049457Y-126584170D02*
X223106600Y-126612742D01*
X223106600Y-126612742D02*
X223220885Y-126612742D01*
X223220885Y-126612742D02*
X223278028Y-126584170D01*
X223278028Y-126584170D02*
X223306600Y-126555599D01*
X223306600Y-126555599D02*
X223335171Y-126498456D01*
X223335171Y-126498456D02*
X223335171Y-126384170D01*
X223335171Y-126384170D02*
X223306600Y-126327028D01*
X223306600Y-126327028D02*
X223278028Y-126298456D01*
X223278028Y-126298456D02*
X223220885Y-126269885D01*
X223220885Y-126269885D02*
X223106600Y-126269885D01*
X223106600Y-126269885D02*
X223049457Y-126298456D01*
X223049457Y-126298456D02*
X223020885Y-126327028D01*
X223020885Y-126327028D02*
X222992314Y-126384170D01*
X216864507Y-101924622D02*
X216835935Y-101953194D01*
X216835935Y-101953194D02*
X216750221Y-101981765D01*
X216750221Y-101981765D02*
X216693078Y-101981765D01*
X216693078Y-101981765D02*
X216607364Y-101953194D01*
X216607364Y-101953194D02*
X216550221Y-101896051D01*
X216550221Y-101896051D02*
X216521650Y-101838908D01*
X216521650Y-101838908D02*
X216493078Y-101724622D01*
X216493078Y-101724622D02*
X216493078Y-101638908D01*
X216493078Y-101638908D02*
X216521650Y-101524622D01*
X216521650Y-101524622D02*
X216550221Y-101467479D01*
X216550221Y-101467479D02*
X216607364Y-101410336D01*
X216607364Y-101410336D02*
X216693078Y-101381765D01*
X216693078Y-101381765D02*
X216750221Y-101381765D01*
X216750221Y-101381765D02*
X216835935Y-101410336D01*
X216835935Y-101410336D02*
X216864507Y-101438908D01*
X217064507Y-101381765D02*
X217464507Y-101381765D01*
X217464507Y-101381765D02*
X217207364Y-101981765D01*
X270752155Y-132993097D02*
X270723583Y-133021669D01*
X270723583Y-133021669D02*
X270637869Y-133050240D01*
X270637869Y-133050240D02*
X270580726Y-133050240D01*
X270580726Y-133050240D02*
X270495012Y-133021669D01*
X270495012Y-133021669D02*
X270437869Y-132964526D01*
X270437869Y-132964526D02*
X270409298Y-132907383D01*
X270409298Y-132907383D02*
X270380726Y-132793097D01*
X270380726Y-132793097D02*
X270380726Y-132707383D01*
X270380726Y-132707383D02*
X270409298Y-132593097D01*
X270409298Y-132593097D02*
X270437869Y-132535954D01*
X270437869Y-132535954D02*
X270495012Y-132478811D01*
X270495012Y-132478811D02*
X270580726Y-132450240D01*
X270580726Y-132450240D02*
X270637869Y-132450240D01*
X270637869Y-132450240D02*
X270723583Y-132478811D01*
X270723583Y-132478811D02*
X270752155Y-132507383D01*
X270980726Y-132507383D02*
X271009298Y-132478811D01*
X271009298Y-132478811D02*
X271066441Y-132450240D01*
X271066441Y-132450240D02*
X271209298Y-132450240D01*
X271209298Y-132450240D02*
X271266441Y-132478811D01*
X271266441Y-132478811D02*
X271295012Y-132507383D01*
X271295012Y-132507383D02*
X271323583Y-132564526D01*
X271323583Y-132564526D02*
X271323583Y-132621669D01*
X271323583Y-132621669D02*
X271295012Y-132707383D01*
X271295012Y-132707383D02*
X270952155Y-133050240D01*
X270952155Y-133050240D02*
X271323583Y-133050240D01*
X271866441Y-132450240D02*
X271580727Y-132450240D01*
X271580727Y-132450240D02*
X271552155Y-132735954D01*
X271552155Y-132735954D02*
X271580727Y-132707383D01*
X271580727Y-132707383D02*
X271637870Y-132678811D01*
X271637870Y-132678811D02*
X271780727Y-132678811D01*
X271780727Y-132678811D02*
X271837870Y-132707383D01*
X271837870Y-132707383D02*
X271866441Y-132735954D01*
X271866441Y-132735954D02*
X271895012Y-132793097D01*
X271895012Y-132793097D02*
X271895012Y-132935954D01*
X271895012Y-132935954D02*
X271866441Y-132993097D01*
X271866441Y-132993097D02*
X271837870Y-133021669D01*
X271837870Y-133021669D02*
X271780727Y-133050240D01*
X271780727Y-133050240D02*
X271637870Y-133050240D01*
X271637870Y-133050240D02*
X271580727Y-133021669D01*
X271580727Y-133021669D02*
X271552155Y-132993097D01*
X183900856Y-95915971D02*
X184243714Y-95915971D01*
X184072285Y-96515971D02*
X184072285Y-95915971D01*
X184443714Y-96515971D02*
X184443714Y-95915971D01*
X184443714Y-95915971D02*
X184672285Y-95915971D01*
X184672285Y-95915971D02*
X184729428Y-95944542D01*
X184729428Y-95944542D02*
X184757999Y-95973114D01*
X184757999Y-95973114D02*
X184786571Y-96030257D01*
X184786571Y-96030257D02*
X184786571Y-96115971D01*
X184786571Y-96115971D02*
X184757999Y-96173114D01*
X184757999Y-96173114D02*
X184729428Y-96201685D01*
X184729428Y-96201685D02*
X184672285Y-96230257D01*
X184672285Y-96230257D02*
X184443714Y-96230257D01*
X185329428Y-95915971D02*
X185043714Y-95915971D01*
X185043714Y-95915971D02*
X185015142Y-96201685D01*
X185015142Y-96201685D02*
X185043714Y-96173114D01*
X185043714Y-96173114D02*
X185100857Y-96144542D01*
X185100857Y-96144542D02*
X185243714Y-96144542D01*
X185243714Y-96144542D02*
X185300857Y-96173114D01*
X185300857Y-96173114D02*
X185329428Y-96201685D01*
X185329428Y-96201685D02*
X185357999Y-96258828D01*
X185357999Y-96258828D02*
X185357999Y-96401685D01*
X185357999Y-96401685D02*
X185329428Y-96458828D01*
X185329428Y-96458828D02*
X185300857Y-96487400D01*
X185300857Y-96487400D02*
X185243714Y-96515971D01*
X185243714Y-96515971D02*
X185100857Y-96515971D01*
X185100857Y-96515971D02*
X185043714Y-96487400D01*
X185043714Y-96487400D02*
X185015142Y-96458828D01*
X189646472Y-118847914D02*
X189675044Y-118876486D01*
X189675044Y-118876486D02*
X189703615Y-118962200D01*
X189703615Y-118962200D02*
X189703615Y-119019343D01*
X189703615Y-119019343D02*
X189675044Y-119105057D01*
X189675044Y-119105057D02*
X189617901Y-119162200D01*
X189617901Y-119162200D02*
X189560758Y-119190771D01*
X189560758Y-119190771D02*
X189446472Y-119219343D01*
X189446472Y-119219343D02*
X189360758Y-119219343D01*
X189360758Y-119219343D02*
X189246472Y-119190771D01*
X189246472Y-119190771D02*
X189189329Y-119162200D01*
X189189329Y-119162200D02*
X189132186Y-119105057D01*
X189132186Y-119105057D02*
X189103615Y-119019343D01*
X189103615Y-119019343D02*
X189103615Y-118962200D01*
X189103615Y-118962200D02*
X189132186Y-118876486D01*
X189132186Y-118876486D02*
X189160758Y-118847914D01*
X189160758Y-118619343D02*
X189132186Y-118590771D01*
X189132186Y-118590771D02*
X189103615Y-118533629D01*
X189103615Y-118533629D02*
X189103615Y-118390771D01*
X189103615Y-118390771D02*
X189132186Y-118333629D01*
X189132186Y-118333629D02*
X189160758Y-118305057D01*
X189160758Y-118305057D02*
X189217901Y-118276486D01*
X189217901Y-118276486D02*
X189275044Y-118276486D01*
X189275044Y-118276486D02*
X189360758Y-118305057D01*
X189360758Y-118305057D02*
X189703615Y-118647914D01*
X189703615Y-118647914D02*
X189703615Y-118276486D01*
X168584285Y-137465228D02*
X168555713Y-137493800D01*
X168555713Y-137493800D02*
X168469999Y-137522371D01*
X168469999Y-137522371D02*
X168412856Y-137522371D01*
X168412856Y-137522371D02*
X168327142Y-137493800D01*
X168327142Y-137493800D02*
X168269999Y-137436657D01*
X168269999Y-137436657D02*
X168241428Y-137379514D01*
X168241428Y-137379514D02*
X168212856Y-137265228D01*
X168212856Y-137265228D02*
X168212856Y-137179514D01*
X168212856Y-137179514D02*
X168241428Y-137065228D01*
X168241428Y-137065228D02*
X168269999Y-137008085D01*
X168269999Y-137008085D02*
X168327142Y-136950942D01*
X168327142Y-136950942D02*
X168412856Y-136922371D01*
X168412856Y-136922371D02*
X168469999Y-136922371D01*
X168469999Y-136922371D02*
X168555713Y-136950942D01*
X168555713Y-136950942D02*
X168584285Y-136979514D01*
X168784285Y-136922371D02*
X169155713Y-136922371D01*
X169155713Y-136922371D02*
X168955713Y-137150942D01*
X168955713Y-137150942D02*
X169041428Y-137150942D01*
X169041428Y-137150942D02*
X169098571Y-137179514D01*
X169098571Y-137179514D02*
X169127142Y-137208085D01*
X169127142Y-137208085D02*
X169155713Y-137265228D01*
X169155713Y-137265228D02*
X169155713Y-137408085D01*
X169155713Y-137408085D02*
X169127142Y-137465228D01*
X169127142Y-137465228D02*
X169098571Y-137493800D01*
X169098571Y-137493800D02*
X169041428Y-137522371D01*
X169041428Y-137522371D02*
X168869999Y-137522371D01*
X168869999Y-137522371D02*
X168812856Y-137493800D01*
X168812856Y-137493800D02*
X168784285Y-137465228D01*
X169670000Y-137122371D02*
X169670000Y-137522371D01*
X169527142Y-136893800D02*
X169384285Y-137322371D01*
X169384285Y-137322371D02*
X169755714Y-137322371D01*
X214416600Y-127933314D02*
X214445171Y-127847600D01*
X214445171Y-127847600D02*
X214445171Y-127704742D01*
X214445171Y-127704742D02*
X214416600Y-127647600D01*
X214416600Y-127647600D02*
X214388028Y-127619028D01*
X214388028Y-127619028D02*
X214330885Y-127590457D01*
X214330885Y-127590457D02*
X214273742Y-127590457D01*
X214273742Y-127590457D02*
X214216600Y-127619028D01*
X214216600Y-127619028D02*
X214188028Y-127647600D01*
X214188028Y-127647600D02*
X214159457Y-127704742D01*
X214159457Y-127704742D02*
X214130885Y-127819028D01*
X214130885Y-127819028D02*
X214102314Y-127876171D01*
X214102314Y-127876171D02*
X214073742Y-127904742D01*
X214073742Y-127904742D02*
X214016600Y-127933314D01*
X214016600Y-127933314D02*
X213959457Y-127933314D01*
X213959457Y-127933314D02*
X213902314Y-127904742D01*
X213902314Y-127904742D02*
X213873742Y-127876171D01*
X213873742Y-127876171D02*
X213845171Y-127819028D01*
X213845171Y-127819028D02*
X213845171Y-127676171D01*
X213845171Y-127676171D02*
X213873742Y-127590457D01*
X213845171Y-127390456D02*
X214445171Y-127247599D01*
X214445171Y-127247599D02*
X214016600Y-127133313D01*
X214016600Y-127133313D02*
X214445171Y-127019028D01*
X214445171Y-127019028D02*
X213845171Y-126876171D01*
X214445171Y-126333314D02*
X214445171Y-126676171D01*
X214445171Y-126504742D02*
X213845171Y-126504742D01*
X213845171Y-126504742D02*
X213930885Y-126561885D01*
X213930885Y-126561885D02*
X213988028Y-126619028D01*
X213988028Y-126619028D02*
X214016600Y-126676171D01*
X214445171Y-126047599D02*
X214445171Y-125933313D01*
X214445171Y-125933313D02*
X214416600Y-125876170D01*
X214416600Y-125876170D02*
X214388028Y-125847599D01*
X214388028Y-125847599D02*
X214302314Y-125790456D01*
X214302314Y-125790456D02*
X214188028Y-125761885D01*
X214188028Y-125761885D02*
X213959457Y-125761885D01*
X213959457Y-125761885D02*
X213902314Y-125790456D01*
X213902314Y-125790456D02*
X213873742Y-125819028D01*
X213873742Y-125819028D02*
X213845171Y-125876170D01*
X213845171Y-125876170D02*
X213845171Y-125990456D01*
X213845171Y-125990456D02*
X213873742Y-126047599D01*
X213873742Y-126047599D02*
X213902314Y-126076170D01*
X213902314Y-126076170D02*
X213959457Y-126104742D01*
X213959457Y-126104742D02*
X214102314Y-126104742D01*
X214102314Y-126104742D02*
X214159457Y-126076170D01*
X214159457Y-126076170D02*
X214188028Y-126047599D01*
X214188028Y-126047599D02*
X214216600Y-125990456D01*
X214216600Y-125990456D02*
X214216600Y-125876170D01*
X214216600Y-125876170D02*
X214188028Y-125819028D01*
X214188028Y-125819028D02*
X214159457Y-125790456D01*
X214159457Y-125790456D02*
X214102314Y-125761885D01*
X190086571Y-131233771D02*
X189486571Y-131233771D01*
X189486571Y-131233771D02*
X189486571Y-131090914D01*
X189486571Y-131090914D02*
X189515142Y-131005200D01*
X189515142Y-131005200D02*
X189572285Y-130948057D01*
X189572285Y-130948057D02*
X189629428Y-130919486D01*
X189629428Y-130919486D02*
X189743714Y-130890914D01*
X189743714Y-130890914D02*
X189829428Y-130890914D01*
X189829428Y-130890914D02*
X189943714Y-130919486D01*
X189943714Y-130919486D02*
X190000857Y-130948057D01*
X190000857Y-130948057D02*
X190058000Y-131005200D01*
X190058000Y-131005200D02*
X190086571Y-131090914D01*
X190086571Y-131090914D02*
X190086571Y-131233771D01*
X190086571Y-130319486D02*
X190086571Y-130662343D01*
X190086571Y-130490914D02*
X189486571Y-130490914D01*
X189486571Y-130490914D02*
X189572285Y-130548057D01*
X189572285Y-130548057D02*
X189629428Y-130605200D01*
X189629428Y-130605200D02*
X189658000Y-130662343D01*
X190086571Y-129748057D02*
X190086571Y-130090914D01*
X190086571Y-129919485D02*
X189486571Y-129919485D01*
X189486571Y-129919485D02*
X189572285Y-129976628D01*
X189572285Y-129976628D02*
X189629428Y-130033771D01*
X189629428Y-130033771D02*
X189658000Y-130090914D01*
X228359808Y-114554805D02*
X228331236Y-114583377D01*
X228331236Y-114583377D02*
X228245522Y-114611948D01*
X228245522Y-114611948D02*
X228188379Y-114611948D01*
X228188379Y-114611948D02*
X228102665Y-114583377D01*
X228102665Y-114583377D02*
X228045522Y-114526234D01*
X228045522Y-114526234D02*
X228016951Y-114469091D01*
X228016951Y-114469091D02*
X227988379Y-114354805D01*
X227988379Y-114354805D02*
X227988379Y-114269091D01*
X227988379Y-114269091D02*
X228016951Y-114154805D01*
X228016951Y-114154805D02*
X228045522Y-114097662D01*
X228045522Y-114097662D02*
X228102665Y-114040519D01*
X228102665Y-114040519D02*
X228188379Y-114011948D01*
X228188379Y-114011948D02*
X228245522Y-114011948D01*
X228245522Y-114011948D02*
X228331236Y-114040519D01*
X228331236Y-114040519D02*
X228359808Y-114069091D01*
X228588379Y-114069091D02*
X228616951Y-114040519D01*
X228616951Y-114040519D02*
X228674094Y-114011948D01*
X228674094Y-114011948D02*
X228816951Y-114011948D01*
X228816951Y-114011948D02*
X228874094Y-114040519D01*
X228874094Y-114040519D02*
X228902665Y-114069091D01*
X228902665Y-114069091D02*
X228931236Y-114126234D01*
X228931236Y-114126234D02*
X228931236Y-114183377D01*
X228931236Y-114183377D02*
X228902665Y-114269091D01*
X228902665Y-114269091D02*
X228559808Y-114611948D01*
X228559808Y-114611948D02*
X228931236Y-114611948D01*
X229445523Y-114211948D02*
X229445523Y-114611948D01*
X229302665Y-113983377D02*
X229159808Y-114411948D01*
X229159808Y-114411948D02*
X229531237Y-114411948D01*
X230775228Y-110005714D02*
X230803800Y-110034286D01*
X230803800Y-110034286D02*
X230832371Y-110120000D01*
X230832371Y-110120000D02*
X230832371Y-110177143D01*
X230832371Y-110177143D02*
X230803800Y-110262857D01*
X230803800Y-110262857D02*
X230746657Y-110320000D01*
X230746657Y-110320000D02*
X230689514Y-110348571D01*
X230689514Y-110348571D02*
X230575228Y-110377143D01*
X230575228Y-110377143D02*
X230489514Y-110377143D01*
X230489514Y-110377143D02*
X230375228Y-110348571D01*
X230375228Y-110348571D02*
X230318085Y-110320000D01*
X230318085Y-110320000D02*
X230260942Y-110262857D01*
X230260942Y-110262857D02*
X230232371Y-110177143D01*
X230232371Y-110177143D02*
X230232371Y-110120000D01*
X230232371Y-110120000D02*
X230260942Y-110034286D01*
X230260942Y-110034286D02*
X230289514Y-110005714D01*
X230832371Y-109434286D02*
X230832371Y-109777143D01*
X230832371Y-109605714D02*
X230232371Y-109605714D01*
X230232371Y-109605714D02*
X230318085Y-109662857D01*
X230318085Y-109662857D02*
X230375228Y-109720000D01*
X230375228Y-109720000D02*
X230403800Y-109777143D01*
X230432371Y-108920000D02*
X230832371Y-108920000D01*
X230203800Y-109062857D02*
X230632371Y-109205714D01*
X230632371Y-109205714D02*
X230632371Y-108834285D01*
X232793571Y-130070200D02*
X233222142Y-130070200D01*
X233222142Y-130070200D02*
X233307857Y-130098771D01*
X233307857Y-130098771D02*
X233365000Y-130155914D01*
X233365000Y-130155914D02*
X233393571Y-130241628D01*
X233393571Y-130241628D02*
X233393571Y-130298771D01*
X232850714Y-129813057D02*
X232822142Y-129784485D01*
X232822142Y-129784485D02*
X232793571Y-129727343D01*
X232793571Y-129727343D02*
X232793571Y-129584485D01*
X232793571Y-129584485D02*
X232822142Y-129527343D01*
X232822142Y-129527343D02*
X232850714Y-129498771D01*
X232850714Y-129498771D02*
X232907857Y-129470200D01*
X232907857Y-129470200D02*
X232965000Y-129470200D01*
X232965000Y-129470200D02*
X233050714Y-129498771D01*
X233050714Y-129498771D02*
X233393571Y-129841628D01*
X233393571Y-129841628D02*
X233393571Y-129470200D01*
X215052858Y-107791145D02*
X215024286Y-107819717D01*
X215024286Y-107819717D02*
X214938572Y-107848288D01*
X214938572Y-107848288D02*
X214881429Y-107848288D01*
X214881429Y-107848288D02*
X214795715Y-107819717D01*
X214795715Y-107819717D02*
X214738572Y-107762574D01*
X214738572Y-107762574D02*
X214710001Y-107705431D01*
X214710001Y-107705431D02*
X214681429Y-107591145D01*
X214681429Y-107591145D02*
X214681429Y-107505431D01*
X214681429Y-107505431D02*
X214710001Y-107391145D01*
X214710001Y-107391145D02*
X214738572Y-107334002D01*
X214738572Y-107334002D02*
X214795715Y-107276859D01*
X214795715Y-107276859D02*
X214881429Y-107248288D01*
X214881429Y-107248288D02*
X214938572Y-107248288D01*
X214938572Y-107248288D02*
X215024286Y-107276859D01*
X215024286Y-107276859D02*
X215052858Y-107305431D01*
X215338572Y-107848288D02*
X215452858Y-107848288D01*
X215452858Y-107848288D02*
X215510001Y-107819717D01*
X215510001Y-107819717D02*
X215538572Y-107791145D01*
X215538572Y-107791145D02*
X215595715Y-107705431D01*
X215595715Y-107705431D02*
X215624286Y-107591145D01*
X215624286Y-107591145D02*
X215624286Y-107362574D01*
X215624286Y-107362574D02*
X215595715Y-107305431D01*
X215595715Y-107305431D02*
X215567144Y-107276859D01*
X215567144Y-107276859D02*
X215510001Y-107248288D01*
X215510001Y-107248288D02*
X215395715Y-107248288D01*
X215395715Y-107248288D02*
X215338572Y-107276859D01*
X215338572Y-107276859D02*
X215310001Y-107305431D01*
X215310001Y-107305431D02*
X215281429Y-107362574D01*
X215281429Y-107362574D02*
X215281429Y-107505431D01*
X215281429Y-107505431D02*
X215310001Y-107562574D01*
X215310001Y-107562574D02*
X215338572Y-107591145D01*
X215338572Y-107591145D02*
X215395715Y-107619717D01*
X215395715Y-107619717D02*
X215510001Y-107619717D01*
X215510001Y-107619717D02*
X215567144Y-107591145D01*
X215567144Y-107591145D02*
X215595715Y-107562574D01*
X215595715Y-107562574D02*
X215624286Y-107505431D01*
X170588885Y-138628371D02*
X170388885Y-138342657D01*
X170246028Y-138628371D02*
X170246028Y-138028371D01*
X170246028Y-138028371D02*
X170474599Y-138028371D01*
X170474599Y-138028371D02*
X170531742Y-138056942D01*
X170531742Y-138056942D02*
X170560313Y-138085514D01*
X170560313Y-138085514D02*
X170588885Y-138142657D01*
X170588885Y-138142657D02*
X170588885Y-138228371D01*
X170588885Y-138228371D02*
X170560313Y-138285514D01*
X170560313Y-138285514D02*
X170531742Y-138314085D01*
X170531742Y-138314085D02*
X170474599Y-138342657D01*
X170474599Y-138342657D02*
X170246028Y-138342657D01*
X170788885Y-138028371D02*
X171160313Y-138028371D01*
X171160313Y-138028371D02*
X170960313Y-138256942D01*
X170960313Y-138256942D02*
X171046028Y-138256942D01*
X171046028Y-138256942D02*
X171103171Y-138285514D01*
X171103171Y-138285514D02*
X171131742Y-138314085D01*
X171131742Y-138314085D02*
X171160313Y-138371228D01*
X171160313Y-138371228D02*
X171160313Y-138514085D01*
X171160313Y-138514085D02*
X171131742Y-138571228D01*
X171131742Y-138571228D02*
X171103171Y-138599800D01*
X171103171Y-138599800D02*
X171046028Y-138628371D01*
X171046028Y-138628371D02*
X170874599Y-138628371D01*
X170874599Y-138628371D02*
X170817456Y-138599800D01*
X170817456Y-138599800D02*
X170788885Y-138571228D01*
X171731742Y-138628371D02*
X171388885Y-138628371D01*
X171560314Y-138628371D02*
X171560314Y-138028371D01*
X171560314Y-138028371D02*
X171503171Y-138114085D01*
X171503171Y-138114085D02*
X171446028Y-138171228D01*
X171446028Y-138171228D02*
X171388885Y-138199800D01*
X225864371Y-119508742D02*
X226350085Y-119508742D01*
X226350085Y-119508742D02*
X226407228Y-119480171D01*
X226407228Y-119480171D02*
X226435800Y-119451600D01*
X226435800Y-119451600D02*
X226464371Y-119394457D01*
X226464371Y-119394457D02*
X226464371Y-119280171D01*
X226464371Y-119280171D02*
X226435800Y-119223028D01*
X226435800Y-119223028D02*
X226407228Y-119194457D01*
X226407228Y-119194457D02*
X226350085Y-119165885D01*
X226350085Y-119165885D02*
X225864371Y-119165885D01*
X226064371Y-118623029D02*
X226464371Y-118623029D01*
X225835800Y-118765886D02*
X226264371Y-118908743D01*
X226264371Y-118908743D02*
X226264371Y-118537314D01*
X170934971Y-133430914D02*
X170649257Y-133630914D01*
X170934971Y-133773771D02*
X170334971Y-133773771D01*
X170334971Y-133773771D02*
X170334971Y-133545200D01*
X170334971Y-133545200D02*
X170363542Y-133488057D01*
X170363542Y-133488057D02*
X170392114Y-133459486D01*
X170392114Y-133459486D02*
X170449257Y-133430914D01*
X170449257Y-133430914D02*
X170534971Y-133430914D01*
X170534971Y-133430914D02*
X170592114Y-133459486D01*
X170592114Y-133459486D02*
X170620685Y-133488057D01*
X170620685Y-133488057D02*
X170649257Y-133545200D01*
X170649257Y-133545200D02*
X170649257Y-133773771D01*
X170334971Y-133230914D02*
X170334971Y-132859486D01*
X170334971Y-132859486D02*
X170563542Y-133059486D01*
X170563542Y-133059486D02*
X170563542Y-132973771D01*
X170563542Y-132973771D02*
X170592114Y-132916629D01*
X170592114Y-132916629D02*
X170620685Y-132888057D01*
X170620685Y-132888057D02*
X170677828Y-132859486D01*
X170677828Y-132859486D02*
X170820685Y-132859486D01*
X170820685Y-132859486D02*
X170877828Y-132888057D01*
X170877828Y-132888057D02*
X170906400Y-132916629D01*
X170906400Y-132916629D02*
X170934971Y-132973771D01*
X170934971Y-132973771D02*
X170934971Y-133145200D01*
X170934971Y-133145200D02*
X170906400Y-133202343D01*
X170906400Y-133202343D02*
X170877828Y-133230914D01*
X170392114Y-132630914D02*
X170363542Y-132602342D01*
X170363542Y-132602342D02*
X170334971Y-132545200D01*
X170334971Y-132545200D02*
X170334971Y-132402342D01*
X170334971Y-132402342D02*
X170363542Y-132345200D01*
X170363542Y-132345200D02*
X170392114Y-132316628D01*
X170392114Y-132316628D02*
X170449257Y-132288057D01*
X170449257Y-132288057D02*
X170506400Y-132288057D01*
X170506400Y-132288057D02*
X170592114Y-132316628D01*
X170592114Y-132316628D02*
X170934971Y-132659485D01*
X170934971Y-132659485D02*
X170934971Y-132288057D01*
X255622485Y-124287771D02*
X256022485Y-124887771D01*
X256022485Y-124287771D02*
X255622485Y-124887771D01*
X256565342Y-124887771D02*
X256222485Y-124887771D01*
X256393914Y-124887771D02*
X256393914Y-124287771D01*
X256393914Y-124287771D02*
X256336771Y-124373485D01*
X256336771Y-124373485D02*
X256279628Y-124430628D01*
X256279628Y-124430628D02*
X256222485Y-124459200D01*
X218799438Y-97796916D02*
X218742295Y-97768344D01*
X218742295Y-97768344D02*
X218685152Y-97711202D01*
X218685152Y-97711202D02*
X218599438Y-97625487D01*
X218599438Y-97625487D02*
X218542295Y-97596916D01*
X218542295Y-97596916D02*
X218485152Y-97596916D01*
X218513723Y-97739773D02*
X218456581Y-97711202D01*
X218456581Y-97711202D02*
X218399438Y-97654059D01*
X218399438Y-97654059D02*
X218370866Y-97539773D01*
X218370866Y-97539773D02*
X218370866Y-97339773D01*
X218370866Y-97339773D02*
X218399438Y-97225487D01*
X218399438Y-97225487D02*
X218456581Y-97168344D01*
X218456581Y-97168344D02*
X218513723Y-97139773D01*
X218513723Y-97139773D02*
X218628009Y-97139773D01*
X218628009Y-97139773D02*
X218685152Y-97168344D01*
X218685152Y-97168344D02*
X218742295Y-97225487D01*
X218742295Y-97225487D02*
X218770866Y-97339773D01*
X218770866Y-97339773D02*
X218770866Y-97539773D01*
X218770866Y-97539773D02*
X218742295Y-97654059D01*
X218742295Y-97654059D02*
X218685152Y-97711202D01*
X218685152Y-97711202D02*
X218628009Y-97739773D01*
X218628009Y-97739773D02*
X218513723Y-97739773D01*
X219285152Y-97339773D02*
X219285152Y-97739773D01*
X219142294Y-97111202D02*
X218999437Y-97539773D01*
X218999437Y-97539773D02*
X219370866Y-97539773D01*
X220182400Y-120027600D02*
X220210971Y-119941886D01*
X220210971Y-119941886D02*
X220210971Y-119799028D01*
X220210971Y-119799028D02*
X220182400Y-119741886D01*
X220182400Y-119741886D02*
X220153828Y-119713314D01*
X220153828Y-119713314D02*
X220096685Y-119684743D01*
X220096685Y-119684743D02*
X220039542Y-119684743D01*
X220039542Y-119684743D02*
X219982400Y-119713314D01*
X219982400Y-119713314D02*
X219953828Y-119741886D01*
X219953828Y-119741886D02*
X219925257Y-119799028D01*
X219925257Y-119799028D02*
X219896685Y-119913314D01*
X219896685Y-119913314D02*
X219868114Y-119970457D01*
X219868114Y-119970457D02*
X219839542Y-119999028D01*
X219839542Y-119999028D02*
X219782400Y-120027600D01*
X219782400Y-120027600D02*
X219725257Y-120027600D01*
X219725257Y-120027600D02*
X219668114Y-119999028D01*
X219668114Y-119999028D02*
X219639542Y-119970457D01*
X219639542Y-119970457D02*
X219610971Y-119913314D01*
X219610971Y-119913314D02*
X219610971Y-119770457D01*
X219610971Y-119770457D02*
X219639542Y-119684743D01*
X219610971Y-119484742D02*
X220210971Y-119341885D01*
X220210971Y-119341885D02*
X219782400Y-119227599D01*
X219782400Y-119227599D02*
X220210971Y-119113314D01*
X220210971Y-119113314D02*
X219610971Y-118970457D01*
X220210971Y-118713314D02*
X220210971Y-118599028D01*
X220210971Y-118599028D02*
X220182400Y-118541885D01*
X220182400Y-118541885D02*
X220153828Y-118513314D01*
X220153828Y-118513314D02*
X220068114Y-118456171D01*
X220068114Y-118456171D02*
X219953828Y-118427600D01*
X219953828Y-118427600D02*
X219725257Y-118427600D01*
X219725257Y-118427600D02*
X219668114Y-118456171D01*
X219668114Y-118456171D02*
X219639542Y-118484743D01*
X219639542Y-118484743D02*
X219610971Y-118541885D01*
X219610971Y-118541885D02*
X219610971Y-118656171D01*
X219610971Y-118656171D02*
X219639542Y-118713314D01*
X219639542Y-118713314D02*
X219668114Y-118741885D01*
X219668114Y-118741885D02*
X219725257Y-118770457D01*
X219725257Y-118770457D02*
X219868114Y-118770457D01*
X219868114Y-118770457D02*
X219925257Y-118741885D01*
X219925257Y-118741885D02*
X219953828Y-118713314D01*
X219953828Y-118713314D02*
X219982400Y-118656171D01*
X219982400Y-118656171D02*
X219982400Y-118541885D01*
X219982400Y-118541885D02*
X219953828Y-118484743D01*
X219953828Y-118484743D02*
X219925257Y-118456171D01*
X219925257Y-118456171D02*
X219868114Y-118427600D01*
X230337955Y-97437503D02*
X230337955Y-98037503D01*
X230337955Y-98037503D02*
X230195098Y-98037503D01*
X230195098Y-98037503D02*
X230109384Y-98008932D01*
X230109384Y-98008932D02*
X230052241Y-97951789D01*
X230052241Y-97951789D02*
X230023670Y-97894646D01*
X230023670Y-97894646D02*
X229995098Y-97780360D01*
X229995098Y-97780360D02*
X229995098Y-97694646D01*
X229995098Y-97694646D02*
X230023670Y-97580360D01*
X230023670Y-97580360D02*
X230052241Y-97523217D01*
X230052241Y-97523217D02*
X230109384Y-97466075D01*
X230109384Y-97466075D02*
X230195098Y-97437503D01*
X230195098Y-97437503D02*
X230337955Y-97437503D01*
X229709384Y-97437503D02*
X229595098Y-97437503D01*
X229595098Y-97437503D02*
X229537955Y-97466075D01*
X229537955Y-97466075D02*
X229509384Y-97494646D01*
X229509384Y-97494646D02*
X229452241Y-97580360D01*
X229452241Y-97580360D02*
X229423670Y-97694646D01*
X229423670Y-97694646D02*
X229423670Y-97923217D01*
X229423670Y-97923217D02*
X229452241Y-97980360D01*
X229452241Y-97980360D02*
X229480813Y-98008932D01*
X229480813Y-98008932D02*
X229537955Y-98037503D01*
X229537955Y-98037503D02*
X229652241Y-98037503D01*
X229652241Y-98037503D02*
X229709384Y-98008932D01*
X229709384Y-98008932D02*
X229737955Y-97980360D01*
X229737955Y-97980360D02*
X229766527Y-97923217D01*
X229766527Y-97923217D02*
X229766527Y-97780360D01*
X229766527Y-97780360D02*
X229737955Y-97723217D01*
X229737955Y-97723217D02*
X229709384Y-97694646D01*
X229709384Y-97694646D02*
X229652241Y-97666075D01*
X229652241Y-97666075D02*
X229537955Y-97666075D01*
X229537955Y-97666075D02*
X229480813Y-97694646D01*
X229480813Y-97694646D02*
X229452241Y-97723217D01*
X229452241Y-97723217D02*
X229423670Y-97780360D01*
X239355256Y-110319228D02*
X239355256Y-110919228D01*
X239355256Y-110919228D02*
X239212399Y-110919228D01*
X239212399Y-110919228D02*
X239126685Y-110890657D01*
X239126685Y-110890657D02*
X239069542Y-110833514D01*
X239069542Y-110833514D02*
X239040971Y-110776371D01*
X239040971Y-110776371D02*
X239012399Y-110662085D01*
X239012399Y-110662085D02*
X239012399Y-110576371D01*
X239012399Y-110576371D02*
X239040971Y-110462085D01*
X239040971Y-110462085D02*
X239069542Y-110404942D01*
X239069542Y-110404942D02*
X239126685Y-110347800D01*
X239126685Y-110347800D02*
X239212399Y-110319228D01*
X239212399Y-110319228D02*
X239355256Y-110319228D01*
X238498114Y-110719228D02*
X238498114Y-110319228D01*
X238640971Y-110947800D02*
X238783828Y-110519228D01*
X238783828Y-110519228D02*
X238412399Y-110519228D01*
X216765200Y-142334571D02*
X216479486Y-142334571D01*
X216479486Y-142334571D02*
X216479486Y-141734571D01*
X217222343Y-141734571D02*
X217108057Y-141734571D01*
X217108057Y-141734571D02*
X217050914Y-141763142D01*
X217050914Y-141763142D02*
X217022343Y-141791714D01*
X217022343Y-141791714D02*
X216965200Y-141877428D01*
X216965200Y-141877428D02*
X216936628Y-141991714D01*
X216936628Y-141991714D02*
X216936628Y-142220285D01*
X216936628Y-142220285D02*
X216965200Y-142277428D01*
X216965200Y-142277428D02*
X216993771Y-142306000D01*
X216993771Y-142306000D02*
X217050914Y-142334571D01*
X217050914Y-142334571D02*
X217165200Y-142334571D01*
X217165200Y-142334571D02*
X217222343Y-142306000D01*
X217222343Y-142306000D02*
X217250914Y-142277428D01*
X217250914Y-142277428D02*
X217279485Y-142220285D01*
X217279485Y-142220285D02*
X217279485Y-142077428D01*
X217279485Y-142077428D02*
X217250914Y-142020285D01*
X217250914Y-142020285D02*
X217222343Y-141991714D01*
X217222343Y-141991714D02*
X217165200Y-141963142D01*
X217165200Y-141963142D02*
X217050914Y-141963142D01*
X217050914Y-141963142D02*
X216993771Y-141991714D01*
X216993771Y-141991714D02*
X216965200Y-142020285D01*
X216965200Y-142020285D02*
X216936628Y-142077428D01*
X246935685Y-115905771D02*
X247335685Y-116505771D01*
X247335685Y-115905771D02*
X246935685Y-116505771D01*
X247821400Y-115905771D02*
X247707114Y-115905771D01*
X247707114Y-115905771D02*
X247649971Y-115934342D01*
X247649971Y-115934342D02*
X247621400Y-115962914D01*
X247621400Y-115962914D02*
X247564257Y-116048628D01*
X247564257Y-116048628D02*
X247535685Y-116162914D01*
X247535685Y-116162914D02*
X247535685Y-116391485D01*
X247535685Y-116391485D02*
X247564257Y-116448628D01*
X247564257Y-116448628D02*
X247592828Y-116477200D01*
X247592828Y-116477200D02*
X247649971Y-116505771D01*
X247649971Y-116505771D02*
X247764257Y-116505771D01*
X247764257Y-116505771D02*
X247821400Y-116477200D01*
X247821400Y-116477200D02*
X247849971Y-116448628D01*
X247849971Y-116448628D02*
X247878542Y-116391485D01*
X247878542Y-116391485D02*
X247878542Y-116248628D01*
X247878542Y-116248628D02*
X247849971Y-116191485D01*
X247849971Y-116191485D02*
X247821400Y-116162914D01*
X247821400Y-116162914D02*
X247764257Y-116134342D01*
X247764257Y-116134342D02*
X247649971Y-116134342D01*
X247649971Y-116134342D02*
X247592828Y-116162914D01*
X247592828Y-116162914D02*
X247564257Y-116191485D01*
X247564257Y-116191485D02*
X247535685Y-116248628D01*
X217807571Y-108457942D02*
X218293285Y-108457942D01*
X218293285Y-108457942D02*
X218350428Y-108429371D01*
X218350428Y-108429371D02*
X218379000Y-108400800D01*
X218379000Y-108400800D02*
X218407571Y-108343657D01*
X218407571Y-108343657D02*
X218407571Y-108229371D01*
X218407571Y-108229371D02*
X218379000Y-108172228D01*
X218379000Y-108172228D02*
X218350428Y-108143657D01*
X218350428Y-108143657D02*
X218293285Y-108115085D01*
X218293285Y-108115085D02*
X217807571Y-108115085D01*
X218407571Y-107800800D02*
X218407571Y-107686514D01*
X218407571Y-107686514D02*
X218379000Y-107629371D01*
X218379000Y-107629371D02*
X218350428Y-107600800D01*
X218350428Y-107600800D02*
X218264714Y-107543657D01*
X218264714Y-107543657D02*
X218150428Y-107515086D01*
X218150428Y-107515086D02*
X217921857Y-107515086D01*
X217921857Y-107515086D02*
X217864714Y-107543657D01*
X217864714Y-107543657D02*
X217836142Y-107572229D01*
X217836142Y-107572229D02*
X217807571Y-107629371D01*
X217807571Y-107629371D02*
X217807571Y-107743657D01*
X217807571Y-107743657D02*
X217836142Y-107800800D01*
X217836142Y-107800800D02*
X217864714Y-107829371D01*
X217864714Y-107829371D02*
X217921857Y-107857943D01*
X217921857Y-107857943D02*
X218064714Y-107857943D01*
X218064714Y-107857943D02*
X218121857Y-107829371D01*
X218121857Y-107829371D02*
X218150428Y-107800800D01*
X218150428Y-107800800D02*
X218179000Y-107743657D01*
X218179000Y-107743657D02*
X218179000Y-107629371D01*
X218179000Y-107629371D02*
X218150428Y-107572229D01*
X218150428Y-107572229D02*
X218121857Y-107543657D01*
X218121857Y-107543657D02*
X218064714Y-107515086D01*
D11*
%TO.C,R39*%
X271314343Y-135316789D02*
X271007061Y-135316789D01*
X271314343Y-134556789D02*
X271007061Y-134556789D01*
D12*
%TO.C,REF\u002A\u002A*%
X206623745Y-99879810D02*
X206623745Y-102582261D01*
X201224370Y-102582261D01*
X199373485Y-100756988D01*
X199373485Y-97569740D01*
X204341307Y-97569740D01*
X206623745Y-99879810D01*
D11*
%TO.C,C4*%
X233449800Y-122562252D02*
X233449800Y-122039748D01*
X231979800Y-122562252D02*
X231979800Y-122039748D01*
%TO.C,R35*%
X268502400Y-128017241D02*
X268502400Y-127709959D01*
X267742400Y-128017241D02*
X267742400Y-127709959D01*
%TO.C,R1*%
X177951159Y-127583200D02*
X178258441Y-127583200D01*
X177951159Y-126823200D02*
X178258441Y-126823200D01*
%TO.C,C26*%
X280012993Y-138207794D02*
X279797321Y-138207794D01*
X280012993Y-137487794D02*
X279797321Y-137487794D01*
%TO.C,R5*%
X230734841Y-102488000D02*
X230427559Y-102488000D01*
X230734841Y-101728000D02*
X230427559Y-101728000D01*
%TO.C,C27*%
X277272636Y-138282000D02*
X277056964Y-138282000D01*
X277272636Y-137562000D02*
X277056964Y-137562000D01*
%TO.C,R38*%
X241197400Y-98248441D02*
X241197400Y-97941159D01*
X240437400Y-98248441D02*
X240437400Y-97941159D01*
%TO.C,C33*%
X164862164Y-137530000D02*
X165077836Y-137530000D01*
X164862164Y-136810000D02*
X165077836Y-136810000D01*
%TO.C,J8*%
X256517200Y-132835200D02*
X256517200Y-130715200D01*
X254457200Y-132835200D02*
X256517200Y-132835200D01*
X254457200Y-132835200D02*
X254457200Y-130715200D01*
X254457200Y-130715200D02*
X256517200Y-130715200D01*
X253457200Y-132835200D02*
X252397200Y-132835200D01*
X252397200Y-132835200D02*
X252397200Y-131775200D01*
%TO.C,L5*%
X229953452Y-123893600D02*
X229430948Y-123893600D01*
X229953452Y-121673600D02*
X229430948Y-121673600D01*
%TO.C,C15*%
X230966600Y-105317236D02*
X230966600Y-105101564D01*
X230246600Y-105317236D02*
X230246600Y-105101564D01*
%TO.C,D7*%
X168086000Y-136540800D02*
X166126000Y-136540800D01*
X168086000Y-135340800D02*
X166126000Y-135340800D01*
X166126000Y-135340800D02*
X166126000Y-136540800D01*
%TO.C,R12*%
X228497159Y-107669600D02*
X228804441Y-107669600D01*
X228497159Y-106909600D02*
X228804441Y-106909600D01*
%TO.C,R41*%
X280033759Y-135762000D02*
X280341041Y-135762000D01*
X280033759Y-135002000D02*
X280341041Y-135002000D01*
%TO.C,C11*%
X215753836Y-108910000D02*
X215538164Y-108910000D01*
X215753836Y-108190000D02*
X215538164Y-108190000D01*
%TO.C,Q5*%
X169476600Y-135281400D02*
X168996600Y-135281400D01*
X169236600Y-134951400D01*
X169476600Y-135281400D01*
G36*
X169476600Y-135281400D02*
G01*
X168996600Y-135281400D01*
X169236600Y-134951400D01*
X169476600Y-135281400D01*
G37*
X168074100Y-135001400D02*
X168724100Y-135001400D01*
X168074100Y-135001400D02*
X167424100Y-135001400D01*
X168074100Y-131881400D02*
X168724100Y-131881400D01*
X168074100Y-131881400D02*
X167424100Y-131881400D01*
%TO.C,C3*%
X229076727Y-98688328D02*
X225166727Y-98688328D01*
X225166727Y-100558328D02*
X229076727Y-100558328D01*
X225166727Y-98688328D02*
X225166727Y-100558328D01*
%TO.C,R34*%
X267486400Y-127709959D02*
X267486400Y-128017241D01*
X266726400Y-127709959D02*
X266726400Y-128017241D01*
%TO.C,R3*%
X230044592Y-116868984D02*
X229737310Y-116868984D01*
X230044592Y-116108984D02*
X229737310Y-116108984D01*
%TO.C,R37*%
X240193091Y-97930404D02*
X240193091Y-98237686D01*
X239433091Y-97930404D02*
X239433091Y-98237686D01*
%TO.C,C32*%
X170872164Y-136710000D02*
X171087836Y-136710000D01*
X170872164Y-135990000D02*
X171087836Y-135990000D01*
%TO.C,C8*%
X218448895Y-102988684D02*
X218233223Y-102988684D01*
X218448895Y-102268684D02*
X218233223Y-102268684D01*
%TO.C,D14*%
X280565200Y-137226257D02*
X278605200Y-137226257D01*
X280565200Y-136026257D02*
X278605200Y-136026257D01*
X278605200Y-136026257D02*
X278605200Y-137226257D01*
%TO.C,R25*%
X222244119Y-100199463D02*
X221936837Y-100199463D01*
X222244119Y-99439463D02*
X221936837Y-99439463D01*
%TO.C,C5*%
X228281301Y-101528332D02*
X228281301Y-101744004D01*
X227561301Y-101528332D02*
X227561301Y-101744004D01*
%TO.C,R36*%
X189584600Y-98121441D02*
X189584600Y-97814159D01*
X188824600Y-98121441D02*
X188824600Y-97814159D01*
%TO.C,C23*%
X227455400Y-122776348D02*
X227455400Y-123298852D01*
X225985400Y-122776348D02*
X225985400Y-123298852D01*
%TO.C,R11*%
X208914000Y-133654994D02*
X208914000Y-133347712D01*
X208154000Y-133654994D02*
X208154000Y-133347712D01*
%TO.C,R4*%
X190613710Y-97816175D02*
X190613710Y-98123457D01*
X189853710Y-97816175D02*
X189853710Y-98123457D01*
D13*
%TO.C,SW7*%
X171980800Y-100016937D02*
X170775934Y-97932048D01*
X165823360Y-103571937D02*
X171980800Y-100016937D01*
X164618494Y-101487048D02*
X165819994Y-103568107D01*
D11*
%TO.C,R33*%
X163780441Y-134974600D02*
X163473159Y-134974600D01*
X163780441Y-134214600D02*
X163473159Y-134214600D01*
%TO.C,D6*%
X165954000Y-133183400D02*
X165954000Y-135143400D01*
X164754000Y-135143400D02*
X165954000Y-135143400D01*
X164754000Y-133183400D02*
X164754000Y-135143400D01*
D13*
%TO.C,SW8*%
X271145686Y-103572937D02*
X272348820Y-101487048D01*
X266191380Y-97932048D02*
X264989880Y-100013107D01*
X264988246Y-100017937D02*
X271145686Y-103572937D01*
D11*
%TO.C,D16*%
X276658722Y-139752065D02*
X276658722Y-138552065D01*
X274698722Y-139752065D02*
X276658722Y-139752065D01*
X274698722Y-138552065D02*
X276658722Y-138552065D01*
D14*
%TO.C,SW17*%
X216021157Y-114266400D02*
G75*
G02*
X215821157Y-114266400I-100000J0D01*
G01*
X215821157Y-114266400D02*
G75*
G02*
X216021157Y-114266400I100000J0D01*
G01*
D13*
X216596157Y-120766400D02*
X216596157Y-116266400D01*
X215226157Y-115966400D02*
X212866157Y-115966400D01*
X212866157Y-121066400D02*
X215226157Y-121066400D01*
X211496157Y-120766400D02*
X211496157Y-116266400D01*
D11*
%TO.C,C6*%
X218453969Y-103970480D02*
X218238297Y-103970480D01*
X218453969Y-103250480D02*
X218238297Y-103250480D01*
%TO.C,Q6*%
X271678300Y-136844800D02*
X271348300Y-136604800D01*
X271678300Y-136364800D01*
X271678300Y-136844800D01*
G36*
X271678300Y-136844800D02*
G01*
X271348300Y-136604800D01*
X271678300Y-136364800D01*
X271678300Y-136844800D01*
G37*
X271398300Y-137767300D02*
X271398300Y-138417300D01*
X271398300Y-137767300D02*
X271398300Y-137117300D01*
X268278300Y-137767300D02*
X268278300Y-138417300D01*
X268278300Y-137767300D02*
X268278300Y-137117300D01*
%TO.C,R28*%
X223548333Y-97748373D02*
X223241051Y-97748373D01*
X223548333Y-96988373D02*
X223241051Y-96988373D01*
%TO.C,R10*%
X215975200Y-111888241D02*
X215975200Y-111580959D01*
X215215200Y-111888241D02*
X215215200Y-111580959D01*
%TO.C,X3*%
X261985800Y-109601000D02*
G75*
G02*
X260085800Y-109601000I-950000J0D01*
G01*
X260085800Y-109601000D02*
G75*
G02*
X261985800Y-109601000I950000J0D01*
G01*
%TO.C,D13*%
X210908400Y-136620900D02*
X210668400Y-136290900D01*
X211148400Y-136290900D01*
X210908400Y-136620900D01*
G36*
X210908400Y-136620900D02*
G01*
X210668400Y-136290900D01*
X211148400Y-136290900D01*
X210908400Y-136620900D01*
G37*
X211288400Y-138890900D02*
X212688400Y-138890900D01*
X211278400Y-136570900D02*
X212688400Y-136570900D01*
%TO.C,U8*%
X219874800Y-111018100D02*
X219544800Y-111258100D01*
X219544800Y-110778100D01*
X219874800Y-111018100D01*
G36*
X219874800Y-111018100D02*
G01*
X219544800Y-111258100D01*
X219544800Y-110778100D01*
X219874800Y-111018100D01*
G37*
X227094800Y-111018100D02*
X226444800Y-111018100D01*
X227094800Y-110368100D02*
X227094800Y-111018100D01*
X227094800Y-104448100D02*
X227094800Y-103798100D01*
X227094800Y-103798100D02*
X226444800Y-103798100D01*
X220524800Y-111018100D02*
X220114800Y-111018100D01*
X219874800Y-110368100D02*
X219874800Y-110718100D01*
X219874800Y-104448100D02*
X219874800Y-103798100D01*
X219874800Y-103798100D02*
X220524800Y-103798100D01*
%TO.C,X2*%
X256372400Y-111302800D02*
G75*
G02*
X254472400Y-111302800I-950000J0D01*
G01*
X254472400Y-111302800D02*
G75*
G02*
X256372400Y-111302800I950000J0D01*
G01*
%TO.C,X5*%
X239252800Y-121996200D02*
G75*
G02*
X237352800Y-121996200I-950000J0D01*
G01*
X237352800Y-121996200D02*
G75*
G02*
X239252800Y-121996200I950000J0D01*
G01*
%TO.C,R40*%
X270051800Y-134339359D02*
X270051800Y-134646641D01*
X269291800Y-134339359D02*
X269291800Y-134646641D01*
%TO.C,J4*%
X279440200Y-143135800D02*
X279440200Y-144195800D01*
X278380200Y-143135800D02*
X279440200Y-143135800D01*
X277380200Y-145255800D02*
X267320200Y-145255800D01*
X277380200Y-143135800D02*
X277380200Y-145255800D01*
X277380200Y-143135800D02*
X267320200Y-143135800D01*
X267320200Y-143135800D02*
X267320200Y-145255800D01*
%TO.C,D3*%
X165953600Y-136540800D02*
X165953600Y-135340800D01*
X163993600Y-136540800D02*
X165953600Y-136540800D01*
X163993600Y-135340800D02*
X165953600Y-135340800D01*
%TO.C,D8*%
X183954400Y-132972000D02*
X183624400Y-133212000D01*
X183624400Y-132732000D01*
X183954400Y-132972000D01*
G36*
X183954400Y-132972000D02*
G01*
X183624400Y-133212000D01*
X183624400Y-132732000D01*
X183954400Y-132972000D01*
G37*
X186224400Y-132592000D02*
X186224400Y-131192000D01*
X183904400Y-132602000D02*
X183904400Y-131192000D01*
%TO.C,C10*%
X218243371Y-104954813D02*
X218459043Y-104954813D01*
X218243371Y-104234813D02*
X218459043Y-104234813D01*
%TO.C,J9*%
X177015200Y-137407200D02*
X177015200Y-135287200D01*
X174955200Y-137407200D02*
X177015200Y-137407200D01*
X174955200Y-137407200D02*
X174955200Y-135287200D01*
X174955200Y-135287200D02*
X177015200Y-135287200D01*
X173955200Y-137407200D02*
X172895200Y-137407200D01*
X172895200Y-137407200D02*
X172895200Y-136347200D01*
%TO.C,U6*%
X193824700Y-117995800D02*
X193584700Y-117665800D01*
X194064700Y-117665800D01*
X193824700Y-117995800D01*
G36*
X193824700Y-117995800D02*
G01*
X193584700Y-117665800D01*
X194064700Y-117665800D01*
X193824700Y-117995800D01*
G37*
X196037200Y-121040800D02*
X197537200Y-121040800D01*
X196037200Y-121040800D02*
X194537200Y-121040800D01*
X196037200Y-117820800D02*
X197537200Y-117820800D01*
X196037200Y-117820800D02*
X194537200Y-117820800D01*
%TO.C,D5*%
X240897800Y-107535800D02*
X240417800Y-107535800D01*
X240657800Y-107205800D01*
X240897800Y-107535800D01*
G36*
X240897800Y-107535800D02*
G01*
X240417800Y-107535800D01*
X240657800Y-107205800D01*
X240897800Y-107535800D01*
G37*
X240287800Y-107255800D02*
X238877800Y-107255800D01*
X240277800Y-104935800D02*
X238877800Y-104935800D01*
D14*
%TO.C,SW5*%
X222833657Y-138353800D02*
G75*
G02*
X222633657Y-138353800I-100000J0D01*
G01*
X222633657Y-138353800D02*
G75*
G02*
X222833657Y-138353800I100000J0D01*
G01*
D13*
X221033657Y-137658800D02*
X221033657Y-135298800D01*
X216233657Y-139028800D02*
X220733657Y-139028800D01*
X216233657Y-133928800D02*
X220733657Y-133928800D01*
X215933657Y-135298800D02*
X215933657Y-137658800D01*
D11*
%TO.C,R2*%
X188492400Y-115926841D02*
X188492400Y-115619559D01*
X187732400Y-115926841D02*
X187732400Y-115619559D01*
%TO.C,D15*%
X279238790Y-139740649D02*
X279238790Y-138540649D01*
X277278790Y-139740649D02*
X279238790Y-139740649D01*
X277278790Y-138540649D02*
X279238790Y-138540649D01*
%TO.C,Y1*%
X235279200Y-108908600D02*
X235279200Y-104908600D01*
X231979200Y-108908600D02*
X235279200Y-108908600D01*
%TO.C,D12*%
X210908400Y-133761000D02*
X210668400Y-133431000D01*
X211148400Y-133431000D01*
X210908400Y-133761000D01*
G36*
X210908400Y-133761000D02*
G01*
X210668400Y-133431000D01*
X211148400Y-133431000D01*
X210908400Y-133761000D01*
G37*
X211288400Y-136031000D02*
X212688400Y-136031000D01*
X211278400Y-133711000D02*
X212688400Y-133711000D01*
%TO.C,C1*%
X177450533Y-128983200D02*
X177743067Y-128983200D01*
X177450533Y-127963200D02*
X177743067Y-127963200D01*
%TO.C,X4*%
X250301800Y-106248200D02*
G75*
G02*
X248401800Y-106248200I-950000J0D01*
G01*
X248401800Y-106248200D02*
G75*
G02*
X250301800Y-106248200I950000J0D01*
G01*
D14*
%TO.C,SW18*%
X221146157Y-131641400D02*
G75*
G02*
X220946157Y-131641400I-100000J0D01*
G01*
X220946157Y-131641400D02*
G75*
G02*
X221146157Y-131641400I100000J0D01*
G01*
D13*
X225471157Y-125141400D02*
X225471157Y-129641400D01*
X224101157Y-124841400D02*
X221741157Y-124841400D01*
X221741157Y-129941400D02*
X224101157Y-129941400D01*
X220371157Y-125141400D02*
X220371157Y-129641400D01*
D11*
%TO.C,C7*%
X218649436Y-102010800D02*
X218433764Y-102010800D01*
X218649436Y-101290800D02*
X218433764Y-101290800D01*
%TO.C,C25*%
X271030034Y-134297869D02*
X271245706Y-134297869D01*
X271030034Y-133577869D02*
X271245706Y-133577869D01*
%TO.C,D10*%
X224953924Y-97938331D02*
X224953924Y-101198331D01*
X224953924Y-97938331D02*
X223253924Y-97938331D01*
X223253924Y-97938331D02*
X223253924Y-101198331D01*
%TO.C,TP5*%
X185608000Y-97891600D02*
G75*
G02*
X183708000Y-97891600I-950000J0D01*
G01*
X183708000Y-97891600D02*
G75*
G02*
X185608000Y-97891600I950000J0D01*
G01*
%TO.C,C2*%
X189892400Y-116579867D02*
X189892400Y-116287333D01*
X188872400Y-116579867D02*
X188872400Y-116287333D01*
%TO.C,C34*%
X167052164Y-137530000D02*
X167267836Y-137530000D01*
X167052164Y-136810000D02*
X167267836Y-136810000D01*
D14*
%TO.C,SW19*%
X216021157Y-123141400D02*
G75*
G02*
X215821157Y-123141400I-100000J0D01*
G01*
X215821157Y-123141400D02*
G75*
G02*
X216021157Y-123141400I100000J0D01*
G01*
D13*
X216596157Y-129641400D02*
X216596157Y-125141400D01*
X215226157Y-124841400D02*
X212866157Y-124841400D01*
X212866157Y-129941400D02*
X215226157Y-129941400D01*
X211496157Y-129641400D02*
X211496157Y-125141400D01*
D11*
%TO.C,D11*%
X186850000Y-131585200D02*
X186520000Y-131825200D01*
X186520000Y-131345200D01*
X186850000Y-131585200D01*
G36*
X186850000Y-131585200D02*
G01*
X186520000Y-131825200D01*
X186520000Y-131345200D01*
X186850000Y-131585200D01*
G37*
X189120000Y-131205200D02*
X189120000Y-129805200D01*
X186800000Y-131215200D02*
X186800000Y-129805200D01*
%TO.C,C24*%
X228637687Y-115859577D02*
X228853359Y-115859577D01*
X228637687Y-115139577D02*
X228853359Y-115139577D01*
%TO.C,C14*%
X230941200Y-107638964D02*
X230941200Y-107854636D01*
X230221200Y-107638964D02*
X230221200Y-107854636D01*
D10*
%TO.C,J2*%
X228357400Y-128784200D02*
G75*
G02*
X228257400Y-128784200I-50000J0D01*
G01*
X228257400Y-128784200D02*
G75*
G02*
X228357400Y-128784200I50000J0D01*
G01*
D14*
X232457400Y-129184200D02*
X232457400Y-125984200D01*
X228857400Y-129934200D02*
X231057400Y-129934200D01*
X228857400Y-129384200D02*
X228857400Y-129934200D01*
X228857400Y-125984200D02*
X228857400Y-125234200D01*
X228857400Y-125234200D02*
X231057400Y-125234200D01*
D10*
X228357400Y-128784200D02*
X228357400Y-128784200D01*
X228257400Y-128784200D02*
X228257400Y-128784200D01*
D11*
%TO.C,C9*%
X216608663Y-107916162D02*
X216824335Y-107916162D01*
X216608663Y-107196162D02*
X216824335Y-107196162D01*
%TO.C,R31*%
X171153641Y-137720000D02*
X170846359Y-137720000D01*
X171153641Y-136960000D02*
X170846359Y-136960000D01*
D14*
%TO.C,U4*%
X227525400Y-121368600D02*
G75*
G02*
X227325400Y-121368600I-100000J0D01*
G01*
X227325400Y-121368600D02*
G75*
G02*
X227525400Y-121368600I100000J0D01*
G01*
D13*
X230125400Y-120473600D02*
X230125400Y-119668600D01*
X230125400Y-118278600D02*
X230125400Y-117473600D01*
X227125400Y-120473600D02*
X227125400Y-119668600D01*
X227125400Y-118278600D02*
X227125400Y-117473600D01*
D11*
%TO.C,R32*%
X170915600Y-135053041D02*
X170915600Y-134745759D01*
X170155600Y-135053041D02*
X170155600Y-134745759D01*
%TO.C,X1*%
X257058200Y-126263400D02*
G75*
G02*
X255158200Y-126263400I-950000J0D01*
G01*
X255158200Y-126263400D02*
G75*
G02*
X257058200Y-126263400I950000J0D01*
G01*
%TO.C,Q4*%
X219768400Y-98768400D02*
X219438400Y-99008400D01*
X219438400Y-98528400D01*
X219768400Y-98768400D01*
G36*
X219768400Y-98768400D02*
G01*
X219438400Y-99008400D01*
X219438400Y-98528400D01*
X219768400Y-98768400D01*
G37*
X222038400Y-98388400D02*
X222038400Y-96988400D01*
X219718400Y-98398400D02*
X219718400Y-96988400D01*
D14*
%TO.C,SW9*%
X221146157Y-122766400D02*
G75*
G02*
X220946157Y-122766400I-100000J0D01*
G01*
X220946157Y-122766400D02*
G75*
G02*
X221146157Y-122766400I100000J0D01*
G01*
D13*
X225471157Y-116266400D02*
X225471157Y-120766400D01*
X224101157Y-115966400D02*
X221741157Y-115966400D01*
X221741157Y-121066400D02*
X224101157Y-121066400D01*
X220371157Y-116266400D02*
X220371157Y-120766400D01*
D11*
%TO.C,D9*%
X229168172Y-98427086D02*
X229168172Y-96727086D01*
X229168172Y-98427086D02*
X225908172Y-98427086D01*
X229168172Y-96727086D02*
X225908172Y-96727086D01*
%TO.C,D4*%
X240080000Y-110395600D02*
X239600000Y-110395600D01*
X239840000Y-110065600D01*
X240080000Y-110395600D01*
G36*
X240080000Y-110395600D02*
G01*
X239600000Y-110395600D01*
X239840000Y-110065600D01*
X240080000Y-110395600D01*
G37*
X239470000Y-110115600D02*
X238060000Y-110115600D01*
X239460000Y-107795600D02*
X238060000Y-107795600D01*
%TO.C,L6*%
X217111391Y-144087600D02*
G75*
G02*
X216807923Y-144087600I-151734J0D01*
G01*
X216807923Y-144087600D02*
G75*
G02*
X217111391Y-144087600I151734J0D01*
G01*
X219499657Y-143579600D02*
X217467657Y-143579600D01*
X219499657Y-141547600D02*
X219499657Y-143579600D01*
X217467657Y-143579600D02*
X217467657Y-141547600D01*
X217467657Y-141547600D02*
X219499657Y-141547600D01*
%TO.C,X6*%
X248371400Y-117881400D02*
G75*
G02*
X246471400Y-117881400I-950000J0D01*
G01*
X246471400Y-117881400D02*
G75*
G02*
X248371400Y-117881400I950000J0D01*
G01*
D10*
%TO.C,U9*%
X216596378Y-112052808D02*
G75*
G02*
X216142008Y-112052808I-227185J0D01*
G01*
X216142008Y-112052808D02*
G75*
G02*
X216596378Y-112052808I227185J0D01*
G01*
X216673993Y-111748008D02*
X218705993Y-111748008D01*
X218705993Y-108700008D01*
X216673993Y-108700008D01*
X216673993Y-111748008D01*
%TD*%
M02*
