%TF.GenerationSoftware,KiCad,Pcbnew,8.0.2*%
%TF.CreationDate,2024-10-28T19:38:45-07:00*%
%TF.ProjectId,UGC_OpenMain,5547435f-4f70-4656-9e4d-61696e2e6b69,rev?*%
%TF.SameCoordinates,Original*%
%TF.FileFunction,Legend,Bot*%
%TF.FilePolarity,Positive*%
%FSLAX46Y46*%
G04 Gerber Fmt 4.6, Leading zero omitted, Abs format (unit mm)*
G04 Created by KiCad (PCBNEW 8.0.2) date 2024-10-28 19:38:45*
%MOMM*%
%LPD*%
G01*
G04 APERTURE LIST*
%ADD10C,0.120000*%
%ADD11C,0.175000*%
%ADD12C,0.150000*%
%ADD13C,0.254000*%
%ADD14C,0.125000*%
%ADD15C,0.200000*%
%ADD16C,0.127000*%
%ADD17C,0.100000*%
G04 APERTURE END LIST*
D10*
X213983657Y-94488000D02*
X213983657Y-97790000D01*
X222983657Y-94488000D02*
X222983657Y-98044000D01*
D11*
X235002645Y-96957150D02*
X235069312Y-96923817D01*
X235069312Y-96923817D02*
X235169312Y-96923817D01*
X235169312Y-96923817D02*
X235269312Y-96957150D01*
X235269312Y-96957150D02*
X235335979Y-97023817D01*
X235335979Y-97023817D02*
X235369312Y-97090484D01*
X235369312Y-97090484D02*
X235402645Y-97223817D01*
X235402645Y-97223817D02*
X235402645Y-97323817D01*
X235402645Y-97323817D02*
X235369312Y-97457150D01*
X235369312Y-97457150D02*
X235335979Y-97523817D01*
X235335979Y-97523817D02*
X235269312Y-97590484D01*
X235269312Y-97590484D02*
X235169312Y-97623817D01*
X235169312Y-97623817D02*
X235102645Y-97623817D01*
X235102645Y-97623817D02*
X235002645Y-97590484D01*
X235002645Y-97590484D02*
X234969312Y-97557150D01*
X234969312Y-97557150D02*
X234969312Y-97323817D01*
X234969312Y-97323817D02*
X235102645Y-97323817D01*
X233235979Y-96957150D02*
X233302646Y-96923817D01*
X233302646Y-96923817D02*
X233402646Y-96923817D01*
X233402646Y-96923817D02*
X233502646Y-96957150D01*
X233502646Y-96957150D02*
X233569313Y-97023817D01*
X233569313Y-97023817D02*
X233602646Y-97090484D01*
X233602646Y-97090484D02*
X233635979Y-97223817D01*
X233635979Y-97223817D02*
X233635979Y-97323817D01*
X233635979Y-97323817D02*
X233602646Y-97457150D01*
X233602646Y-97457150D02*
X233569313Y-97523817D01*
X233569313Y-97523817D02*
X233502646Y-97590484D01*
X233502646Y-97590484D02*
X233402646Y-97623817D01*
X233402646Y-97623817D02*
X233335979Y-97623817D01*
X233335979Y-97623817D02*
X233235979Y-97590484D01*
X233235979Y-97590484D02*
X233202646Y-97557150D01*
X233202646Y-97557150D02*
X233202646Y-97323817D01*
X233202646Y-97323817D02*
X233335979Y-97323817D01*
X231469313Y-96957150D02*
X231535980Y-96923817D01*
X231535980Y-96923817D02*
X231635980Y-96923817D01*
X231635980Y-96923817D02*
X231735980Y-96957150D01*
X231735980Y-96957150D02*
X231802647Y-97023817D01*
X231802647Y-97023817D02*
X231835980Y-97090484D01*
X231835980Y-97090484D02*
X231869313Y-97223817D01*
X231869313Y-97223817D02*
X231869313Y-97323817D01*
X231869313Y-97323817D02*
X231835980Y-97457150D01*
X231835980Y-97457150D02*
X231802647Y-97523817D01*
X231802647Y-97523817D02*
X231735980Y-97590484D01*
X231735980Y-97590484D02*
X231635980Y-97623817D01*
X231635980Y-97623817D02*
X231569313Y-97623817D01*
X231569313Y-97623817D02*
X231469313Y-97590484D01*
X231469313Y-97590484D02*
X231435980Y-97557150D01*
X231435980Y-97557150D02*
X231435980Y-97323817D01*
X231435980Y-97323817D02*
X231569313Y-97323817D01*
X229535981Y-97623817D02*
X229535981Y-96923817D01*
X229535981Y-96923817D02*
X229369314Y-96923817D01*
X229369314Y-96923817D02*
X229269314Y-96957150D01*
X229269314Y-96957150D02*
X229202648Y-97023817D01*
X229202648Y-97023817D02*
X229169314Y-97090484D01*
X229169314Y-97090484D02*
X229135981Y-97223817D01*
X229135981Y-97223817D02*
X229135981Y-97323817D01*
X229135981Y-97323817D02*
X229169314Y-97457150D01*
X229169314Y-97457150D02*
X229202648Y-97523817D01*
X229202648Y-97523817D02*
X229269314Y-97590484D01*
X229269314Y-97590484D02*
X229369314Y-97623817D01*
X229369314Y-97623817D02*
X229535981Y-97623817D01*
X227435982Y-96923817D02*
X227769315Y-96923817D01*
X227769315Y-96923817D02*
X227802648Y-97257150D01*
X227802648Y-97257150D02*
X227769315Y-97223817D01*
X227769315Y-97223817D02*
X227702648Y-97190484D01*
X227702648Y-97190484D02*
X227535982Y-97190484D01*
X227535982Y-97190484D02*
X227469315Y-97223817D01*
X227469315Y-97223817D02*
X227435982Y-97257150D01*
X227435982Y-97257150D02*
X227402648Y-97323817D01*
X227402648Y-97323817D02*
X227402648Y-97490484D01*
X227402648Y-97490484D02*
X227435982Y-97557150D01*
X227435982Y-97557150D02*
X227469315Y-97590484D01*
X227469315Y-97590484D02*
X227535982Y-97623817D01*
X227535982Y-97623817D02*
X227702648Y-97623817D01*
X227702648Y-97623817D02*
X227769315Y-97590484D01*
X227769315Y-97590484D02*
X227802648Y-97557150D01*
X227202648Y-96923817D02*
X226969315Y-97623817D01*
X226969315Y-97623817D02*
X226735981Y-96923817D01*
X226035982Y-96923817D02*
X225602648Y-96923817D01*
X225602648Y-96923817D02*
X225835982Y-97190484D01*
X225835982Y-97190484D02*
X225735982Y-97190484D01*
X225735982Y-97190484D02*
X225669315Y-97223817D01*
X225669315Y-97223817D02*
X225635982Y-97257150D01*
X225635982Y-97257150D02*
X225602648Y-97323817D01*
X225602648Y-97323817D02*
X225602648Y-97490484D01*
X225602648Y-97490484D02*
X225635982Y-97557150D01*
X225635982Y-97557150D02*
X225669315Y-97590484D01*
X225669315Y-97590484D02*
X225735982Y-97623817D01*
X225735982Y-97623817D02*
X225935982Y-97623817D01*
X225935982Y-97623817D02*
X226002648Y-97590484D01*
X226002648Y-97590484D02*
X226035982Y-97557150D01*
X225402648Y-96923817D02*
X225169315Y-97623817D01*
X225169315Y-97623817D02*
X224935981Y-96923817D01*
X210382585Y-97505233D02*
X210715918Y-97505233D01*
X210715918Y-97505233D02*
X210749251Y-97838566D01*
X210749251Y-97838566D02*
X210715918Y-97805233D01*
X210715918Y-97805233D02*
X210649251Y-97771900D01*
X210649251Y-97771900D02*
X210482585Y-97771900D01*
X210482585Y-97771900D02*
X210415918Y-97805233D01*
X210415918Y-97805233D02*
X210382585Y-97838566D01*
X210382585Y-97838566D02*
X210349251Y-97905233D01*
X210349251Y-97905233D02*
X210349251Y-98071900D01*
X210349251Y-98071900D02*
X210382585Y-98138566D01*
X210382585Y-98138566D02*
X210415918Y-98171900D01*
X210415918Y-98171900D02*
X210482585Y-98205233D01*
X210482585Y-98205233D02*
X210649251Y-98205233D01*
X210649251Y-98205233D02*
X210715918Y-98171900D01*
X210715918Y-98171900D02*
X210749251Y-98138566D01*
X210149251Y-97505233D02*
X209915918Y-98205233D01*
X209915918Y-98205233D02*
X209682584Y-97505233D01*
X208915918Y-98205233D02*
X208915918Y-97505233D01*
X208915918Y-97505233D02*
X208749251Y-97505233D01*
X208749251Y-97505233D02*
X208649251Y-97538566D01*
X208649251Y-97538566D02*
X208582585Y-97605233D01*
X208582585Y-97605233D02*
X208549251Y-97671900D01*
X208549251Y-97671900D02*
X208515918Y-97805233D01*
X208515918Y-97805233D02*
X208515918Y-97905233D01*
X208515918Y-97905233D02*
X208549251Y-98038566D01*
X208549251Y-98038566D02*
X208582585Y-98105233D01*
X208582585Y-98105233D02*
X208649251Y-98171900D01*
X208649251Y-98171900D02*
X208749251Y-98205233D01*
X208749251Y-98205233D02*
X208915918Y-98205233D01*
X208215918Y-97938566D02*
X207682585Y-97938566D01*
X206815918Y-98205233D02*
X206815918Y-97505233D01*
X206815918Y-97505233D02*
X206649251Y-97505233D01*
X206649251Y-97505233D02*
X206549251Y-97538566D01*
X206549251Y-97538566D02*
X206482585Y-97605233D01*
X206482585Y-97605233D02*
X206449251Y-97671900D01*
X206449251Y-97671900D02*
X206415918Y-97805233D01*
X206415918Y-97805233D02*
X206415918Y-97905233D01*
X206415918Y-97905233D02*
X206449251Y-98038566D01*
X206449251Y-98038566D02*
X206482585Y-98105233D01*
X206482585Y-98105233D02*
X206549251Y-98171900D01*
X206549251Y-98171900D02*
X206649251Y-98205233D01*
X206649251Y-98205233D02*
X206815918Y-98205233D01*
X206115918Y-97938566D02*
X205582585Y-97938566D01*
X205849251Y-98205233D02*
X205849251Y-97671900D01*
X204349251Y-97538566D02*
X204415918Y-97505233D01*
X204415918Y-97505233D02*
X204515918Y-97505233D01*
X204515918Y-97505233D02*
X204615918Y-97538566D01*
X204615918Y-97538566D02*
X204682585Y-97605233D01*
X204682585Y-97605233D02*
X204715918Y-97671900D01*
X204715918Y-97671900D02*
X204749251Y-97805233D01*
X204749251Y-97805233D02*
X204749251Y-97905233D01*
X204749251Y-97905233D02*
X204715918Y-98038566D01*
X204715918Y-98038566D02*
X204682585Y-98105233D01*
X204682585Y-98105233D02*
X204615918Y-98171900D01*
X204615918Y-98171900D02*
X204515918Y-98205233D01*
X204515918Y-98205233D02*
X204449251Y-98205233D01*
X204449251Y-98205233D02*
X204349251Y-98171900D01*
X204349251Y-98171900D02*
X204315918Y-98138566D01*
X204315918Y-98138566D02*
X204315918Y-97905233D01*
X204315918Y-97905233D02*
X204449251Y-97905233D01*
X202049252Y-97538566D02*
X202115919Y-97505233D01*
X202115919Y-97505233D02*
X202215919Y-97505233D01*
X202215919Y-97505233D02*
X202315919Y-97538566D01*
X202315919Y-97538566D02*
X202382586Y-97605233D01*
X202382586Y-97605233D02*
X202415919Y-97671900D01*
X202415919Y-97671900D02*
X202449252Y-97805233D01*
X202449252Y-97805233D02*
X202449252Y-97905233D01*
X202449252Y-97905233D02*
X202415919Y-98038566D01*
X202415919Y-98038566D02*
X202382586Y-98105233D01*
X202382586Y-98105233D02*
X202315919Y-98171900D01*
X202315919Y-98171900D02*
X202215919Y-98205233D01*
X202215919Y-98205233D02*
X202149252Y-98205233D01*
X202149252Y-98205233D02*
X202049252Y-98171900D01*
X202049252Y-98171900D02*
X202015919Y-98138566D01*
X202015919Y-98138566D02*
X202015919Y-97905233D01*
X202015919Y-97905233D02*
X202149252Y-97905233D01*
D10*
X237850033Y-111226193D02*
X236897653Y-111226193D01*
X237373843Y-111702383D02*
X237373843Y-110750002D01*
D12*
X165193504Y-136547219D02*
X164622076Y-136547219D01*
X164907790Y-137547219D02*
X164907790Y-136547219D01*
X164288742Y-137547219D02*
X164288742Y-136547219D01*
X164288742Y-136547219D02*
X163907790Y-136547219D01*
X163907790Y-136547219D02*
X163812552Y-136594838D01*
X163812552Y-136594838D02*
X163764933Y-136642457D01*
X163764933Y-136642457D02*
X163717314Y-136737695D01*
X163717314Y-136737695D02*
X163717314Y-136880552D01*
X163717314Y-136880552D02*
X163764933Y-136975790D01*
X163764933Y-136975790D02*
X163812552Y-137023409D01*
X163812552Y-137023409D02*
X163907790Y-137071028D01*
X163907790Y-137071028D02*
X164288742Y-137071028D01*
X163383980Y-136547219D02*
X162717314Y-136547219D01*
X162717314Y-136547219D02*
X163145885Y-137547219D01*
X161413723Y-137275219D02*
X161413723Y-137989504D01*
X161413723Y-137989504D02*
X161461342Y-138132361D01*
X161461342Y-138132361D02*
X161556580Y-138227600D01*
X161556580Y-138227600D02*
X161699437Y-138275219D01*
X161699437Y-138275219D02*
X161794675Y-138275219D01*
X160413723Y-138275219D02*
X160985151Y-138275219D01*
X160699437Y-138275219D02*
X160699437Y-137275219D01*
X160699437Y-137275219D02*
X160794675Y-137418076D01*
X160794675Y-137418076D02*
X160889913Y-137513314D01*
X160889913Y-137513314D02*
X160985151Y-137560933D01*
X159794675Y-137275219D02*
X159699437Y-137275219D01*
X159699437Y-137275219D02*
X159604199Y-137322838D01*
X159604199Y-137322838D02*
X159556580Y-137370457D01*
X159556580Y-137370457D02*
X159508961Y-137465695D01*
X159508961Y-137465695D02*
X159461342Y-137656171D01*
X159461342Y-137656171D02*
X159461342Y-137894266D01*
X159461342Y-137894266D02*
X159508961Y-138084742D01*
X159508961Y-138084742D02*
X159556580Y-138179980D01*
X159556580Y-138179980D02*
X159604199Y-138227600D01*
X159604199Y-138227600D02*
X159699437Y-138275219D01*
X159699437Y-138275219D02*
X159794675Y-138275219D01*
X159794675Y-138275219D02*
X159889913Y-138227600D01*
X159889913Y-138227600D02*
X159937532Y-138179980D01*
X159937532Y-138179980D02*
X159985151Y-138084742D01*
X159985151Y-138084742D02*
X160032770Y-137894266D01*
X160032770Y-137894266D02*
X160032770Y-137656171D01*
X160032770Y-137656171D02*
X159985151Y-137465695D01*
X159985151Y-137465695D02*
X159937532Y-137370457D01*
X159937532Y-137370457D02*
X159889913Y-137322838D01*
X159889913Y-137322838D02*
X159794675Y-137275219D01*
X238125333Y-95613819D02*
X238125333Y-96328104D01*
X238125333Y-96328104D02*
X238172952Y-96470961D01*
X238172952Y-96470961D02*
X238268190Y-96566200D01*
X238268190Y-96566200D02*
X238411047Y-96613819D01*
X238411047Y-96613819D02*
X238506285Y-96613819D01*
X237744380Y-95613819D02*
X237125333Y-95613819D01*
X237125333Y-95613819D02*
X237458666Y-95994771D01*
X237458666Y-95994771D02*
X237315809Y-95994771D01*
X237315809Y-95994771D02*
X237220571Y-96042390D01*
X237220571Y-96042390D02*
X237172952Y-96090009D01*
X237172952Y-96090009D02*
X237125333Y-96185247D01*
X237125333Y-96185247D02*
X237125333Y-96423342D01*
X237125333Y-96423342D02*
X237172952Y-96518580D01*
X237172952Y-96518580D02*
X237220571Y-96566200D01*
X237220571Y-96566200D02*
X237315809Y-96613819D01*
X237315809Y-96613819D02*
X237601523Y-96613819D01*
X237601523Y-96613819D02*
X237696761Y-96566200D01*
X237696761Y-96566200D02*
X237744380Y-96518580D01*
X169257504Y-136521819D02*
X168686076Y-136521819D01*
X168971790Y-137521819D02*
X168971790Y-136521819D01*
X168352742Y-137521819D02*
X168352742Y-136521819D01*
X168352742Y-136521819D02*
X167971790Y-136521819D01*
X167971790Y-136521819D02*
X167876552Y-136569438D01*
X167876552Y-136569438D02*
X167828933Y-136617057D01*
X167828933Y-136617057D02*
X167781314Y-136712295D01*
X167781314Y-136712295D02*
X167781314Y-136855152D01*
X167781314Y-136855152D02*
X167828933Y-136950390D01*
X167828933Y-136950390D02*
X167876552Y-136998009D01*
X167876552Y-136998009D02*
X167971790Y-137045628D01*
X167971790Y-137045628D02*
X168352742Y-137045628D01*
X166924171Y-136521819D02*
X167114647Y-136521819D01*
X167114647Y-136521819D02*
X167209885Y-136569438D01*
X167209885Y-136569438D02*
X167257504Y-136617057D01*
X167257504Y-136617057D02*
X167352742Y-136759914D01*
X167352742Y-136759914D02*
X167400361Y-136950390D01*
X167400361Y-136950390D02*
X167400361Y-137331342D01*
X167400361Y-137331342D02*
X167352742Y-137426580D01*
X167352742Y-137426580D02*
X167305123Y-137474200D01*
X167305123Y-137474200D02*
X167209885Y-137521819D01*
X167209885Y-137521819D02*
X167019409Y-137521819D01*
X167019409Y-137521819D02*
X166924171Y-137474200D01*
X166924171Y-137474200D02*
X166876552Y-137426580D01*
X166876552Y-137426580D02*
X166828933Y-137331342D01*
X166828933Y-137331342D02*
X166828933Y-137093247D01*
X166828933Y-137093247D02*
X166876552Y-136998009D01*
X166876552Y-136998009D02*
X166924171Y-136950390D01*
X166924171Y-136950390D02*
X167019409Y-136902771D01*
X167019409Y-136902771D02*
X167209885Y-136902771D01*
X167209885Y-136902771D02*
X167305123Y-136950390D01*
X167305123Y-136950390D02*
X167352742Y-136998009D01*
X167352742Y-136998009D02*
X167400361Y-137093247D01*
X274206619Y-123974266D02*
X274920904Y-123974266D01*
X274920904Y-123974266D02*
X275063761Y-123926647D01*
X275063761Y-123926647D02*
X275159000Y-123831409D01*
X275159000Y-123831409D02*
X275206619Y-123688552D01*
X275206619Y-123688552D02*
X275206619Y-123593314D01*
X274206619Y-124355219D02*
X274206619Y-125021885D01*
X274206619Y-125021885D02*
X275206619Y-124593314D01*
D13*
X270318894Y-139080518D02*
X270318894Y-139987661D01*
X270318894Y-139987661D02*
X270379371Y-140169089D01*
X270379371Y-140169089D02*
X270500323Y-140290042D01*
X270500323Y-140290042D02*
X270681752Y-140350518D01*
X270681752Y-140350518D02*
X270802704Y-140350518D01*
X269048894Y-140350518D02*
X269774609Y-140350518D01*
X269411752Y-140350518D02*
X269411752Y-139080518D01*
X269411752Y-139080518D02*
X269532704Y-139261946D01*
X269532704Y-139261946D02*
X269653656Y-139382899D01*
X269653656Y-139382899D02*
X269774609Y-139443375D01*
X268625561Y-139080518D02*
X267839370Y-139080518D01*
X267839370Y-139080518D02*
X268262704Y-139564327D01*
X268262704Y-139564327D02*
X268081275Y-139564327D01*
X268081275Y-139564327D02*
X267960323Y-139624803D01*
X267960323Y-139624803D02*
X267899847Y-139685280D01*
X267899847Y-139685280D02*
X267839370Y-139806232D01*
X267839370Y-139806232D02*
X267839370Y-140108613D01*
X267839370Y-140108613D02*
X267899847Y-140229565D01*
X267899847Y-140229565D02*
X267960323Y-140290042D01*
X267960323Y-140290042D02*
X268081275Y-140350518D01*
X268081275Y-140350518D02*
X268444132Y-140350518D01*
X268444132Y-140350518D02*
X268565085Y-140290042D01*
X268565085Y-140290042D02*
X268625561Y-140229565D01*
D14*
X277229866Y-138383409D02*
X277229866Y-138740552D01*
X277229866Y-138740552D02*
X277253675Y-138811980D01*
X277253675Y-138811980D02*
X277301294Y-138859600D01*
X277301294Y-138859600D02*
X277372723Y-138883409D01*
X277372723Y-138883409D02*
X277420342Y-138883409D01*
X276729866Y-138883409D02*
X277015580Y-138883409D01*
X276872723Y-138883409D02*
X276872723Y-138383409D01*
X276872723Y-138383409D02*
X276920342Y-138454838D01*
X276920342Y-138454838D02*
X276967961Y-138502457D01*
X276967961Y-138502457D02*
X277015580Y-138526266D01*
D12*
X160977819Y-126301666D02*
X161692104Y-126301666D01*
X161692104Y-126301666D02*
X161834961Y-126254047D01*
X161834961Y-126254047D02*
X161930200Y-126158809D01*
X161930200Y-126158809D02*
X161977819Y-126015952D01*
X161977819Y-126015952D02*
X161977819Y-125920714D01*
X160977819Y-127206428D02*
X160977819Y-127015952D01*
X160977819Y-127015952D02*
X161025438Y-126920714D01*
X161025438Y-126920714D02*
X161073057Y-126873095D01*
X161073057Y-126873095D02*
X161215914Y-126777857D01*
X161215914Y-126777857D02*
X161406390Y-126730238D01*
X161406390Y-126730238D02*
X161787342Y-126730238D01*
X161787342Y-126730238D02*
X161882580Y-126777857D01*
X161882580Y-126777857D02*
X161930200Y-126825476D01*
X161930200Y-126825476D02*
X161977819Y-126920714D01*
X161977819Y-126920714D02*
X161977819Y-127111190D01*
X161977819Y-127111190D02*
X161930200Y-127206428D01*
X161930200Y-127206428D02*
X161882580Y-127254047D01*
X161882580Y-127254047D02*
X161787342Y-127301666D01*
X161787342Y-127301666D02*
X161549247Y-127301666D01*
X161549247Y-127301666D02*
X161454009Y-127254047D01*
X161454009Y-127254047D02*
X161406390Y-127206428D01*
X161406390Y-127206428D02*
X161358771Y-127111190D01*
X161358771Y-127111190D02*
X161358771Y-126920714D01*
X161358771Y-126920714D02*
X161406390Y-126825476D01*
X161406390Y-126825476D02*
X161454009Y-126777857D01*
X161454009Y-126777857D02*
X161549247Y-126730238D01*
D10*
X272046647Y-132325400D02*
X272046647Y-132770638D01*
X272046647Y-132770638D02*
X272020457Y-132823019D01*
X272020457Y-132823019D02*
X271994266Y-132849210D01*
X271994266Y-132849210D02*
X271941885Y-132875400D01*
X271941885Y-132875400D02*
X271837123Y-132875400D01*
X271837123Y-132875400D02*
X271784742Y-132849210D01*
X271784742Y-132849210D02*
X271758552Y-132823019D01*
X271758552Y-132823019D02*
X271732361Y-132770638D01*
X271732361Y-132770638D02*
X271732361Y-132325400D01*
X271522838Y-132325400D02*
X271156171Y-132325400D01*
X271156171Y-132325400D02*
X271391886Y-132875400D01*
D12*
X199862319Y-95303476D02*
X200576604Y-95303476D01*
X200576604Y-95303476D02*
X200719461Y-95255857D01*
X200719461Y-95255857D02*
X200814700Y-95160619D01*
X200814700Y-95160619D02*
X200862319Y-95017762D01*
X200862319Y-95017762D02*
X200862319Y-94922524D01*
X200862319Y-96303476D02*
X200862319Y-95732048D01*
X200862319Y-96017762D02*
X199862319Y-96017762D01*
X199862319Y-96017762D02*
X200005176Y-95922524D01*
X200005176Y-95922524D02*
X200100414Y-95827286D01*
X200100414Y-95827286D02*
X200148033Y-95732048D01*
X200862319Y-97255857D02*
X200862319Y-96684429D01*
X200862319Y-96970143D02*
X199862319Y-96970143D01*
X199862319Y-96970143D02*
X200005176Y-96874905D01*
X200005176Y-96874905D02*
X200100414Y-96779667D01*
X200100414Y-96779667D02*
X200148033Y-96684429D01*
D15*
%TO.C,SW14*%
X222833657Y-133609400D02*
G75*
G02*
X222633657Y-133609400I-100000J0D01*
G01*
X222633657Y-133609400D02*
G75*
G02*
X222833657Y-133609400I100000J0D01*
G01*
D16*
X221033657Y-136664400D02*
X221033657Y-134304400D01*
X220733657Y-138034400D02*
X216233657Y-138034400D01*
X220733657Y-132934400D02*
X216233657Y-132934400D01*
X215933657Y-134304400D02*
X215933657Y-136664400D01*
D10*
%TO.C,TP7*%
X165131600Y-140290400D02*
X162731600Y-140290400D01*
X165131600Y-137890400D02*
X165131600Y-140290400D01*
X162731600Y-140290400D02*
X162731600Y-137890400D01*
X162731600Y-137890400D02*
X165131600Y-137890400D01*
D15*
%TO.C,J10*%
X167188600Y-138839800D02*
G75*
G02*
X166988600Y-138839800I-100000J0D01*
G01*
X166988600Y-138839800D02*
G75*
G02*
X167188600Y-138839800I100000J0D01*
G01*
D16*
X167863600Y-140351800D02*
X167863600Y-139614800D01*
X167063600Y-139614800D02*
X167863600Y-139614800D01*
X167063600Y-139314800D02*
X167063600Y-139614800D01*
X166926600Y-139314800D02*
X167063600Y-139314800D01*
X165177600Y-142014800D02*
X166749600Y-142014800D01*
X165000600Y-139314800D02*
X164863600Y-139314800D01*
X164863600Y-139614800D02*
X164863600Y-139314800D01*
X164063600Y-140351800D02*
X164063600Y-139614800D01*
X164063600Y-139614800D02*
X164863600Y-139614800D01*
D10*
%TO.C,J3*%
X236438000Y-96965000D02*
X236438000Y-94845000D01*
X236438000Y-96965000D02*
X226378000Y-96965000D01*
X236438000Y-94845000D02*
X226378000Y-94845000D01*
X226378000Y-96965000D02*
X226378000Y-94845000D01*
X224318000Y-95905000D02*
X224318000Y-94845000D01*
X224318000Y-94845000D02*
X225378000Y-94845000D01*
%TO.C,TP1*%
X277755200Y-140290400D02*
X275355200Y-140290400D01*
X277755200Y-137890400D02*
X277755200Y-140290400D01*
X275355200Y-140290400D02*
X275355200Y-137890400D01*
X275355200Y-137890400D02*
X277755200Y-137890400D01*
%TO.C,TP6*%
X169195600Y-140265000D02*
X166795600Y-140265000D01*
X169195600Y-137865000D02*
X169195600Y-140265000D01*
X166795600Y-140265000D02*
X166795600Y-137865000D01*
X166795600Y-137865000D02*
X169195600Y-137865000D01*
%TO.C,J7*%
X281611600Y-129995000D02*
X281611600Y-128745000D01*
X281511600Y-128235000D02*
X281511600Y-127935000D01*
X281511600Y-127935000D02*
X281311600Y-127935000D01*
X281411600Y-128235000D02*
X281411600Y-127935000D01*
X281311600Y-129695000D02*
X281311600Y-123575000D01*
X281311600Y-128235000D02*
X281511600Y-128235000D01*
X281311600Y-126135000D02*
X280701600Y-126135000D01*
X281311600Y-123575000D02*
X276591600Y-123575000D01*
X280701600Y-129085000D02*
X280701600Y-127135000D01*
X280701600Y-127135000D02*
X281311600Y-127135000D01*
X280701600Y-126135000D02*
X280701600Y-124185000D01*
X280701600Y-124185000D02*
X277201600Y-124185000D01*
X280361600Y-129995000D02*
X281611600Y-129995000D01*
X280001600Y-129085000D02*
X280001600Y-129695000D01*
X280001600Y-124185000D02*
X280001600Y-123575000D01*
X278701600Y-129085000D02*
X278701600Y-129695000D01*
X278701600Y-124185000D02*
X278701600Y-123575000D01*
X277701600Y-126735000D02*
X277201600Y-126735000D01*
X277701600Y-126635000D02*
X277201600Y-126635000D01*
X277701600Y-126535000D02*
X277701600Y-126735000D01*
X277201600Y-129085000D02*
X280701600Y-129085000D01*
X277201600Y-126535000D02*
X277701600Y-126535000D01*
X277201600Y-124185000D02*
X277201600Y-129085000D01*
X276591600Y-129695000D02*
X281311600Y-129695000D01*
X276591600Y-123575000D02*
X276591600Y-129695000D01*
D17*
%TO.C,J13*%
X270490800Y-137476200D02*
G75*
G02*
X270490800Y-137376200I0J50000D01*
G01*
X270490800Y-137376200D02*
G75*
G02*
X270490800Y-137476200I0J-50000D01*
G01*
D15*
X271640800Y-140176200D02*
X271640800Y-137976200D01*
X271640800Y-137976200D02*
X271090800Y-137976200D01*
D17*
X270490800Y-137476200D02*
X270490800Y-137476200D01*
X270490800Y-137376200D02*
X270490800Y-137376200D01*
D15*
X267690800Y-141576200D02*
X270890800Y-141576200D01*
X266940800Y-140176200D02*
X266940800Y-137976200D01*
X266940800Y-137976200D02*
X267690800Y-137976200D01*
D17*
%TO.C,RV2*%
X248483657Y-114059400D02*
X248483657Y-114684400D01*
X248483657Y-111874400D02*
X248483657Y-97934400D01*
X246073657Y-97934400D02*
X248483657Y-97934400D01*
X238483657Y-114684400D02*
X248483657Y-114684400D01*
X238483657Y-114054400D02*
X238483657Y-114684400D01*
X238483657Y-111874400D02*
X238483657Y-97934400D01*
X238483657Y-97934400D02*
X240893657Y-97934400D01*
D10*
%TO.C,TP2*%
X281399742Y-140296669D02*
X278999742Y-140296669D01*
X281399742Y-137896669D02*
X281399742Y-140296669D01*
X278999742Y-140296669D02*
X278999742Y-137896669D01*
X278999742Y-137896669D02*
X281399742Y-137896669D01*
D15*
%TO.C,J1*%
X279609000Y-138839800D02*
G75*
G02*
X279409000Y-138839800I-100000J0D01*
G01*
X279409000Y-138839800D02*
G75*
G02*
X279609000Y-138839800I100000J0D01*
G01*
D16*
X280284000Y-140351800D02*
X280284000Y-139614800D01*
X279484000Y-139614800D02*
X280284000Y-139614800D01*
X279484000Y-139314800D02*
X279484000Y-139614800D01*
X279347000Y-139314800D02*
X279484000Y-139314800D01*
X277598000Y-142014800D02*
X279170000Y-142014800D01*
X277421000Y-139314800D02*
X277284000Y-139314800D01*
X277284000Y-139614800D02*
X277284000Y-139314800D01*
X276484000Y-140351800D02*
X276484000Y-139614800D01*
X276484000Y-139614800D02*
X277284000Y-139614800D01*
D10*
%TO.C,J6*%
X160733000Y-129995000D02*
X160733000Y-128745000D01*
X160633000Y-128235000D02*
X160633000Y-127935000D01*
X160633000Y-127935000D02*
X160433000Y-127935000D01*
X160533000Y-128235000D02*
X160533000Y-127935000D01*
X160433000Y-129695000D02*
X160433000Y-123575000D01*
X160433000Y-128235000D02*
X160633000Y-128235000D01*
X160433000Y-126135000D02*
X159823000Y-126135000D01*
X160433000Y-123575000D02*
X155713000Y-123575000D01*
X159823000Y-129085000D02*
X159823000Y-127135000D01*
X159823000Y-127135000D02*
X160433000Y-127135000D01*
X159823000Y-126135000D02*
X159823000Y-124185000D01*
X159823000Y-124185000D02*
X156323000Y-124185000D01*
X159483000Y-129995000D02*
X160733000Y-129995000D01*
X159123000Y-129085000D02*
X159123000Y-129695000D01*
X159123000Y-124185000D02*
X159123000Y-123575000D01*
X157823000Y-129085000D02*
X157823000Y-129695000D01*
X157823000Y-124185000D02*
X157823000Y-123575000D01*
X156823000Y-126735000D02*
X156323000Y-126735000D01*
X156823000Y-126635000D02*
X156323000Y-126635000D01*
X156823000Y-126535000D02*
X156823000Y-126735000D01*
X156323000Y-129085000D02*
X159823000Y-129085000D01*
X156323000Y-126535000D02*
X156823000Y-126535000D01*
X156323000Y-124185000D02*
X156323000Y-129085000D01*
X155713000Y-129695000D02*
X160433000Y-129695000D01*
X155713000Y-123575000D02*
X155713000Y-129695000D01*
%TO.C,U7*%
X273840100Y-133642200D02*
X273600100Y-133312200D01*
X274080100Y-133312200D01*
X273840100Y-133642200D01*
G36*
X273840100Y-133642200D02*
G01*
X273600100Y-133312200D01*
X274080100Y-133312200D01*
X273840100Y-133642200D01*
G37*
X273127600Y-136687200D02*
X271627600Y-136687200D01*
X273127600Y-133467200D02*
X271627600Y-133467200D01*
X270127600Y-136687200D02*
X271627600Y-136687200D01*
X270127600Y-133467200D02*
X271627600Y-133467200D01*
D17*
%TO.C,RV1*%
X198483657Y-114059400D02*
X198483657Y-114684400D01*
X198483657Y-111874400D02*
X198483657Y-97934400D01*
X196073657Y-97934400D02*
X198483657Y-97934400D01*
X188483657Y-114684400D02*
X198483657Y-114684400D01*
X188483657Y-114054400D02*
X188483657Y-114684400D01*
X188483657Y-111874400D02*
X188483657Y-97934400D01*
X188483657Y-97934400D02*
X190893657Y-97934400D01*
D10*
%TO.C,J11*%
X211527500Y-97173000D02*
X211527500Y-95053000D01*
X211527500Y-97173000D02*
X203467500Y-97173000D01*
X211527500Y-95053000D02*
X203467500Y-95053000D01*
X203467500Y-97173000D02*
X203467500Y-95053000D01*
X201407500Y-96113000D02*
X201407500Y-95053000D01*
X201407500Y-95053000D02*
X202467500Y-95053000D01*
%TD*%
M02*
